<?xml version="1.0" encoding="utf-8"?>
<!-- Generator: Adobe Illustrator 18.1.1, SVG Export Plug-In . SVG Version: 6.00 Build 0)  -->
<svg version="1.1" id="Layer_1" xmlns="http://www.w3.org/2000/svg" xmlns:xlink="http://www.w3.org/1999/xlink" x="0px" y="0px"
	 viewBox="46 5 509 590" enable-background="new 46 5 509 590" xml:space="preserve">
<g>
	<polygon fill="#F79938" points="552.6,447.8 300.2,594.8 48.2,447.8 48.2,154.1 300.2,7.5 552.6,154.1 	"/>
	<polygon fill="#FFFFFF" points="112.3,410.6 112.3,191.6 300.2,82.1 488.4,191.6 488.4,410.6 300.2,520.1 	"/>
	<polygon fill="#F1F1F2" points="123.9,403.9 123.9,198.4 300.2,95.6 476.8,198.4 476.8,403.9 300.2,506.6 	"/>
	<polygon fill="#E2E3E4" points="300.2,95.6 300.2,506.6 476.8,403.9 476.8,198.4 	"/>
	<g enable-background="new    ">
		<path fill="#13BDCE" d="M340,358.9h-89l-17.2,54.7h-51.4l87.2-253.5h52.1l86.9,253.5h-51.4L340,358.9z M263.5,319h63.9l-31.3-99.6
			h-1L263.5,319z"/>
	</g>
</g>
</svg>
