<?xml version="1.0" encoding="utf-8"?>
<!-- Generator: Adobe Illustrator 18.1.1, SVG Export Plug-In . SVG Version: 6.00 Build 0)  -->
<svg version="1.1" id="Layer_1" xmlns="http://www.w3.org/2000/svg" xmlns:xlink="http://www.w3.org/1999/xlink" x="0px" y="0px"
	 viewBox="44 0 510 600" enable-background="new 44 0 510 600" xml:space="preserve">
<g>
	<polygon fill="#13BDCE" points="554.1,450.7 298.8,599 44,450.7 44,153.9 298.8,5.6 554.1,153.9 	"/>
	<polygon fill="#FFFFFF" points="108.8,413.3 108.8,191.8 298.8,81 489.1,191.8 489.1,413.3 298.8,524 	"/>
	<polygon fill="#F1F1F2" points="120.6,406.4 120.6,198.5 298.8,94.8 477.4,198.5 477.4,406.4 298.8,509.9 	"/>
	<polygon fill="none" points="298.8,94.8 298.8,509.9 477.4,406.4 477.4,198.5 	"/>
	<polygon fill="#E2E3E4" points="298.8,95.7 298.8,512.1 477.8,408 477.8,199.8 	"/>
	<g enable-background="new    ">
		<path fill="#13BDCE" d="M339.1,360.8h-89.9l-17.4,55.3h-51.9L268,159.8h52.6l87.8,256.3h-51.9L339.1,360.8z M261.8,320.5h64.6
			l-31.8-100.8h-1L261.8,320.5z"/>
	</g>
</g>
</svg>
