<?xml version="1.0" encoding="utf-8"?>
<!-- Generator: Adobe Illustrator 18.1.1, SVG Export Plug-In . SVG Version: 6.00 Build 0)  -->
<svg version="1.1" id="Layer_1" xmlns="http://www.w3.org/2000/svg" xmlns:xlink="http://www.w3.org/1999/xlink" x="0px" y="0px"
	 viewBox="46 4 511 596" enable-background="new 46 4 511 596" xml:space="preserve">
<g>
	<polygon fill="#42AD4A" points="555.3,449.4 301.3,597.4 47.7,449.4 47.7,154.3 301.3,6.4 555.3,154.3 	"/>
	<polygon fill="#FFFFFF" points="112.3,412.1 112.3,191.7 301.3,81.5 490.8,191.7 490.8,412.1 301.3,522.3 	"/>
	<polygon fill="#F1F1F2" points="124,405.3 124,198.5 301.3,95.1 479.1,198.5 479.1,405.3 301.3,508.7 	"/>
	<polygon fill="#E2E3E4" points="301.3,95.1 301.3,508.7 479.1,405.3 479.1,198.5 	"/>
	<g enable-background="new    ">
		<path fill="#13BDCE" d="M341.4,360.1h-89.5l-17.3,55h-51.7L270.6,160H323l87.4,255.1h-51.7L341.4,360.1z M264.5,320h64.3
			l-31.5-100.2h-1.1L264.5,320z"/>
	</g>
</g>
</svg>
