<?xml version="1.0" encoding="utf-8"?>
<!-- Generator: Adobe Illustrator 18.1.1, SVG Export Plug-In . SVG Version: 6.00 Build 0)  -->
<svg version="1.1" id="Layer_1" xmlns="http://www.w3.org/2000/svg" xmlns:xlink="http://www.w3.org/1999/xlink" x="0px" y="0px"
	 viewBox="44 5 513 595" enable-background="new 44 5 513 595" xml:space="preserve">
<g>
	<polygon fill="#F79938" points="554.9,451.5 300.9,599 47.4,451.5 47.4,156 300.9,8.1 554.9,156 	"/>
	<polygon fill="#FFFFFF" points="111.9,413.7 111.9,193.3 300.9,83.2 490.4,193.3 490.4,413.7 300.9,523.9 	"/>
	<polygon fill="#F1F1F2" points="123.6,406.9 123.6,200.1 300.9,96.7 478.7,200.1 478.7,406.9 300.9,510.3 	"/>
	<polygon fill="#E2E3E4" points="300.9,96.7 300.9,510.3 478.7,406.9 478.7,200.1 	"/>
	<g enable-background="new    ">
		<path fill="#13BDCE" d="M213.6,431.6V176.5h86.2c30,0,53.4,5.8,70.3,17.5c16.8,11.7,25.2,29.1,25.2,52.4c0,11.8-3.1,22.3-9.4,31.6
			c-6.2,9.3-15.3,16.3-27.2,20.9c15.3,3.3,26.8,10.3,34.4,21s11.5,23.2,11.5,37.3c0,24.4-8.1,42.9-24.2,55.5s-39,18.8-68.5,18.8
			h-98.3V431.6z M264.8,283.4h36.8c13.7,0,24.2-2.8,31.5-8.4c7.4-5.6,11-13.8,11-24.5c0-11.8-3.7-20.5-11.1-26.1s-18.5-8.4-33.2-8.4
			h-35L264.8,283.4L264.8,283.4z M264.8,318.8v73.4h47.1c13.5,0,23.9-2.9,31-8.8s10.7-14.6,10.7-26.1c0-12.5-3-22-9.1-28.6
			s-15.7-9.9-28.7-9.9H264.8z"/>
	</g>
</g>
</svg>
