<?xml version="1.0" encoding="utf-8"?>
<!-- Generator: Adobe Illustrator 18.1.1, SVG Export Plug-In . SVG Version: 6.00 Build 0)  -->
<svg version="1.1" id="Layer_1" xmlns="http://www.w3.org/2000/svg" xmlns:xlink="http://www.w3.org/1999/xlink" x="0px" y="0px"
	 viewBox="44 0 512 600" enable-background="new 44 0 512 600" xml:space="preserve">
<g>
	<polygon fill="#13BDCE" points="555.5,448.6 301.1,596.6 46.4,448.6 46.4,152.2 301.1,3.8 555.5,152.2 	"/>
	<polygon fill="#FFFFFF" points="111.1,410.7 111.1,189.7 301.1,79.1 490.8,189.7 490.8,410.7 301.1,521.3 	"/>
	<polygon fill="#F1F1F2" points="122.8,403.9 122.8,196.5 301.1,93.1 479.1,196.5 479.1,403.9 301.1,507.6 	"/>
	<polygon fill="#E2E3E4" points="301.1,93.1 301.1,507.6 479.1,403.9 479.1,196.5 	"/>
	<g enable-background="new    ">
		<path fill="#13BDCE" d="M213.3,428.7V172.8h86.5c30.1,0,53.6,5.9,70.5,17.6c16.9,11.7,25.3,29.2,25.3,52.5
			c0,11.8-3.1,22.4-9.4,31.7s-15.4,16.3-27.3,21c15.3,3.3,26.9,10.3,34.5,21.1c7.7,10.8,11.5,23.3,11.5,37.4
			c0,24.5-8.1,43-24.3,55.6c-16.2,12.6-39.1,18.9-68.7,18.9h-98.6V428.7z M264.6,280h36.9c13.7,0,24.3-2.8,31.6-8.4
			c7.4-5.6,11.1-13.8,11.1-24.6c0-11.8-3.7-20.6-11.2-26.2c-7.4-5.6-18.5-8.4-33.3-8.4h-35.2V280H264.6z M264.6,315.5v73.6h47.3
			c13.6,0,24-2.9,31.1-8.9c7.1-5.9,10.7-14.6,10.7-26.2c0-12.5-3-22.1-9.1-28.7s-15.7-9.9-28.8-9.9h-51.2V315.5z"/>
	</g>
</g>
</svg>
