<?xml version="1.0" encoding="utf-8"?>
<!-- Generator: Adobe Illustrator 18.1.1, SVG Export Plug-In . SVG Version: 6.00 Build 0)  -->
<svg version="1.1" id="Layer_1" xmlns="http://www.w3.org/2000/svg" xmlns:xlink="http://www.w3.org/1999/xlink" x="0px" y="0px"
	 viewBox="43 0 514 600" enable-background="new 43 0 514 600" xml:space="preserve">
<g>
	<polygon fill="#42AD4A" points="556.3,449.6 301.1,598.5 45.6,449.6 45.6,152.3 301.1,3.8 556.3,152.3 	"/>
	<polygon fill="#FFFFFF" points="110.5,412 110.5,190.3 301.1,79.4 491.4,190.3 491.4,412 301.1,522.9 	"/>
	<polygon fill="#F1F1F2" points="122.3,405.2 122.3,197.1 301.1,93 479.6,197.1 479.6,405.2 301.1,509.2 	"/>
	<polygon fill="#E2E3E4" points="301.1,93 301.1,509.2 479.6,405.2 479.6,197.1 	"/>
	<g enable-background="new    ">
		<path fill="#13BDCE" d="M213,429.9V173.2h86.7c30.2,0,53.8,5.9,70.7,17.6c16.9,11.8,25.4,29.3,25.4,52.7c0,11.9-3.1,22.5-9.4,31.8
			S371,291.7,359,296.4c15.4,3.3,26.9,10.3,34.6,21.2c7.7,10.8,11.5,23.3,11.5,37.6c0,24.6-8.1,43.2-24.3,55.8
			c-16.2,12.6-39.2,19-68.9,19H213V429.9z M264.5,280.7h37c13.8,0,24.3-2.8,31.7-8.5c7.4-5.6,11.1-13.9,11.1-24.7
			c0-11.9-3.7-20.6-11.2-26.3c-7.5-5.6-18.6-8.5-33.4-8.5h-35.3L264.5,280.7L264.5,280.7z M264.5,316.3v73.9h47.4
			c13.6,0,24-3,31.2-8.9s10.8-14.7,10.8-26.3c0-12.5-3.1-22.1-9.2-28.8c-6.1-6.6-15.8-9.9-28.9-9.9L264.5,316.3L264.5,316.3z"/>
	</g>
</g>
</svg>
