<?xml version="1.0" encoding="utf-8"?>
<!-- Generator: Adobe Illustrator 18.1.1, SVG Export Plug-In . SVG Version: 6.00 Build 0)  -->
<svg version="1.1" id="Layer_1" xmlns="http://www.w3.org/2000/svg" xmlns:xlink="http://www.w3.org/1999/xlink" x="0px" y="0px"
	 viewBox="0 0 190.8 169.7" enable-background="new 0 0 190.8 169.7" xml:space="preserve">
<g>
	<path fill="#662E91" d="M107.9,155.6c0,7.6-5.4,13.7-12.1,13.7c-6.7,0-12.1-6.1-12.1-13.7c0-0.5,0-1.1,0.1-1.6
		c4.7,0.2,9.6,0.2,14.5,0.2c3.2,0,6.4,0,9.6-0.1C107.8,154.6,107.9,155.1,107.9,155.6"/>
	<path fill="#FFC24D" d="M91.1,12.7c0-3.4,2.1-6.1,4.7-6.1c2.6,0,4.7,2.7,4.7,6.1c0,0.2,0,0.4,0,0.6c-1.5-0.2-3.1-0.3-4.7-0.3h0h0
		c-1.6,0-3.1,0.1-4.7,0.3C91.1,13.1,91.1,12.9,91.1,12.7 M151.2,127.4c-5-8.4-12.1-24.3-14.8-49.4l-1-20c0-21.1-12.9-38.9-30.3-43.7
		c0.1-0.5,0.1-1.1,0.1-1.6c0-6.4-4.3-11.6-9.5-11.6c-5.3,0-9.5,5.2-9.5,11.6c0,0.5,0,1.1,0.1,1.6C68.9,19.1,56,36.9,56,58l-1,20
		c-2.6,25.1-9.8,41-14.8,49.4c-15.3,3.1-17.4,6.6-17.4,9.5c0,3.2,2.6,7.2,22.5,10.4c13.5,2.2,31.4,3.4,50.4,3.4
		c19,0,36.9-1.2,50.4-3.4c20-3.2,22.5-7.3,22.5-10.4C168.6,134,166.5,130.5,151.2,127.4"/>
	<path fill="#662E91" d="M12.4,77.6c0,13.2,3.2,25.7,8.8,36.6l-9.6,6.4C4.8,107.8,1,93.1,1,77.6c0-22.5,8-43.1,21.3-58.8l7.5,9.1
		C18.9,41.4,12.4,58.7,12.4,77.6"/>
	<path fill="#A382BD" d="M31,76.9c0,9.6,2.2,18.7,6.2,26.8l-9.3,6.1c-5.1-9.8-7.9-21-7.9-32.9c0-16.3,5.4-31.3,14.5-43.3l7.3,8.8
		C35,52.1,31,64,31,76.9"/>
	<path fill="#662E91" d="M179.1,77.6c0,13.2-3.2,25.7-8.8,36.6l9.6,6.4c6.8-12.8,10.6-27.4,10.6-42.9c0-22.5-8-43.1-21.3-58.8
		l-7.5,9.1C172.6,41.4,179.1,58.7,179.1,77.6"/>
	<path fill="#A382BD" d="M160.5,76.9c0,9.6-2.2,18.7-6.2,26.8l9.3,6.1c5.1-9.8,7.9-21,7.9-32.9c0-16.3-5.4-31.3-14.5-43.3l-7.3,8.8
		C156.5,52.1,160.5,64,160.5,76.9"/>
	<path fill="#FFFFFF" d="M105.8,26.2c0,0,21.6,3.9,21.6,27.7C123.8,45.2,116.6,33.7,105.8,26.2"/>
</g>
</svg>
