<?xml version="1.0" encoding="utf-8"?>
<!-- Generator: Adobe Illustrator 18.1.1, SVG Export Plug-In . SVG Version: 6.00 Build 0)  -->
<svg version="1.1" id="Layer_1" xmlns="http://www.w3.org/2000/svg" xmlns:xlink="http://www.w3.org/1999/xlink" x="0px" y="0px"
	 viewBox="47 3 512 597" enable-background="new 47 3 512 597" xml:space="preserve">
<g>
	<polygon fill="#F79938" points="556.6,450.6 303,598.5 49.1,450.6 49.1,155.1 303,7.5 556.6,155.1 	"/>
	<polygon fill="#FFFFFF" points="113.6,413.2 113.6,192.8 303,82.6 492.1,192.8 492.1,413.2 303,523.4 	"/>
	<polygon fill="#F1F1F2" points="125.3,406.4 125.3,199.6 303,96.2 480.4,199.6 480.4,406.4 303,509.8 	"/>
	<polygon fill="#E2E3E4" points="303,96.2 303,509.8 480.4,406.4 480.4,199.6 	"/>
	<g enable-background="new    ">
		<path fill="#13BDCE" d="M398.2,344l0.4,1.1c0.5,27.4-7.9,49.2-25.1,65.3s-41.1,24.2-71.7,24.2c-30.7,0-55.7-9.9-74.8-29.6
			c-19.2-19.7-28.7-45.1-28.7-76.2v-50.6c0-30.9,9.3-56.4,28-76.2c18.7-19.9,43-29.8,72.9-29.8c31.5,0,56.2,8.1,73.9,24.3
			c17.8,16.2,26.4,38.2,25.9,66.1l-0.4,1.1h-49.8c0-16.8-4-29.7-12.1-38.6c-8.1-8.9-20.6-13.4-37.7-13.4c-15.3,0-27.4,6.2-36.4,18.6
			c-9,12.4-13.5,28.3-13.5,47.5v50.9c0,19.5,4.7,35.4,14.2,47.9c9.5,12.4,22.3,18.6,38.4,18.6c16,0,27.8-4.3,35.5-12.9
			c7.6-8.6,11.5-21.3,11.5-38.3L398.2,344L398.2,344z"/>
	</g>
</g>
</svg>
