<?xml version="1.0" encoding="utf-8"?>
<!-- Generator: Adobe Illustrator 18.1.1, SVG Export Plug-In . SVG Version: 6.00 Build 0)  -->
<svg version="1.1" id="Layer_1" xmlns="http://www.w3.org/2000/svg" xmlns:xlink="http://www.w3.org/1999/xlink" x="0px" y="0px"
	 viewBox="45 3 510 594" enable-background="new 45 3 510 594" xml:space="preserve">
<g>
	<polygon fill="#13BDCE" points="553,448.6 300.6,595.9 47.7,448.6 47.7,154.4 300.6,7.5 553,154.4 	"/>
	<polygon fill="#FFFFFF" points="112,411.4 112,192 300.6,82.3 488.8,192 488.8,411.4 300.6,521.1 	"/>
	<polygon fill="#F1F1F2" points="123.6,404.6 123.6,198.7 300.6,95.8 477.1,198.7 477.1,404.6 300.6,507.6 	"/>
	<polygon fill="#E2E3E4" points="300.6,95.8 300.6,507.6 477.1,404.6 477.1,198.7 	"/>
	<g enable-background="new    ">
		<path fill="#13BDCE" d="M395.3,342.5l0.3,1c0.5,27.3-7.9,49-25,65.1c-17.2,16-41,24.1-71.4,24.1c-30.6,0-55.4-9.8-74.5-29.5
			s-28.6-44.9-28.6-75.9V277c0-30.8,9.3-56.1,27.9-75.9s42.8-29.7,72.6-29.7c31.4,0,55.9,8.1,73.6,24.2s26.3,38.1,25.8,65.8l-0.3,1
			h-49.5c0-16.7-4-29.6-12-38.5s-20.5-13.3-37.5-13.3c-15.2,0-27.3,6.2-36.3,18.6c-9,12.4-13.4,28.1-13.4,47.3v50.7
			c0,19.4,4.7,35.3,14.1,47.7c9.4,12.4,22.2,18.6,38.2,18.6c15.9,0,27.7-4.3,35.3-12.8c7.6-8.5,11.4-21.3,11.4-38.1h49.3V342.5z"/>
	</g>
</g>
</svg>
