<?xml version="1.0" encoding="utf-8"?>
<!-- Generator: Adobe Illustrator 18.1.1, SVG Export Plug-In . SVG Version: 6.00 Build 0)  -->
<svg version="1.1" id="Layer_1" xmlns="http://www.w3.org/2000/svg" xmlns:xlink="http://www.w3.org/1999/xlink" x="0px" y="0px"
	 viewBox="43 0 514 596" enable-background="new 43 0 514 596" xml:space="preserve">
<g>
	<polygon fill="#42AD4A" points="555.3,447.6 300.6,596 45.8,447.6 45.8,151.2 300.6,3.2 555.3,151.2 	"/>
	<polygon fill="#FFFFFF" points="110.5,410.1 110.5,189.1 300.6,78.5 490.6,189.1 490.6,410.1 300.6,520.7 	"/>
	<polygon fill="#F1F1F2" points="122.6,403.3 122.6,195.9 300.6,92.1 478.5,195.9 478.5,403.3 300.6,507 	"/>
	<polygon fill="#E2E3E4" points="300.6,92.1 300.6,507 478.5,403.3 478.5,195.9 	"/>
	<g enable-background="new    ">
		<path fill="#13BDCE" d="M396.2,340.7l0.4,1.1c0.5,27.5-7.9,49.4-25.2,65.6c-17.3,16.2-41.3,24.3-72,24.3c-30.8,0-55.8-9.9-75-29.7
			c-19.2-19.8-28.8-45.3-28.8-76.5v-50.8c0-31,9.4-56.5,28.1-76.5c18.7-19.9,43.1-29.9,73.1-29.9c31.6,0,56.4,8.1,74.2,24.3
			c17.8,16.2,26.5,38.3,26,66.3l-0.4,1.1h-49.9c0-16.9-4-29.8-12.1-38.8s-20.7-13.4-37.8-13.4c-15.4,0-27.5,6.2-36.6,18.7
			c-9,12.5-13.5,28.4-13.5,47.7v51.1c0,19.5,4.7,35.6,14.2,48c9.5,12.5,22.3,18.7,38.5,18.7c16.1,0,27.9-4.3,35.6-12.9
			s11.5-21.4,11.5-38.4L396.2,340.7L396.2,340.7z"/>
	</g>
</g>
</svg>
