<?xml version="1.0" encoding="utf-8"?>
<!-- Generator: Adobe Illustrator 18.1.1, SVG Export Plug-In . SVG Version: 6.00 Build 0)  -->
<svg version="1.1" id="Layer_1" xmlns="http://www.w3.org/2000/svg" xmlns:xlink="http://www.w3.org/1999/xlink" x="0px" y="0px"
	 viewBox="0 0 252.7 166.3" enable-background="new 0 0 252.7 166.3" xml:space="preserve">
<g>
	
		<rect x="91.9" y="17.9" transform="matrix(0.9936 0.1132 -0.1132 0.9936 11.0062 -18.5189)" fill="#E8E8ED" width="153.4" height="139.4"/>
	
		<rect x="91.9" y="17.9" transform="matrix(0.9936 0.1132 -0.1132 0.9936 11.0062 -18.5189)" fill="none" stroke="#FFFFFF" stroke-width="1.631" stroke-miterlimit="10" width="153.4" height="139.4"/>
	
		<rect x="97.7" y="18.3" transform="matrix(0.9936 0.1132 -0.1132 0.9936 5.2247 -19.5123)" fill="#F23812" width="153.4" height="36"/>
	
		<rect x="97.7" y="18.3" transform="matrix(0.9936 0.1132 -0.1132 0.9936 5.2247 -19.5123)" fill="none" stroke="#FFFFFF" stroke-width="1.631" stroke-miterlimit="10" width="153.4" height="36"/>
	<g>
		<path fill="#E5E5E5" d="M175.2,29.6c-2-0.2-3.4-2-3.2-4l1.7-15.2c0.2-2,2-3.4,4-3.2c2,0.2,3.4,2,3.2,4l-1.7,15.2
			C178.9,28.4,177.2,29.8,175.2,29.6"/>
		<path fill="none" stroke="#FFFFFF" stroke-width="1.631" stroke-miterlimit="10" d="M175.2,29.6c-2-0.2-3.4-2-3.2-4l1.7-15.2
			c0.2-2,2-3.4,4-3.2c2,0.2,3.4,2,3.2,4l-1.7,15.2C178.9,28.4,177.2,29.8,175.2,29.6z"/>
		<path fill="#E5E5E5" d="M149.9,26.7c-2-0.2-3.4-2-3.2-4l1.7-15.2c0.2-2,2-3.4,4-3.2c2,0.2,3.4,2,3.2,4l-1.7,15.2
			C153.7,25.5,151.9,26.9,149.9,26.7"/>
		<path fill="none" stroke="#FFFFFF" stroke-width="1.631" stroke-miterlimit="10" d="M149.9,26.7c-2-0.2-3.4-2-3.2-4l1.7-15.2
			c0.2-2,2-3.4,4-3.2c2,0.2,3.4,2,3.2,4l-1.7,15.2C153.7,25.5,151.9,26.9,149.9,26.7z"/>
		<path fill="#E5E5E5" d="M225.7,35.3c-2-0.2-3.4-2-3.2-4l1.7-15.2c0.2-2,2-3.4,4-3.2c2,0.2,3.4,2,3.2,4l-1.7,15.2
			C229.4,34.1,227.6,35.6,225.7,35.3"/>
		<path fill="none" stroke="#FFFFFF" stroke-width="1.631" stroke-miterlimit="10" d="M225.7,35.3c-2-0.2-3.4-2-3.2-4l1.7-15.2
			c0.2-2,2-3.4,4-3.2c2,0.2,3.4,2,3.2,4l-1.7,15.2C229.4,34.1,227.6,35.6,225.7,35.3z"/>
		<path fill="#E5E5E5" d="M200.4,32.5c-2-0.2-3.4-2-3.2-4l1.7-15.2c0.2-2,2-3.4,4-3.2c2,0.2,3.4,2,3.2,4l-1.7,15.2
			C204.2,31.3,202.4,32.7,200.4,32.5"/>
		<path fill="none" stroke="#FFFFFF" stroke-width="1.631" stroke-miterlimit="10" d="M200.4,32.5c-2-0.2-3.4-2-3.2-4l1.7-15.2
			c0.2-2,2-3.4,4-3.2c2,0.2,3.4,2,3.2,4l-1.7,15.2C204.2,31.3,202.4,32.7,200.4,32.5z"/>
		<path fill="#E5E5E5" d="M124.7,23.8c-2-0.2-3.4-2-3.2-4l1.7-15.2c0.2-2,2-3.4,4-3.2c2,0.2,3.4,2,3.2,4l-1.7,15.2
			C128.4,22.6,126.7,24.1,124.7,23.8"/>
		<path fill="none" stroke="#FFFFFF" stroke-width="1.631" stroke-miterlimit="10" d="M124.7,23.8c-2-0.2-3.4-2-3.2-4l1.7-15.2
			c0.2-2,2-3.4,4-3.2c2,0.2,3.4,2,3.2,4l-1.7,15.2C128.4,22.6,126.7,24.1,124.7,23.8z"/>
	</g>
	
		<rect x="132.3" y="57.9" transform="matrix(0.9936 0.1132 -0.1132 0.9936 8.5563 -15.6298)" fill="#FAB0A1" width="19.2" height="19.2"/>
	
		<rect x="132.3" y="57.9" transform="matrix(0.9936 0.1132 -0.1132 0.9936 8.5563 -15.6298)" fill="none" stroke="#FFFFFF" stroke-width="1.631" stroke-miterlimit="10" width="19.2" height="19.2"/>
	
		<rect x="160.9" y="61.2" transform="matrix(0.9936 0.1132 -0.1132 0.9936 9.1087 -18.8443)" fill="#FAB0A1" width="19.2" height="19.2"/>
	
		<rect x="160.9" y="61.2" transform="matrix(0.9936 0.1132 -0.1132 0.9936 9.1087 -18.8443)" fill="none" stroke="#FFFFFF" stroke-width="1.631" stroke-miterlimit="10" width="19.2" height="19.2"/>
	
		<rect x="189.5" y="64.5" transform="matrix(0.9936 0.1132 -0.1132 0.9936 9.661 -22.0588)" fill="#FAB0A1" width="19.2" height="19.2"/>
	
		<rect x="189.5" y="64.5" transform="matrix(0.9936 0.1132 -0.1132 0.9936 9.661 -22.0588)" fill="none" stroke="#FFFFFF" stroke-width="1.631" stroke-miterlimit="10" width="19.2" height="19.2"/>
	
		<rect x="218.1" y="67.7" transform="matrix(0.9936 0.1132 -0.1132 0.9936 10.2134 -25.2733)" fill="#FAB0A1" width="19.2" height="19.2"/>
	
		<rect x="218.1" y="67.7" transform="matrix(0.9936 0.1132 -0.1132 0.9936 10.2134 -25.2733)" fill="none" stroke="#FFFFFF" stroke-width="1.631" stroke-miterlimit="10" width="19.2" height="19.2"/>
	
		<rect x="101" y="78.5" transform="matrix(0.9936 0.1132 -0.1132 0.9936 10.6827 -11.955)" fill="#FAB0A1" width="19.2" height="19.2"/>
	
		<rect x="101" y="78.5" transform="matrix(0.9936 0.1132 -0.1132 0.9936 10.6827 -11.955)" fill="none" stroke="#FFFFFF" stroke-width="1.631" stroke-miterlimit="10" width="19.2" height="19.2"/>
	
		<rect x="129.6" y="81.8" transform="matrix(0.9936 0.1132 -0.1132 0.9936 11.2351 -15.1695)" fill="#FAB0A1" width="19.2" height="19.2"/>
	
		<rect x="129.6" y="81.8" transform="matrix(0.9936 0.1132 -0.1132 0.9936 11.2351 -15.1695)" fill="none" stroke="#FFFFFF" stroke-width="1.631" stroke-miterlimit="10" width="19.2" height="19.2"/>
	
		<rect x="158.2" y="85" transform="matrix(0.9936 0.1132 -0.1132 0.9936 11.7874 -18.384)" fill="#FAB0A1" width="19.2" height="19.2"/>
	
		<rect x="158.2" y="85" transform="matrix(0.9936 0.1132 -0.1132 0.9936 11.7874 -18.384)" fill="none" stroke="#FFFFFF" stroke-width="1.631" stroke-miterlimit="10" width="19.2" height="19.2"/>
	
		<rect x="186.8" y="88.3" transform="matrix(0.9936 0.1132 -0.1132 0.9936 12.3398 -21.5985)" fill="#FAB0A1" width="19.2" height="19.2"/>
	
		<rect x="186.8" y="88.3" transform="matrix(0.9936 0.1132 -0.1132 0.9936 12.3398 -21.5985)" fill="none" stroke="#FFFFFF" stroke-width="1.631" stroke-miterlimit="10" width="19.2" height="19.2"/>
	
		<rect x="215.3" y="91.5" transform="matrix(0.9936 0.1132 -0.1132 0.9936 12.8921 -24.813)" fill="#FAB0A1" width="19.2" height="19.2"/>
	
		<rect x="215.3" y="91.5" transform="matrix(0.9936 0.1132 -0.1132 0.9936 12.8921 -24.813)" fill="none" stroke="#FFFFFF" stroke-width="1.631" stroke-miterlimit="10" width="19.2" height="19.2"/>
	
		<rect x="98.3" y="102.3" transform="matrix(0.9936 0.1132 -0.1132 0.9936 13.3615 -11.4947)" fill="#FAB0A1" width="19.2" height="19.2"/>
	
		<rect x="98.3" y="102.3" transform="matrix(0.9936 0.1132 -0.1132 0.9936 13.3615 -11.4947)" fill="none" stroke="#FFFFFF" stroke-width="1.631" stroke-miterlimit="10" width="19.2" height="19.2"/>
	
		<rect x="126.9" y="105.6" transform="matrix(0.9936 0.1132 -0.1132 0.9936 13.9138 -14.7092)" fill="#FAB0A1" width="19.2" height="19.2"/>
	
		<rect x="126.9" y="105.6" transform="matrix(0.9936 0.1132 -0.1132 0.9936 13.9138 -14.7092)" fill="none" stroke="#FFFFFF" stroke-width="1.631" stroke-miterlimit="10" width="19.2" height="19.2"/>
	
		<rect x="155.5" y="108.8" transform="matrix(0.9936 0.1132 -0.1132 0.9936 14.4662 -17.9237)" fill="#FAB0A1" width="19.2" height="19.2"/>
	
		<rect x="155.5" y="108.8" transform="matrix(0.9936 0.1132 -0.1132 0.9936 14.4662 -17.9237)" fill="none" stroke="#FFFFFF" stroke-width="1.631" stroke-miterlimit="10" width="19.2" height="19.2"/>
	
		<rect x="184.1" y="112.1" transform="matrix(0.9936 0.1132 -0.1132 0.9936 15.0185 -21.1382)" fill="#FAB0A1" width="19.2" height="19.2"/>
	
		<rect x="184.1" y="112.1" transform="matrix(0.9936 0.1132 -0.1132 0.9936 15.0185 -21.1382)" fill="none" stroke="#FFFFFF" stroke-width="1.631" stroke-miterlimit="10" width="19.2" height="19.2"/>
	
		<rect x="95.6" y="126" transform="matrix(0.9936 0.1132 -0.1132 0.9936 16.0292 -11.0363)" fill="#FAB0A1" width="19.2" height="19.2"/>
	
		<rect x="95.6" y="126" transform="matrix(0.9936 0.1132 -0.1132 0.9936 16.0292 -11.0363)" fill="none" stroke="#FFFFFF" stroke-width="1.631" stroke-miterlimit="10" width="19.2" height="19.2"/>
	
		<rect x="124.2" y="129.3" transform="matrix(0.9936 0.1132 -0.1132 0.9936 16.5816 -14.2508)" fill="#FAB0A1" width="19.2" height="19.2"/>
	
		<rect x="124.2" y="129.3" transform="matrix(0.9936 0.1132 -0.1132 0.9936 16.5816 -14.2508)" fill="none" stroke="#FFFFFF" stroke-width="1.631" stroke-miterlimit="10" width="19.2" height="19.2"/>
	
		<rect x="152.8" y="132.6" transform="matrix(0.9936 0.1132 -0.1132 0.9936 17.134 -17.4653)" fill="#FAB0A1" width="19.2" height="19.2"/>
	
		<rect x="152.8" y="132.6" transform="matrix(0.9936 0.1132 -0.1132 0.9936 17.134 -17.4653)" fill="none" stroke="#FFFFFF" stroke-width="1.631" stroke-miterlimit="10" width="19.2" height="19.2"/>
	
		<rect x="181.3" y="135.8" transform="matrix(0.9936 0.1132 -0.1132 0.9936 17.6863 -20.6798)" fill="#FAB0A1" width="19.2" height="19.2"/>
	
		<rect x="181.3" y="135.8" transform="matrix(0.9936 0.1132 -0.1132 0.9936 17.6863 -20.6798)" fill="none" stroke="#FFFFFF" stroke-width="1.631" stroke-miterlimit="10" width="19.2" height="19.2"/>
	
		<rect x="209.9" y="139.1" transform="matrix(0.9936 0.1132 -0.1132 0.9936 18.2387 -23.8943)" fill="#FAB0A1" width="19.2" height="19.2"/>
	
		<rect x="209.9" y="139.1" transform="matrix(0.9936 0.1132 -0.1132 0.9936 18.2387 -23.8943)" fill="none" stroke="#FFFFFF" stroke-width="1.631" stroke-miterlimit="10" width="19.2" height="19.2"/>
	
		<rect x="212.6" y="115.5" transform="matrix(0.9936 0.1132 -0.1132 0.9936 15.5924 -24.349)" fill="#FAB0A1" width="19.2" height="19.2"/>
	
		<rect x="212.6" y="115.5" transform="matrix(0.9936 0.1132 -0.1132 0.9936 15.5924 -24.349)" fill="none" stroke="#FFFFFF" stroke-width="1.631" stroke-miterlimit="10" width="19.2" height="19.2"/>
	
		<rect x="6.8" y="20.1" transform="matrix(0.9966 -8.280605e-002 8.280605e-002 0.9966 -7.1488 7.2271)" fill="#E8E8ED" width="153.4" height="139.4"/>
	
		<rect x="6.8" y="20.1" transform="matrix(0.9966 -8.280605e-002 8.280605e-002 0.9966 -7.1488 7.2271)" fill="none" stroke="#FFFFFF" stroke-width="1.631" stroke-miterlimit="10" width="153.4" height="139.4"/>
	
		<rect x="2.6" y="20.3" transform="matrix(0.9966 -8.280605e-002 8.280605e-002 0.9966 -2.8941 6.6953)" fill="#F23812" width="153.4" height="36"/>
	
		<rect x="2.6" y="20.3" transform="matrix(0.9966 -8.280605e-002 8.280605e-002 0.9966 -2.8941 6.6953)" fill="none" stroke="#FFFFFF" stroke-width="1.631" stroke-miterlimit="10" width="153.4" height="36"/>
	<g>
		<path fill="#E5E5E5" d="M78.7,31.5c-2,0.2-3.7-1.3-3.9-3.3L73.6,13c-0.2-2,1.3-3.7,3.3-3.9c2-0.2,3.7,1.3,3.9,3.3L82,27.7
			C82.2,29.6,80.7,31.4,78.7,31.5"/>
		<path fill="none" stroke="#FFFFFF" stroke-width="1.631" stroke-miterlimit="10" d="M78.7,31.5c-2,0.2-3.7-1.3-3.9-3.3L73.6,13
			c-0.2-2,1.3-3.7,3.3-3.9c2-0.2,3.7,1.3,3.9,3.3L82,27.7C82.2,29.6,80.7,31.4,78.7,31.5z"/>
		<path fill="#E5E5E5" d="M53.4,33.7c-2,0.2-3.7-1.3-3.9-3.3l-1.3-15.3c-0.2-2,1.3-3.7,3.3-3.9c2-0.2,3.7,1.3,3.9,3.3l1.3,15.3
			C56.8,31.8,55.4,33.5,53.4,33.7"/>
		<path fill="none" stroke="#FFFFFF" stroke-width="1.631" stroke-miterlimit="10" d="M53.4,33.7c-2,0.2-3.7-1.3-3.9-3.3l-1.3-15.3
			c-0.2-2,1.3-3.7,3.3-3.9c2-0.2,3.7,1.3,3.9,3.3l1.3,15.3C56.8,31.8,55.4,33.5,53.4,33.7z"/>
		<path fill="#E5E5E5" d="M129.4,27.3c-2,0.2-3.7-1.3-3.9-3.3l-1.3-15.3c-0.2-2,1.3-3.7,3.3-3.9c2-0.2,3.7,1.3,3.9,3.3l1.3,15.3
			C132.8,25.4,131.3,27.2,129.4,27.3"/>
		<path fill="none" stroke="#FFFFFF" stroke-width="1.631" stroke-miterlimit="10" d="M129.4,27.3c-2,0.2-3.7-1.3-3.9-3.3l-1.3-15.3
			c-0.2-2,1.3-3.7,3.3-3.9c2-0.2,3.7,1.3,3.9,3.3l1.3,15.3C132.8,25.4,131.3,27.2,129.4,27.3z"/>
		<path fill="#E5E5E5" d="M104,29.4c-2,0.2-3.7-1.3-3.9-3.3l-1.3-15.3c-0.2-2,1.3-3.7,3.3-3.9c2-0.2,3.7,1.3,3.9,3.3l1.3,15.3
			C107.5,27.5,106,29.3,104,29.4"/>
		<path fill="none" stroke="#FFFFFF" stroke-width="1.631" stroke-miterlimit="10" d="M104,29.4c-2,0.2-3.7-1.3-3.9-3.3l-1.3-15.3
			c-0.2-2,1.3-3.7,3.3-3.9c2-0.2,3.7,1.3,3.9,3.3l1.3,15.3C107.5,27.5,106,29.3,104,29.4z"/>
		<path fill="#E5E5E5" d="M28.1,35.8c-2,0.2-3.7-1.3-3.9-3.3l-1.3-15.3c-0.2-2,1.3-3.7,3.3-3.9c2-0.2,3.7,1.3,3.9,3.3l1.3,15.3
			C31.5,33.9,30,35.6,28.1,35.8"/>
		<path fill="none" stroke="#FFFFFF" stroke-width="1.631" stroke-miterlimit="10" d="M28.1,35.8c-2,0.2-3.7-1.3-3.9-3.3l-1.3-15.3
			c-0.2-2,1.3-3.7,3.3-3.9c2-0.2,3.7,1.3,3.9,3.3l1.3,15.3C31.5,33.9,30,35.6,28.1,35.8z"/>
	</g>
	
		<rect x="43.9" y="65.7" transform="matrix(0.9966 -8.281054e-002 8.281054e-002 0.9966 -6.0486 4.6872)" fill="#FAB0A1" width="19.2" height="19.2"/>
	
		<rect x="43.9" y="65.7" transform="matrix(0.9966 -8.281054e-002 8.281054e-002 0.9966 -6.0486 4.6872)" fill="none" stroke="#FFFFFF" stroke-width="1.631" stroke-miterlimit="10" width="19.2" height="19.2"/>
	
		<rect x="72.6" y="63.3" transform="matrix(0.9966 -8.281054e-002 8.281054e-002 0.9966 -5.7529 7.053)" fill="#FAB0A1" width="19.2" height="19.2"/>
	
		<rect x="72.6" y="63.3" transform="matrix(0.9966 -8.281054e-002 8.281054e-002 0.9966 -5.7529 7.053)" fill="none" stroke="#FFFFFF" stroke-width="1.631" stroke-miterlimit="10" width="19.2" height="19.2"/>
	
		<rect x="101.2" y="60.9" transform="matrix(0.9966 -8.281054e-002 8.281054e-002 0.9966 -5.4572 9.4187)" fill="#FAB0A1" width="19.2" height="19.2"/>
	
		<rect x="101.2" y="60.9" transform="matrix(0.9966 -8.281054e-002 8.281054e-002 0.9966 -5.4572 9.4187)" fill="none" stroke="#FFFFFF" stroke-width="1.631" stroke-miterlimit="10" width="19.2" height="19.2"/>
	
		<rect x="129.9" y="58.5" transform="matrix(0.9966 -8.281054e-002 8.281054e-002 0.9966 -5.1615 11.7845)" fill="#FAB0A1" width="19.2" height="19.2"/>
	
		<rect x="129.9" y="58.5" transform="matrix(0.9966 -8.281054e-002 8.281054e-002 0.9966 -5.1615 11.7845)" fill="none" stroke="#FFFFFF" stroke-width="1.631" stroke-miterlimit="10" width="19.2" height="19.2"/>
	
		<rect x="17.2" y="91.9" transform="matrix(0.9966 -8.281054e-002 8.281054e-002 0.9966 -8.3159 2.5678)" fill="#FAB0A1" width="19.2" height="19.2"/>
	
		<rect x="17.2" y="91.9" transform="matrix(0.9966 -8.281054e-002 8.281054e-002 0.9966 -8.3159 2.5678)" fill="none" stroke="#FFFFFF" stroke-width="1.631" stroke-miterlimit="10" width="19.2" height="19.2"/>
	
		<rect x="45.9" y="89.6" transform="matrix(0.9966 -8.281054e-002 8.281054e-002 0.9966 -8.0202 4.9336)" fill="#FAB0A1" width="19.2" height="19.2"/>
	
		<rect x="45.9" y="89.6" transform="matrix(0.9966 -8.281054e-002 8.281054e-002 0.9966 -8.0202 4.9336)" fill="none" stroke="#FFFFFF" stroke-width="1.631" stroke-miterlimit="10" width="19.2" height="19.2"/>
	
		<rect x="74.5" y="87.2" transform="matrix(0.9966 -8.281054e-002 8.281054e-002 0.9966 -7.7244 7.2994)" fill="#FAB0A1" width="19.2" height="19.2"/>
	
		<rect x="74.5" y="87.2" transform="matrix(0.9966 -8.281054e-002 8.281054e-002 0.9966 -7.7244 7.2994)" fill="none" stroke="#FFFFFF" stroke-width="1.631" stroke-miterlimit="10" width="19.2" height="19.2"/>
	
		<rect x="103.2" y="84.8" transform="matrix(0.9966 -8.281054e-002 8.281054e-002 0.9966 -7.4287 9.6652)" fill="#FAB0A1" width="19.2" height="19.2"/>
	
		<rect x="103.2" y="84.8" transform="matrix(0.9966 -8.281054e-002 8.281054e-002 0.9966 -7.4287 9.6652)" fill="none" stroke="#FFFFFF" stroke-width="1.631" stroke-miterlimit="10" width="19.2" height="19.2"/>
	
		<rect x="131.9" y="82.4" transform="matrix(0.9966 -8.281054e-002 8.281054e-002 0.9966 -7.133 12.031)" fill="#FAB0A1" width="19.2" height="19.2"/>
	
		<rect x="131.9" y="82.4" transform="matrix(0.9966 -8.281054e-002 8.281054e-002 0.9966 -7.133 12.031)" fill="none" stroke="#FFFFFF" stroke-width="1.631" stroke-miterlimit="10" width="19.2" height="19.2"/>
	
		<rect x="19.2" y="115.8" transform="matrix(0.9966 -8.281054e-002 8.281054e-002 0.9966 -10.2873 2.8143)" fill="#FAB0A1" width="19.2" height="19.2"/>
	
		<rect x="19.2" y="115.8" transform="matrix(0.9966 -8.281054e-002 8.281054e-002 0.9966 -10.2873 2.8143)" fill="none" stroke="#FFFFFF" stroke-width="1.631" stroke-miterlimit="10" width="19.2" height="19.2"/>
	
		<rect x="47.9" y="113.5" transform="matrix(0.9966 -8.281054e-002 8.281054e-002 0.9966 -9.9916 5.18)" fill="#FAB0A1" width="19.2" height="19.2"/>
	
		<rect x="47.9" y="113.5" transform="matrix(0.9966 -8.281054e-002 8.281054e-002 0.9966 -9.9916 5.18)" fill="none" stroke="#FFFFFF" stroke-width="1.631" stroke-miterlimit="10" width="19.2" height="19.2"/>
	
		<rect x="76.5" y="111.1" transform="matrix(0.9966 -8.281054e-002 8.281054e-002 0.9966 -9.6959 7.5458)" fill="#FAB0A1" width="19.2" height="19.2"/>
	
		<rect x="76.5" y="111.1" transform="matrix(0.9966 -8.281054e-002 8.281054e-002 0.9966 -9.6959 7.5458)" fill="none" stroke="#FFFFFF" stroke-width="1.631" stroke-miterlimit="10" width="19.2" height="19.2"/>
	
		<rect x="105.2" y="108.7" transform="matrix(0.9966 -8.281054e-002 8.281054e-002 0.9966 -9.4002 9.9116)" fill="#FAB0A1" width="19.2" height="19.2"/>
	
		<rect x="105.2" y="108.7" transform="matrix(0.9966 -8.281054e-002 8.281054e-002 0.9966 -9.4002 9.9116)" fill="none" stroke="#FFFFFF" stroke-width="1.631" stroke-miterlimit="10" width="19.2" height="19.2"/>
	
		<rect x="21.2" y="139.6" transform="matrix(0.9966 -8.281054e-002 8.281054e-002 0.9966 -12.2508 3.0597)" fill="#FAB0A1" width="19.2" height="19.2"/>
	
		<rect x="21.2" y="139.6" transform="matrix(0.9966 -8.281054e-002 8.281054e-002 0.9966 -12.2508 3.0597)" fill="none" stroke="#FFFFFF" stroke-width="1.631" stroke-miterlimit="10" width="19.2" height="19.2"/>
	
		<rect x="49.8" y="137.2" transform="matrix(0.9966 -8.281054e-002 8.281054e-002 0.9966 -11.955 5.4255)" fill="#FAB0A1" width="19.2" height="19.2"/>
	
		<rect x="49.8" y="137.2" transform="matrix(0.9966 -8.281054e-002 8.281054e-002 0.9966 -11.955 5.4255)" fill="none" stroke="#FFFFFF" stroke-width="1.631" stroke-miterlimit="10" width="19.2" height="19.2"/>
	
		<rect x="78.5" y="134.9" transform="matrix(0.9966 -8.281054e-002 8.281054e-002 0.9966 -11.6593 7.7912)" fill="#FAB0A1" width="19.2" height="19.2"/>
	
		<rect x="78.5" y="134.9" transform="matrix(0.9966 -8.281054e-002 8.281054e-002 0.9966 -11.6593 7.7912)" fill="none" stroke="#FFFFFF" stroke-width="1.631" stroke-miterlimit="10" width="19.2" height="19.2"/>
	
		<rect x="107.2" y="132.5" transform="matrix(0.9966 -8.281054e-002 8.281054e-002 0.9966 -11.3636 10.157)" fill="#FAB0A1" width="19.2" height="19.2"/>
	
		<rect x="107.2" y="132.5" transform="matrix(0.9966 -8.281054e-002 8.281054e-002 0.9966 -11.3636 10.157)" fill="none" stroke="#FFFFFF" stroke-width="1.631" stroke-miterlimit="10" width="19.2" height="19.2"/>
	
		<rect x="135.8" y="130.1" transform="matrix(0.9966 -8.281054e-002 8.281054e-002 0.9966 -11.0679 12.5228)" fill="#FAB0A1" width="19.2" height="19.2"/>
	
		<rect x="135.8" y="130.1" transform="matrix(0.9966 -8.281054e-002 8.281054e-002 0.9966 -11.0679 12.5228)" fill="none" stroke="#FFFFFF" stroke-width="1.631" stroke-miterlimit="10" width="19.2" height="19.2"/>
	
		<rect x="133.9" y="106.5" transform="matrix(0.9966 -8.281054e-002 8.281054e-002 0.9966 -9.1203 12.2794)" fill="#FAB0A1" width="19.2" height="19.2"/>
	
		<rect x="133.9" y="106.5" transform="matrix(0.9966 -8.281054e-002 8.281054e-002 0.9966 -9.1203 12.2794)" fill="none" stroke="#FFFFFF" stroke-width="1.631" stroke-miterlimit="10" width="19.2" height="19.2"/>
</g>
</svg>
