<?xml version="1.0" encoding="utf-8"?>
<!-- Generator: Adobe Illustrator 18.1.1, SVG Export Plug-In . SVG Version: 6.00 Build 0)  -->
<svg version="1.1" id="Layer_1" xmlns="http://www.w3.org/2000/svg" xmlns:xlink="http://www.w3.org/1999/xlink" x="0px" y="0px"
	 viewBox="0 0 272 177.3" enable-background="new 0 0 272 177.3" xml:space="preserve">
<g>
	<rect x="92.9" y="24.6" fill="#FFFFFF" width="83" height="108.2"/>
	<path fill="#999999" d="M136.2,97.3h-34.6v3.4h34.6V97.3z M167.3,83.8h-65.7v3.4h65.7V83.8z M167.3,70.3h-65.7v3.4h65.7V70.3z
		 M167.3,56.7h-65.7v3.4h65.7V56.7z M167.3,46.6h-65.7v-3.4h65.7V46.6z"/>
	<g>
		<path fill="#0099CC" d="M236.2,138c0,2-1.3,3.6-2.9,3.6H39.6c-1.6,0-2.9-1.6-2.9-3.6V18.3c0-2,1.3-3.6,2.9-3.6h193.6
			c1.6,0,2.9,1.6,2.9,3.6V138z M136.4,4.9c1.6,0,2.9,1.3,2.9,2.9s-1.3,2.9-2.9,2.9c-1.6,0-2.9-1.3-2.9-2.9S134.8,4.9,136.4,4.9
			 M250.5,9.2c0-4.8-3.9-8.7-8.7-8.7H31.1c-4.8,0-8.7,3.9-8.7,8.7v146.7h228.1V9.2z"/>
	</g>
	<polygon fill="#F23812" points="179.8,71.5 122.6,56.2 137.9,113.4 149.2,92.6 178.1,121.5 187.9,111.7 159,82.7 	"/>
	<path fill="#0099CC" d="M271.8,159.9c-0.5-0.2-4.4-0.4-8.8-0.4h-78.4c-4.4,0-8,0-8,0.1c0,0-0.3,1.6-0.7,3.4c-0.4,1.8-4.6,3.3-9,3.3
		h-60.5c-4.4,0-8.4-1.5-9-3.3c-0.6-1.8-1-3.3-1-3.4c0,0-3.6-0.1-8-0.1H9.9c-4.4,0-8.4,0.2-8.8,0.4c-0.5,0.2,0.4,4.8,1.8,8.9l1.1,1.6
		c1.7,4.1,6.6,7.4,11,7.4h243.8c4.4,0,9.2-3.4,10.7-7.5l0.9-1.3C271.6,164.7,272.3,160.1,271.8,159.9"/>
</g>
</svg>
