<?xml version="1.0" encoding="utf-8"?>
<!-- Generator: Adobe Illustrator 18.1.1, SVG Export Plug-In . SVG Version: 6.00 Build 0)  -->
<svg version="1.1" id="Layer_1" xmlns="http://www.w3.org/2000/svg" xmlns:xlink="http://www.w3.org/1999/xlink" x="0px" y="0px"
	 viewBox="0 0 237.3 236.7" enable-background="new 0 0 237.3 236.7" xml:space="preserve">
<g>
	<g>
		<path fill="#00A9E2" d="M236.1,125.2c-4,64.5-59.5,113.6-124,109.6c-64.5-4-113.6-59.5-109.6-124C6.5,46.3,62-2.7,126.5,1.2
			C191,5.2,240.1,60.7,236.1,125.2"/>
		<path fill="#8CC740" d="M102.2,142.5c0-3-14.6,0.8-14.6,0.8l-8.4-11l-14.5-6.4l-17,2.7l-5.4-7.9l6.9-10.6l-16.7,5.3
			c0,0-6.1,0-7.6-8.3c-1.5-8.3,0.9-4.3,0.9-4.3l14.5-1l9.9-0.5v-8.1l6.2-6.6l8.7-7.3l6.4-3.6L85,70.5l-4.1-11.9l-14.2-4l-10,5.2
			l-0.1-6.3L72,46.4l5.3-1.7l7.3,2l4.7-3.4l-3.8-6l-9-1.2l-4.3,3.5L60.5,39L53,38.7l-11.4-3.6l-2.7,1.1l2.8,1.4l-0.3,4.6l-9.5-1
			l-1.1,0.2c-13.9,16-23.5,35.9-27,58L19,114.1l11,11.7l9,0.8l6.2,4.9l2,15.5l8,18.2l7.7,5.5c0,0-0.2,14.5,2.8,26.2
			c3.1,11.7,18.1,31.5,15.8,22.5c-1.2-4.6-2.2-12.7-2.2-12.7s15.9-30.3,16.4-30.7c0.5-0.4,6.9-6.5,11.4-8.8
			c4.6-2.3-1.4-11.7-1.4-11.7S102.2,145.5,102.2,142.5"/>
		<path fill="#8CC740" d="M70.8,32.3l-9.4,0.2c0,0-2.5-2.2-2.6-3.4c-0.1-1.2,6.4-2.7,6.4-2.7l7.4-0.6l8.5-4.3c0,0,7-0.9,8.4-0.4
			c1.4,0.4,13.6-1,13.6-1l0.1,1.5l7.7-1.5l13.7-2.2l13.1-0.7l-8.7,6.3l1.9-0.1c0,0,0.5,1.8,0.5,2.3c0,0.6,0.1,1.9,0.1,1.9l-2,1.1
			l-0.2,2.9l-5.4,3.2c0,0-6.8,2.4-7.3,2.7c-0.5,0.3-3.2,1.5-3.2,1.5s-3.4-0.9-3.9,0.2c-0.5,1.1-3.2,5.3-3.2,5.3l-2.9,3
			c0,0-2.6,1-2.9-1.1c-0.3-2.1-0.5-6.3-0.5-6.9c0-0.6-2.6-2-2.6-2l2-5.7l-1-4.6l-14.2-1.9l-13,6.3"/>
		<path fill="#8CC740" d="M181.4,189.8l-8-0.7l-2.1-14.2l-3-6.5c0,0-2.5-6.4,0.6-10.5c3.2-4.1,3-10,3-10l-5.5-9.3l-0.9-7.7
			c0,0-7.3-5.3-11.5-3.9c-4.2,1.3-13.2,0.7-13.2,0.7l-9.5-13.8c0,0,3.6-6.8,1.2-9.4c-2.4-2.5,5.9-5.9,5.9-5.9l4.3-10.2l9.7-6.8
			l7.5,0.5l9.4-2.1c0,0,2.8-0.4,2.3,1.9c-0.5,2.3,0.5,4.7,0.5,4.7l5.8,3.4l7.4-2l6.2,2.6l3.7-0.3c0,0,3.7,6.8,4.2,8
			c0.5,1.2,4.2,11.8,4.2,11.8l7.8,9.9l8.4,0.4l-0.2,7.3c0,0-8.2,7.4-11.6,11.9c-3.4,4.5-3.2,8.2-3.6,9.8c-0.4,1.6,0.7,9.3,0.7,9.3
			l-8.7,7.5l0.4,8.6l-4,1.8l-1.8,5.7C191.3,182.4,184.6,190,181.4,189.8"/>
		<path fill="#8CC740" d="M209.3,165.6l0.5-0.7l0.2-0.9l2.2-0.4l0.7-0.5l1.4-1.3l0.7-1.2l1.7,0.1l0.1-1.6c0,0,0.9-0.8,1.2-0.3
			c0.3,0.5,1.5,1.3,1.5,2c0,0.7,0.3,1.9-0.1,2.2c-0.4,0.3-1.6,1.1-1.6,1.1s-0.7,0.2-0.6,0.4s0-0.4-0.8,1.9
			c-0.7,2.3-4.2,10.6-4.2,10.6l-2,1l-1.7,0.3c0,0-0.9-1.9-0.9-2.3c0-0.3,0.2-0.4,0.1-0.9c-0.1-0.4-0.2-2.5-0.2-2.5l1.9-2.2
			c0,0,0.3-1,0.3-1.5c0-0.5-0.5-2.3-0.5-2.3L209.3,165.6z"/>
		<path fill="#8CC740" d="M203.9,37.1l-3.4-0.4l-3.9,2.1l-8.1,1.7l-3,0.7c0,0,0.9-1.8-7.8-1.6c-8.7,0.2-7.2-0.4-7.2-0.4l-7.5,3
			l-3.1,4c0,0-5,3.5-6.8,3.1c-1.8-0.4,1.5,4.9,1.5,4.9l3.9-0.5l3.3-1.1l8.3,4.5l-4.5,1.7l-7.6-0.5l-6.6,4.6l-5.3,5.3l1.7,2.4
			l-2.8,4.6l-5.1,1.8l0.6,5.5l5.6,1l4.8-2.6l1.6-3.5l2.2-3.3l6.6-1.1c0,0,6.9,3.7,7,5c0.1,1.3,2.9,2.9,2.9,2.9l6.7-1.7l4.1-1.6
			l5.1-0.5l-0.4,3.7l3.1,4.6l6.3,3l0,2.9c0,0,0.3,3.4,0.5,4.6c0.1,1.3,5.8,8.7,5.8,8.7l5.2,1.9l5.2-2.6l7.4-3.2l-1.1-3.7
			c0,0-1.3-3.3-1.8-3.7c-0.4-0.4-6.8,0.5-6.8,0.5l-6-6.8l6.4,2.5l10.3,0.5l6.1,1.2c0,0,1.8,1.2,7,4C229.8,73.2,219.1,53,203.9,37.1"
			/>
		<path fill="#8CC740" d="M46.1,31.6c-0.3-0.6,0.2-2.9,0.2-2.9l0.4-0.7l2.2,0.1l0.1-1l3.6-2.4l0.8-1.7c0,0,0.9-0.6,1.8-0.7
			c0.9-0.1,1.8,0.1,1.8,0.1s2.5,1,2.1,1.1c-0.4,0.1-1.4,0.6-1.4,0.6l-1.9,2.4l0.2,0.2l0.3,0.6c0,0-0.2,0.2-0.1,0.4
			c0.1,0.2,0.4,0.7,0.4,0.7c0,0,0.1,0.2,0.1,0.2l-0.3,0.3c0,0,0.1,0.2,0.3,0.4c0.2,0.2,0.3,0.3,0.4,0.4c0.1,0.1,0.3-0.2,0.2,0.2
			c-0.1,0.3-0.1,0.6-0.1,0.6s-0.5-0.1-0.6,0c-0.1,0-0.7,0.6-0.7,0.6c0,0.1,0,0.4,0,0.7c0,0.2,0,0.8,0,0.8s-0.1,0.3-0.2,0.3
			c-0.1,0-1.1-0.1-1.2,0.2c-0.1,0.3-0.2,0.2-0.2,0.4c-0.1,0.2-1.2,0.4-1.2,0.4s1.1,0.3,1.1,0.5c0,0.1-0.2,0.7-0.2,0.9
			c0,0.2,0,0.5-0.1,0.7c-0.1,0.2,0,0.9,0,0.9s-0.5-0.6-0.7-0.5c-0.2,0.1-0.8,0.4-0.8,0.4l-0.6,0.1c0,0-0.1-0.1-0.1-0.2
			c-0.1-0.1-0.3-0.5-0.5-0.6c-0.1-0.2-0.6-0.3-0.6-0.4c-0.1,0-1,0.2-1,0.2l-0.5-0.1L49,35.5c0,0-0.4,0.1-0.5,0
			c-0.1-0.1-0.1-0.6-0.1-0.6L48,34.7l-0.2,0c0,0-0.5-0.2-0.6-0.3c-0.1,0-0.9-0.1-0.9-0.3c0-0.2,0-0.8,0-0.9
			C46.4,33.2,46.1,31.6,46.1,31.6"/>
		<path fill="#8CC740" d="M72.2,18.7c0,0,1.2-0.2,1.4-0.2c0.2,0,0.2-1.1,0.7-1c0.5,0.1,0.7-0.5,1.1,0.1c0.4,0.6,1.8-0.1,2.3,0.1
			c0.4,0.2,1.3,0.3,1.2,0.7c0,0.4-2.2,3.6-2.2,3.6s-0.8-0.3-0.9-0.5c-0.2-0.1-0.2-1-0.8-1.1c-0.6,0-1.2-0.8-1.6-0.7
			c-0.4,0.1-0.9,1-1,0.9c-0.1-0.1-0.6-0.1-0.3,0.2c0.3,0.4,0.2,1.1,0.2,1.1s-0.5,1.8-1.1,1.9c-0.6,0.1-0.6,0-0.9-0.1
			c-0.3,0-0.7-0.2-0.6-0.4c0.1-0.3-0.9,1.9,0.6-0.7c1.4-2.7,1.1-3.1,1.4-3.5c0.3-0.4,0.1-0.8,0.1-0.8L72.2,18.7z"/>
		<path fill="#8CC740" d="M61.9,20.6l1-1.3l1.2-0.6L65,18c0,0,1.8,0.5,1.9,1c0,0.5-0.3,0.1,0,0.8c0.2,0.7-0.7,1.1-0.1,1.4
			c0.6,0.3,0.7,1,0.6,1.6c-0.2,0.6,0.1,1.7-0.7,1.2c-0.9-0.5-1.7-0.6-1.9-0.8c-0.2-0.3-0.9-0.7-1.2-1c-0.3-0.3-0.9-0.9-0.9-0.9
			L61.9,20.6z"/>
	</g>
	
		<rect x="113.8" y="144.5" transform="matrix(1 1.429638e-003 -1.429638e-003 1 0.2327 -0.1705)" fill="#FCDE5C" width="11.1" height="36.3"/>
	<g>
		<path fill="#FCDE5C" d="M130.3,148.8c0,4.1-4.9,7.5-11,7.5c-6.1,0-11-3.4-11-7.5c0-4.1,4.9-7.5,11-7.5
			C125.4,141.3,130.3,144.7,130.3,148.8"/>
		<path fill="#FCDE5C" d="M130.6,174.4c0,3.4-5,6.2-11.3,6.2c-6.2,0-11.3-2.8-11.2-6.2c0-3.4,5-6.2,11.3-6.2
			C125.6,168.2,130.6,170.9,130.6,174.4"/>
		<path fill="#FCDE5C" d="M103.9,131.7c-0.4-1.6-1.5-2.4-2.4-1.6c-6,4.9-17.2,3.3-20.2,0.9c-13.9-11.2-29.2-27.8-31.7-37.1
			c-2-7.4-1.3-11.2,2.1-15.5c1.3-1.6,2.7-2.7,3.8-3.4c3.9,3,8.3,4.5,12.7,4.5c4.5,0,9.1-1,13.1-4.1c1-0.8,1.3-5.5,0.9-7.2
			c-0.4-1.7-1.6-2.4-2.5-1.7c-6.6,5.3-17.9,1.9-21.8-0.2c-1.7-1.1-4.4-0.2-4.7-0.1c-0.2,0.1-16.5,6.2-10.2,29.2
			c3.3,11.9,21.2,30.1,35,40.2c0.2,0.2,4.3,2.9,6.2,3.6l0.1,0.1c1.8,1.2,3,3,3.3,4.9c0.3,1.7-0.2,3.3-1.2,4.7
			c-1.8,2.3-5.5,2.7-8.2,0.9c-0.9-0.6-1.5-1.5-1.6-2.4c-0.1-0.6,1.4-5.3,0.1-6.3c-1.3-1-3.1-0.8-4.1,0.5c-1.5,1.9-2.2,4.3-1.8,6.7
			c0.4,2.5,1.9,4.9,4.2,6.4c2.1,1.4,4.5,2.1,6.9,2.1c3.5,0,8-1.4,10.2-4.2c2.1-2.6,3-5.9,2.4-9.2c-0.2-1-0.4-2.5-0.8-3.4
			c3.7,0.7,7.9,0.3,11.1-2.4C105.5,136.8,104.3,133.3,103.9,131.7"/>
		<path fill="#FABF21" d="M55.6,65.9c-1.2,0-2.3,0.4-2.6,0.4c-0.2,0.1-11.6,4.4-11.6,19.3c0,2.9,0.4,6.2,1.4,9.9
			c3.3,11.9,21.2,30.1,35,40.2c0.2,0.2,4.3,2.9,6.2,3.6l0.1,0.1c1.8,1.2,3,3,3.3,4.9c0,0.3,0.1,0.6,0.1,0.9c0,1.3-0.5,2.7-1.3,3.7
			c-1,1.3-2.7,2-4.5,2c-1.3,0-2.6-0.4-3.7-1.1c-0.9-0.6-1.5-1.5-1.6-2.4c0,0,0,0,0-0.1c0-0.5,0.6-2.8,0.6-4.5c0-0.8-0.1-1.4-0.5-1.7
			c-0.5-0.4-1.2-0.6-1.8-0.6c-0.9,0-1.7,0.4-2.3,1.1c-1.2,1.6-1.9,3.4-1.9,5.3c0,0.5,0,0.9,0.1,1.4c0.4,2.5,1.9,4.9,4.2,6.4
			c2.1,1.4,4.5,2.1,6.9,2.1h0c3.5,0,8-1.5,10.2-4.2c1.7-2.1,2.6-4.7,2.6-7.3c0-0.6,0-1.3-0.1-1.9c-0.2-1-0.4-2.5-0.8-3.4
			c1,0.2,2.1,0.3,3.1,0.3c0.4,0,0.8,0,1.2,0c-2.2-2-4.4-4.3-6.4-6.9c-0.2,0-0.4,0-0.6,0c-4.2,0-8-1-9.6-2.3
			c-13.9-11.2-29.2-27.8-31.7-37.1c-0.8-2.8-1.1-5-1.1-7c0-3.3,1.1-5.8,3.2-8.5c1.3-1.6,2.7-2.7,3.8-3.4c3.9,3,8.3,4.5,12.7,4.5h0
			c1.8,0,3.7-0.2,5.5-0.6c-0.2-3.2-0.4-6.4-0.4-9.8c-1,0.1-1.9,0.2-2.9,0.2c-5.1,0-10.2-1.7-12.6-3C57.1,66,56.4,65.9,55.6,65.9"/>
		<path fill="#FCDE5C" d="M73.3,64.5c0,0.8,0,1.5,0,2.3c-0.1,48.6,20.6,82.2,46.1,82.3c25.5,0,46.3-33.5,46.4-82.2
			c0-0.8,0-1.6,0-2.3L73.3,64.5z"/>
		<path fill="#4D421C" d="M89.4,130.4c0.7,1,1.3,1.9,2,2.8h0C90.8,132.3,90.1,131.4,89.4,130.4 M97.8,140.2
			C97.8,140.2,97.8,140.2,97.8,140.2c3.4,3,7,5.3,10.8,6.9c0,0,0,0,0,0C104.9,145.5,101.2,143.2,97.8,140.2 M140.6,140.7
			c-0.1,0.1-0.3,0.2-0.4,0.3c-3.2,2.7-6.6,4.7-10.1,6.1c0,0,0,0,0,0C133.7,145.7,137.3,143.5,140.6,140.7"/>
		<path fill="#FABF21" d="M108.7,147C108.7,147,108.7,147,108.7,147c3.4,1.4,7.1,2.1,10.8,2.1h0c3.6,0,7.2-0.7,10.6-2c0,0,0,0,0,0
			c-3.4,1.3-6.9,2-10.6,2h0C115.7,149.1,112.1,148.4,108.7,147"/>
		<path fill="#F5A60A" d="M91.4,133.2L91.4,133.2c2,2.6,4.1,4.9,6.4,6.9c0,0,0,0,0,0C95.6,138.2,93.5,135.9,91.4,133.2"/>
		<path fill="#4D421C" d="M143.1,138.3c-0.8,0.8-1.7,1.6-2.6,2.4C141.5,140,142.3,139.2,143.1,138.3"/>
		<path fill="#FABF21" d="M73.3,64.5c0,0.8,0,1.5,0,2.3c0,26.8,6.2,49,16.1,63.6c0.7,1,1.3,1.9,2,2.8c2,2.6,4.1,4.9,6.4,6.9
			c3.4,3,7,5.3,10.9,6.8c3.4,1.4,7,2.1,10.8,2.1h0c3.6,0,7.2-0.7,10.6-2c3.5-1.4,6.9-3.4,10.1-6.1c-4.9,3.7-10.9,4.9-16.4,4.9
			c-0.6,0-1.2,0-1.8,0c-24.5-1.1-31.9-36-29.4-81.2L73.3,64.5z"/>
		<path fill="#FCDE5C" d="M134.7,131.5c0.4-1.6,1.5-2.4,2.4-1.6c6,4.9,17.2,3.3,20.2,0.9c13.9-11.1,29.3-27.8,31.8-37
			c2.1-7.4,1.4-11.2-2-15.5c-1.3-1.6-2.7-2.7-3.8-3.4c-3.9,3-8.3,4.5-12.7,4.5c-4.5,0-9.1-1-13.1-4.2c-1-0.8-1.3-5.5-0.8-7.2
			c0.4-1.7,1.6-2.4,2.5-1.7c6.6,5.3,17.9,1.9,21.8-0.1c1.7-1.1,4.4-0.2,4.7-0.1c0.2,0.1,16.5,6.2,10.1,29.2
			c-3.3,11.9-21.3,30.1-35.1,40.1c-0.2,0.2-4.3,2.8-6.2,3.6l-0.1,0.1c-1.8,1.2-3,2.9-3.3,4.9c-0.3,1.7,0.2,3.3,1.2,4.7
			c1.8,2.3,5.5,2.7,8.2,0.9c0.9-0.6,1.5-1.5,1.7-2.4c0.1-0.6-1.4-5.3-0.1-6.3c1.3-1,3.1-0.8,4.1,0.5c1.5,1.9,2.1,4.3,1.8,6.7
			c-0.4,2.5-1.9,4.9-4.2,6.4c-2.1,1.4-4.5,2.1-6.9,2.1c-3.5,0-8-1.5-10.2-4.2c-2.1-2.6-2.9-5.9-2.4-9.2c0.2-1,0.4-2.5,0.8-3.4
			c-3.7,0.7-7.9,0.3-11.1-2.4C133.1,136.7,134.3,133.1,134.7,131.5"/>
		<path fill="#FCEB9E" d="M106.7,61.7c0,0-9,76.2,18.2,76.1c34.6-0.1,26.2-75.1,26.2-75.1L106.7,61.7z"/>
	</g>
	<polygon fill="#FCEB9E" points="165.7,64.7 164.2,56.2 74.8,56.1 73.2,64.6 	"/>
	<polygon fill="#FFF7D9" points="151.3,64.7 150.5,56.1 107.6,56.1 106.1,64.5 	"/>
	<polygon fill="#FFF7DE" points="158.7,90 151.1,80.3 140.3,86.4 150,78.8 143.9,68 151.5,77.7 162.3,71.6 152.6,79.2 	"/>
	<polygon fill="#FFF7DE" points="150.2,85 150.8,79.4 145.3,77.9 150.9,78.5 152.3,73 151.7,78.6 157.2,80.1 151.6,79.5 	"/>
	<polygon fill="#FFF7DE" points="107.9,134.1 111.4,129.7 107.5,125.6 111.9,129.1 116.1,125.2 112.6,129.6 116.4,133.7 112,130.3 	
		"/>
	<g>
		<path fill="#FFF5C7" d="M151.3,75.8c-0.4,0-0.7,0.1-1.1,0.2l0,0C150.5,76,150.9,75.9,151.3,75.8c0.1,0,0.2,0,0.3,0.1l0,0
			C151.5,75.9,151.4,75.8,151.3,75.8 M148.9,76.9c-0.3,0.4-0.6,0.8-0.7,1.3l0,0C148.4,77.7,148.6,77.3,148.9,76.9L148.9,76.9z"/>
		<path fill="#FFFAED" d="M150.2,76c-0.5,0.2-0.9,0.5-1.3,0.9l0,0C149.3,76.6,149.7,76.3,150.2,76L150.2,76z"/>
		<path fill="#FCED96" d="M152,75.9L152,75.9c0.5,0.2,0.9,0.4,1.3,0.7l0,0C153,76.3,152.5,76.1,152,75.9 M154.2,77.9L154.2,77.9
			c0.1,0.5,0.2,0.9,0.1,1.4l0,0C154.4,78.8,154.4,78.4,154.2,77.9"/>
		<path fill="#FFFAED" d="M153.4,76.6L153.4,76.6c0.4,0.4,0.7,0.8,0.8,1.3l0,0C154,77.4,153.7,77,153.4,76.6"/>
		<path fill="#FFF5C7" d="M148.1,78.7c-0.1,0.5,0,1,0.2,1.4l0,0C148.2,79.6,148.1,79.2,148.1,78.7L148.1,78.7z M149.2,81.3
			L149.2,81.3c0.3,0.3,0.8,0.6,1.3,0.7l0,0C150,81.9,149.6,81.6,149.2,81.3"/>
		<path fill="#FFFAED" d="M148.3,80.1L148.3,80.1c0.1,0.5,0.4,1,0.8,1.3l0,0C148.8,81,148.5,80.5,148.3,80.1"/>
		<path fill="#FCED96" d="M154.3,79.8c-0.1,0.5-0.4,0.9-0.7,1.3l0,0C153.9,80.7,154.2,80.3,154.3,79.8L154.3,79.8z M152.3,81.9
			c-0.1,0-0.2,0.1-0.4,0.1v0C152.1,82,152.2,82,152.3,81.9L152.3,81.9z"/>
		<path fill="#FFF5C7" d="M152,82c-0.2,0.1-0.5,0.1-0.7,0.1c-0.1,0-0.2,0-0.3,0l0,0c0.1,0,0.2,0,0.3,0C151.5,82.1,151.7,82.1,152,82
			L152,82z"/>
		<path fill="#FFFAED" d="M153.6,81c-0.3,0.4-0.8,0.7-1.3,0.9l0,0C152.8,81.8,153.3,81.5,153.6,81L153.6,81z"/>
		<path fill="#FFFAED" d="M151.6,75.9L151.6,75.9c0.1,0,0.2,0.1,0.3,0.1c0,0,0.1,0,0.1,0l0,0c0,0-0.1,0-0.1,0
			C151.8,75.9,151.7,75.9,151.6,75.9 M148.2,78.2c0,0,0,0.1,0,0.1c0,0.1,0,0.2,0,0.3l0,0c0-0.1,0-0.2,0-0.3
			C148.2,78.3,148.2,78.3,148.2,78.2L148.2,78.2z M154.4,79.3c0,0.1,0,0.2,0,0.3c0,0,0,0.1,0,0.1l0,0c0,0,0-0.1,0-0.1
			C154.4,79.5,154.4,79.4,154.4,79.3L154.4,79.3z M150.5,82L150.5,82c0,0.1,0.1,0.1,0.1,0.1c0.1,0,0.2,0,0.3,0l0,0
			c-0.1,0-0.2,0-0.3,0C150.6,82,150.6,82,150.5,82"/>
		<path fill="#FFF5C7" d="M151.3,75.9c-0.4,0-0.7,0.1-1.1,0.2l0,0C150.6,76,150.9,75.9,151.3,75.9c0.1,0,0.2,0,0.3,0.1l0,0
			C151.5,75.9,151.4,75.9,151.3,75.9 M148.9,76.9c-0.3,0.4-0.6,0.8-0.7,1.3l0,0C148.4,77.8,148.6,77.3,148.9,76.9L148.9,76.9z"/>
		<path fill="#FFFAED" d="M150.2,76.1c-0.5,0.2-0.9,0.5-1.3,0.9l0,0C149.3,76.6,149.7,76.3,150.2,76.1L150.2,76.1z"/>
		<path fill="#FCED96" d="M152,76L152,76c0.5,0.2,0.9,0.4,1.3,0.7l0,0C153,76.3,152.5,76.1,152,76 M154.2,77.9L154.2,77.9
			c0.1,0.4,0.2,0.9,0.1,1.4l0,0C154.4,78.8,154.3,78.4,154.2,77.9"/>
		<path fill="#FFFAED" d="M153.3,76.7L153.3,76.7c0.4,0.4,0.7,0.8,0.8,1.3l0,0C154,77.4,153.7,77,153.3,76.7"/>
		<path fill="#FFF5C7" d="M148.2,78.7c-0.1,0.5,0,1,0.2,1.4l0,0C148.2,79.6,148.2,79.2,148.2,78.7L148.2,78.7z M149.3,81.3
			L149.3,81.3c0.3,0.3,0.8,0.6,1.3,0.7l0,0C150,81.8,149.6,81.6,149.3,81.3"/>
		<path fill="#FFFAED" d="M148.4,80L148.4,80c0.1,0.5,0.4,1,0.8,1.3l0,0C148.9,81,148.6,80.5,148.4,80"/>
		<path fill="#FCED96" d="M154.2,79.8c-0.1,0.5-0.4,0.9-0.7,1.3l0,0C153.9,80.7,154.2,80.2,154.2,79.8L154.2,79.8z M152.3,81.9
			c-0.1,0-0.2,0.1-0.3,0.1c0,0,0,0,0,0C152.1,82,152.2,82,152.3,81.9L152.3,81.9z"/>
		<path fill="#FFF5C7" d="M152,82c-0.2,0.1-0.5,0.1-0.7,0.1c-0.1,0-0.2,0-0.3,0l0,0c0.1,0,0.2,0,0.3,0C151.5,82.1,151.7,82.1,152,82
			C152,82,152,82,152,82"/>
		<path fill="#FFFAED" d="M153.6,81c-0.3,0.4-0.8,0.7-1.3,0.9l0,0C152.8,81.7,153.3,81.4,153.6,81L153.6,81z"/>
		<path fill="#FFFAED" d="M151.6,75.9L151.6,75.9c0.1,0,0.2,0.1,0.3,0.1c0,0,0.1,0,0.1,0l0,0c0,0-0.1,0-0.1,0
			C151.8,75.9,151.7,75.9,151.6,75.9 M148.3,78.2c0,0,0,0.1,0,0.1c0,0.1,0,0.2,0,0.3l0,0c0-0.1,0-0.2,0-0.3
			C148.3,78.3,148.3,78.3,148.3,78.2L148.3,78.2z M154.3,79.3c0,0.1,0,0.2,0,0.3c0,0,0,0.1,0,0.1l0,0c0,0,0-0.1,0-0.1
			C154.3,79.5,154.3,79.4,154.3,79.3L154.3,79.3z M150.5,82L150.5,82c0,0.1,0.1,0.1,0.1,0.1c0.1,0,0.2,0,0.3,0l0,0
			c-0.1,0-0.2,0-0.3,0C150.6,82,150.6,82,150.5,82"/>
		<path fill="#FFF5C7" d="M151.3,75.9c-0.4,0-0.7,0.1-1,0.2l0,0C150.6,76,150.9,76,151.3,75.9c0.1,0,0.2,0,0.3,0.1l0,0
			C151.5,75.9,151.4,75.9,151.3,75.9 M148.9,77c-0.3,0.4-0.5,0.8-0.7,1.3l0,0C148.5,77.8,148.7,77.4,148.9,77L148.9,77z"/>
		<path fill="#FFFAED" d="M150.2,76.1c-0.5,0.2-0.9,0.5-1.3,0.9l0,0C149.3,76.6,149.8,76.3,150.2,76.1L150.2,76.1z"/>
		<path fill="#FCED96" d="M152,76L152,76c0.5,0.2,0.9,0.4,1.2,0.7l0,0C152.9,76.4,152.5,76.1,152,76 M154.2,78L154.2,78
			c0.1,0.4,0.2,0.9,0.1,1.3l0,0C154.4,78.8,154.3,78.4,154.2,78"/>
		<path fill="#FFFAED" d="M153.3,76.7L153.3,76.7c0.4,0.4,0.7,0.8,0.8,1.3l0,0C154,77.5,153.7,77,153.3,76.7"/>
		<path fill="#FFF5C7" d="M148.2,78.7c0,0.5,0,0.9,0.2,1.3l0,0C148.3,79.6,148.2,79.1,148.2,78.7L148.2,78.7z M149.3,81.3
			L149.3,81.3c0.3,0.3,0.7,0.6,1.2,0.7l0,0C150,81.8,149.6,81.6,149.3,81.3"/>
		<path fill="#FFFAED" d="M148.4,80L148.4,80c0.1,0.5,0.4,1,0.8,1.3l0,0C148.9,80.9,148.6,80.5,148.4,80"/>
		<path fill="#FCED96" d="M154.2,79.8c-0.1,0.5-0.3,0.9-0.6,1.2l0,0C153.9,80.7,154.1,80.2,154.2,79.8L154.2,79.8z M152.3,81.9
			c-0.1,0-0.2,0.1-0.3,0.1v0C152.1,82,152.2,81.9,152.3,81.9L152.3,81.9z"/>
		<path fill="#FFF5C7" d="M152,81.9c-0.2,0.1-0.5,0.1-0.7,0.1c-0.1,0-0.2,0-0.3,0l0,0c0.1,0,0.2,0,0.3,0
			C151.5,82.1,151.7,82,152,81.9L152,81.9z"/>
		<path fill="#FFFAED" d="M153.6,81c-0.3,0.4-0.8,0.7-1.3,0.9l0,0C152.8,81.7,153.2,81.4,153.6,81L153.6,81z"/>
		<path fill="#FFFAED" d="M151.6,75.9L151.6,75.9c0.1,0,0.2,0.1,0.3,0.1c0,0,0.1,0,0.1,0l0,0c0,0-0.1,0-0.1,0
			C151.8,76,151.7,76,151.6,75.9 M148.3,78.2c0,0,0,0.1,0,0.1c0,0.1,0,0.2,0,0.3l0,0c0-0.1,0-0.2,0-0.3
			C148.3,78.3,148.3,78.3,148.3,78.2L148.3,78.2z M154.3,79.3c0,0.1,0,0.2,0,0.3c0,0.1,0,0.1,0,0.1l0,0c0,0,0-0.1,0-0.1
			C154.3,79.5,154.3,79.4,154.3,79.3L154.3,79.3z M150.5,81.9L150.5,81.9c0,0.1,0.1,0.1,0.1,0.1c0.1,0,0.2,0,0.3,0l0,0
			c-0.1,0-0.2,0-0.3,0C150.6,82,150.6,81.9,150.5,81.9"/>
		<path fill="#FFF5C7" d="M151.3,76c-0.3,0-0.7,0.1-1,0.2l0,0C150.6,76.1,150.9,76,151.3,76c0.1,0,0.2,0,0.3,0.1l0,0
			C151.5,76,151.4,76,151.3,76 M149,77c-0.3,0.3-0.5,0.8-0.6,1.2l0,0C148.5,77.8,148.7,77.4,149,77L149,77z"/>
		<path fill="#FFFAED" d="M150.3,76.1c-0.5,0.2-0.9,0.5-1.3,0.9l0,0C149.3,76.7,149.8,76.3,150.3,76.1L150.3,76.1z"/>
		<path fill="#FCED94" d="M152,76.1L152,76.1c0.4,0.2,0.9,0.4,1.2,0.7l0,0C152.9,76.4,152.5,76.2,152,76.1 M154.1,78L154.1,78
			c0.1,0.4,0.2,0.9,0.1,1.3l0,0C154.3,78.8,154.3,78.4,154.1,78"/>
		<path fill="#FFFAED" d="M153.2,76.7L153.2,76.7c0.4,0.4,0.7,0.8,0.8,1.3l0,0C153.9,77.5,153.6,77,153.2,76.7"/>
		<path fill="#FFF5C7" d="M148.3,78.7c0,0.5,0,0.9,0.2,1.3l0,0C148.3,79.6,148.2,79.1,148.3,78.7L148.3,78.7z M149.3,81.3
			L149.3,81.3c0.3,0.3,0.7,0.5,1.2,0.7l0,0C150.1,81.8,149.7,81.6,149.3,81.3"/>
		<path fill="#FFFAED" d="M148.4,80L148.4,80c0.1,0.5,0.4,1,0.8,1.3l0,0C148.9,80.9,148.6,80.5,148.4,80"/>
		<path fill="#FCED94" d="M154.2,79.7c-0.1,0.5-0.3,0.9-0.6,1.2l0,0C153.9,80.6,154.1,80.2,154.2,79.7L154.2,79.7z M152.2,81.8
			c-0.1,0-0.2,0.1-0.3,0.1v0C152.1,81.9,152.2,81.9,152.2,81.8L152.2,81.8z"/>
		<path fill="#FFF5C7" d="M152,81.9c-0.2,0.1-0.5,0.1-0.7,0.1c-0.1,0-0.2,0-0.3,0l0,0c0.1,0,0.2,0,0.3,0C151.5,82,151.7,82,152,81.9
			L152,81.9z"/>
		<path fill="#FFFAED" d="M153.5,80.9c-0.3,0.4-0.8,0.7-1.3,0.9l0,0C152.8,81.7,153.2,81.4,153.5,80.9L153.5,80.9z"/>
		<path fill="#FFFAED" d="M151.6,76L151.6,76c0.1,0,0.2,0.1,0.3,0.1c0.1,0,0.1,0,0.2,0l0,0c0,0-0.1,0-0.1,0
			C151.8,76,151.7,76,151.6,76 M148.3,78.2c0,0,0,0.1,0,0.1c0,0.1,0,0.2,0,0.3l0,0c0-0.1,0-0.2,0-0.3
			C148.3,78.3,148.4,78.3,148.3,78.2L148.3,78.2z M154.2,79.3c0,0.1,0,0.2,0,0.3c0,0.1,0,0.1,0,0.1l0,0c0,0,0-0.1,0-0.1
			C154.3,79.5,154.3,79.4,154.2,79.3L154.2,79.3z M150.5,81.9L150.5,81.9c0,0.1,0.1,0.1,0.1,0.1c0.1,0,0.2,0,0.3,0l0,0
			c-0.1,0-0.2,0-0.3,0C150.6,81.9,150.6,81.9,150.5,81.9"/>
		<path fill="#FFF5C4" d="M151.3,76c-0.3,0-0.7,0.1-1,0.2l0,0C150.6,76.1,150.9,76,151.3,76c0.1,0,0.2,0,0.3,0.1l0,0
			C151.5,76,151.4,76,151.3,76 M149,77.1c-0.3,0.3-0.5,0.7-0.6,1.2l0,0C148.5,77.8,148.7,77.4,149,77.1L149,77.1z"/>
		<path fill="#FFFAED" d="M150.3,76.2c-0.5,0.2-0.9,0.5-1.3,0.9l0,0C149.4,76.7,149.8,76.4,150.3,76.2L150.3,76.2z"/>
		<path fill="#FCED94" d="M152,76.1L152,76.1c0.4,0.2,0.8,0.4,1.2,0.6l0,0C152.9,76.4,152.5,76.2,152,76.1 M154.1,78L154.1,78
			c0.1,0.4,0.2,0.8,0.1,1.3l0,0C154.3,78.8,154.2,78.4,154.1,78"/>
		<path fill="#FFFAED" d="M153.2,76.7L153.2,76.7c0.4,0.4,0.7,0.8,0.9,1.3l0,0C153.9,77.5,153.6,77.1,153.2,76.7"/>
		<path fill="#FFF5C4" d="M148.3,78.7c0,0.4,0,0.9,0.2,1.3l0,0C148.3,79.6,148.3,79.1,148.3,78.7L148.3,78.7z M149.4,81.3
			L149.4,81.3c0.3,0.3,0.7,0.5,1.2,0.6l0,0C150.1,81.7,149.7,81.5,149.4,81.3"/>
		<path fill="#FFFAED" d="M148.5,80L148.5,80c0.1,0.5,0.4,1,0.9,1.3l0,0C149,80.9,148.6,80.5,148.5,80"/>
		<path fill="#FCED94" d="M154.1,79.7c-0.1,0.4-0.3,0.8-0.6,1.2l0,0C153.8,80.6,154,80.2,154.1,79.7L154.1,79.7z M152.2,81.8
			c-0.1,0-0.2,0.1-0.2,0.1v0C152.1,81.9,152.2,81.9,152.2,81.8L152.2,81.8z"/>
		<path fill="#FFF5C4" d="M152,81.9c-0.2,0.1-0.5,0.1-0.7,0.1c-0.1,0-0.2,0-0.3,0l0,0c0.1,0,0.2,0,0.3,0C151.5,82,151.7,82,152,81.9
			L152,81.9z"/>
		<path fill="#FFFAED" d="M153.5,80.9c-0.3,0.4-0.8,0.7-1.3,0.9l0,0C152.7,81.6,153.2,81.3,153.5,80.9L153.5,80.9z"/>
		<path fill="#FFFAED" d="M151.6,76L151.6,76c0.1,0,0.2,0.1,0.3,0.1c0.1,0,0.1,0,0.2,0l0,0c-0.1,0-0.1,0-0.2,0
			C151.8,76,151.7,76,151.6,76 M148.4,78.2c0,0.1,0,0.1,0,0.2c0,0.1,0,0.2,0,0.3l0,0c0-0.1,0-0.2,0-0.3
			C148.4,78.4,148.4,78.3,148.4,78.2L148.4,78.2z M154.2,79.3c0,0.1,0,0.2,0,0.3c0,0.1,0,0.1,0,0.2l0,0c0-0.1,0-0.1,0-0.2
			C154.2,79.5,154.2,79.4,154.2,79.3L154.2,79.3z M150.5,81.9L150.5,81.9c0,0.1,0.1,0.1,0.1,0.1c0.1,0,0.2,0,0.3,0l0,0
			c-0.1,0-0.2,0-0.3,0C150.6,81.9,150.6,81.9,150.5,81.9"/>
		<path fill="#FFF5C4" d="M151.3,76c-0.3,0-0.7,0.1-1,0.2l0,0C150.6,76.1,150.9,76.1,151.3,76c0.1,0,0.2,0,0.3,0.1l0,0
			C151.5,76,151.4,76,151.3,76 M149,77.1c-0.3,0.3-0.5,0.7-0.6,1.2l0,0C148.6,77.8,148.8,77.4,149,77.1L149,77.1z"/>
		<path fill="#FFFAED" d="M150.3,76.2c-0.5,0.2-1,0.5-1.3,0.9l0,0C149.4,76.7,149.8,76.4,150.3,76.2L150.3,76.2z"/>
		<path fill="#FCED94" d="M152,76.1L152,76.1c0.4,0.2,0.8,0.4,1.1,0.6l0,0C152.8,76.5,152.4,76.3,152,76.1 M154.1,78L154.1,78
			c0.1,0.4,0.1,0.8,0.1,1.2l0,0C154.2,78.8,154.2,78.4,154.1,78"/>
		<path fill="#FFFAED" d="M153.2,76.7L153.2,76.7c0.4,0.4,0.7,0.8,0.9,1.3l0,0C153.9,77.5,153.6,77.1,153.2,76.7"/>
		<path fill="#FFF5C4" d="M148.3,78.7c0,0.4,0,0.9,0.1,1.2l0,0C148.4,79.6,148.3,79.1,148.3,78.7L148.3,78.7z M149.4,81.2
			L149.4,81.2c0.3,0.3,0.7,0.5,1.1,0.6l0,0C150.1,81.7,149.7,81.5,149.4,81.2"/>
		<path fill="#FFFAED" d="M148.5,79.9L148.5,79.9c0.1,0.5,0.4,1,0.9,1.3l0,0C149,80.9,148.7,80.4,148.5,79.9"/>
		<path fill="#FCED94" d="M154.1,79.7c-0.1,0.4-0.3,0.8-0.6,1.1l0,0C153.8,80.6,154,80.2,154.1,79.7L154.1,79.7z M152.2,81.8
			c-0.1,0-0.1,0-0.2,0.1v0C152.1,81.8,152.1,81.8,152.2,81.8L152.2,81.8z"/>
		<path fill="#FFF5C4" d="M152,81.8c-0.2,0.1-0.5,0.1-0.7,0.1c-0.1,0-0.2,0-0.3,0l0,0c0.1,0,0.2,0,0.3,0
			C151.5,81.9,151.7,81.9,152,81.8L152,81.8z"/>
		<path fill="#FFFAED" d="M153.5,80.9c-0.3,0.4-0.8,0.7-1.3,0.9l0,0C152.7,81.6,153.2,81.3,153.5,80.9L153.5,80.9z"/>
		<path fill="#FFFAED" d="M151.5,76.1L151.5,76.1c0.1,0,0.2,0.1,0.3,0.1c0.1,0,0.1,0,0.2,0l0,0c-0.1,0-0.1,0-0.2,0
			C151.8,76.1,151.7,76.1,151.5,76.1 M148.4,78.3c0,0.1,0,0.1,0,0.2c0,0.1,0,0.2,0,0.3l0,0c0-0.1,0-0.2,0-0.3
			C148.4,78.4,148.4,78.3,148.4,78.3L148.4,78.3z M154.2,79.3c0,0.1,0,0.2,0,0.3c0,0.1,0,0.1,0,0.2l0,0c0-0.1,0-0.1,0-0.2
			C154.2,79.5,154.2,79.4,154.2,79.3L154.2,79.3z M150.5,81.8L150.5,81.8c0,0.1,0.1,0.1,0.2,0.1c0.1,0,0.2,0,0.3,0l0,0
			c-0.1,0-0.2,0-0.3,0C150.6,81.8,150.6,81.8,150.5,81.8"/>
		<path fill="#FFF5C4" d="M151.3,76.1c-0.3,0-0.6,0.1-0.9,0.2l0,0C150.6,76.2,150.9,76.1,151.3,76.1c0.1,0,0.2,0,0.3,0.1l0,0
			C151.4,76.1,151.4,76.1,151.3,76.1 M149,77.1c-0.3,0.3-0.5,0.7-0.6,1.1l0,0C148.6,77.8,148.8,77.5,149,77.1L149,77.1z"/>
		<path fill="#FFFAED" d="M150.3,76.2c-0.5,0.2-1,0.5-1.3,0.9l0,0C149.4,76.8,149.8,76.4,150.3,76.2L150.3,76.2z"/>
		<path fill="#FCED94" d="M152,76.2L152,76.2c0.4,0.1,0.8,0.3,1.1,0.6l0,0C152.8,76.5,152.4,76.3,152,76.2 M154,78.1L154,78.1
			c0.1,0.4,0.1,0.8,0.1,1.2l0,0C154.2,78.9,154.2,78.4,154,78.1"/>
		<path fill="#FFFAED" d="M153.1,76.8L153.1,76.8c0.4,0.4,0.7,0.8,0.9,1.3l0,0C153.9,77.6,153.5,77.1,153.1,76.8"/>
		<path fill="#FFF5C4" d="M148.4,78.7c0,0.4,0,0.8,0.1,1.2l0,0C148.4,79.5,148.4,79.1,148.4,78.7L148.4,78.7z M149.4,81.2
			L149.4,81.2c0.3,0.3,0.7,0.5,1.1,0.6l0,0C150.1,81.7,149.7,81.5,149.4,81.2"/>
		<path fill="#FFFAED" d="M148.5,79.9L148.5,79.9c0.1,0.5,0.4,1,0.9,1.3l0,0C149,80.9,148.7,80.4,148.5,79.9"/>
		<path fill="#FCED94" d="M154,79.7c-0.1,0.4-0.3,0.8-0.6,1.1l0,0C153.8,80.5,154,80.2,154,79.7L154,79.7z M152.2,81.7
			c-0.1,0-0.1,0-0.2,0.1v0C152.1,81.8,152.1,81.8,152.2,81.7L152.2,81.7z"/>
		<path fill="#FFF5C4" d="M152,81.8c-0.2,0.1-0.5,0.1-0.7,0.1c-0.1,0-0.2,0-0.3,0l0,0c0.1,0,0.2,0,0.3,0
			C151.5,81.9,151.7,81.9,152,81.8L152,81.8z"/>
		<path fill="#FFFAED" d="M153.5,80.8c-0.3,0.4-0.8,0.7-1.3,0.9l0,0C152.7,81.6,153.2,81.3,153.5,80.8L153.5,80.8z"/>
		<path fill="#FFFAED" d="M151.5,76.1L151.5,76.1c0.1,0,0.2,0.1,0.3,0.1c0.1,0,0.1,0,0.2,0l0,0c-0.1,0-0.1,0-0.2,0
			C151.7,76.1,151.6,76.1,151.5,76.1 M148.4,78.3c0,0.1,0,0.1,0,0.2c0,0.1,0,0.2,0,0.3l0,0c0-0.1,0-0.2,0-0.3
			C148.5,78.4,148.5,78.3,148.4,78.3L148.4,78.3z M154.1,79.3c0,0.1,0,0.2,0,0.3c0,0.1,0,0.1,0,0.2l0,0c0-0.1,0-0.1,0-0.2
			C154.1,79.5,154.2,79.4,154.1,79.3L154.1,79.3z M150.5,81.8L150.5,81.8c0,0.1,0.1,0.1,0.2,0.1c0.1,0,0.2,0,0.3,0l0,0
			c-0.1,0-0.2,0-0.3,0C150.6,81.8,150.6,81.8,150.5,81.8"/>
		<path fill="#FFF5C4" d="M151.3,76.1c-0.3,0-0.6,0.1-0.9,0.1l0,0C150.7,76.2,151,76.2,151.3,76.1c0.1,0,0.2,0,0.3,0.1l0,0
			C151.4,76.1,151.3,76.1,151.3,76.1 M149.1,77.2c-0.3,0.3-0.5,0.7-0.6,1.1l0,0C148.6,77.9,148.8,77.5,149.1,77.2L149.1,77.2z"/>
		<path fill="#FFFAED" d="M150.4,76.3c-0.5,0.2-1,0.5-1.3,0.9l0,0C149.4,76.8,149.9,76.5,150.4,76.3L150.4,76.3z"/>
		<path fill="#FCED94" d="M152,76.2L152,76.2c0.4,0.1,0.8,0.3,1.1,0.6l0,0C152.8,76.5,152.4,76.3,152,76.2 M154,78.1L154,78.1
			c0.1,0.4,0.1,0.8,0.1,1.2l0,0C154.2,78.9,154.1,78.5,154,78.1"/>
		<path fill="#FFFAED" d="M153.1,76.8L153.1,76.8c0.4,0.4,0.7,0.8,0.9,1.3l0,0C153.8,77.6,153.5,77.1,153.1,76.8"/>
		<path fill="#FFF5C4" d="M148.4,78.7c0,0.4,0,0.8,0.1,1.2l0,0C148.5,79.5,148.4,79.1,148.4,78.7L148.4,78.7z M149.5,81.2
			L149.5,81.2c0.3,0.3,0.6,0.5,1.1,0.6l0,0C150.1,81.6,149.8,81.4,149.5,81.2"/>
		<path fill="#FFFAED" d="M148.6,79.9L148.6,79.9c0.1,0.5,0.4,1,0.9,1.3l0,0C149.1,80.8,148.7,80.4,148.6,79.9"/>
		<path fill="#FCED94" d="M154,79.7c-0.1,0.4-0.3,0.8-0.5,1.1l0,0C153.7,80.5,153.9,80.1,154,79.7L154,79.7z M152.1,81.7
			c-0.1,0-0.1,0-0.2,0.1v0C152,81.8,152.1,81.7,152.1,81.7L152.1,81.7z"/>
		<path fill="#FFF5C4" d="M152,81.7c-0.2,0.1-0.5,0.1-0.7,0.1c-0.1,0-0.2,0-0.3,0l0,0c0.1,0,0.2,0,0.3,0
			C151.5,81.9,151.7,81.8,152,81.7L152,81.7z"/>
		<path fill="#FFFAED" d="M153.5,80.8c-0.3,0.4-0.8,0.7-1.3,0.9l0,0C152.7,81.6,153.1,81.2,153.5,80.8L153.5,80.8z"/>
		<path fill="#FFFAED" d="M151.5,76.1L151.5,76.1c0.1,0,0.2,0.1,0.3,0.1c0.1,0,0.1,0,0.2,0l0,0c-0.1,0-0.1,0-0.2,0
			C151.7,76.2,151.6,76.1,151.5,76.1 M148.5,78.3c0,0.1,0,0.1,0,0.2c0,0.1,0,0.2,0,0.3l0,0c0-0.1,0-0.2,0-0.3
			C148.5,78.4,148.5,78.3,148.5,78.3L148.5,78.3z M154.1,79.2c0,0.1,0,0.2,0,0.3c0,0.1,0,0.1,0,0.2l0,0c0-0.1,0-0.1,0-0.2
			C154.1,79.5,154.1,79.4,154.1,79.2L154.1,79.2z M150.5,81.7L150.5,81.7c0,0.1,0.1,0.1,0.2,0.1c0.1,0,0.2,0,0.3,0l0,0
			c-0.1,0-0.2,0-0.3,0C150.6,81.8,150.6,81.8,150.5,81.7"/>
		<path fill="#FFF5C4" d="M151.3,76.2c-0.3,0-0.6,0-0.9,0.1l0,0C150.7,76.2,151,76.2,151.3,76.2c0.1,0,0.2,0,0.2,0l0,0
			C151.4,76.2,151.3,76.2,151.3,76.2 M149.1,77.2c-0.2,0.3-0.4,0.7-0.5,1.1l0,0C148.7,77.9,148.9,77.5,149.1,77.2L149.1,77.2z"/>
		<path fill="#FFFAED" d="M150.4,76.3c-0.5,0.2-1,0.5-1.3,0.9l0,0C149.4,76.8,149.9,76.5,150.4,76.3L150.4,76.3z"/>
		<path fill="#FCED94" d="M152,76.3L152,76.3c0.4,0.1,0.7,0.3,1,0.6l0,0C152.8,76.6,152.4,76.4,152,76.3 M154,78.1L154,78.1
			c0.1,0.4,0.1,0.7,0.1,1.1l0,0C154.1,78.9,154.1,78.5,154,78.1"/>
		<path fill="#FFFAED" d="M153.1,76.8L153.1,76.8c0.4,0.4,0.7,0.8,0.9,1.3l0,0C153.8,77.6,153.5,77.1,153.1,76.8"/>
		<path fill="#FFF5C4" d="M148.4,78.7c0,0.4,0,0.8,0.1,1.1l0,0C148.5,79.5,148.4,79.1,148.4,78.7L148.4,78.7z M149.5,81.2
			L149.5,81.2c0.3,0.3,0.6,0.5,1,0.6l0,0C150.1,81.6,149.8,81.4,149.5,81.2"/>
		<path fill="#FFFAED" d="M148.6,79.9L148.6,79.9c0.1,0.5,0.4,1,0.9,1.3l0,0C149.1,80.8,148.8,80.4,148.6,79.9"/>
		<path fill="#FCED94" d="M154,79.7c-0.1,0.4-0.3,0.7-0.5,1l0,0C153.7,80.5,153.9,80.1,154,79.7L154,79.7z M152.1,81.7
			c0,0-0.1,0-0.1,0v0C152,81.7,152.1,81.7,152.1,81.7L152.1,81.7z"/>
		<path fill="#FFF5C4" d="M152,81.7c-0.2,0.1-0.5,0.1-0.7,0.1c-0.1,0-0.2,0-0.2,0l0,0c0.1,0,0.2,0,0.3,0
			C151.5,81.8,151.7,81.8,152,81.7L152,81.7z"/>
		<path fill="#FFFAED" d="M153.4,80.8c-0.3,0.4-0.8,0.7-1.3,0.9l0,0C152.7,81.5,153.1,81.2,153.4,80.8L153.4,80.8z"/>
		<path fill="#FFFAED" d="M151.5,76.2L151.5,76.2c0.1,0,0.2,0.1,0.3,0.1c0.1,0,0.1,0,0.2,0l0,0c-0.1,0-0.1,0-0.2,0
			C151.7,76.2,151.6,76.2,151.5,76.2 M148.5,78.3c0,0.1,0,0.1,0,0.2c0,0.1,0,0.2,0,0.3l0,0c0-0.1,0-0.2,0-0.3
			C148.5,78.4,148.6,78.3,148.5,78.3L148.5,78.3z M154.1,79.2c0,0.1,0,0.2,0,0.3c0,0.1,0,0.1,0,0.2l0,0c0-0.1,0-0.1,0-0.2
			C154.1,79.5,154.1,79.4,154.1,79.2L154.1,79.2z M150.5,81.7L150.5,81.7c0,0.1,0.1,0.1,0.2,0.1c0.1,0,0.2,0,0.3,0l0,0
			c-0.1,0-0.2,0-0.3,0C150.6,81.7,150.6,81.7,150.5,81.7"/>
		<path fill="#FFF5C4" d="M151.3,76.2c-0.3,0-0.6,0-0.9,0.1l0,0C150.7,76.3,151,76.2,151.3,76.2c0.1,0,0.2,0,0.2,0l0,0
			C151.4,76.2,151.3,76.2,151.3,76.2 M149.1,77.2c-0.2,0.3-0.4,0.6-0.5,1l0,0C148.7,77.9,148.9,77.6,149.1,77.2L149.1,77.2z"/>
		<path fill="#FFFAED" d="M150.4,76.3c-0.5,0.2-1,0.5-1.3,0.9l0,0C149.5,76.8,149.9,76.5,150.4,76.3L150.4,76.3z"/>
		<path fill="#FCED91" d="M152,76.3L152,76.3c0.4,0.1,0.7,0.3,1,0.5l0,0C152.7,76.6,152.4,76.4,152,76.3 M153.9,78.1L153.9,78.1
			c0.1,0.4,0.1,0.7,0.1,1.1l0,0C154.1,78.9,154,78.5,153.9,78.1"/>
		<path fill="#FFFAED" d="M153,76.8L153,76.8c0.4,0.4,0.7,0.8,0.9,1.3l0,0C153.8,77.6,153.4,77.2,153,76.8"/>
		<path fill="#FFF5C4" d="M148.5,78.8c0,0.4,0,0.8,0.1,1.1l0,0C148.5,79.5,148.5,79.1,148.5,78.8L148.5,78.8z M149.5,81.1
			L149.5,81.1c0.3,0.3,0.6,0.4,1,0.5l0,0C150.2,81.6,149.8,81.4,149.5,81.1"/>
		<path fill="#FFFAED" d="M148.6,79.8L148.6,79.8c0.1,0.5,0.4,1,0.9,1.3l0,0C149.1,80.8,148.8,80.3,148.6,79.8"/>
		<path fill="#FCED91" d="M153.9,79.7c-0.1,0.4-0.3,0.7-0.5,1l0,0C153.7,80.5,153.9,80.1,153.9,79.7L153.9,79.7z M152.1,81.6
			c0,0-0.1,0-0.1,0v0C152,81.7,152.1,81.7,152.1,81.6L152.1,81.6z"/>
		<path fill="#FFF5C4" d="M152,81.7c-0.2,0.1-0.5,0.1-0.7,0.1c-0.1,0-0.2,0-0.2,0l0,0c0.1,0,0.2,0,0.2,0
			C151.5,81.8,151.7,81.8,152,81.7L152,81.7z"/>
		<path fill="#FFFAED" d="M153.4,80.7c-0.3,0.4-0.8,0.7-1.3,0.9l0,0C152.6,81.5,153.1,81.2,153.4,80.7L153.4,80.7z"/>
		<path fill="#FFFAED" d="M151.5,76.2L151.5,76.2c0.1,0,0.2,0.1,0.3,0.1c0.1,0,0.1,0,0.2,0l0,0c-0.1,0-0.1,0-0.2,0
			C151.7,76.2,151.6,76.2,151.5,76.2 M148.6,78.3c0,0.1,0,0.1,0,0.2c0,0.1,0,0.2,0,0.3l0,0c0-0.1,0-0.2,0-0.3
			C148.6,78.4,148.6,78.3,148.6,78.3L148.6,78.3z M154,79.2c0,0.1,0,0.2,0,0.3c0,0.1,0,0.1,0,0.2l0,0c0-0.1,0-0.1,0-0.2
			C154,79.5,154,79.3,154,79.2L154,79.2z M150.5,81.7L150.5,81.7c0.1,0.1,0.1,0.1,0.2,0.1c0.1,0,0.2,0,0.3,0l0,0c-0.1,0-0.2,0-0.3,0
			C150.7,81.7,150.6,81.7,150.5,81.7"/>
		<path fill="#FFF5C2" d="M151.3,76.2c-0.3,0-0.6,0-0.8,0.1l0,0C150.7,76.3,151,76.3,151.3,76.2c0.1,0,0.2,0,0.2,0l0,0
			C151.4,76.2,151.3,76.2,151.3,76.2 M149.1,77.3c-0.2,0.3-0.4,0.6-0.5,1l0,0C148.7,77.9,148.9,77.6,149.1,77.3L149.1,77.3z"/>
		<path fill="#FFFAED" d="M150.4,76.4c-0.5,0.2-1,0.5-1.3,0.9l0,0C149.5,76.9,149.9,76.6,150.4,76.4L150.4,76.4z"/>
		<path fill="#FCED91" d="M152,76.3L152,76.3c0.4,0.1,0.7,0.3,1,0.5l0,0C152.7,76.6,152.4,76.4,152,76.3 M153.9,78.2L153.9,78.2
			c0.1,0.4,0.1,0.7,0.1,1.1l0,0C154,78.9,154,78.5,153.9,78.2"/>
		<path fill="#FFFAED" d="M153,76.8L153,76.8c0.4,0.4,0.7,0.8,0.9,1.3l0,0C153.7,77.6,153.4,77.2,153,76.8"/>
		<path fill="#FFF5C2" d="M148.5,78.8c0,0.4,0,0.7,0.1,1.1l0,0C148.6,79.5,148.5,79.1,148.5,78.8L148.5,78.8z M149.6,81.1
			L149.6,81.1c0.3,0.3,0.6,0.4,1,0.5l0,0C150.2,81.5,149.9,81.3,149.6,81.1"/>
		<path fill="#FFFAED" d="M148.7,79.8L148.7,79.8c0.1,0.5,0.4,1,0.9,1.3l0,0C149.1,80.8,148.8,80.3,148.7,79.8"/>
		<path fill="#FCED91" d="M153.9,79.7c-0.1,0.4-0.3,0.7-0.5,1l0,0C153.6,80.4,153.8,80.1,153.9,79.7L153.9,79.7z M152.1,81.6
			C152,81.6,152,81.6,152.1,81.6L152.1,81.6C152,81.6,152.1,81.6,152.1,81.6L152.1,81.6z"/>
		<path fill="#FFF5C2" d="M152,81.6c-0.2,0.1-0.5,0.1-0.7,0.1c-0.1,0-0.2,0-0.2,0l0,0c0.1,0,0.2,0,0.2,0
			C151.5,81.8,151.7,81.7,152,81.6L152,81.6z"/>
		<path fill="#FFFAED" d="M153.4,80.7c-0.3,0.4-0.8,0.7-1.3,0.9l0,0C152.6,81.5,153.1,81.1,153.4,80.7L153.4,80.7z"/>
		<path fill="#FFFAED" d="M151.5,76.2L151.5,76.2c0.1,0,0.2,0.1,0.3,0.1c0.1,0,0.1,0,0.2,0l0,0c-0.1,0-0.1,0-0.2,0
			C151.7,76.3,151.6,76.3,151.5,76.2 M148.6,78.3c0,0.1,0,0.1,0,0.2c0,0.1,0,0.2,0,0.3l0,0c0-0.1,0-0.2,0-0.3
			C148.6,78.4,148.6,78.3,148.6,78.3L148.6,78.3z M154,79.2c0,0.1,0,0.2,0,0.3c0,0.1,0,0.1,0,0.2l0,0c0-0.1,0-0.1,0-0.2
			C154,79.4,154,79.3,154,79.2L154,79.2z M150.5,81.6L150.5,81.6c0.1,0.1,0.1,0.1,0.2,0.1c0.1,0,0.2,0,0.3,0l0,0c-0.1,0-0.2,0-0.3,0
			C150.7,81.6,150.6,81.6,150.5,81.6"/>
		<path fill="#FFF5C2" d="M151.3,76.3c-0.3,0-0.5,0-0.8,0.1l0,0C150.7,76.4,151,76.3,151.3,76.3c0.1,0,0.1,0,0.2,0l0,0
			C151.4,76.3,151.3,76.3,151.3,76.3 M149.1,77.3c-0.2,0.3-0.4,0.6-0.5,1l0,0C148.8,77.9,148.9,77.6,149.1,77.3L149.1,77.3z"/>
		<path fill="#FFFAED" d="M150.5,76.4c-0.5,0.2-1,0.5-1.3,0.9l0,0C149.5,76.9,150,76.6,150.5,76.4L150.5,76.4z"/>
		<path fill="#FCED91" d="M152,76.4L152,76.4c0.3,0.1,0.7,0.3,0.9,0.5l0,0C152.7,76.6,152.3,76.5,152,76.4 M153.9,78.2L153.9,78.2
			c0.1,0.3,0.1,0.7,0.1,1l0,0C154,78.9,154,78.5,153.9,78.2"/>
		<path fill="#FFFAED" d="M153,76.9L153,76.9c0.4,0.4,0.7,0.8,0.9,1.4l0,0C153.7,77.7,153.4,77.2,153,76.9"/>
		<path fill="#FFF5C2" d="M148.6,78.8c0,0.4,0,0.7,0.1,1l0,0C148.6,79.5,148.6,79.1,148.6,78.8L148.6,78.8z M149.6,81.1L149.6,81.1
			c0.2,0.2,0.6,0.4,0.9,0.5l0,0C150.2,81.5,149.9,81.3,149.6,81.1"/>
		<path fill="#FFFAED" d="M148.7,79.8L148.7,79.8c0.1,0.5,0.4,1,0.9,1.4l0,0C149.2,80.8,148.9,80.3,148.7,79.8"/>
		<path fill="#FCED91" d="M153.8,79.7c-0.1,0.3-0.3,0.7-0.5,0.9l0,0C153.6,80.4,153.8,80.1,153.8,79.7L153.8,79.7z M152,81.6
			C152,81.6,152,81.6,152,81.6L152,81.6C152,81.6,152,81.6,152,81.6L152,81.6z"/>
		<path fill="#FFF5C2" d="M152,81.6c-0.2,0.1-0.5,0.1-0.7,0.1c-0.1,0-0.1,0-0.2,0l0,0c0.1,0,0.2,0,0.2,0
			C151.5,81.7,151.7,81.7,152,81.6L152,81.6z"/>
		<path fill="#FFFAED" d="M153.4,80.6c-0.3,0.4-0.8,0.8-1.3,0.9l0,0C152.6,81.4,153.1,81.1,153.4,80.6L153.4,80.6z"/>
		<path fill="#FFFAED" d="M151.5,76.3L151.5,76.3c0.1,0,0.2,0.1,0.3,0.1c0.1,0,0.1,0,0.2,0l0,0c-0.1,0-0.1,0-0.2,0
			C151.7,76.3,151.6,76.3,151.5,76.3 M148.6,78.3c0,0.1,0,0.1,0,0.2c0,0.1,0,0.2,0,0.3l0,0c0-0.1,0-0.2,0-0.3
			C148.7,78.4,148.7,78.3,148.6,78.3L148.6,78.3z M153.9,79.2c0,0.1,0,0.2,0,0.3c0,0.1,0,0.1,0,0.2l0,0c0-0.1,0-0.1,0-0.2
			C153.9,79.4,154,79.3,153.9,79.2L153.9,79.2z M150.5,81.6L150.5,81.6c0.1,0.1,0.1,0.1,0.2,0.1c0.1,0,0.2,0,0.3,0l0,0
			c-0.1,0-0.2,0-0.3,0C150.7,81.6,150.6,81.6,150.5,81.6"/>
		<path fill="#FFF5C2" d="M151.3,76.3c-0.3,0-0.5,0-0.8,0.1l0,0C150.8,76.4,151,76.4,151.3,76.3c0.1,0,0.1,0,0.2,0l0,0
			C151.4,76.3,151.3,76.3,151.3,76.3 M149.2,77.3c-0.2,0.3-0.4,0.6-0.5,0.9l0,0C148.8,77.9,149,77.6,149.2,77.3L149.2,77.3z"/>
		<path fill="#FFFAED" d="M150.5,76.4c-0.5,0.2-1,0.5-1.3,0.9l0,0C149.5,76.9,150,76.6,150.5,76.4L150.5,76.4z"/>
		<path fill="#FCED91" d="M152,76.4L152,76.4c0.3,0.1,0.6,0.3,0.9,0.5l0,0C152.6,76.7,152.3,76.5,152,76.4 M153.8,78.2L153.8,78.2
			c0.1,0.3,0.1,0.7,0.1,1l0,0C154,78.9,153.9,78.5,153.8,78.2"/>
		<path fill="#FFFAED" d="M152.9,76.9L152.9,76.9c0.4,0.4,0.7,0.8,0.9,1.4l0,0C153.7,77.7,153.3,77.2,152.9,76.9"/>
		<path fill="#FFF5C2" d="M148.6,78.8c0,0.3,0,0.7,0.1,1l0,0C148.6,79.4,148.6,79.1,148.6,78.8L148.6,78.8z M149.7,81.1L149.7,81.1
			c0.2,0.2,0.5,0.4,0.9,0.5l0,0C150.2,81.4,149.9,81.3,149.7,81.1"/>
		<path fill="#FFFAED" d="M148.7,79.7L148.7,79.7c0.1,0.6,0.4,1,0.9,1.4l0,0C149.2,80.7,148.9,80.3,148.7,79.7"/>
		<path fill="#FCED91" d="M153.8,79.7c-0.1,0.3-0.2,0.6-0.5,0.9l0,0C153.6,80.4,153.8,80.1,153.8,79.7L153.8,79.7z M152,81.5
			C152,81.5,152,81.5,152,81.5L152,81.5C152,81.6,152,81.6,152,81.5L152,81.5z"/>
		<path fill="#FFF5C2" d="M152,81.5c-0.2,0.1-0.5,0.1-0.7,0.1c-0.1,0-0.1,0-0.2,0l0,0c0.1,0,0.1,0,0.2,0
			C151.5,81.7,151.7,81.6,152,81.5L152,81.5z"/>
		<path fill="#FFFAED" d="M153.4,80.6c-0.3,0.4-0.8,0.8-1.3,0.9l0,0C152.6,81.4,153,81.1,153.4,80.6L153.4,80.6z"/>
		<path fill="#FFFAED" d="M151.5,76.3L151.5,76.3c0.1,0,0.2,0.1,0.3,0.1c0.1,0,0.1,0,0.2,0l0,0c-0.1,0-0.1,0-0.2,0
			C151.7,76.4,151.6,76.3,151.5,76.3 M148.7,78.3c0,0.1,0,0.1,0,0.2c0,0.1,0,0.2,0,0.3l0,0c0-0.1,0-0.2,0-0.3
			C148.7,78.4,148.7,78.3,148.7,78.3L148.7,78.3z M153.9,79.2c0,0.1,0,0.2,0,0.3c0,0.1,0,0.1,0,0.2l0,0c0-0.1,0-0.1,0-0.2
			C153.9,79.4,153.9,79.3,153.9,79.2L153.9,79.2z M150.6,81.5L150.6,81.5c0.1,0.1,0.1,0.1,0.2,0.1c0.1,0,0.2,0,0.3,0l0,0
			c-0.1,0-0.2,0-0.3,0C150.7,81.6,150.6,81.6,150.6,81.5"/>
		<path fill="#FFF5C2" d="M151.3,76.4c-0.3,0-0.5,0-0.7,0.1l0,0C150.8,76.4,151,76.4,151.3,76.4c0.1,0,0.1,0,0.2,0l0,0
			C151.4,76.4,151.3,76.4,151.3,76.4 M149.2,77.4c-0.2,0.3-0.4,0.6-0.5,0.9l0,0C148.9,78,149,77.7,149.2,77.4L149.2,77.4z"/>
		<path fill="#FFFAED" d="M150.5,76.5c-0.5,0.2-1,0.5-1.3,0.9l0,0C149.5,77,150,76.7,150.5,76.5L150.5,76.5z"/>
		<path fill="#FCED8F" d="M152,76.5L152,76.5c0.3,0.1,0.6,0.3,0.9,0.5l0,0C152.6,76.7,152.3,76.5,152,76.5 M153.8,78.2L153.8,78.2
			c0.1,0.3,0.1,0.6,0.1,0.9l0,0C153.9,78.9,153.9,78.5,153.8,78.2"/>
		<path fill="#FFFAED" d="M152.9,76.9L152.9,76.9c0.4,0.4,0.7,0.8,0.9,1.4l0,0C153.6,77.7,153.3,77.2,152.9,76.9"/>
		<path fill="#FFF5C2" d="M148.6,78.8c0,0.3,0,0.7,0.1,1l0,0C148.7,79.4,148.6,79.1,148.6,78.8L148.6,78.8z M149.7,81.1L149.7,81.1
			c0.2,0.2,0.5,0.4,0.9,0.5l0,0C150.2,81.4,149.9,81.3,149.7,81.1"/>
		<path fill="#FFFAED" d="M148.8,79.7L148.8,79.7c0.1,0.6,0.4,1,0.9,1.4l0,0C149.2,80.7,148.9,80.3,148.8,79.7"/>
		<path fill="#FCED8F" d="M153.8,79.7c-0.1,0.3-0.2,0.6-0.4,0.9l0,0C153.6,80.3,153.7,80,153.8,79.7L153.8,79.7z M152,81.5
			C152,81.5,152,81.5,152,81.5L152,81.5C152,81.5,152,81.5,152,81.5L152,81.5z"/>
		<path fill="#FFF5C2" d="M152,81.5c-0.2,0.1-0.5,0.1-0.7,0.1c-0.1,0-0.1,0-0.2,0l0,0c0.1,0,0.1,0,0.2,0
			C151.5,81.6,151.7,81.6,152,81.5L152,81.5z"/>
		<path fill="#FFFAED" d="M153.3,80.6c-0.3,0.4-0.8,0.8-1.3,0.9l0,0C152.5,81.4,153,81,153.3,80.6L153.3,80.6z"/>
		<path fill="#FFFAED" d="M151.5,76.4L151.5,76.4c0.1,0,0.2,0.1,0.3,0.1c0.1,0,0.1,0,0.2,0l0,0c-0.1,0-0.1,0-0.2,0
			C151.7,76.4,151.6,76.4,151.5,76.4 M148.7,78.3c0,0.1,0,0.1,0,0.2c0,0.1,0,0.2,0,0.3l0,0c0-0.1,0-0.2,0-0.3
			C148.7,78.4,148.7,78.4,148.7,78.3L148.7,78.3z M153.9,79.2c0,0.1,0,0.2,0,0.3c0,0.1,0,0.1,0,0.2l0,0c0-0.1,0-0.1,0-0.2
			C153.9,79.4,153.9,79.3,153.9,79.2L153.9,79.2z M150.6,81.5L150.6,81.5c0.1,0.1,0.1,0.1,0.2,0.1c0.1,0,0.2,0,0.3,0l0,0
			c-0.1,0-0.2,0-0.3,0C150.7,81.5,150.6,81.5,150.6,81.5"/>
		<path fill="#FFF5C2" d="M151.3,76.4c-0.2,0-0.5,0-0.7,0.1l0,0C150.8,76.5,151,76.4,151.3,76.4c0.1,0,0.1,0,0.2,0l0,0
			C151.4,76.4,151.3,76.4,151.3,76.4 M149.2,77.4c-0.2,0.3-0.3,0.5-0.4,0.9l0,0C148.9,78,149,77.7,149.2,77.4L149.2,77.4z"/>
		<path fill="#FFFAEB" d="M150.5,76.5c-0.5,0.2-1,0.5-1.3,0.9l0,0C149.6,77,150,76.7,150.5,76.5L150.5,76.5z"/>
		<path fill="#FCED8F" d="M152,76.5L152,76.5c0.3,0.1,0.6,0.3,0.8,0.5l0,0C152.6,76.7,152.3,76.6,152,76.5 M153.8,78.3L153.8,78.3
			c0,0.3,0.1,0.6,0.1,0.9l0,0C153.9,78.9,153.8,78.6,153.8,78.3"/>
		<path fill="#FFFAEB" d="M152.8,76.9L152.8,76.9c0.4,0.4,0.7,0.8,0.9,1.4l0,0C153.6,77.7,153.3,77.3,152.8,76.9"/>
		<path fill="#FFF5C2" d="M148.7,78.8c0,0.3,0,0.6,0.1,0.9l0,0C148.7,79.4,148.7,79.1,148.7,78.8L148.7,78.8z M149.7,81L149.7,81
			c0.2,0.2,0.5,0.4,0.8,0.5l0,0C150.3,81.4,150,81.2,149.7,81"/>
		<path fill="#FFFAEB" d="M148.8,79.7L148.8,79.7c0.1,0.6,0.4,1,0.9,1.4l0,0C149.3,80.7,149,80.2,148.8,79.7"/>
		<path fill="#FCED8F" d="M153.7,79.7c-0.1,0.3-0.2,0.6-0.4,0.8l0,0C153.5,80.3,153.7,80,153.7,79.7L153.7,79.7z M152,81.5L152,81.5
			C152,81.5,152,81.5,152,81.5L152,81.5z"/>
		<path fill="#FFF5C2" d="M152,81.5c-0.2,0.1-0.5,0.1-0.7,0.1c-0.1,0-0.1,0-0.2,0l0,0c0.1,0,0.1,0,0.2,0
			C151.5,81.6,151.7,81.6,152,81.5L152,81.5L152,81.5z"/>
		<path fill="#FFFAEB" d="M153.3,80.5c-0.3,0.4-0.8,0.8-1.3,0.9l0,0l0,0C152.5,81.3,153,81,153.3,80.5L153.3,80.5z"/>
		<path fill="#FFFAEB" d="M151.5,76.4L151.5,76.4c0.1,0,0.2,0.1,0.3,0.1c0.1,0,0.1,0,0.2,0l0,0c-0.1,0-0.1,0-0.2,0
			C151.7,76.4,151.6,76.4,151.5,76.4 M148.8,78.3c0,0.1,0,0.1,0,0.2c0,0.1,0,0.2,0,0.3l0,0c0-0.1,0-0.2,0-0.3
			C148.8,78.4,148.8,78.4,148.8,78.3L148.8,78.3z M153.8,79.2c0,0.1,0,0.2,0,0.3c0,0.1,0,0.1,0,0.2l0,0c0-0.1,0-0.1,0-0.2
			C153.8,79.4,153.9,79.3,153.8,79.2L153.8,79.2z M150.6,81.5L150.6,81.5c0.1,0.1,0.1,0.1,0.2,0.1c0.1,0,0.2,0,0.3,0l0,0
			c-0.1,0-0.2,0-0.3,0C150.7,81.5,150.6,81.5,150.6,81.5"/>
		<path fill="#FFF5C2" d="M151.3,76.4c-0.2,0-0.5,0-0.7,0.1l0,0C150.8,76.5,151,76.5,151.3,76.4c0.1,0,0.1,0,0.2,0l0,0
			C151.4,76.4,151.3,76.4,151.3,76.4 M149.2,77.5c-0.2,0.2-0.3,0.5-0.4,0.8l0,0C148.9,78,149.1,77.7,149.2,77.5L149.2,77.5z"/>
		<path fill="#FFFAEB" d="M150.6,76.5c-0.5,0.2-1,0.5-1.3,0.9l0,0C149.6,77,150,76.7,150.6,76.5L150.6,76.5z"/>
		<path fill="#FCED8F" d="M152,76.5L152,76.5c0.3,0.1,0.6,0.3,0.8,0.4l0,0C152.6,76.8,152.3,76.6,152,76.5 M153.7,78.3L153.7,78.3
			c0,0.3,0.1,0.6,0.1,0.9l0,0C153.8,78.9,153.8,78.6,153.7,78.3"/>
		<path fill="#FFFAEB" d="M152.8,76.9L152.8,76.9c0.4,0.4,0.7,0.8,0.9,1.4l0,0C153.6,77.8,153.3,77.3,152.8,76.9"/>
		<path fill="#FFF5C2" d="M148.7,78.8c0,0.3,0,0.6,0.1,0.9l0,0C148.8,79.4,148.7,79.1,148.7,78.8L148.7,78.8z M149.8,81L149.8,81
			c0.2,0.2,0.5,0.3,0.8,0.4l0,0C150.3,81.3,150,81.2,149.8,81"/>
		<path fill="#FFFAEB" d="M148.8,79.7L148.8,79.7c0.1,0.6,0.4,1,0.9,1.4l0,0C149.3,80.7,149,80.2,148.8,79.7"/>
		<path fill="#FCED8F" d="M153.7,79.7c-0.1,0.3-0.2,0.6-0.4,0.8l0,0C153.5,80.3,153.6,80,153.7,79.7L153.7,79.7z"/>
		<path fill="#FFF5C2" d="M151.9,81.4c-0.2,0.1-0.4,0.1-0.7,0.1c-0.1,0-0.1,0-0.2,0l0,0c0.1,0,0.1,0,0.2,0
			C151.5,81.6,151.7,81.5,151.9,81.4L151.9,81.4z"/>
		<path fill="#FFFAEB" d="M153.3,80.5c-0.3,0.5-0.8,0.8-1.4,0.9l0,0C152.5,81.3,153,81,153.3,80.5L153.3,80.5z"/>
		<path fill="#FFFAEB" d="M151.4,76.4L151.4,76.4c0.1,0,0.2,0.1,0.3,0.1c0.1,0,0.1,0,0.2,0l0,0c-0.1,0-0.1,0-0.2,0
			C151.7,76.5,151.6,76.4,151.4,76.4 M148.8,78.3c0,0.1,0,0.1,0,0.2c0,0.1,0,0.2,0,0.3l0,0c0-0.1,0-0.2,0-0.3
			C148.8,78.4,148.8,78.4,148.8,78.3L148.8,78.3z M153.8,79.2c0,0.1,0,0.2,0,0.3c0,0.1,0,0.1,0,0.2l0,0c0-0.1,0-0.1,0-0.2
			C153.8,79.4,153.8,79.3,153.8,79.2L153.8,79.2z M150.6,81.4L150.6,81.4c0.1,0.1,0.1,0.1,0.2,0.1c0.1,0,0.2,0,0.3,0l0,0
			c-0.1,0-0.2,0-0.3,0C150.7,81.5,150.6,81.4,150.6,81.4"/>
		<path fill="#FFF5C2" d="M151.3,76.5c-0.2,0-0.5,0-0.7,0.1l0,0C150.8,76.5,151,76.5,151.3,76.5c0.1,0,0.1,0,0.2,0l0,0
			C151.4,76.5,151.3,76.5,151.3,76.5 M149.2,77.5c-0.2,0.2-0.3,0.5-0.4,0.8l0,0C149,78,149.1,77.8,149.2,77.5L149.2,77.5z"/>
		<path fill="#FFFAEB" d="M150.6,76.6c-0.5,0.2-1,0.5-1.4,0.9l0,0C149.6,77.1,150.1,76.7,150.6,76.6L150.6,76.6z"/>
		<path fill="#FCED8F" d="M152,76.6L152,76.6c0.3,0.1,0.5,0.3,0.8,0.4l0,0C152.5,76.8,152.3,76.7,152,76.6 M153.7,78.3L153.7,78.3
			c0,0.3,0.1,0.6,0,0.8l0,0C153.8,78.9,153.8,78.6,153.7,78.3"/>
		<path fill="#FFFAEB" d="M152.8,77L152.8,77c0.4,0.4,0.7,0.8,0.9,1.4l0,0C153.5,77.8,153.2,77.3,152.8,77"/>
		<path fill="#FFF5C2" d="M148.7,78.8c0,0.3,0,0.6,0.1,0.8l0,0C148.8,79.4,148.8,79.1,148.7,78.8L148.7,78.8z M149.8,81L149.8,81
			c0.2,0.2,0.5,0.3,0.8,0.4l0,0C150.3,81.3,150,81.2,149.8,81"/>
		<path fill="#FFFAEB" d="M148.9,79.6L148.9,79.6c0.1,0.6,0.4,1,0.9,1.4l0,0C149.3,80.7,149,80.2,148.9,79.6"/>
		<path fill="#FCED8F" d="M153.6,79.7c-0.1,0.3-0.2,0.5-0.4,0.8l0,0C153.5,80.3,153.6,80,153.6,79.7L153.6,79.7z"/>
		<path fill="#FFF5C2" d="M151.9,81.4c-0.2,0.1-0.4,0.1-0.6,0.1c-0.1,0-0.1,0-0.2,0l0,0c0.1,0,0.1,0,0.2,0
			C151.5,81.5,151.7,81.5,151.9,81.4L151.9,81.4z"/>
		<path fill="#FFFAEB" d="M153.3,80.5c-0.3,0.5-0.8,0.8-1.4,0.9l0,0C152.5,81.3,153,80.9,153.3,80.5L153.3,80.5z"/>
		<path fill="#FFFAEB" d="M151.4,76.5L151.4,76.5c0.1,0,0.2,0.1,0.3,0.1c0.1,0,0.1,0,0.2,0l0,0c-0.1,0-0.1,0-0.2,0
			C151.7,76.5,151.5,76.5,151.4,76.5 M148.8,78.3c0,0.1,0,0.1,0,0.2c0,0.1,0,0.2,0,0.3l0,0c0-0.1,0-0.2,0-0.3
			C148.8,78.4,148.9,78.4,148.8,78.3L148.8,78.3z M153.7,79.2c0,0.1,0,0.2,0,0.3c0,0.1,0,0.1,0,0.2l0,0c0-0.1,0-0.1,0-0.2
			C153.8,79.4,153.8,79.3,153.7,79.2L153.7,79.2z M150.6,81.4L150.6,81.4c0.1,0.1,0.1,0.1,0.2,0.1c0.1,0,0.2,0,0.3,0l0,0
			c-0.1,0-0.2,0-0.3,0C150.7,81.4,150.6,81.4,150.6,81.4"/>
		<path fill="#FCF5C2" d="M151.3,76.5c-0.2,0-0.4,0-0.6,0.1l0,0C150.8,76.6,151.1,76.6,151.3,76.5c0.1,0,0.1,0,0.2,0l0,0
			C151.4,76.5,151.3,76.5,151.3,76.5 M149.3,77.5c-0.2,0.2-0.3,0.5-0.4,0.8l0,0C149,78,149.1,77.8,149.3,77.5L149.3,77.5z"/>
		<path fill="#FFFAEB" d="M150.6,76.6c-0.5,0.1-1,0.5-1.4,0.9l0,0C149.6,77.1,150.1,76.8,150.6,76.6L150.6,76.6z"/>
		<path fill="#FCED8F" d="M152,76.6L152,76.6c0.3,0.1,0.5,0.2,0.7,0.4l0,0C152.5,76.8,152.2,76.7,152,76.6 M153.7,78.3L153.7,78.3
			c0,0.3,0.1,0.5,0,0.8l0,0C153.8,78.9,153.7,78.6,153.7,78.3"/>
		<path fill="#FFFAEB" d="M152.7,77L152.7,77c0.4,0.4,0.8,0.8,0.9,1.4l0,0C153.5,77.8,153.2,77.3,152.7,77"/>
		<path fill="#FCF5C2" d="M148.8,78.8c0,0.3,0,0.6,0.1,0.8l0,0C148.8,79.4,148.8,79.1,148.8,78.8L148.8,78.8z M149.8,81L149.8,81
			c0.2,0.2,0.4,0.3,0.7,0.4l0,0C150.3,81.3,150.1,81.1,149.8,81"/>
		<path fill="#FFFAEB" d="M148.9,79.6L148.9,79.6c0.1,0.6,0.4,1.1,0.9,1.4l0,0C149.4,80.7,149,80.2,148.9,79.6"/>
		<path fill="#FCED8F" d="M153.6,79.7c-0.1,0.3-0.2,0.5-0.4,0.7l0,0C153.4,80.2,153.6,80,153.6,79.7L153.6,79.7z"/>
		<path fill="#FCF5C2" d="M151.9,81.4c-0.2,0.1-0.4,0.1-0.6,0.1c-0.1,0-0.1,0-0.2,0l0,0c0.1,0,0.1,0,0.2,0
			C151.5,81.5,151.7,81.5,151.9,81.4L151.9,81.4z"/>
		<path fill="#FFFAEB" d="M153.3,80.4c-0.3,0.5-0.8,0.8-1.4,0.9l0,0C152.5,81.2,152.9,80.9,153.3,80.4L153.3,80.4z"/>
		<path fill="#FFFAEB" d="M151.4,76.5L151.4,76.5c0.1,0,0.2,0.1,0.3,0.1c0.1,0,0.1,0,0.2,0l0,0c-0.1,0-0.1,0-0.2,0
			C151.7,76.5,151.5,76.5,151.4,76.5 M148.9,78.3c0,0.1,0,0.1,0,0.2c0,0.1,0,0.2,0,0.3l0,0c0-0.1,0-0.2,0-0.3
			C148.9,78.4,148.9,78.4,148.9,78.3L148.9,78.3z M153.7,79.1c0,0.1,0,0.2,0,0.3c0,0.1,0,0.1,0,0.2l0,0c0-0.1,0-0.1,0-0.2
			C153.7,79.4,153.7,79.3,153.7,79.1L153.7,79.1z M150.6,81.3L150.6,81.3c0.1,0.1,0.1,0.1,0.2,0.1c0.1,0,0.2,0,0.3,0l0,0
			c-0.1,0-0.2,0-0.3,0C150.7,81.4,150.6,81.4,150.6,81.3"/>
		<path fill="#FCF5C2" d="M151.3,76.6c-0.2,0-0.4,0-0.6,0.1l0,0C150.9,76.6,151.1,76.6,151.3,76.6c0,0,0.1,0,0.1,0l0,0
			C151.4,76.6,151.3,76.6,151.3,76.6 M149.3,77.6c-0.2,0.2-0.3,0.5-0.4,0.7l0,0C149,78.1,149.2,77.8,149.3,77.6L149.3,77.6z"/>
		<path fill="#FFFAEB" d="M150.6,76.6c-0.5,0.1-1,0.5-1.4,0.9l0,0C149.6,77.1,150.1,76.8,150.6,76.6L150.6,76.6z"/>
		<path fill="#FCED8F" d="M152,76.7L152,76.7c0.3,0.1,0.5,0.2,0.7,0.4l0,0C152.5,76.9,152.2,76.7,152,76.7 M153.6,78.4L153.6,78.4
			c0,0.3,0.1,0.5,0,0.8l0,0C153.7,78.9,153.7,78.6,153.6,78.4"/>
		<path fill="#FFFAEB" d="M152.7,77L152.7,77c0.4,0.4,0.8,0.8,0.9,1.4l0,0C153.5,77.8,153.2,77.3,152.7,77"/>
		<path fill="#FCF5C2" d="M148.8,78.8c0,0.3,0,0.5,0.1,0.8l0,0C148.9,79.4,148.8,79.1,148.8,78.8L148.8,78.8z M149.9,81L149.9,81
			c0.2,0.2,0.4,0.3,0.7,0.4l0,0C150.3,81.2,150.1,81.1,149.9,81"/>
		<path fill="#FFFAEB" d="M148.9,79.6L148.9,79.6c0.1,0.6,0.4,1.1,0.9,1.4l0,0C149.4,80.6,149.1,80.1,148.9,79.6"/>
		<path fill="#FCED8F" d="M153.6,79.7c-0.1,0.3-0.2,0.5-0.3,0.7l0,0C153.4,80.2,153.5,80,153.6,79.7L153.6,79.7z"/>
		<path fill="#FCF5C2" d="M151.9,81.3c-0.2,0-0.4,0.1-0.6,0.1c0,0-0.1,0-0.1,0l0,0c0.1,0,0.1,0,0.2,0
			C151.5,81.4,151.7,81.4,151.9,81.3L151.9,81.3z"/>
		<path fill="#FFFAEB" d="M153.2,80.4c-0.3,0.5-0.8,0.8-1.4,0.9l0,0C152.4,81.2,152.9,80.9,153.2,80.4L153.2,80.4z"/>
		<path fill="#FFFAEB" d="M151.4,76.6L151.4,76.6c0.1,0,0.2,0.1,0.3,0.1c0.1,0,0.1,0,0.2,0.1l0,0c-0.1,0-0.1,0-0.2-0.1
			C151.6,76.6,151.5,76.6,151.4,76.6 M148.9,78.3c0,0.1,0,0.1,0,0.2c0,0.1,0,0.2,0,0.3l0,0c0-0.1,0-0.2,0-0.3
			C148.9,78.4,148.9,78.4,148.9,78.3L148.9,78.3z M153.7,79.1c0,0.1,0,0.2,0,0.3c0,0.1,0,0.1-0.1,0.2l0,0c0-0.1,0-0.1,0-0.2
			C153.7,79.4,153.7,79.3,153.7,79.1L153.7,79.1z M150.6,81.3L150.6,81.3c0.1,0.1,0.1,0.1,0.2,0.1c0.1,0,0.2,0,0.3,0l0,0
			c-0.1,0-0.2,0-0.3,0C150.7,81.3,150.6,81.3,150.6,81.3"/>
		<path fill="#FCF5C2" d="M151.3,76.6c-0.2,0-0.4,0-0.6,0.1l0,0C150.9,76.7,151.1,76.6,151.3,76.6c0,0,0.1,0,0.1,0l0,0
			C151.4,76.6,151.3,76.6,151.3,76.6 M149.3,77.6c-0.1,0.2-0.3,0.4-0.3,0.7l0,0C149.1,78.1,149.2,77.8,149.3,77.6L149.3,77.6z"/>
		<path fill="#FFFAEB" d="M150.7,76.7c-0.6,0.1-1,0.5-1.4,0.9l0,0C149.6,77.2,150.1,76.8,150.7,76.7L150.7,76.7z"/>
		<path fill="#FCED8F" d="M152,76.7L152,76.7c0.2,0.1,0.5,0.2,0.7,0.4l0,0C152.4,76.9,152.2,76.8,152,76.7 M153.6,78.4L153.6,78.4
			c0,0.3,0,0.5,0,0.7l0,0C153.7,78.9,153.7,78.6,153.6,78.4"/>
		<path fill="#FFFAEB" d="M152.7,77L152.7,77c0.4,0.3,0.8,0.8,0.9,1.4l0,0C153.5,77.8,153.1,77.4,152.7,77"/>
		<path fill="#FCF5C2" d="M148.9,78.9c0,0.3,0,0.5,0.1,0.7l0,0C148.9,79.3,148.9,79.1,148.9,78.9L148.9,78.9z M149.9,80.9
			L149.9,80.9c0.2,0.2,0.4,0.3,0.7,0.4l0,0C150.3,81.2,150.1,81.1,149.9,80.9"/>
		<path fill="#FFFAEB" d="M149,79.6L149,79.6c0.1,0.6,0.4,1.1,0.9,1.4l0,0C149.4,80.6,149.1,80.1,149,79.6"/>
		<path fill="#FCED8F" d="M153.5,79.7c-0.1,0.2-0.2,0.5-0.3,0.7l0,0C153.4,80.2,153.5,79.9,153.5,79.7L153.5,79.7z"/>
		<path fill="#FCF5C2" d="M151.8,81.3c-0.2,0-0.4,0.1-0.6,0.1c0,0-0.1,0-0.1,0l0,0c0,0,0.1,0,0.1,0
			C151.5,81.4,151.7,81.4,151.8,81.3L151.8,81.3z"/>
		<path fill="#FFFAEB" d="M153.2,80.3c-0.3,0.5-0.8,0.8-1.4,0.9l0,0C152.4,81.2,152.9,80.9,153.2,80.3L153.2,80.3z"/>
		<path fill="#FFFAEB" d="M151.4,76.6L151.4,76.6c0.1,0,0.2,0.1,0.3,0.1c0.1,0,0.1,0,0.2,0.1l0,0c-0.1,0-0.1,0-0.2-0.1
			C151.6,76.6,151.5,76.6,151.4,76.6 M149,78.3c0,0.1,0,0.1-0.1,0.2c0,0.1,0,0.2,0,0.3l0,0c0-0.1,0-0.2,0-0.3
			C149,78.5,149,78.4,149,78.3L149,78.3z M153.6,79.1c0,0.1,0,0.2,0,0.3c0,0.1,0,0.1-0.1,0.2l0,0c0-0.1,0-0.1,0.1-0.2
			C153.6,79.4,153.7,79.3,153.6,79.1L153.6,79.1z M150.6,81.3L150.6,81.3c0.1,0.1,0.1,0.1,0.2,0.1c0.1,0,0.2,0,0.3,0l0,0
			c-0.1,0-0.2,0-0.3,0C150.7,81.3,150.7,81.3,150.6,81.3"/>
		<path fill="#FCF5BF" d="M151.3,76.6c-0.2,0-0.4,0-0.6,0.1l0,0C150.9,76.7,151.1,76.7,151.3,76.6c0,0,0.1,0,0.1,0l0,0
			C151.4,76.6,151.3,76.6,151.3,76.6 M149.3,77.6c-0.1,0.2-0.3,0.4-0.3,0.7l0,0C149.1,78.1,149.2,77.9,149.3,77.6L149.3,77.6z"/>
		<path fill="#FFFAEB" d="M150.7,76.7c-0.6,0.1-1,0.5-1.4,0.9l0,0C149.7,77.2,150.2,76.9,150.7,76.7L150.7,76.7z"/>
		<path fill="#FCED8C" d="M151.9,76.7L151.9,76.7c0.2,0.1,0.4,0.2,0.6,0.3l0,0C152.4,76.9,152.2,76.8,151.9,76.7 M153.6,78.4
			L153.6,78.4c0,0.2,0,0.5,0,0.7l0,0C153.6,78.9,153.6,78.7,153.6,78.4"/>
		<path fill="#FFFAEB" d="M152.6,77.1L152.6,77.1c0.4,0.3,0.8,0.8,0.9,1.4l0,0C153.4,77.9,153.1,77.4,152.6,77.1"/>
		<path fill="#FCF5BF" d="M148.9,78.9c0,0.2,0,0.5,0.1,0.7l0,0C149,79.3,148.9,79.1,148.9,78.9L148.9,78.9z M150,80.9L150,80.9
			c0.2,0.2,0.4,0.3,0.6,0.3l0,0C150.4,81.2,150.1,81,150,80.9"/>
		<path fill="#FFFAEB" d="M149,79.5L149,79.5c0.1,0.6,0.4,1.1,0.9,1.4l0,0C149.5,80.6,149.1,80.1,149,79.5"/>
		<path fill="#FCED8C" d="M153.5,79.7c-0.1,0.2-0.2,0.4-0.3,0.6l0,0C153.3,80.1,153.5,79.9,153.5,79.7L153.5,79.7z"/>
		<path fill="#FCF5BF" d="M151.8,81.3c-0.2,0-0.4,0.1-0.5,0.1c0,0-0.1,0-0.1,0l0,0c0,0,0.1,0,0.1,0
			C151.5,81.4,151.7,81.3,151.8,81.3L151.8,81.3z"/>
		<path fill="#FFFAEB" d="M153.2,80.3c-0.3,0.5-0.8,0.8-1.4,0.9l0,0C152.4,81.2,152.9,80.8,153.2,80.3L153.2,80.3z"/>
		<path fill="#FFFAEB" d="M151.4,76.6L151.4,76.6c0.1,0,0.2,0.1,0.3,0.1c0.1,0,0.1,0,0.2,0.1l0,0c-0.1,0-0.1,0-0.2-0.1
			C151.6,76.7,151.5,76.6,151.4,76.6 M149,78.3c0,0.1,0,0.1-0.1,0.2c0,0.1,0,0.2,0,0.3l0,0c0-0.1,0-0.2,0-0.3
			C149,78.5,149,78.4,149,78.3L149,78.3z M153.6,79.1c0,0.1,0,0.2,0,0.3c0,0.1,0,0.1-0.1,0.2l0,0c0-0.1,0-0.1,0.1-0.2
			C153.6,79.4,153.6,79.2,153.6,79.1L153.6,79.1z M150.6,81.2L150.6,81.2c0.1,0.1,0.1,0.1,0.2,0.1c0.1,0,0.2,0,0.3,0l0,0
			c-0.1,0-0.2,0-0.3,0C150.7,81.3,150.7,81.2,150.6,81.2"/>
		<path fill="#FCF5BF" d="M151.3,76.7c-0.2,0-0.4,0-0.5,0.1l0,0C150.9,76.7,151.1,76.7,151.3,76.7c0,0,0.1,0,0.1,0l0,0
			C151.3,76.7,151.3,76.7,151.3,76.7 M149.3,77.7c-0.1,0.2-0.2,0.4-0.3,0.6l0,0C149.1,78.1,149.2,77.9,149.3,77.7L149.3,77.7z"/>
		<path fill="#FFFAEB" d="M150.7,76.7c-0.6,0.1-1.1,0.5-1.4,1l0,0C149.7,77.2,150.2,76.9,150.7,76.7L150.7,76.7z"/>
		<path fill="#FCED8C" d="M151.9,76.8L151.9,76.8c0.2,0.1,0.4,0.2,0.6,0.3l0,0C152.4,76.9,152.2,76.8,151.9,76.8 M153.5,78.5
			L153.5,78.5c0,0.2,0,0.4,0,0.7l0,0C153.6,78.9,153.6,78.7,153.5,78.5"/>
		<path fill="#FFFAEB" d="M152.6,77.1L152.6,77.1c0.4,0.3,0.8,0.8,0.9,1.4l0,0C153.4,77.9,153.1,77.4,152.6,77.1"/>
		<path fill="#FCF5BF" d="M148.9,78.9c0,0.2,0,0.5,0.1,0.7l0,0C149,79.3,149,79.1,148.9,78.9L148.9,78.9z M150,80.9L150,80.9
			c0.2,0.2,0.4,0.3,0.6,0.3l0,0C150.4,81.1,150.2,81,150,80.9"/>
		<path fill="#FFFAEB" d="M149,79.5L149,79.5c0.1,0.6,0.4,1.1,0.9,1.4l0,0C149.5,80.6,149.2,80.1,149,79.5"/>
		<path fill="#FCED8C" d="M153.5,79.7c-0.1,0.2-0.2,0.4-0.3,0.6l0,0C153.3,80.1,153.4,79.9,153.5,79.7L153.5,79.7z"/>
		<path fill="#FCF5BF" d="M151.8,81.2c-0.2,0-0.3,0.1-0.5,0.1c0,0-0.1,0-0.1,0l0,0c0,0,0.1,0,0.1,0
			C151.5,81.3,151.6,81.3,151.8,81.2L151.8,81.2z"/>
		<path fill="#FFFAEB" d="M153.2,80.3c-0.3,0.5-0.8,0.8-1.4,1l0,0C152.4,81.1,152.9,80.8,153.2,80.3L153.2,80.3z"/>
		<path fill="#FFFAEB" d="M151.4,76.7L151.4,76.7c0.1,0,0.2,0.1,0.3,0.1c0.1,0,0.1,0,0.2,0.1l0,0c-0.1,0-0.1,0-0.2-0.1
			C151.6,76.7,151.5,76.7,151.4,76.7 M149,78.3c0,0.1,0,0.1-0.1,0.2c0,0.1,0,0.2,0,0.3l0,0c0-0.1,0-0.2,0-0.3
			C149,78.5,149.1,78.4,149,78.3L149,78.3z M153.6,79.1c0,0.1,0,0.2,0,0.3c0,0.1,0,0.1-0.1,0.2l0,0c0-0.1,0-0.1,0.1-0.2
			C153.6,79.3,153.6,79.2,153.6,79.1L153.6,79.1z M150.6,81.2L150.6,81.2c0.1,0.1,0.1,0.1,0.2,0.1c0.1,0,0.2,0,0.3,0l0,0
			c-0.1,0-0.2,0-0.3,0C150.7,81.2,150.7,81.2,150.6,81.2"/>
		<path fill="#FCF5BF" d="M151.3,76.7c-0.2,0-0.3,0-0.5,0.1l0,0C150.9,76.8,151.1,76.7,151.3,76.7c0,0,0.1,0,0.1,0l0,0
			C151.3,76.7,151.3,76.7,151.3,76.7 M149.4,77.7c-0.1,0.2-0.2,0.4-0.3,0.6l0,0C149.2,78.1,149.3,77.9,149.4,77.7L149.4,77.7z"/>
		<path fill="#FFFAEB" d="M150.7,76.8c-0.6,0.1-1.1,0.5-1.4,1l0,0C149.7,77.3,150.2,76.9,150.7,76.8L150.7,76.8z"/>
		<path fill="#FCED8C" d="M151.9,76.8L151.9,76.8c0.2,0.1,0.4,0.2,0.6,0.3l0,0C152.4,77,152.2,76.9,151.9,76.8 M153.5,78.5
			L153.5,78.5c0,0.2,0,0.4,0,0.6l0,0C153.6,78.9,153.5,78.7,153.5,78.5"/>
		<path fill="#FFFAEB" d="M152.5,77.1L152.5,77.1c0.4,0.3,0.8,0.8,0.9,1.4l0,0C153.4,77.9,153,77.4,152.5,77.1"/>
		<path fill="#FCF5BF" d="M149,78.9c0,0.2,0,0.4,0.1,0.6l0,0C149,79.3,149,79.1,149,78.9L149,78.9z M150,80.9L150,80.9
			c0.1,0.1,0.3,0.2,0.6,0.3l0,0C150.4,81.1,150.2,81,150,80.9"/>
		<path fill="#FFFAEB" d="M149.1,79.5L149.1,79.5c0.1,0.6,0.4,1.1,0.9,1.4l0,0C149.5,80.6,149.2,80.1,149.1,79.5"/>
		<path fill="#FCED8C" d="M153.4,79.7c-0.1,0.2-0.2,0.4-0.3,0.6l0,0C153.3,80.1,153.4,79.9,153.4,79.7L153.4,79.7z"/>
		<path fill="#FCF5BF" d="M151.8,81.2c-0.2,0-0.3,0.1-0.5,0.1c0,0-0.1,0-0.1,0l0,0c0,0,0.1,0,0.1,0
			C151.4,81.3,151.6,81.3,151.8,81.2L151.8,81.2z"/>
		<path fill="#FFFAEB" d="M153.1,80.2c-0.3,0.5-0.8,0.8-1.4,1l0,0C152.3,81.1,152.8,80.8,153.1,80.2L153.1,80.2z"/>
		<path fill="#FFFAEB" d="M151.4,76.7L151.4,76.7c0.1,0,0.2,0.1,0.3,0.1c0.1,0,0.1,0,0.2,0.1l0,0c-0.1,0-0.1,0-0.2-0.1
			C151.6,76.7,151.5,76.7,151.4,76.7 M149.1,78.3c0,0.1,0,0.1-0.1,0.2c0,0.1,0,0.2,0,0.3l0,0c0-0.1,0-0.2,0-0.3
			C149.1,78.5,149.1,78.4,149.1,78.3L149.1,78.3z M153.5,79.1c0,0.1,0,0.2,0,0.3c0,0.1,0,0.1-0.1,0.2l0,0c0-0.1,0-0.1,0.1-0.2
			C153.5,79.3,153.5,79.2,153.5,79.1L153.5,79.1z M150.6,81.1L150.6,81.1c0.1,0.1,0.1,0.1,0.2,0.1c0.1,0,0.2,0,0.3,0l0,0
			c-0.1,0-0.2,0-0.3,0C150.7,81.2,150.7,81.2,150.6,81.1"/>
		<path fill="#FCF5BF" d="M151.3,76.7c-0.2,0-0.3,0-0.5,0.1l0,0C151,76.8,151.1,76.8,151.3,76.7C151.3,76.8,151.3,76.8,151.3,76.7
			l0.1,0C151.3,76.7,151.3,76.7,151.3,76.7 M149.4,77.8c-0.1,0.2-0.2,0.4-0.3,0.6l0,0C149.2,78.1,149.3,78,149.4,77.8L149.4,77.8z"
			/>
		<path fill="#FFFAEB" d="M150.8,76.8c-0.6,0.1-1.1,0.5-1.4,1l0,0C149.7,77.3,150.2,77,150.8,76.8L150.8,76.8z"/>
		<path fill="#FCED8C" d="M151.9,76.8L151.9,76.8c0.2,0.1,0.4,0.2,0.5,0.3l0,0C152.3,77,152.1,76.9,151.9,76.8 M153.5,78.5
			L153.5,78.5c0,0.2,0,0.4,0,0.6l0,0C153.5,78.9,153.5,78.7,153.5,78.5"/>
		<path fill="#FFFAEB" d="M152.5,77.1L152.5,77.1c0.5,0.3,0.8,0.8,0.9,1.4l0,0C153.3,77.9,153,77.4,152.5,77.1"/>
		<path fill="#FCF5BF" d="M149,78.9c0,0.2,0,0.4,0.1,0.6l0,0C149.1,79.3,149,79.1,149,78.9L149,78.9z M150.1,80.9L150.1,80.9
			c0.1,0.1,0.3,0.2,0.5,0.3l0,0C150.4,81,150.2,81,150.1,80.9"/>
		<path fill="#FFFAEB" d="M149.1,79.5L149.1,79.5c0.1,0.6,0.4,1.1,0.9,1.4l0,0C149.6,80.5,149.2,80,149.1,79.5"/>
		<path fill="#FCED8C" d="M153.4,79.7c-0.1,0.2-0.1,0.4-0.3,0.5l0,0C153.3,80.1,153.3,79.9,153.4,79.7L153.4,79.7z"/>
		<path fill="#FCF5BF" d="M151.7,81.2c-0.2,0-0.3,0.1-0.5,0.1c0,0-0.1,0-0.1,0l0,0c0,0,0.1,0,0.1,0
			C151.4,81.2,151.6,81.2,151.7,81.2L151.7,81.2z"/>
		<path fill="#FFFAEB" d="M153.1,80.2c-0.3,0.5-0.8,0.8-1.4,1l0,0C152.3,81.1,152.8,80.7,153.1,80.2L153.1,80.2z"/>
		<path fill="#FFFAEB" d="M151.4,76.7L151.4,76.7c0.1,0,0.2,0.1,0.3,0.1c0.1,0,0.2,0,0.2,0.1l0,0c-0.1,0-0.1,0-0.2-0.1
			C151.6,76.8,151.5,76.8,151.4,76.7 M149.1,78.3c0,0.1,0,0.1-0.1,0.2c0,0.1,0,0.2,0,0.3l0,0c0-0.1,0-0.2,0-0.3
			C149.1,78.5,149.1,78.4,149.1,78.3L149.1,78.3z M153.5,79.1c0,0.1,0,0.2,0,0.3c0,0.1,0,0.2-0.1,0.2l0,0c0-0.1,0-0.1,0.1-0.2
			C153.5,79.3,153.5,79.2,153.5,79.1L153.5,79.1z M150.6,81.1L150.6,81.1c0.1,0.1,0.1,0.1,0.2,0.1c0.1,0,0.2,0,0.3,0l0,0
			c-0.1,0-0.2,0-0.3,0C150.7,81.1,150.7,81.1,150.6,81.1"/>
		<path fill="#FCF5BF" d="M151.3,76.8c-0.2,0-0.3,0-0.5,0l0,0C151,76.8,151.1,76.8,151.3,76.8C151.3,76.8,151.3,76.8,151.3,76.8
			L151.3,76.8C151.3,76.8,151.3,76.8,151.3,76.8 M149.4,77.8c-0.1,0.2-0.2,0.3-0.3,0.5l0,0C149.3,78.2,149.3,78,149.4,77.8
			L149.4,77.8z"/>
		<path fill="#FFFAEB" d="M150.8,76.8c-0.6,0.1-1.1,0.5-1.4,1l0,0C149.7,77.3,150.3,77,150.8,76.8L150.8,76.8z"/>
		<path fill="#FCED8C" d="M151.9,76.9L151.9,76.9c0.2,0.1,0.3,0.2,0.5,0.3l0,0C152.3,77,152.1,76.9,151.9,76.9 M153.4,78.5
			L153.4,78.5c0,0.2,0,0.4,0,0.5l0,0C153.5,78.9,153.5,78.7,153.4,78.5"/>
		<path fill="#FFFAEB" d="M152.5,77.1L152.5,77.1c0.5,0.3,0.8,0.8,0.9,1.4l0,0C153.3,78,153,77.5,152.5,77.1"/>
		<path fill="#FCF5BF" d="M149.1,78.9c0,0.2,0,0.4,0,0.6l0,0C149.1,79.3,149.1,79.1,149.1,78.9L149.1,78.9z M150.1,80.8L150.1,80.8
			c0.1,0.1,0.3,0.2,0.5,0.3l0,0C150.4,81,150.3,80.9,150.1,80.8"/>
		<path fill="#FFFAEB" d="M149.1,79.4L149.1,79.4c0.1,0.6,0.4,1.1,0.9,1.4l0,0C149.6,80.5,149.3,80,149.1,79.4"/>
		<path fill="#FCED8C" d="M153.3,79.7c-0.1,0.2-0.1,0.3-0.2,0.5l0,0C153.2,80,153.3,79.9,153.3,79.7L153.3,79.7z"/>
		<path fill="#FCF5BF" d="M151.7,81.1c-0.1,0-0.3,0-0.4,0c0,0-0.1,0-0.1,0l0,0c0,0,0.1,0,0.1,0C151.4,81.2,151.6,81.2,151.7,81.1
			L151.7,81.1z"/>
		<path fill="#FFFAEB" d="M153.1,80.2c-0.3,0.5-0.8,0.8-1.4,1l0,0C152.3,81,152.8,80.7,153.1,80.2L153.1,80.2z"/>
		<path fill="#FFFAEB" d="M151.4,76.8L151.4,76.8c0.1,0,0.2,0.1,0.3,0.1c0.1,0,0.2,0,0.2,0.1l0,0c-0.1,0-0.1,0-0.2-0.1
			C151.6,76.8,151.5,76.8,151.4,76.8 M149.2,78.3c0,0.1,0,0.1-0.1,0.2c0,0.1,0,0.2,0,0.4l0,0c0-0.1,0-0.2,0-0.4
			C149.2,78.5,149.2,78.4,149.2,78.3L149.2,78.3z M153.4,79.1c0,0.1,0,0.2,0,0.4c0,0.1,0,0.2-0.1,0.2l0,0c0-0.1,0-0.1,0.1-0.2
			C153.5,79.3,153.5,79.2,153.4,79.1L153.4,79.1z M150.6,81.1L150.6,81.1c0.1,0.1,0.1,0.1,0.2,0.1c0.1,0,0.2,0,0.3,0l0,0
			c-0.1,0-0.2,0-0.4,0C150.8,81.1,150.7,81.1,150.6,81.1"/>
		<path fill="#FCF5BF" d="M151.3,76.8c-0.1,0-0.3,0-0.4,0l0,0C151,76.9,151.1,76.9,151.3,76.8C151.3,76.9,151.3,76.9,151.3,76.8
			L151.3,76.8C151.3,76.8,151.3,76.8,151.3,76.8 M149.4,77.8c-0.1,0.2-0.2,0.3-0.2,0.5l0,0C149.3,78.2,149.4,78,149.4,77.8
			L149.4,77.8z"/>
		<path fill="#FFFAEB" d="M150.8,76.9c-0.6,0.1-1.1,0.5-1.4,1l0,0C149.8,77.4,150.3,77,150.8,76.9L150.8,76.9z"/>
		<path fill="#FCED8C" d="M151.9,76.9L151.9,76.9L151.9,76.9c0.2,0.1,0.3,0.2,0.5,0.3l0,0C152.3,77.1,152.1,77,151.9,76.9
			 M153.4,78.6L153.4,78.6c0,0.2,0,0.3,0,0.5l0,0C153.4,78.9,153.4,78.7,153.4,78.6"/>
	</g>
	<path fill="#FCF5BF" d="M151.9,77L151.9,77L151.9,77z"/>
	<g>
		<path fill="#FFFAEB" d="M152.4,77.2L152.4,77.2c0.5,0.3,0.8,0.8,0.9,1.4l0,0C153.3,78,152.9,77.5,152.4,77.2"/>
		<path fill="#FCF5BF" d="M149.1,78.9c0,0.2,0,0.4,0,0.5l0,0C149.1,79.3,149.1,79.1,149.1,78.9L149.1,78.9z M150.1,80.8L150.1,80.8
			c0.1,0.1,0.3,0.2,0.5,0.3l0,0C150.4,81,150.3,80.9,150.1,80.8"/>
		<path fill="#FFFAEB" d="M149.2,79.4L149.2,79.4c0.1,0.6,0.4,1.1,0.9,1.4l0,0C149.6,80.5,149.3,80,149.2,79.4"/>
		<path fill="#FCED8C" d="M153.3,79.7c-0.1,0.2-0.1,0.3-0.2,0.5l0,0C153.2,80,153.3,79.8,153.3,79.7L153.3,79.7z"/>
		<path fill="#FCF5BF" d="M151.7,81.1c-0.1,0-0.3,0-0.4,0c0,0-0.1,0-0.1,0l0,0c0,0,0.1,0,0.1,0C151.4,81.2,151.6,81.2,151.7,81.1
			L151.7,81.1z"/>
		<path fill="#FFFAEB" d="M153.1,80.1c-0.3,0.5-0.8,0.9-1.4,1l0,0C152.3,81,152.8,80.7,153.1,80.1L153.1,80.1z"/>
		<path fill="#FFFAEB" d="M151.3,76.8L151.3,76.8c0.1,0,0.2,0.1,0.3,0.1c0.1,0,0.2,0,0.2,0.1l0,0l0,0c-0.1,0-0.1,0-0.2-0.1
			C151.6,76.8,151.5,76.8,151.3,76.8 M149.2,78.3c0,0.1,0,0.2-0.1,0.2c0,0.1,0,0.2,0,0.4l0,0c0-0.1,0-0.2,0-0.4
			C149.2,78.5,149.2,78.4,149.2,78.3L149.2,78.3z M153.4,79.1c0,0.1,0,0.2,0,0.4c0,0.1,0,0.2-0.1,0.2l0,0c0-0.1,0-0.1,0.1-0.2
			C153.4,79.3,153.4,79.2,153.4,79.1L153.4,79.1z M150.6,81L150.6,81c0.1,0.1,0.1,0.1,0.2,0.1c0.1,0,0.2,0,0.4,0l0,0
			c-0.1,0-0.2,0-0.4,0C150.8,81.1,150.7,81,150.6,81"/>
		<path fill="#FCF5BF" d="M151.3,76.9c-0.1,0-0.3,0-0.4,0l0,0C151,76.9,151.1,76.9,151.3,76.9C151.3,76.9,151.3,76.9,151.3,76.9
			L151.3,76.9C151.3,76.9,151.3,76.9,151.3,76.9 M149.5,77.9c-0.1,0.1-0.2,0.3-0.2,0.5l0,0C149.3,78.2,149.4,78,149.5,77.9
			L149.5,77.9z"/>
		<path fill="#FFFAEB" d="M150.9,76.9c-0.6,0.1-1.1,0.5-1.4,1l0,0C149.8,77.4,150.3,77,150.9,76.9L150.9,76.9z"/>
		<path fill="#FCED8C" d="M151.9,77C151.9,77,151.9,77,151.9,77c0.2,0.1,0.3,0.2,0.4,0.2l0,0C152.2,77.1,152.1,77,151.9,77
			 M153.4,78.6L153.4,78.6c0,0.2,0,0.3,0,0.5l0,0C153.4,78.9,153.4,78.7,153.4,78.6"/>
		<path fill="#FCF5BF" d="M151.9,77L151.9,77C151.9,77,151.9,77,151.9,77C151.9,77,151.9,77,151.9,77L151.9,77z"/>
		<path fill="#FFFAEB" d="M152.4,77.2L152.4,77.2c0.5,0.3,0.8,0.8,0.9,1.4l0,0C153.2,78,152.9,77.5,152.4,77.2"/>
		<path fill="#FCF5BF" d="M149.1,78.9c0,0.2,0,0.3,0,0.5l0,0C149.2,79.2,149.2,79.1,149.1,78.9L149.1,78.9z M150.2,80.8L150.2,80.8
			c0.1,0.1,0.3,0.2,0.4,0.2l0,0C150.5,80.9,150.3,80.9,150.2,80.8"/>
		<path fill="#FFFAEB" d="M149.2,79.4L149.2,79.4c0.1,0.6,0.4,1.1,0.9,1.4l0,0C149.7,80.5,149.3,80,149.2,79.4"/>
		<path fill="#FCED8C" d="M153.3,79.7c-0.1,0.2-0.1,0.3-0.2,0.4l0,0C153.2,80,153.2,79.8,153.3,79.7L153.3,79.7z"/>
		<path fill="#FCF5BF" d="M151.6,81.1c-0.1,0-0.3,0-0.4,0c0,0,0,0-0.1,0l0,0c0,0,0.1,0,0.1,0C151.4,81.1,151.5,81.1,151.6,81.1
			L151.6,81.1z"/>
		<path fill="#FFFAEB" d="M153.1,80.1c-0.3,0.5-0.8,0.9-1.4,1l0,0C152.3,81,152.8,80.6,153.1,80.1L153.1,80.1z"/>
		<path fill="#FFFAEB" d="M151.3,76.9L151.3,76.9c0.1,0,0.2,0.1,0.3,0.1c0.1,0,0.2,0,0.2,0.1l0,0c-0.1,0-0.2,0-0.2-0.1
			C151.6,76.9,151.5,76.9,151.3,76.9 M149.2,78.3c0,0.1,0,0.2-0.1,0.2c0,0.1,0,0.2,0,0.4l0,0c0-0.1,0-0.2,0-0.4
			C149.2,78.5,149.3,78.4,149.2,78.3L149.2,78.3z M153.4,79.1c0,0.1,0,0.2,0,0.4c0,0.1,0,0.2-0.1,0.2l0,0c0-0.1,0-0.2,0.1-0.2
			C153.4,79.3,153.4,79.2,153.4,79.1L153.4,79.1z M150.6,81L150.6,81c0.1,0.1,0.1,0.1,0.2,0.1c0.1,0,0.2,0,0.4,0l0,0
			c-0.1,0-0.2,0-0.4,0C150.8,81,150.7,81,150.6,81"/>
		<path fill="#FCF5BF" d="M151.3,76.9c-0.1,0-0.3,0-0.4,0l0,0C151,77,151.1,76.9,151.3,76.9C151.3,76.9,151.3,76.9,151.3,76.9
			L151.3,76.9C151.3,76.9,151.3,76.9,151.3,76.9 M149.5,77.9c-0.1,0.1-0.1,0.3-0.2,0.4l0,0C149.4,78.2,149.4,78.1,149.5,77.9
			L149.5,77.9z"/>
		<path fill="#FFFAEB" d="M150.9,76.9c-0.6,0.1-1.1,0.5-1.4,1l0,0C149.8,77.4,150.3,77.1,150.9,76.9L150.9,76.9z"/>
		<path fill="#FCED8A" d="M151.9,77C151.9,77,151.9,77,151.9,77c0.1,0.1,0.3,0.1,0.4,0.2l0,0C152.2,77.1,152.1,77.1,151.9,77
			 M153.3,78.6L153.3,78.6c0,0.2,0,0.3,0,0.4l0,0C153.4,78.9,153.4,78.8,153.3,78.6"/>
		<path fill="#FCF5BF" d="M151.9,77L151.9,77C151.9,77,151.9,77,151.9,77C151.9,77,151.9,77,151.9,77C151.9,77,151.9,77,151.9,77"/>
		<path fill="#FFFAEB" d="M152.4,77.2L152.4,77.2c0.5,0.3,0.8,0.8,0.9,1.4l0,0C153.2,78,152.9,77.5,152.4,77.2"/>
		<path fill="#FCF5BF" d="M149.2,78.9c0,0.2,0,0.3,0,0.4l0,0C149.2,79.2,149.2,79.1,149.2,78.9L149.2,78.9z M150.2,80.8L150.2,80.8
			c0.1,0.1,0.2,0.2,0.4,0.2l0,0C150.5,80.9,150.3,80.8,150.2,80.8"/>
		<path fill="#FFFAEB" d="M149.2,79.4L149.2,79.4c0.1,0.6,0.4,1.1,0.9,1.4l0,0C149.7,80.5,149.3,79.9,149.2,79.4"/>
		<path fill="#FCED8A" d="M153.2,79.6c0,0.1-0.1,0.3-0.2,0.4l0,0C153.1,79.9,153.2,79.8,153.2,79.6L153.2,79.6z"/>
		<path fill="#FCF5BF" d="M151.6,81c-0.1,0-0.2,0-0.4,0c0,0,0,0-0.1,0l0,0c0,0,0,0,0.1,0C151.4,81.1,151.5,81.1,151.6,81L151.6,81z"
			/>
		<path fill="#FFFAEB" d="M153,80c-0.3,0.5-0.8,0.9-1.4,1l0,0C152.2,80.9,152.7,80.6,153,80L153,80z"/>
		<path fill="#FFFAEB" d="M151.3,76.9L151.3,76.9c0.1,0,0.2,0.1,0.3,0.1c0.1,0,0.2,0,0.2,0.1l0,0c-0.1,0-0.2,0-0.2-0.1
			C151.6,76.9,151.4,76.9,151.3,76.9 M149.3,78.3c0,0.1,0,0.2-0.1,0.2c0,0.1,0,0.2,0,0.4l0,0c0-0.1,0-0.2,0-0.4
			C149.3,78.5,149.3,78.4,149.3,78.3L149.3,78.3z M153.3,79c0,0.1,0,0.2,0,0.4c0,0.1,0,0.2-0.1,0.2l0,0c0-0.1,0-0.2,0.1-0.2
			C153.3,79.3,153.4,79.2,153.3,79L153.3,79z M150.6,80.9L150.6,80.9c0.1,0.1,0.2,0.1,0.2,0.1c0.1,0,0.2,0,0.4,0l0,0
			c-0.1,0-0.2,0-0.4,0C150.8,81,150.7,81,150.6,80.9"/>
		<path fill="#FCF5BF" d="M151.3,76.9c-0.1,0-0.2,0-0.4,0l0,0C151,77,151.2,77,151.3,76.9C151.3,77,151.3,77,151.3,76.9L151.3,76.9
			C151.3,76.9,151.3,76.9,151.3,76.9 M149.5,78c-0.1,0.1-0.1,0.3-0.2,0.4l0,0C149.4,78.2,149.5,78.1,149.5,78L149.5,78z"/>
		<path fill="#FFFAEB" d="M150.9,77c-0.6,0.1-1.1,0.5-1.4,1l0,0C149.8,77.5,150.3,77.1,150.9,77L150.9,77z"/>
		<path fill="#FCED8A" d="M151.9,77.1C151.9,77.1,151.9,77.1,151.9,77.1c0.1,0.1,0.2,0.1,0.3,0.2l0,0
			C152.2,77.2,152.1,77.1,151.9,77.1 M153.3,78.6L153.3,78.6c0,0.1,0,0.3,0,0.4l0,0C153.3,78.9,153.3,78.8,153.3,78.6"/>
		<path fill="#FCF5BF" d="M151.9,77L151.9,77C151.9,77.1,151.9,77.1,151.9,77C151.9,77.1,151.9,77.1,151.9,77
			C151.9,77.1,151.9,77,151.9,77"/>
		<path fill="#FFFAEB" d="M152.3,77.2L152.3,77.2c0.5,0.3,0.8,0.8,0.9,1.4l0,0C153.2,78.1,152.8,77.5,152.3,77.2"/>
		<path fill="#FCF5BF" d="M149.2,78.9c0,0.1,0,0.3,0,0.4l0,0C149.3,79.2,149.2,79.1,149.2,78.9L149.2,78.9z M150.3,80.7L150.3,80.7
			c0.1,0.1,0.2,0.2,0.4,0.2l0,0C150.5,80.9,150.4,80.8,150.3,80.7"/>
		<path fill="#FFFAEB" d="M149.3,79.3L149.3,79.3c0.1,0.6,0.4,1.1,0.9,1.4l0,0C149.7,80.4,149.4,79.9,149.3,79.3"/>
		<path fill="#FCED8A" d="M153.2,79.6c0,0.1-0.1,0.2-0.2,0.4l0,0C153.1,79.9,153.2,79.8,153.2,79.6L153.2,79.6z"/>
		<path fill="#FCF5BF" d="M151.6,81c-0.1,0-0.2,0-0.3,0h0l0,0c0,0,0,0,0.1,0C151.4,81.1,151.5,81,151.6,81L151.6,81z"/>
		<path fill="#FFFAEB" d="M153,80c-0.3,0.5-0.8,0.9-1.4,1l0,0C152.2,80.9,152.7,80.6,153,80L153,80z"/>
		<path fill="#FFFAEB" d="M151.3,76.9L151.3,76.9c0.1,0,0.2,0.1,0.4,0.1c0.1,0,0.2,0,0.2,0.1l0,0c-0.1,0-0.2,0-0.2-0.1
			C151.6,77,151.4,76.9,151.3,76.9 M149.3,78.3c0,0.1,0,0.2-0.1,0.2c0,0.1,0,0.2,0,0.4l0,0c0-0.1,0-0.2,0-0.4
			C149.3,78.5,149.3,78.4,149.3,78.3L149.3,78.3z M153.3,79c0,0.1,0,0.2,0,0.4c0,0.1,0,0.2-0.1,0.2l0,0c0-0.1,0-0.2,0.1-0.2
			C153.3,79.3,153.3,79.2,153.3,79L153.3,79z M150.6,80.9L150.6,80.9c0.1,0.1,0.2,0.1,0.2,0.1c0.1,0,0.2,0,0.4,0l0,0
			c-0.1,0-0.2,0-0.4,0C150.8,81,150.7,80.9,150.6,80.9"/>
		<path fill="#FCF5BD" d="M151.3,77c-0.1,0-0.2,0-0.3,0l0,0C151.1,77,151.2,77,151.3,77L151.3,77L151.3,77
			C151.3,77,151.3,77,151.3,77 M149.5,78c-0.1,0.1-0.1,0.2-0.2,0.4l0,0C149.4,78.2,149.5,78.1,149.5,78L149.5,78z"/>
		<path fill="#FFFAEB" d="M150.9,77c-0.6,0.1-1.1,0.5-1.4,1l0,0C149.8,77.5,150.4,77.1,150.9,77L150.9,77z"/>
		<path fill="#FCED8A" d="M151.9,77.1C151.9,77.1,151.9,77.1,151.9,77.1c0.1,0.1,0.2,0.1,0.3,0.2l0,0
			C152.2,77.2,152,77.1,151.9,77.1 M153.3,78.7L153.3,78.7c0,0.1,0,0.2,0,0.4l0,0C153.3,78.9,153.3,78.8,153.3,78.7"/>
		<path fill="#FCF5BD" d="M151.9,77.1L151.9,77.1C151.9,77.1,151.9,77.1,151.9,77.1C151.9,77.1,151.9,77.1,151.9,77.1
			C151.9,77.1,151.9,77.1,151.9,77.1"/>
		<path fill="#FFFAEB" d="M152.3,77.2L152.3,77.2c0.5,0.3,0.9,0.8,0.9,1.4l0,0C153.2,78.1,152.8,77.6,152.3,77.2"/>
		<path fill="#FCF5BD" d="M149.2,79c0,0.1,0,0.2,0,0.4l0,0C149.3,79.2,149.3,79.1,149.2,79L149.2,79z M150.3,80.7L150.3,80.7
			c0.1,0.1,0.2,0.1,0.3,0.2l0,0C150.5,80.8,150.4,80.8,150.3,80.7"/>
		<path fill="#FFFAEB" d="M149.3,79.3L149.3,79.3c0.1,0.6,0.4,1.1,0.9,1.4l0,0C149.8,80.4,149.4,79.9,149.3,79.3"/>
		<path fill="#FCED8A" d="M153.1,79.6c0,0.1-0.1,0.2-0.1,0.3l0,0C153.1,79.9,153.1,79.8,153.1,79.6L153.1,79.6z"/>
		<path fill="#FCF5BD" d="M151.6,81c-0.1,0-0.2,0-0.3,0h0l0,0h0C151.4,81,151.5,81,151.6,81L151.6,81z"/>
		<path fill="#FFFAEB" d="M153,80c-0.3,0.5-0.8,0.9-1.4,1l0,0C152.2,80.9,152.7,80.5,153,80L153,80z"/>
		<path fill="#FFFAEB" d="M151.3,77L151.3,77c0.1,0,0.2,0.1,0.4,0.1c0.1,0,0.2,0,0.2,0.1l0,0c-0.1,0-0.2,0-0.2-0.1
			C151.5,77,151.4,77,151.3,77 M149.4,78.4c0,0.1,0,0.2-0.1,0.2c0,0.1,0,0.2,0,0.4l0,0c0-0.1,0-0.2,0-0.4
			C149.3,78.5,149.4,78.4,149.4,78.4L149.4,78.4z M153.2,79c0,0.1,0,0.2,0,0.4c0,0.1,0,0.2-0.1,0.2l0,0c0-0.1,0-0.2,0.1-0.2
			C153.3,79.3,153.3,79.2,153.2,79L153.2,79z M150.6,80.9L150.6,80.9c0.1,0.1,0.2,0.1,0.2,0.1c0.1,0,0.2,0,0.4,0l0,0
			c-0.1,0-0.2,0-0.4,0C150.8,80.9,150.7,80.9,150.6,80.9"/>
		<path fill="#FCF5BD" d="M151.3,77c-0.1,0-0.2,0-0.3,0l0,0C151.1,77.1,151.2,77.1,151.3,77L151.3,77L151.3,77L151.3,77z M149.5,78
			c-0.1,0.1-0.1,0.2-0.1,0.3l0,0C149.5,78.3,149.5,78.2,149.5,78L149.5,78z"/>
		<path fill="#FFFAEB" d="M151,77c-0.6,0.1-1.1,0.5-1.4,1l0,0C149.9,77.5,150.4,77.2,151,77L151,77z"/>
		<path fill="#FCED8A" d="M151.9,77.1C151.9,77.1,151.9,77.2,151.9,77.1c0.1,0.1,0.2,0.1,0.3,0.2l0,0
			C152.1,77.2,152,77.2,151.9,77.1 M153.2,78.7L153.2,78.7c0,0.1,0,0.2,0,0.3l0,0C153.2,78.9,153.2,78.8,153.2,78.7"/>
		<path fill="#FCF5BD" d="M151.9,77.1L151.9,77.1C151.9,77.2,151.9,77.2,151.9,77.1C151.9,77.2,151.9,77.1,151.9,77.1
			C151.9,77.1,151.9,77.1,151.9,77.1"/>
		<path fill="#FFFAEB" d="M152.2,77.3L152.2,77.3c0.5,0.3,0.9,0.8,1,1.5l0,0C153.1,78.1,152.8,77.6,152.2,77.3"/>
		<path fill="#FCF5BD" d="M149.3,79c0,0.1,0,0.2,0,0.3l0,0C149.3,79.2,149.3,79.1,149.3,79L149.3,79z M150.3,80.7L150.3,80.7
			c0.1,0.1,0.2,0.1,0.3,0.2l0,0C150.5,80.8,150.4,80.7,150.3,80.7"/>
		<path fill="#FFFAEB" d="M149.3,79.3L149.3,79.3c0.1,0.6,0.4,1.2,1,1.5l0,0C149.8,80.4,149.4,79.9,149.3,79.3"/>
		<path fill="#FCED8A" d="M153.1,79.6c0,0.1-0.1,0.2-0.1,0.3l0,0C153,79.9,153.1,79.8,153.1,79.6L153.1,79.6z"/>
		<path fill="#FCF5BD" d="M151.5,80.9c-0.1,0-0.2,0-0.3,0h0l0,0h0C151.4,81,151.5,81,151.5,80.9L151.5,80.9z"/>
		<path fill="#FFFAEB" d="M153,79.9c-0.3,0.5-0.8,0.9-1.4,1l0,0C152.2,80.9,152.7,80.5,153,79.9L153,79.9z"/>
		<path fill="#FFFAEB" d="M151.3,77L151.3,77c0.1,0,0.2,0.1,0.4,0.1c0.1,0,0.2,0,0.3,0.1l0,0c-0.1,0-0.2,0-0.2-0.1
			C151.5,77,151.4,77,151.3,77 M149.4,78.4c0,0.1,0,0.2-0.1,0.2c0,0.1,0,0.2,0,0.4l0,0c0-0.1,0-0.2,0-0.4
			C149.4,78.5,149.4,78.4,149.4,78.4L149.4,78.4z M153.2,79c0,0.1,0,0.2,0,0.4c0,0.1,0,0.2-0.1,0.2l0,0c0-0.1,0-0.2,0.1-0.2
			C153.2,79.3,153.2,79.1,153.2,79L153.2,79z M150.6,80.8L150.6,80.8c0.1,0.1,0.2,0.1,0.2,0.1c0.1,0,0.2,0,0.4,0l0,0
			c-0.1,0-0.2,0-0.4,0C150.8,80.9,150.7,80.9,150.6,80.8"/>
		<path fill="#FCF5BD" d="M151.3,77.1c-0.1,0-0.2,0-0.3,0l0,0C151.1,77.1,151.2,77.1,151.3,77.1L151.3,77.1L151.3,77.1L151.3,77.1z
			 M149.6,78.1c-0.1,0.1-0.1,0.2-0.1,0.3l0,0C149.5,78.3,149.5,78.2,149.6,78.1L149.6,78.1z"/>
		<path fill="#FFFAE8" d="M151,77.1c-0.6,0.1-1.1,0.5-1.4,1l0,0C149.9,77.6,150.4,77.2,151,77.1L151,77.1z"/>
		<path fill="#FCED87" d="M151.9,77.2C151.9,77.2,151.9,77.2,151.9,77.2c0.1,0.1,0.2,0.1,0.2,0.1l0,0
			C152.1,77.2,152,77.2,151.9,77.2 M153.2,78.7L153.2,78.7c0,0.1,0,0.2,0,0.3l0,0C153.2,78.9,153.2,78.8,153.2,78.7"/>
		<path fill="#FCF5BD" d="M151.9,77.2L151.9,77.2C151.9,77.2,151.9,77.2,151.9,77.2C151.9,77.2,151.9,77.2,151.9,77.2
			C151.9,77.2,151.9,77.2,151.9,77.2"/>
		<path fill="#FFFAE8" d="M152.2,77.3L152.2,77.3c0.5,0.3,0.9,0.8,1,1.5l0,0C153.1,78.1,152.7,77.6,152.2,77.3"/>
		<path fill="#FCF5BD" d="M149.3,79c0,0.1,0,0.2,0,0.3l0,0C149.4,79.2,149.4,79.1,149.3,79L149.3,79z M150.4,80.7L150.4,80.7
			c0.1,0.1,0.1,0.1,0.2,0.1l0,0C150.5,80.8,150.5,80.7,150.4,80.7"/>
		<path fill="#FFFAE8" d="M149.4,79.2L149.4,79.2c0.1,0.6,0.4,1.2,1,1.5l0,0C149.8,80.4,149.5,79.9,149.4,79.2"/>
		<path fill="#FCED87" d="M153.1,79.6c0,0.1-0.1,0.2-0.1,0.3l0,0C153,79.8,153.1,79.7,153.1,79.6L153.1,79.6z"/>
		<path fill="#FCF5BD" d="M151.5,80.9c-0.1,0-0.2,0-0.2,0h0l0,0h0C151.4,80.9,151.4,80.9,151.5,80.9L151.5,80.9z"/>
		<path fill="#FFFAE8" d="M152.9,79.9c-0.3,0.5-0.8,0.9-1.4,1l0,0C152.1,80.8,152.7,80.5,152.9,79.9L152.9,79.9z"/>
		<path fill="#FFFAE8" d="M151.3,77.1L151.3,77.1c0.1,0,0.2,0.1,0.4,0.1c0.1,0,0.2,0,0.3,0.1l0,0c-0.1,0-0.2-0.1-0.3-0.1
			C151.5,77.1,151.4,77.1,151.3,77.1 M149.4,78.4c0,0.1-0.1,0.2-0.1,0.2c0,0.1,0,0.2,0,0.4l0,0c0-0.1,0-0.2,0-0.4
			C149.4,78.5,149.4,78.4,149.4,78.4L149.4,78.4z M153.2,79c0,0.1,0,0.2,0,0.4c0,0.1,0,0.2-0.1,0.3l0,0c0-0.1,0.1-0.2,0.1-0.2
			C153.2,79.3,153.2,79.1,153.2,79L153.2,79z M150.6,80.8L150.6,80.8c0.1,0.1,0.2,0.1,0.2,0.1c0.1,0,0.2,0,0.4,0l0,0
			c-0.1,0-0.2,0-0.4,0C150.8,80.8,150.7,80.8,150.6,80.8"/>
		<path fill="#FCF5BD" d="M151.3,77.1c-0.1,0-0.2,0-0.2,0l0.2,0.2L151.3,77.1L151.3,77.1z M149.6,78.1c0,0.1-0.1,0.2-0.1,0.3l0.3,0
			L149.6,78.1z"/>
		<path fill="#FFFAE8" d="M151,77.1c-0.6,0.1-1.1,0.5-1.4,1l0.2,0.3l1.2,0.1l0.3-1.2L151,77.1z"/>
		<path fill="#FCED87" d="M151.9,77.2c0,0.1,0,0.1,0,0.2l0.2-0.1C152.1,77.3,152,77.2,151.9,77.2 M153.1,78.8l-0.2,0.2l0.3,0.1
			C153.2,78.9,153.2,78.8,153.1,78.8"/>
		<path fill="#FCF5BD" d="M151.9,77.2l0,0.3l0.1,0C151.9,77.4,151.9,77.3,151.9,77.2C151.9,77.2,151.9,77.2,151.9,77.2"/>
		<path fill="#FFFAE8" d="M152.2,77.3l-0.2,0.1l-0.1,0l-0.1,1.2l1.2,0.3l0.2-0.2C153.1,78.1,152.7,77.6,152.2,77.3"/>
		<path fill="#FCF5BD" d="M149.4,79c0,0.1,0,0.2,0,0.3l0.2-0.2L149.4,79z M150.7,80.5l-0.3,0.2c0.1,0,0.2,0.1,0.3,0.1L150.7,80.5z"
			/>
		<path fill="#FFFAE8" d="M149.6,79.1l-0.2,0.2c0.1,0.6,0.5,1.1,1,1.4l0.3-0.2l0.1-1.2L149.6,79.1z"/>
		<path fill="#FCED87" d="M152.8,79.6l0.2,0.3c0-0.1,0.1-0.2,0.1-0.3L152.8,79.6z"/>
		<path fill="#FCF5BD" d="M151.3,80.6l-0.1,0.3h0c0.1,0,0.2,0,0.2,0L151.3,80.6z"/>
		<path fill="#FFFAE8" d="M151.6,79.5l-0.3,1.2l0.2,0.2c0.6-0.1,1.1-0.5,1.4-1l-0.2-0.3L151.6,79.5z"/>
		<path fill="#FFFAE8" d="M151.3,77.1l-0.1,0.3l-0.3,1.2l-1.2-0.1l-0.3,0c0,0.1-0.1,0.2-0.1,0.3c0,0.1,0,0.2,0,0.4l0.3,0.1l1.2,0.3
			l-0.1,1.2l0,0.3c0.1,0,0.2,0.1,0.3,0.1c0.1,0,0.2,0,0.4,0l0.1-0.3l0.3-1.2l1.2,0.1l0.3,0c0-0.1,0.1-0.2,0.1-0.3c0-0.1,0-0.2,0-0.4
			l-0.3-0.1l-1.2-0.3l0.1-1.2l0-0.3c-0.1,0-0.2-0.1-0.3-0.1C151.5,77.1,151.4,77.1,151.3,77.1"/>
		<path fill="#4D421C" d="M108.6,147.1c-0.2,0.6-0.3,1.2-0.3,1.8c0,2.8,2.2,5.2,5.4,6.5l0,13.7c0,0,0.1,0,0.1,0l0-13.7
			c-3.3-1.3-5.5-3.7-5.4-6.5C108.4,148.2,108.5,147.6,108.6,147.1C108.6,147.1,108.6,147.1,108.6,147.1 M113.3,169.1
			c-3.2,1.1-5.4,3-5.4,5.3c0,0.1,0,0.3,0,0.4h0.1c0-0.2,0-0.3,0-0.5C108.1,172.1,110.2,170.2,113.3,169.1"/>
		<path fill="#FABF21" d="M113.8,155.3l0,13.7c1.5-0.5,3.1-0.7,4.9-0.8v-11.9v0C116.9,156.2,115.3,155.8,113.8,155.3"/>
		<path fill="#FABF21" d="M108.6,147.1c-0.2,0.5-0.3,1.1-0.3,1.7c0,2.8,2.2,5.2,5.4,6.5c1.4,0.6,3.1,0.9,4.9,1v-7.1
			c-1.7,0-3.4-0.2-5-0.5C112,148.2,110.3,147.7,108.6,147.1"/>
		<path fill="#FABF21" d="M118.7,168.2c-1.8,0.1-3.4,0.3-4.9,0.8c0,0-0.1,0-0.1,0v0c-0.1,0-0.2,0.1-0.3,0.1c-3.1,1.1-5.2,3-5.2,5.2
			c0,0.2,0,0.3,0,0.5l5.5,0l2.1,0l2.4,0h0.5V168.2L118.7,168.2z"/>
	</g>
	<polygon fill="#383836" points="144.9,197.1 93.8,197.1 99.1,174.8 139.6,174.8 	"/>
	<polygon fill="#0D0D0A" points="99.1,174.8 99.1,174.8 93.8,197.1 144.9,197.1 	"/>
</g>
</svg>
