<?xml version="1.0" encoding="utf-8"?>
<!-- Generator: Adobe Illustrator 18.1.1, SVG Export Plug-In . SVG Version: 6.00 Build 0)  -->
<svg version="1.1" id="Layer_1" xmlns="http://www.w3.org/2000/svg" xmlns:xlink="http://www.w3.org/1999/xlink" x="0px" y="0px"
	 viewBox="0 0 81.2 81.3" enable-background="new 0 0 81.2 81.3" xml:space="preserve">
<g>
	<text transform="matrix(1 0 0 1 111.937 79.3258)" display="none" fill="#003399" font-family="'Roboto-Bold'" font-size="115">HIRING PROCESS</text>
	<g>
		<g>
			<rect x="0" y="0" fill="#003399" width="80.9" height="80.9"/>
			<rect x="20.2" y="54.2" fill="#FFFFFF" width="40.5" height="6.6"/>
			<polygon fill="#FFFFFF" points="56.1,50.7 56.1,27.8 52.3,50.7 48.4,50.7 44.8,27.8 44.8,50.6 40.3,50.6 40.3,20.3 47.1,20.3 
				50.4,42.5 53.9,20.3 60.6,20.3 60.6,50.7 			"/>
			<g>
				<path fill="#FFFFFF" d="M30.9,29.9h4.6v-2.1c0-2.1,0-8.1-7.7-8.1c-7.5,0-7.5,6.9-7.5,8.1v15.8c0,4.6,1.7,7.6,6,7.7
					c2.6,0,4.4-1.6,4.8-2.2v1.6l4.5,0V34.2h-7.3v3.7h2.6v4.8c0,2.4-0.8,4.1-3,4.1c-2.3,0-3-1.8-3-4.1V27.8c0-1.2,0-4,3-4
					c3,0,3,2.8,3,4V29.9z"/>
			</g>
		</g>
	</g>
</g>
</svg>
