<?xml version="1.0" encoding="utf-8"?>
<!-- Generator: Adobe Illustrator 18.1.1, SVG Export Plug-In . SVG Version: 6.00 Build 0)  -->
<svg version="1.1" id="Layer_1" xmlns="http://www.w3.org/2000/svg" xmlns:xlink="http://www.w3.org/1999/xlink" x="0px" y="0px"
	 viewBox="0 0 355.1 203.1" enable-background="new 0 0 355.1 203.1" xml:space="preserve">
<g>
	<g>
		<path fill="#E0BD9C" d="M61.9,122.3v81.4H15.8c-0.7-0.3-1.2-0.5-1.2-0.5c0-33.6,16.7-43.3,24.5-46c2.3-0.8,3.8-1,3.8-1
			c2.8,0,4.6-3.5,5.8-8.7c0.2-0.8,0.3-1.6,0.5-2.5c0.3-1.5,0.5-3.1,0.7-4.7c0.1-1,0.2-2,0.3-3c0.4-5,0.6-10.5,0.6-15.6
			C50.7,121.7,56.9,122.3,61.9,122.3"/>
		<path fill="#F1D0AB" d="M109.4,203.3c0,0-0.4,0.1-1.1,0.5H61.9v-81.4H62c5,0,11.3-0.6,11.3-0.6c0,5.1,0.1,10.5,0.5,15.5
			c0.1,1,0.2,2,0.3,2.9c0.2,1.7,0.3,3.4,0.6,4.9v0c0.1,0.7,0.2,1.3,0.4,1.9c1.2,5.6,3.1,9.4,6,9.4c0,0,2.4,0.3,5.8,1.7
			C95.2,161.7,109.4,172.3,109.4,203.3"/>
		<path fill="#BF9880" d="M74.8,144.9L74.8,144.9c-1.1,1.8-5,6.7-12.8,6.7h-0.1c-7.3,0-11.6-5.2-12.7-6.6c0.3-1.5,0.5-3.1,0.6-4.7
			c0.1-1,0.2-2,0.3-3c3.6,0.9,7.5,1.4,11.7,1.5h0.1c4.3-0.1,8.2-0.6,11.9-1.6c0.1,1,0.2,2,0.3,2.9C74.3,141.8,74.5,143.4,74.8,144.9
			"/>
		<path fill="#D3A787" d="M61.1,28.9c-48.9,0-49.2,39.2-47,64.9c-3.3-6.1-13.3-4.2-12.5,5.4c0.8,9.2,14.8,14,14.6,12.9
			c4,21.1,27,33.3,44.9,33.3c0.1,0,0.3,0,0.4,0V28.9H61.1"/>
		<path fill="#BF9880" d="M4.7,95.2c2.4-3.7,6.1-2.1,7.1-1.3c1,0.9,1.7,2.1,1.1,4.2c-0.3,1.2-1.7,1.3-1.4,3.2c0.4,2.1,1.4,2.2,2,2.7
			c0.6,0.5,1.3,0.8,1.7,1.7c0.3,0.9,0.4,1.8,0.2,2.6c-0.4,1.5-2.7,0.3-4.2-0.4c-1-0.4-4.2-3.1-5.1-3.9C4.1,101.9,3.1,97.6,4.7,95.2"
			/>
		<path fill="#DEB89B" d="M61.3,28.9c48.9,0,49.2,39.2,47,64.9c3.4-6.1,13.3-4.2,12.5,5.4c-0.8,9.2-14.8,14-14.6,12.9
			c-4,21.1-27,33.3-44.9,33.3c-0.1,0-0.2,0-0.4,0V28.9H61.3"/>
		<path fill="#BF9880" d="M117.7,95.2c-2.4-3.7-6.2-2.1-7.1-1.3c-1,0.9-1.7,2.1-1.1,4.2c0.3,1.2,1.7,1.3,1.4,3.2
			c-0.4,2.1-1.4,2.2-2,2.7c-0.6,0.5-1.3,0.8-1.6,1.7c-0.3,0.9-0.4,1.8-0.2,2.6c0.4,1.5,2.7,0.3,4.2-0.4c1-0.4,4.2-3.1,5.1-3.9
			C118.3,101.9,119.3,97.6,117.7,95.2"/>
		<path fill="#F1D0AB" d="M61.6,40c-16.1,0-27.9,4.5-35,13.3c-10,12.4-9.6,31.2-5.9,44.8c1.1,4.1,1.7,15.3,2.5,19.4
			c3.5,18.3,24.6,28.1,38.4,28.1c0.1,0,0.3,0,0.4,0V40C61.9,40,61.7,40,61.6,40"/>
		<path fill="#F1D0AB" d="M96.6,53.3C89.5,44.5,77.8,40.1,62,40v105.5c15.9-0.2,34.8-10.8,38.1-28.1c0.8-4.1,1.3-15.2,2.5-19.4
			C106.2,84.6,106.5,65.7,96.6,53.3"/>
		<path fill="#EFEDED" d="M15.2,192.8h93.6c-0.2-1.7-0.5-3.2-0.7-4.8H15.9C15.6,189.5,15.4,191.1,15.2,192.8"/>
		<path fill="#D14F27" d="M14.7,198.2h94.5c-0.1-1.9-0.3-3.7-0.5-5.5H15.2C15,194.5,14.8,196.3,14.7,198.2"/>
		<path fill="#EFEDED" d="M101.2,170.3c-1.8-2.7-3.7-4.9-5.7-6.7c-3-2.8-6.1-4.5-8.6-5.6c-3.4,1.8-7.5,3.8-12.2,5.2
			c-5,1.5-9.3,3.6-12.8,3.6c-3.8,0-6.7-2-8.7-2.8c-2.6-1.1-9.8-4.6-14.3-6.7c-4.3,1.5-11.5,5.2-17,14.1h79.8
			C101.7,171,101.5,170.7,101.2,170.3"/>
		<path fill="#EFEDED" d="M104.7,176.9H19.3c-0.7,1.7-1.4,3.6-2,5.6h89.5C106.1,180.5,105.5,178.6,104.7,176.9"/>
		<path fill="#D14F27" d="M101.9,171.4H22.1c-1,1.6-2,3.5-2.8,5.5h85.5C103.9,174.9,102.9,173.1,101.9,171.4"/>
		<path fill="#D14F27" d="M17.3,182.5c-0.5,1.7-0.9,3.5-1.3,5.5h92.1c-0.4-2-0.8-3.8-1.3-5.5H17.3z"/>
		<path fill="#EFEDED" d="M75.9,140.7c-1.4,0.6-3,1.2-4.8,1.6c0-0.1,0-0.1,0-0.2c0-1.8-4.2-3.3-9.4-3.3c-5.2,0-9.4,1.5-9.4,3.3
			c0,0,0,0,0,0.1c-1.8-0.5-3.5-1.1-4.9-1.8c-0.7-1.8-1.2-4-1.2-6.3c0-0.6,0-1.2,0.1-1.8c2.8-3.1,7.1-5.4,12.2-6.1
			c1.1-0.1,2.2-0.2,3.3-0.2c1.1,0,2.2,0.1,3.3,0.2c4.8,0.7,8.9,2.7,11.7,5.6c0.1,0.8,0.2,1.5,0.2,2.3
			C77.2,136.6,76.7,138.8,75.9,140.7 M107.6,136.8c-0.5-2.3-0.7-3.6-0.7-4.6H106c3-4.3,4.7-9.1,4.7-14.2c0-6.6-2.8-12.8-7.7-17.9
			c0.2,1.5,0.3,3,0.3,4.5c0,7.8-2.3,15.1-6.3,21.2c-8.3,9.3-17.4,0-17.4,0c-0.3-0.4-0.6-0.8-0.9-1.2c-3.1-4.7-9.4-7.9-16.8-7.9
			c-6.7,0-12.6,2.7-16,6.8c-0.4,0.3-0.8,0.6-1.1,1v0c0,0,0,0-0.1,0.1c-0.2,0.3-0.5,0.5-0.7,0.8c-2.1,2.3-8.1,7.8-15.8,2.3
			c-4.8-6.5-7.6-14.4-7.6-23.1c0-1.7,0.1-3.4,0.3-5c-5.1,5.3-8.1,11.6-8.1,18.4c0,5.1,1.7,9.9,4.7,14.2h-0.5c0,0.9-0.3,2.2-0.7,4.6
			c-1.3,6.3-5.1,8-5.1,8s5.9-2.4,7.4-4.1c0.7-0.8,2.5-3,3.1-3.7c0,0,0,0,0.1,0c-0.3,0.7-1.1,3.1,0,7.6c0.2,0.8,0.5,1.6,0.8,2.4
			C25,158,33.4,175.2,62,184c0,0,28.7-10.6,37.6-33.9c1.1-1.5,2.1-3.3,2.6-5.3c1.1-4.4,0.4-6.8,0-7.6c0,0,0-0.1,0-0.1
			c0.6,0.7,2.4,2.9,3.1,3.7c1.4,1.6,7.4,4.1,7.4,4.1S108.9,143.1,107.6,136.8"/>
		<path fill="#EFCFAB" d="M297.3,163.3c0.6-0.2,1.2-0.3,1.8-0.5v-36.2c-4.7,0-10.6-0.6-10.6-0.6c0,5.1-0.1,10.4-0.5,15.3
			c-0.1,1-0.2,2-0.3,3c-0.1,1.3-0.3,2.6-0.5,3.8c0.2,2.1,3.5,11.6,3.5,11.6S294.8,161.7,297.3,163.3"/>
		<path fill="#EFCFAB" d="M299.2,162.8c1.2-0.3,2.3-0.5,3.4-0.6c2.4-1.3,5-2.5,5-2.5s3.3-9.4,3.5-11.5c-0.2-1.3-0.3-2.6-0.5-4
			c-0.1-0.9-0.2-1.9-0.3-2.9c-0.4-4.9-0.5-10.1-0.5-15.2c0,0-5.9,0.6-10.6,0.6h-0.1L299.2,162.8L299.2,162.8z"/>
		<path fill="#E1BD9A" d="M299,164.4l0.1-0.1v-1.5c-0.6,0.1-1.2,0.3-1.8,0.5c0.4,0.2,0.7,0.4,0.9,0.6
			C298.5,164.1,298.8,164.3,299,164.4"/>
		<path fill="#EFCFAB" d="M302.6,162.2c-1.1,0.1-2.2,0.3-3.4,0.6v1.5C299.8,163.7,301.2,162.9,302.6,162.2"/>
		<path fill="#E2DEDC" d="M342.7,190.1c-0.2-0.1-0.3-0.2-0.5-0.3c-2.9-2.2-6.6-7.5-6.6-7.5s0.2-3.5,1.8-5.6l0.2-0.3
			c0.2-0.2,0.3-0.4,0.5-0.6l0.2-0.2c-5.1-8.7-12.5-15.8-22.2-16.8c0,0.3,0,0.6,0,0.9c0,0.8,0,1.7-0.1,2.6c-0.6,6-2.9,14-3.3,16.5
			c-0.6,3.4-0.2,1.1-2.4-1.5c-2.1-2.4-9-11.1-11.1-12.4l3.7,5.1l2.7,31.7h23h5.6h9.5h1.7h2.2c-0.5-3.3-1.4-7.2-2.6-11.3
			C344.3,190.9,343.5,190.7,342.7,190.1"/>
		<path fill="#E2DEDC" d="M298.9,164.5L298.9,164.5c-0.1-0.2-0.4-0.4-0.7-0.6C298.5,164.1,298.8,164.3,298.9,164.5"/>
		<path fill="#E2DEDC" d="M288,177.5c-2.2,2.5-1.8,4.9-2.4,1.5c-0.4-2.5-2.7-10.5-3.3-16.5c-0.1-0.9-0.1-1.8-0.1-2.6
			c0-0.3,0-0.6,0-0.9c-7.9,0.9-14.4,6.5-19.5,13.7c-0.7,1-1.4,2.1-2,3.1l0.1,0.1l0.1,0.1l0,0c2.2,1.9,2.5,6.5,2.5,6.5
			s-4.4,6-7.4,7.8c-0.4,0.3-0.8,0.4-1.2,0.5c-0.3,0.1-0.6,0-0.9-0.2c-0.3,0.9-0.6,1.7-0.8,2.6c-1,3.1-1.7,6.1-2.1,8.7h1.3h2.4h8.2
			h6.1h23.2l2.7-31.7l3.7-5.1C296.5,166.4,290.1,175,288,177.5"/>
		<path fill="#060707" d="M261,176L261,176l-0.1-0.1l-0.1-0.1c-2.8,4.7-5.1,9.9-6.8,14.8v0c0.2,0.2,0.5,0.2,0.9,0.2
			c0.4-0.1,0.8-0.2,1.2-0.5c3-1.8,7.4-7.8,7.4-7.8S263.2,177.9,261,176"/>
		<path fill="#060707" d="M338.4,175.7L338.4,175.7c0.3,0.6,0.7,1.3,1,1.9C339.1,176.9,338.8,176.3,338.4,175.7"/>
		<path fill="#060707" d="M343.3,186c-0.3-0.8-0.6-1.6-1-2.4c-0.2-0.4-0.3-0.8-0.5-1.2c-0.4-0.9-0.8-1.8-1.2-2.6
			c-0.3-0.5-0.5-1.1-0.8-1.6c-0.1-0.2-0.2-0.4-0.4-0.7c-0.3-0.6-0.7-1.2-1-1.9l-0.2,0.2c-0.2,0.2-0.4,0.4-0.6,0.6l-0.2,0.3
			c-1.6,2.1-1.8,5.6-1.8,5.6s3.7,5.3,6.6,7.5c0.2,0.1,0.3,0.2,0.5,0.3c0.9,0.6,1.6,0.8,2.2,0.5l0,0v0
			C344.4,189.1,343.8,187.5,343.3,186"/>
		<path fill="#0C0D0D" d="M316.1,158.9c-0.1-0.8-0.2-1.5-0.4-2.1c-0.7-1.7-2.2-3.3-2.8-4.6c-1-2.2-1.8-4.2-1.8-4.2l0,0
			c-0.2,2.2-3.5,11.5-3.5,11.5s-2.6,1.3-5,2.5c-1.4,0.8-2.8,1.5-3.4,2.1l-0.1,0.1l-0.1,0.1l-0.1,0.1c-0.1-0.2-0.4-0.4-0.7-0.6
			c-0.3-0.2-0.6-0.4-0.9-0.6c-2.4-1.6-6.5-3.6-6.5-3.6s-3.3-9.4-3.5-11.6l0,0c0,0-0.9,2-1.8,4.2c-0.6,1.3-2.2,2.9-2.8,4.6
			c-0.2,0.6-0.3,1.3-0.4,2.1c0,0.3,0,0.6,0,0.9c0,0.8,0,1.7,0.1,2.6c0.6,6,2.9,14,3.3,16.5c0.6,3.4,0.2,1.1,2.4-1.5
			c1.1-1.3,3.5-4.4,5.7-7.2h1l0.1,0.3l-2.6,31.3h6.7h0.3h0.1h6.4l-2.7-31.6h1.4c2.4,2.8,4.9,5.9,6,7.2c2.2,2.5,1.8,4.9,2.4,1.5
			c0.4-2.5,2.7-10.5,3.3-16.5c0.1-0.9,0.1-1.8,0.1-2.6C316.1,159.5,316.1,159.2,316.1,158.9"/>
		<path fill="#D0B39E" d="M310.3,141C310.3,141,310.3,141,310.3,141c0,0.1,0,0.2,0,0.3c0.1,1,0.2,2,0.3,2.9c0.2,1.4,0.3,2.7,0.5,4
			l0,0c0,0,0,0,0,0.1c-0.2-1.4-0.4-2.8-0.5-4.3C310.5,142.9,310.4,141.9,310.3,141 M288,141.1c-0.1,1-0.2,2-0.3,3
			c-0.1,1.5-0.3,2.9-0.6,4.3c0.1-0.2,0.1-0.3,0.1-0.3l0,0c0.2-1.2,0.4-2.5,0.5-3.8c0.1-1,0.2-1.9,0.3-3
			C288,141.3,288,141.2,288,141.1C288,141.1,288,141.1,288,141.1 M311.1,148.2c0,0.2-0.1,0.5-0.2,0.9
			C311,148.7,311,148.4,311.1,148.2"/>
		<path fill="#EFCFAB" d="M288,141.1c0,0.1,0,0.2,0,0.3c-0.1,1-0.2,2-0.3,3c-0.1,1.3-0.3,2.6-0.5,3.8c0,0.3,0.1,0.7,0.2,1.1
			c1.5,1.9,5.3,6,11.6,6h0v-12.7c0,0,0,0,0,0h-0.1C295,142.5,291.4,141.9,288,141.1"/>
		<path fill="#EFCFAB" d="M310.3,141c-3.5,0.9-7.2,1.5-11.2,1.6v12.7h0c6.7,0,10.4-4.1,11.8-6.1c0.1-0.4,0.1-0.7,0.2-0.9
			c0,0,0-0.1,0-0.1c-0.2-1.3-0.3-2.6-0.5-4c-0.1-0.9-0.2-1.9-0.3-2.9C310.3,141.1,310.3,141,310.3,141"/>
		<path fill="#816B5D" d="M311.1,148.1L311.1,148.1c0,0.1,0,0.1,0,0.1c0,0.2-0.1,0.5-0.2,0.9c0.1-0.2,0.2-0.3,0.3-0.4v0
			C311.1,148.5,311.1,148.3,311.1,148.1C311.1,148.1,311.1,148.1,311.1,148.1 M287.3,148.1c0,0,0,0.1-0.1,0.3c0,0.1,0,0.2-0.1,0.3
			c0.1,0.1,0.2,0.3,0.4,0.5C287.4,148.7,287.3,148.3,287.3,148.1L287.3,148.1z"/>
		<path fill="#D3A787" d="M298.3,34.9c-46,0-46.3,38.5-44.2,63.7c-3.2-6-12.5-4.1-11.7,5.3c0.7,9.1,13.9,13.8,13.7,12.7
			c3.8,20.8,25.4,32.7,42.2,32.7l0.3,0V34.9L298.3,34.9z"/>
		<path fill="#BF9880" d="M245.2,99.9c2.3-3.6,5.8-2.1,6.7-1.3c0.9,0.9,1.6,2,1.1,4.2c-0.3,1.2-1.6,1.3-1.3,3.1
			c0.3,2.1,1.3,2.2,1.8,2.7c0.5,0.5,1.2,0.8,1.6,1.7c0.3,0.9,0.4,1.8,0.2,2.6c-0.4,1.5-2.5,0.3-4-0.4c-1-0.4-4-3-4.8-3.9
			C244.6,106.6,243.7,102.4,245.2,99.9"/>
		<path fill="#DEB89B" d="M298.5,34.9c46,0,46.3,38.5,44.2,63.7c3.2-6,12.5-4.1,11.7,5.3c-0.7,9.1-13.9,13.8-13.7,12.7
			c-3.8,20.8-25.4,32.7-42.2,32.7l-0.4,0V34.9L298.5,34.9z"/>
		<path fill="#BF9880" d="M351.5,99.9c-2.3-3.6-5.8-2.1-6.6-1.3c-0.9,0.9-1.6,2-1.1,4.2c0.3,1.2,1.6,1.3,1.3,3.1
			c-0.3,2.1-1.3,2.2-1.8,2.7c-0.5,0.5-1.2,0.8-1.6,1.7c-0.3,0.9-0.4,1.8-0.2,2.6c0.4,1.5,2.5,0.3,4-0.4c1-0.4,4-3,4.8-3.9
			C352.1,106.6,353,102.4,351.5,99.9"/>
		<path fill="#EFCFAB" d="M298.8,45.8c-15.1,0-26.2,4.4-32.9,13.1c-9.4,12.1-9,30.6-5.5,43.9c1.1,4.1,1.6,15,2.3,19
			c3.3,18,23.1,27.6,36.2,27.6l0.4,0V45.8C299,45.8,298.9,45.8,298.8,45.8"/>
		<path fill="#F1D0AB" d="M331.6,58.9c-6.7-8.6-17.6-13-32.5-13.1v103.6c14.9-0.2,32.7-10.7,35.8-27.5c0.7-4,1.3-15,2.3-19
			C340.7,89.5,341,71,331.6,58.9"/>
		<path fill="#412914" d="M338.3,105.4c-0.2,0-0.3-0.1-0.4-0.2l-0.1-0.1l0-0.1c0-0.1,2.3-14.8,2.3-18.9c0-4-12.9-34.4-19.9-36.7
			c-0.9-0.3-1.7-0.4-2.7-0.4c-2.9,0-5.8,1.4-8.8,3c-3.1,1.6-6.4,3.3-9.9,3.3h-0.6c-3.4-0.1-6.6-1.7-9.7-3.2c-3.1-1.5-6-3-8.9-3
			c-0.9,0-1.8,0.1-2.6,0.4c-6.9,2.4-19.9,32.7-19.9,36.7c0,4,2.2,18.7,2.3,18.9l0,0.1l-0.1,0.1c0,0-0.1,0.2-0.4,0.2
			c-0.4,0-1-0.3-2.2-3.4c-0.8-2.1-2-3.3-3.1-4.2l-0.1-0.1l0-0.1c-1.3-17.1-1.2-38.4,11.2-51.7c7.5-8.1,18.7-12.1,33.5-12.1h0.2
			c14.8,0,26,4.1,33.5,12.2c12.4,13.4,12.4,34.8,11.1,52.1l0,0.1l-0.1,0.1c-0.9,0.9-1.9,2-2.6,3.8
			C339.3,105.1,338.7,105.4,338.3,105.4"/>
		<path fill="#412914" d="M299.8,129.5h-1.5c-5.5,0-12.6-2.9-17.1,4.1c5.4-1.3,15.9,6.2,17.8,1.5c2,4.6,12.4-2.9,17.8-1.5
			C312.4,126.5,305.3,129.5,299.8,129.5"/>
		<path fill="#7C4E1F" d="M256.6,124.3v78.3H214c-0.7-0.3-1.1-0.4-1.1-0.4c0-32.3,15.4-41.6,22.6-44.2c2.1-0.8,3.5-1,3.5-1
			c2.6,0,4.2-3.3,5.4-8.4c0.2-0.8,0.3-1.6,0.4-2.4c0.2-1.4,0.4-3,0.6-4.5c0.1-1,0.2-1.9,0.3-2.9c0.4-4.8,0.5-10.1,0.5-15
			C246.2,123.7,251.9,124.3,256.6,124.3"/>
		<path fill="#7C4E1F" d="M300.3,202.2c0,0-0.4,0.1-1,0.4h-42.8v-78.3h0.1c4.6,0,10.4-0.6,10.4-0.6c0,4.9,0.1,10.1,0.5,14.9
			c0.1,1,0.2,1.9,0.3,2.8c0.2,1.7,0.3,3.2,0.6,4.7v0c0.1,0.7,0.2,1.2,0.4,1.8c1.1,5.4,2.8,9,5.5,9c0,0,2.2,0.3,5.4,1.7
			C287.3,162.2,300.3,172.4,300.3,202.2"/>
		<path fill="#673C0D" d="M255.8,34.5c-45.1,0-45.4,37.7-43.4,62.4c-3.1-5.8-12.2-4-11.5,5.2c0.7,8.9,13.7,13.5,13.5,12.5
			c3.7,20.3,24.9,32.1,41.4,32.1l0.3,0V34.5H255.8z"/>
		<path fill="#BF9880" d="M203.8,98.2c2.2-3.6,5.7-2,6.5-1.2c0.9,0.9,1.6,2,1,4.1c-0.3,1.2-1.6,1.3-1.2,3.1c0.3,2,1.3,2.2,1.8,2.6
			c0.5,0.5,1.2,0.8,1.5,1.7c0.3,0.9,0.4,1.8,0.2,2.5c-0.4,1.5-2.5,0.3-3.9-0.3c-0.9-0.4-3.9-2.9-4.7-3.8
			C203.2,104.7,202.3,100.6,203.8,98.2"/>
		<path fill="#7C4E1F" d="M256,34.5c45.1,0,45.4,37.7,43.3,62.4c3.1-5.8,12.3-4,11.5,5.2c-0.7,8.9-13.6,13.5-13.5,12.5
			c-3.7,20.3-24.9,32.1-41.4,32.1l-0.3,0V34.5H256z"/>
		<path fill="#BF9880" d="M308,98.2c-2.2-3.6-5.7-2-6.5-1.2c-0.9,0.9-1.6,2-1.1,4.1c0.3,1.2,1.6,1.3,1.3,3.1c-0.3,2-1.3,2.2-1.8,2.6
			c-0.5,0.5-1.2,0.8-1.5,1.7c-0.3,0.9-0.4,1.8-0.2,2.5c0.3,1.5,2.5,0.3,3.9-0.4c0.9-0.4,3.9-2.9,4.7-3.8
			C308.6,104.7,309.4,100.6,308,98.2"/>
		<path fill="#7C4E1F" d="M256.3,45.1c-14.8,0-25.7,4.3-32.3,12.8c-9.2,11.9-8.8,30-5.4,43.1c1,4,1.6,14.7,2.3,18.6
			c3.2,17.6,22.6,27,35.4,27l0.3,0V45.1L256.3,45.1z"/>
		<path fill="#C4686E" d="M268.1,127.6c0,0-5.2,5.5-11.5,5.5c-6.4,0-11.2-5.4-11.2-5.4s4.9-0.8,11.2-0.8
			C263,126.9,268.1,127.6,268.1,127.6"/>
		<path fill="#D97373" d="M259.9,125c-1.8,0-3.2,1.1-3.3,2.5c0-1.4-1.5-2.5-3.3-2.5c-1.8,0-8.3,2.6-8.3,2.6s6.3,0.7,8.1,0.7
			c1.8,0,3.4,0.7,3.4-0.6c0,1.3,1.3,0.8,3.1,0.8c1.8,0,8.4-0.9,8.4-0.9S261.7,125,259.9,125"/>
	</g>
	<g>
		<defs>
			<path id="SVGID_1_" d="M271.1,155.7c-0.8,2.1-8.9,14-14.4,19.5c-5.5-5.5-13.6-17.4-14.4-19.5c-0.1-0.5-0.3-0.7-0.4-0.8
				c-0.2,0.3-0.4,0.5-0.6,0.7l0,0c-0.6,0.6-1.3,0.9-2.2,0.9c0,0-0.9,0.1-2.5,0.6c-0.3,0.1-0.7,0.2-1.1,0.4c-2,0.7-4.7,2-7.5,4.2
				c-0.2,0.1-0.4,0.3-0.6,0.5c-2.1,1.7-4.3,4-6.3,6.9v0c0.7,4,1.2,7.9,1.5,11.2c0,0.4,0.1,0.9,0.1,1.3c0.1,0.6,0.1,1.2,0.1,1.8v1.5
				c0,0.3,0,0.5,0,0.8v6.3c0,4.7-0.2,8.3-0.3,10.5h68.4c-0.1-2.3-0.3-6-0.4-10.7v-6.2h0c0-0.3,0-0.7,0-1v-1.5c0-0.4,0-0.8,0.1-1.3
				c0-0.4,0.1-0.9,0.1-1.3c0.2-3.3,0.8-7.3,1.5-11.4c-2-3-4.2-5.3-6.3-7c-0.2-0.2-0.4-0.3-0.6-0.5c-2.8-2.2-5.6-3.5-7.5-4.2
				c-0.4-0.2-0.8-0.3-1.1-0.4c-1.5-0.4-2.4-0.5-2.4-0.5c-0.8,0-1.5-0.3-2.2-0.9l0,0c-0.2-0.2-0.4-0.5-0.6-0.7
				C271.4,155,271.2,155.2,271.1,155.7"/>
		</defs>
		<clipPath id="SVGID_2_">
			<use xlink:href="#SVGID_1_"  overflow="visible"/>
		</clipPath>
		
			<linearGradient id="SVGID_3_" gradientUnits="userSpaceOnUse" x1="-313.9151" y1="574.8438" x2="-312.9151" y2="574.8438" gradientTransform="matrix(70.9942 0 0 -70.9942 22507.3027 40989.3555)">
			<stop  offset="0" style="stop-color:#2483C5"/>
			<stop  offset="1" style="stop-color:#2483C5"/>
		</linearGradient>
		<rect x="221.1" y="154.9" clip-path="url(#SVGID_2_)" fill="url(#SVGID_3_)" width="71" height="47.7"/>
	</g>
	<g>
		<path fill="#3C3D3C" d="M301.6,50.3c-3.9-6-4.2-4.3-4.2-4.3s0.8-3.5-0.7-7.7c-6.3-20.4-48.4-23.2-48.4-23.2
			c11.5,4.3,18.1,9.8,21.3,13.3c-17.5-9.9-46.1-4.3-46.1-4.3c7.2-0.4,13.9,0.8,19.8,2.7c-1,0.1-1.9,0.2-2.9,0.4
			c-12.4,1.9-20.9,8-27.9,18c-4.7,6.7-6.1,16.5-6.1,16.5l6.4-8.6c-3.3,5-8.2,15.2-6.4,28.9c3.8,28.8,17.1,34.1,17.1,34.1
			s-9.2-17.2-3.1-28.4c10.2-18.8,28.3-19.3,28.3-19.3s-12.7,1.5-17.4,19.7l0,0.1c0.2-0.6,1.9-5.5,8.6-8.1c4-1.5,5.1-1.5,11.1-3.1
			c-5.7,7.3-6.4,14.9-6.4,14.9s5.3-8.6,18.4-13.5c0.8-0.3,1.6-0.6,2.4-0.9c-3.9,5-2.5,13.3-1.2,15c0,0-0.5-7.5,16-12.2
			c9.4-2.7,11-8.1,11-8.1s-0.1,5.3,1.2,8.7c1.5,3.9,5.7,6.5,6,10c0.6,6.6-3,19-3,19l5.3-4.2c2.8-9.6,5.3-25.7,5.3-33.2
			C306,65.1,304.6,54.9,301.6,50.3"/>
		<path fill="#303131" d="M234.9,79.2c-1.4,2.4-2.6,5.3-3.5,8.9l0,0.1c0.2-0.5,1.7-5,7.5-7.6C237.7,79.9,236.3,79.5,234.9,79.2
			 M226.2,79.6c-7,2.2-12.2,8.7-12.2,16.5c0,2.1,0.4,4.1,1.1,6c0.1,0,0.2-0.1,0.3-0.1c0.1,0,0.1-0.1,0.2-0.1c0,0,0,0,0,0
			c0.1,0,0.1-0.1,0.2-0.1c0,0,0,0,0.1,0c0.9-0.4,1.8-0.8,2.8-1.1c-0.6-4.4-0.3-9.1,1.8-13C222.2,84.4,224.2,81.8,226.2,79.6
			 M245.9,86.8c-1,3-1.2,5.1-1.2,5.1s0.8-1.2,2.4-3C246.7,88.2,246.3,87.4,245.9,86.8"/>
		<path fill="#7F6B60" d="M296.1,86.3"/>
		<path fill="#303131" d="M283.4,78.8c-4.8,0-9.2,2-12.3,5.1c2.2-1.3,5.2-2.6,9.1-3.7c1.4-0.4,2.7-0.9,3.8-1.4
			C283.8,78.8,283.6,78.8,283.4,78.8 M292.7,81.5c0.8,1.8,2.2,3.3,3.4,4.8c1.1,1.5,2.1,2.9,2.3,4.5c0.3,3.6-0.6,8.9-1.5,13
			c0.4,0.2,0.8,0.4,1.2,0.6c0,0,0,0,0.1,0c0.1,0.1,0.2,0.1,0.3,0.2c1.5-2.5,2.3-5.5,2.3-8.6C300.7,90,297.5,84.6,292.7,81.5"/>
		<path fill="#B5ACA4" d="M250.6,102.3c-0.1,0.2-0.1,0.3-0.2,0.5c0.1-0.2,0.2-0.3,0.3-0.5L250.6,102.3z"/>
		<path fill="#858181" d="M218.7,100.7c-1,0.4-1.9,0.7-2.8,1.1c0,0,0,0-0.1,0c-0.1,0-0.1,0.1-0.2,0.1c0,0,0,0,0,0
			c-0.1,0-0.1,0.1-0.2,0.1c-0.1,0-0.2,0.1-0.3,0.1c1.2,3.1,3.2,5.8,5.8,7.8C220.1,107.3,219.1,104,218.7,100.7"/>
		<path fill="#9C9490" d="M233.6,97.9L233.6,97.9L233.6,97.9L233.6,97.9 M233.5,97.9c-5.5,0-10.6,1.2-14.8,2.8
			C222.9,99.1,228,97.9,233.5,97.9"/>
		<path fill="#807D7D" d="M218.7,100.7c-1,0.4-1.9,0.7-2.8,1.1C216.8,101.4,217.7,101,218.7,100.7"/>
		<path fill="#B9AFA6" d="M265.9,106.7L265.9,106.7c0.2,0.4,0.5,0.8,0.8,1.1C266.4,107.5,266.2,107.1,265.9,106.7"/>
		<path fill="#B5A9A2" d="M293.7,102.6"/>
		<path fill="#E2DEDC" d="M238.4,192.2l8.6-5.4l0.1-0.1c0.8-0.5,1.2-1.4,1.2-2.3c0-0.9-0.5-1.8-1.2-2.3l-0.2-0.1l-5-3.1l-3.4-2.2
			l-0.2-0.1l-0.1-0.1l0,0l-0.1,0c-0.4-0.3-1-0.4-1.5-0.4c-1.6,0-2.8,1.3-2.8,2.8V190c0,1.6,1.3,2.8,2.8,2.8
			C237.5,192.8,238.2,192.4,238.4,192.2"/>
		<path fill="#E2DEDC" d="M278.8,176.5l-8.6,5.4L270,182c-0.8,0.5-1.2,1.4-1.2,2.3c0,0.9,0.5,1.8,1.2,2.3l0.2,0.1l5,3.1l3.4,2.2
			l0.2,0.2l0.1,0.1h0l0.1,0c0.4,0.3,1,0.4,1.5,0.4c1.6,0,2.8-1.3,2.8-2.8v-11.2c0-1.6-1.3-2.8-2.8-2.8
			C279.7,175.9,279,176.4,278.8,176.5"/>
		<path fill="#F1D0AB" d="M111.8,122.3v80.3H68.1c-0.7-0.3-1.1-0.5-1.1-0.5c0-33.1,15.8-42.7,23.1-45.3c2.2-0.8,3.6-1,3.6-1
			c2.7,0,4.4-3.4,5.5-8.6c0.2-0.8,0.3-1.6,0.5-2.5c0.3-1.5,0.4-3,0.6-4.7c0.1-1,0.2-2,0.3-3c0.4-5,0.5-10.3,0.5-15.4
			C101.1,121.7,107,122.3,111.8,122.3"/>
		<path fill="#F1D0AB" d="M156.7,202.2c0,0-0.4,0.1-1,0.5h-43.9v-80.3h0.1c4.7,0,10.7-0.6,10.7-0.6c0,5.1,0.1,10.4,0.5,15.3
			c0.1,1,0.2,1.9,0.3,2.9c0.2,1.7,0.3,3.3,0.6,4.8v0c0.1,0.7,0.2,1.3,0.4,1.9c1.1,5.5,2.9,9.3,5.7,9.3c0,0,2.3,0.3,5.5,1.7
			C143.3,161.1,156.7,171.7,156.7,202.2"/>
		<path fill="#F1D0AB" d="M123.9,144.6L123.9,144.6c-1.1,1.7-4.8,6.6-12.1,6.6h-0.1c-6.9,0-11-5.1-12-6.6c0.2-1.5,0.5-3,0.6-4.7
			c0.1-1,0.2-2,0.3-3c3.4,0.8,7.1,1.4,11,1.4h0.1c4-0.1,7.8-0.6,11.3-1.6c0.1,1,0.2,1.9,0.3,2.9
			C123.5,141.6,123.7,143.1,123.9,144.6"/>
		<path fill="#D3A787" d="M111,30.1c-46.3,0-46.5,38.7-44.5,64.1c-3.2-6-12.6-4.1-11.8,5.3c0.7,9.1,14,13.8,13.8,12.8
			c3.8,20.9,25.6,32.9,42.4,32.9c0.1,0,0.2,0,0.3,0v-115H111"/>
		<path fill="#BF9880" d="M57.7,95.5c2.3-3.6,5.8-2.1,6.7-1.3c0.9,0.9,1.6,2,1.1,4.2c-0.3,1.2-1.6,1.3-1.3,3.2
			c0.3,2.1,1.3,2.2,1.8,2.7c0.5,0.5,1.2,0.8,1.6,1.7c0.3,0.9,0.4,1.8,0.2,2.6c-0.4,1.5-2.5,0.3-4-0.4c-1-0.4-4-3-4.8-3.9
			C57,102.2,56.1,98,57.7,95.5"/>
		<path fill="#DEB89B" d="M111.2,30.1c46.3,0,46.5,38.7,44.5,64.1c3.2-6,12.6-4.1,11.8,5.3c-0.7,9.1-14,13.8-13.8,12.8
			c-3.8,20.9-25.5,32.9-42.4,32.9c-0.1,0-0.2,0-0.4,0v-115H111.2"/>
		<path fill="#BF9880" d="M164.5,95.5c-2.3-3.6-5.8-2.1-6.7-1.3c-0.9,0.9-1.6,2-1.1,4.2c0.3,1.2,1.6,1.3,1.3,3.2
			c-0.3,2.1-1.3,2.2-1.9,2.7c-0.5,0.5-1.2,0.8-1.6,1.7c-0.3,0.9-0.4,1.8-0.2,2.6c0.3,1.5,2.5,0.3,4-0.4c1-0.4,4-3,4.8-3.9
			C165.1,102.2,166,98,164.5,95.5"/>
		<path fill="#F1D0AB" d="M111.5,41.1c-15.2,0-26.4,4.4-33.1,13.1c-9.4,12.2-9.1,30.8-5.6,44.2c1.1,4.1,1.6,15.1,2.3,19.1
			c3.3,18.1,23.2,27.7,36.4,27.7c0.1,0,0.2,0,0.3,0V41.1C111.7,41.1,111.6,41.1,111.5,41.1"/>
		<path fill="#F1D0AB" d="M144.5,54.2c-6.7-8.7-17.7-13.1-32.7-13.1v104.1c15-0.2,32.9-10.7,36-27.7c0.7-4,1.3-15,2.3-19.1
			C153.6,85.1,154,66.5,144.5,54.2"/>
		<path fill="#F6F8F9" d="M156.7,202.2c0,0-0.4,0.1-1,0.5H68.1c-0.7-0.3-1.1-0.5-1.1-0.5c0-33.1,15.8-42.7,23.1-45.3
			c4.2,2.1,11,5.5,13.5,6.6c1.9,0.8,4.6,2.8,8.2,2.8c3.3-0.1,7.3-2.1,12.1-3.6c4.4-1.4,8.4-3.4,11.5-5.1
			C143.3,161.1,156.7,171.7,156.7,202.2"/>
		<path fill="#404041" d="M146.9,202.6H76.8c0.2-3.4,0.4-9.6,0.3-18V183c0-0.6,0-1.2-0.1-1.8c0-0.4-0.1-0.9-0.1-1.3
			c-0.3-3.4-0.8-7.4-1.5-11.5c2.1-3,4.3-5.4,6.4-7.1c0.2-0.2,0.4-0.4,0.6-0.5c2.8-2.3,5.6-3.6,7.7-4.3c0.4-0.2,0.8-0.3,1.1-0.4
			c1.6-0.5,2.6-0.6,2.6-0.6c0.8,0,1.6-0.3,2.2-0.9c0,0,0,0,0,0c0.2-0.2,0.4-0.5,0.7-0.8c0.1,0.1,0.2,0.3,0.4,0.8
			c0.8,2.2,9.1,20.4,14.8,26c5.7-5.6,14-23.8,14.8-26c0.2-0.5,0.3-0.7,0.4-0.8c0.2,0.3,0.4,0.5,0.6,0.8c0,0,0,0,0,0
			c0.6,0.6,1.4,0.9,2.2,0.9c0,0,0.9,0.1,2.4,0.5c0.3,0.1,0.7,0.2,1.1,0.4c2,0.7,4.8,2,7.7,4.3c0.2,0.2,0.4,0.3,0.6,0.5
			c2.2,1.8,4.4,4.1,6.5,7.2c-0.7,4.3-1.3,8.4-1.5,11.7c-0.1,0.5-0.1,0.9-0.1,1.4c0,0.5,0,0.9-0.1,1.3v1.6
			C146.4,192.8,146.7,199.2,146.9,202.6"/>
	</g>
	<polygon fill="#59ACC3" points="92.7,202.6 77.4,202.6 80.6,197.1 85,189.4 89.5,197.1 	"/>
	<polygon fill="#F6921E" points="110.5,202.6 95.3,202.6 98.5,197.1 102.9,189.4 107.3,197.1 	"/>
	<polygon fill="#F9EC31" points="128.4,202.6 113.1,202.6 116.3,197.1 120.7,189.4 125.2,197.1 	"/>
	<polygon fill="#00A551" points="146.2,202.6 131,202.6 134.2,197.1 138.6,189.4 143,197.1 	"/>
	<polygon fill="#181718" points="85,196.6 81.6,202.6 82.5,202.6 85,198.2 87.5,202.6 88.4,202.6 	"/>
	<polygon fill="#181718" points="102.8,196.6 99.4,202.6 100.3,202.6 102.8,198.2 105.4,202.6 106.3,202.6 	"/>
	<polygon fill="#181718" points="120.7,196.6 117.3,202.6 118.2,202.6 120.7,198.2 123.2,202.6 124.1,202.6 	"/>
	<polygon fill="#181718" points="138.5,196.6 135.1,202.6 136,202.6 138.5,198.2 141,202.6 142,202.6 	"/>
	<g>
		<path fill="#7A121E" d="M62.7,52.5c1-3.4,2-6,2-6c0,0-0.1,0-1.5,0c-8.5,0-13.2-7.7-13.2-7.7s3.2,4.4,14.2,1
			C74.9,36.5,74.6,25.7,90,19.6c7.9-3.1,12.6-2.7,15.4-1.6c-2.8-2.1-8.5-1.9-8.5-1.9s7-3.6,17.9-0.4c7.6,2.3,12.2,4.9,14.8,6.7
			l-4.3-3.8c0,0,3,1,7.3,3.1c-2.9-5.3-8.3-11.1-8.3-11.1c13.8,4.8,25.1,22.1,25.1,22.1c-1.1-6.5-3.5-12.5-3.5-12.5
			c23.5,16.4,19.8,45.9,19.8,45.9c0,11.2-4.7,22.4-7.8,25.7c-3.1,3.3-2.1,8.2-3,8.2c0,0-1.9,0.1-1.9-8.4c-0.2-2.8-1.2-7.4-5.1-6.1
			c-0.2,0.1-0.4,0.2-0.6,0.3c0,0-0.1,0-0.1,0.1l0,0c-11.4,4.3-19.6-0.2-24.5-4.7l0,0c0,0,0,0,0,0c-0.8-0.7-1.5-1.5-2.1-2.2
			c-5.7-5.5-21.4-18.7-28.2-2.8c0,0-5.8-13.7,12.5-12.2c-7.4-4.6-15.8-5.9-19.2,7.8c0,0-6.2-14.4,9.5-17.3
			c-16.9-3.3-23.8,22.3-22.4,29.1c2.3,10.9-0.9,17.2-2.2,16.9c0,0,0-2.8-1.2-5.3c-3.3-7.4-6.1-2.2-6.6-12.2
			c-0.4-8-1.5-12.6-1.9-16.6c-2.6,2-6.6,3.4-12.4,3.5C48.5,70,56.8,67.6,62.7,52.5"/>
		<path fill="#F1D0AB" d="M183.8,114.9v87.7h-47.7c-0.8-0.4-1.2-0.5-1.2-0.5c0-36.2,17.3-46.6,25.3-49.5c2.4-0.9,4-1.1,4-1.1
			c2.9,0,4.8-3.7,6-9.4c0.2-0.9,0.4-1.8,0.5-2.7c0.3-1.6,0.5-3.3,0.7-5.1c0.1-1.1,0.2-2.1,0.3-3.3c0.4-5.4,0.6-11.3,0.6-16.8
			C172.2,114.3,178.6,114.9,183.8,114.9"/>
		<path fill="#F1D0AB" d="M232.8,202.1c0,0-0.4,0.1-1.1,0.5h-47.9v-87.7h0.1c5.2,0,11.6-0.6,11.6-0.6c0,5.5,0.1,11.3,0.6,16.7
			c0.1,1.1,0.2,2.1,0.3,3.1c0.2,1.9,0.4,3.6,0.6,5.3v0c0.1,0.7,0.2,1.4,0.4,2.1c1.2,6,3.2,10.1,6.2,10.1c0,0,2.5,0.3,6,1.9
			C218.2,157.3,232.8,168.8,232.8,202.1"/>
	</g>
	<g>
		<path fill="#BF9880" d="M193,129.3L193,129.3c-0.9,1.4-3.8,5.3-9.7,5.3h0c-5.6,0-8.8-4.1-9.7-5.3c0.2-1.2,0.4-2.4,0.5-3.7
			c0.1-0.8,0.1-1.6,0.2-2.4c2.7,0.7,5.7,1.1,8.9,1.2h0.1c3.2,0,6.2-0.5,9-1.3c0.1,0.8,0.1,1.6,0.2,2.3
			C192.7,126.9,192.8,128.1,193,129.3"/>
	</g>
	<path fill="#D3A787" d="M182.9,14.4c-50.5,0-50.8,42.3-48.5,69.9c-3.5-6.5-13.7-4.5-12.9,5.8c0.8,9.9,15.3,15.1,15.1,13.9
		c4.2,22.8,27.9,35.9,46.3,35.9l0.4,0V14.4H182.9z"/>
	<path fill="#BF9880" d="M124.7,85.7c2.5-4,6.3-2.3,7.3-1.4c1,1,1.8,2.2,1.2,4.6c-0.3,1.3-1.7,1.4-1.4,3.5c0.4,2.3,1.4,2.4,2,2.9
		c0.6,0.5,1.3,0.9,1.7,1.9c0.4,1,0.4,2,0.2,2.8c-0.4,1.6-2.8,0.3-4.4-0.4c-1.1-0.5-4.4-3.3-5.2-4.2C124.1,93,123.1,88.4,124.7,85.7"
		/>
	<path fill="#DEB89B" d="M183.2,14.4c50.5,0,50.8,42.3,48.5,69.9c3.5-6.5,13.7-4.5,12.9,5.8c-0.8,9.9-15.3,15.1-15.1,13.9
		c-4.1,22.8-27.9,35.9-46.3,35.9l-0.4,0V14.4H183.2z"/>
	<path fill="#BF9880" d="M241.4,85.7c-2.5-4-6.4-2.3-7.3-1.4c-1,1-1.8,2.2-1.2,4.6c0.4,1.3,1.8,1.4,1.4,3.5c-0.4,2.3-1.4,2.4-2,2.9
		c-0.6,0.5-1.3,0.9-1.7,1.9c-0.4,1-0.4,2-0.2,2.8c0.4,1.6,2.8,0.3,4.4-0.4c1.1-0.5,4.4-3.3,5.2-4.2C242,93,243,88.4,241.4,85.7"/>
	<path fill="#F1D0AB" d="M183.5,26.3c-16.6,0-28.8,4.8-36.1,14.4c-10.3,13.3-9.9,33.6-6.1,48.2c1.2,4.5,1.7,16.5,2.5,20.9
		c3.6,19.7,25.3,30.2,39.7,30.2l0.4,0V26.3L183.5,26.3z"/>
	<path fill="#F1D0AB" d="M219.5,40.6c-7.3-9.5-19.3-14.3-35.7-14.4v113.6c16.4-0.2,35.9-11.7,39.3-30.2c0.8-4.4,1.4-16.4,2.5-20.9
		C229.5,74.3,229.9,54,219.5,40.6"/>
	<path fill="#7B532D" d="M222.6,164.1c-2.7-3.6-5.6-6.2-8.3-8c-10.8,8.8-21.3,11.4-30.5,11c-1.6-0.1-3.2-0.3-4.7-0.5
		c-11.4-1.9-20.2-8-24.3-11.3c-2.8,1.7-5.9,4.1-8.7,7.7C155.6,171.7,184.7,193.1,222.6,164.1"/>
	<path fill="#3B2314" d="M222.6,164.1c-37.9,29-67,7.7-76.5-1.2c-6,7.4-11.2,19.4-11.2,39.3c0,0,0.4,0.1,1.2,0.5h43h4.7h47.9
		c0.7-0.4,1.1-0.5,1.1-0.5C232.8,183.3,228.2,171.5,222.6,164.1"/>
	<path fill="#EE7E22" d="M233.7,37.9L233.7,37.9c-2.8-4-6.8-8.1-11.6-12.3l-0.1,0c-0.5-0.4-0.9-0.8-1.4-1.2c-3.7-3-6.9-4.8-9.8-5.9
		c-0.9-0.4-1.7-0.7-2.6-1C207.9,8,196.4,0.5,182.3,0.5c-13.7,0-25,7.1-25.8,16.2c-0.5,0.1-1.1,0.3-1.6,0.5
		C140.6,22,129,30.3,120.8,52.7c-8.2,22.4-1.5,40.7,0.1,48.5c5.1,24.8,29.3,40.5,29.3,40.5s-6.1-6.6-8.9-13.2
		c-2.1-5.1-5.3-13.9-5.3-26.9c0-12.9,13.8-29,13.8-29s-6.4,10.1-7.6,21.1c-1.3,11.1,5.4,19.6,5.4,19.6s-8.5-14.4,5.1-25.1
		c4.3-3.4,7.9-7,10.8-10.2l0,0c-3.4,8.5,3.4,15.6,3.4,15.6s-0.1-10.9,6.9-14.6c17.2-9,19.9-12.7,22.4-20c0.3-1,0.5-1.9,0.6-2.8
		l15.7,20.9c0.7,0.9,1.9,2.5,3.3,4.4c4.1,5.8,9.7,15.3,9.7,23.6c0,12.9-3.2,21.7-5.3,26.9c-2.7,6.6-8.9,13.2-8.9,13.2
		s24.2-15.7,29.3-40.5c0.6-2.9,1.8-7.1,2.8-12.4C254.2,61.6,233.7,37.9,233.7,37.9"/>
	<path fill="#EE7E22" d="M194.5,22c-1.3-0.4-2.6-0.2-3.7,0.2c0-0.2,0-0.5-0.1-0.7c1.2,0.1,2.5-0.1,3.6-0.7c3-1.7,4.5-4.5,3.5-6.3
		c-1-1.8-4.2-1.8-7.2-0.1c-1.1,0.6-1.8,1.6-2.4,2.7c-0.3-0.2-0.5-0.4-0.8-0.6c0.6-0.8,1.1-1.8,1.3-2.9c0.4-3.4-0.8-6.4-2.9-6.6
		c-2-0.3-4,2.2-4.5,5.7c-0.1,1.1,0.1,2.1,0.5,3.1c-0.3,0.1-0.6,0.2-0.9,0.3c-0.3-1-0.8-2-1.7-2.8c-2.5-2.3-5.6-3-7.1-1.5
		c-1.4,1.5-0.5,4.6,2,6.9c0.8,0.8,1.8,1.2,2.8,1.4c-0.1,0.2-0.2,0.5-0.2,0.8c-0.8-0.4-1.7-0.6-2.7-0.5c-3.4,0.2-6.1,2-6,4
		c0.1,2,2.9,3.5,6.4,3.4c1.2-0.1,2.2-0.6,3.1-1.2c0.2,0.3,0.4,0.5,0.6,0.8c-0.9,0.5-1.7,1.1-2.3,2.1c-1.8,2.9-1.9,6.1-0.2,7.3
		c1.8,1.1,4.6-0.4,6.5-3.3c0.7-1.1,0.9-2.4,0.9-3.6c0.2,0,0.4,0.1,0.6,0.1l0.3,0c-0.3,1.2-0.4,2.5,0,3.7c1.1,3.2,3.7,5.3,5.6,4.6
		c2-0.7,2.6-3.9,1.5-7.1c-0.5-1.3-1.5-2.4-2.5-3.1c0.3-0.3,0.6-0.6,0.9-0.9c0.8,1,1.8,1.9,3.2,2.3c3.3,0.9,6.4,0.1,7-1.9
		C200.1,25.3,197.9,23,194.5,22"/>
	<path fill="#EE7E22" d="M157,71.7c-2.7,0-5.3,0.6-7.6,1.7c-1.5,2.6-6.1,11.1-7.2,20.3c0,0.2,0,0.4-0.1,0.5c0,0.1,0,0.3,0,0.4
		c1.9-0.8,4.1-1.5,6.4-2.1c1.1-1.5,2.4-2.9,4.2-4.3c4.3-3.4,7.9-7,10.8-10.2l0,0c-2.3,5.7,0.1,10.8,1.9,13.5
		c0.6,0.1,1.1,0.2,1.7,0.3c0.3-2.8,1.2-8.4,5-11.6C169,75.2,163.4,71.7,157,71.7 M149.1,73.6c-5.6,2.8-9.4,8.5-9.6,15.1
		c0.4-0.8,0.8-1.6,1.2-2.4C143.7,80.5,147.5,75.6,149.1,73.6"/>
	<path fill="#EE7E22" d="M209.8,71.7c-0.5,0-0.9,0-1.4,0.1l4.2,5.6c0.7,0.9,1.9,2.5,3.3,4.4c2.8,4,6.4,9.9,8.4,15.8c0,0,0,0,0,0
		c0.1,0,0.1,0.1,0.2,0.1c0.1,0,0.2,0.1,0.2,0.1c0,0,0,0,0.1,0c0.1,0,0.1,0.1,0.2,0.1c1.5-2.6,2.3-5.5,2.3-8.7
		C227.3,79.6,219.5,71.7,209.8,71.7"/>
	<path fill="#B5ACA4" d="M176.5,95.6c-0.1,0.2-0.1,0.4-0.2,0.5c0.1-0.2,0.2-0.3,0.3-0.5L176.5,95.6z"/>
	<path fill="#B1A49E" d="M142.1,94.7c-0.3,0.1-0.6,0.2-0.8,0.3"/>
	<path fill="#EE7E22" d="M165.3,91.6c0.9,1.3,1.6,2,1.6,2s0-0.7,0.1-1.7C166.5,91.8,165.9,91.7,165.3,91.6 M148.5,92.6
		c-2.3,0.6-4.5,1.4-6.4,2.1c-0.1,1.3-0.1,2.6,0,3.9c0.8,1.3,1.8,2.5,2.9,3.5C145.2,99.1,146.1,95.8,148.5,92.6"/>
	<path fill="#B9AFA6" d="M192,100.1L192,100.1c0.2,0.4,0.5,0.8,0.8,1.1C192.5,100.8,192.3,100.5,192,100.1"/>
	<path fill="#B5A9A2" d="M224.4,98.1c0,0.3-0.1,0.6-0.1,0.9c0.1-0.1,0.2-0.3,0.2-0.4C224.5,98.5,224.5,98.3,224.4,98.1"/>
	<path fill="#BB9B83" d="M224.3,97.6c0.1,0.2,0.1,0.3,0.2,0.5c0.1,0.2,0.1,0.4,0.2,0.5c0.1-0.2,0.3-0.4,0.4-0.6
		c-0.1,0-0.1-0.1-0.2-0.1c0,0,0,0-0.1,0c-0.1,0-0.2-0.1-0.2-0.1C224.4,97.7,224.3,97.7,224.3,97.6C224.3,97.6,224.3,97.6,224.3,97.6
		"/>
</g>
</svg>
