<?xml version="1.0" encoding="utf-8"?>
<!-- Generator: Adobe Illustrator 18.0.0, SVG Export Plug-In . SVG Version: 6.00 Build 0)  -->
<!DOCTYPE svg PUBLIC "-//W3C//DTD SVG 1.1//EN" "http://www.w3.org/Graphics/SVG/1.1/DTD/svg11.dtd">
<svg version="1.1" id="Layer_1" xmlns="http://www.w3.org/2000/svg" xmlns:xlink="http://www.w3.org/1999/xlink" x="0px" y="0px"
	 viewBox="6.1 0 605.9 431.3" enable-background="new 6.1 0 605.9 431.3" xml:space="preserve">
<g>
	<g>
		<g>
			<path fill="#946BA8" d="M457.4,180.1c-12.5,13.8-10.5,54.7-10.1,113.1c0.4,42.2-92.7,33.1-92.7,33.1l0.4,36.8
				c0,0,117.8,6.7,117.4-30.3c-0.4-54,2.8-115.3,2.9-130.1c0.2-14.2,12.7-31.6,4-31.4C476.8,171.3,464.5,172.1,457.4,180.1"/>
			<path fill="#735282" d="M598,199.6l-9.4,231.6H475l-8.2-231.6c0.4-13.1,6.2-30.6,23.9-30.6h74.9C583.4,168.9,598,182.6,598,199.6
				"/>
		</g>
		<polygon fill="#FFFFFF" points="561.9,171.1 540,255 528.3,300.5 516.8,256.1 495.4,171.1 		"/>
		<polygon fill="#876199" points="500,210.4 484.7,228.4 528.3,300.5 495.4,171.1 480.8,209.1 		"/>
		<polygon fill="#876199" points="556.7,210.4 572,228.4 528.4,300.5 562.1,170.4 575.9,209.1 		"/>
		<g>
			<path fill="#543D63" d="M530.1,318.8c0,1.8-1.5,3.6-3.2,3.6s-3.2-1.5-3.2-3.6c0-1.8,1.5-3.6,3.2-3.6
				C528.8,315.1,530.1,316.8,530.1,318.8"/>
			<path fill="#543D63" d="M530.5,352.1c0,1.8-1.3,3.6-3.2,3.6c-1.7,0-3.2-1.5-3.2-3.6c0-1.8,1.3-3.6,3.2-3.6
				C529.2,348.6,530.5,350.1,530.5,352.1"/>
			<path fill="#ED1C24" d="M537.5,193c0,4.9-4,14.2-8.7,14.2c-4.8,0-8.7-9.4-8.7-14.2s4-8.7,8.7-8.7S537.5,188.1,537.5,193"/>
		</g>
		<polygon fill="#C9966E" points="544.4,182.1 531.5,190.5 528.6,194.1 525.9,190.3 511.6,180.3 511.6,121.6 544.4,121.6 		"/>
		<g>
			<path fill="#BDF2FF" d="M528.6,194.1l-17-36.3c0,0-13.6,3.6-18.3,16.7c-3.6,9.8-2,19.6-2,19.6s7.8-8.7,18.7-8.7
				C520.8,185.1,528.6,194.1,528.6,194.1"/>
			<path fill="#BDF2FF" d="M528.6,194.1l15.6-36.4c0,0,14.9,3.8,19.8,16.8c3.6,9.8,2,19.6,2,19.6s-7.8-8.7-18.7-8.7
				C536.4,185.1,528.6,194.1,528.6,194.1"/>
		</g>
		<polygon fill="#ED1C24" points="540,255 528.3,300.5 516.8,256.1 525.7,199.6 530.6,199.6 		"/>
		<g>
			<path fill="#A3B5B0" d="M511.6,165.8c0,0.7,0,1.1,0,1.1S511.6,166.5,511.6,165.8"/>
			<path fill="#C5946B" d="M275.8,339c-1.5,11.4,11,21.7,28.1,23.2c17,1.5,31.9-6.5,33.5-17.9c1.5-11.4-11-21.7-28.1-23.2
				C292.2,319.6,277.2,327.8,275.8,339"/>
		</g>
		<polygon fill="#FFFFFF" points="436,399.3 449.8,399.1 449.4,369 435.4,369.1 		"/>
		<polygon fill="#C9966E" points="421.9,395.3 436,394.9 435.6,373.1 421.5,373.4 		"/>
		<g>
			<path fill="#876199" d="M584.8,180.9c-2.9,34.6-1.7,79.4-1.3,137.7c0.4,50.6-134.7,48-134.7,48l0.4,29c0,0,168.4,20,168.9-62.2
				c0.4-54-2.2-118.7-2-133.2C616.3,182.1,586,167.3,584.8,180.9"/>
			<path fill="#C9966E" d="M562.9,83.3c-0.7,39.5-17.6,57.4-47.8,57.4c-3.6,0-10.3-0.2-13.2-0.4c-12.3-0.7-19.6-6.3-24.1-13.4
				c-4-6.3-5.6-13.6-6.2-19.2c-0.6-4.5-0.4-8-0.4-8.9c0,0-9.9-1.8-10.3-8.6c-0.4-8.4,9.8-27.7,8.4-33.9c-0.6-2.8,2.4-13.6,3.6-17.6
				c4.9-16.5,20.5-25.2,39.1-25.2C542.1,13.4,563.8,31.6,562.9,83.3"/>
			<path fill="#5A2E31" d="M588.4,55.4c0,15.9-7.5,36.1-11,44.3l0,0c-6.3,15.7-17.8,21.7-29.9,30.1c-13.1-10.9-19.6-31.9,2.6-47.3
				c-5.1-10.5-23-16.8-37.5-23.4l-5.1-11.4c5.1-6.7,5.6-14.9-0.2-18.1c-10.5-5.6-31.2,1.7-33.7,5.6c-4.9-3.8,2.8-27.1,2.8-32.3
				c8.6,9.8,11-0.6,47.7,0.9C560.7,5.4,588.4,24.8,588.4,55.4"/>
			<path fill="#C9966E" d="M518.9,80.6c0,10.3,7.5,18.5,16.8,18.5c9.4,0,16.8-8.2,16.8-18.5s-7.5-18.5-16.8-18.5
				S518.9,70.4,518.9,80.6"/>
			<path fill="#5A2E31" d="M532.8,61.4c0,0-6.2,0.6-9.9,9.8c-1.8,4.7-2.4,8.6-2.4,8.6h-6.7l-0.9-20.3L532.8,61.4z"/>
			<path fill="#290E0F" d="M588.4,55.4c0,15.9-7.5,36.1-11,44.3c-2.4-9.9-8.2-25.9-22.3-37.5c-21.9-18.3-47.7-14.4-47.7-14.4
				c5.1-6.7,5.6-14.9-0.2-18.1c-10.5-5.6-31.2,1.7-33.7,5.6c-5.1-4-3.2-25.9,2.6-32.5c12.5,9.4,14.9-4,51.4,0
				C565.6,6.9,588.4,24.8,588.4,55.4"/>
			<path fill="#C9966E" d="M366.8,378.3c-1.5,12.9,11.2,25,28.3,26.9c17,1.8,31.9-7.1,33.5-20.1c1.5-13-11.2-25-28.3-26.9
				C383.2,356.1,368.1,365.1,366.8,378.3"/>
			<path fill="#4575AD" d="M157.6,194.3c17.8,20,61.6,108,66,164.1c3.6,48.2-42.4,37.4-42.4,37.4l-3.8-37.9
				c29.5-0.6-37-119.6-40.8-136.6c-2.8-12.9-8.6-34.2,1.1-34.6C140.8,186.3,151.3,187.1,157.6,194.3"/>
			<path fill="#3863A1" d="M24.7,214l7.8,217.3h106.9l8.9-217.3c-0.2-17.8-3.2-29.5-20.3-29.5H55.8C38.5,184.5,24.7,197.6,24.7,214"
				/>
		</g>
		<polygon fill="#FFFFFF" points="59.5,186.5 80.4,267.4 91.8,311.1 102.7,268.4 123.5,186.5 		"/>
		<polygon fill="#4575AD" points="119,224.4 133.7,241.6 91.8,311.1 123.5,186.5 137.5,223.1 		"/>
		<polygon fill="#4575AD" points="64.6,224.4 49.6,241.6 91.5,311.1 59.3,185.9 45.9,223.1 		"/>
		<g>
			<path fill="#124270" d="M90,328.6c0,1.8,1.3,3.4,2.9,3.4s2.9-1.5,2.9-3.4s-1.3-3.4-2.9-3.4S90,326.6,90,328.6"/>
			<path fill="#124270" d="M88.7,361.1c0,2,1.5,4,3.4,4s3.4-1.7,3.4-4c0-2-1.5-4-3.4-4C90.4,357.3,88.7,359.1,88.7,361.1"/>
			<path fill="#124270" d="M89.4,384.6c0,2,1.5,4,3.4,4s3.4-1.7,3.4-4c0-2-1.5-4-3.4-4C90.9,380.8,89.4,382.6,89.4,384.6"/>
			<path fill="#ED1C24" d="M82.9,207.6c0,4.7,3.8,13.6,8.6,13.6c4.7,0,8.6-8.9,8.6-13.6s-3.8-8.4-8.6-8.4
				C86.6,199,82.9,203,82.9,207.6"/>
		</g>
		<polygon fill="#FFC985" points="76.4,197.1 88.7,205.1 91.5,208.6 94.1,204.8 107.7,195.4 107.7,138.8 76.4,138.8 		"/>
		<g>
			<path fill="#BDF2FF" d="M91.5,208.6l16.5-35c0,0,13.1,3.4,17.6,16.1c3.4,9.4,2,18.9,2,18.9s-7.5-8.4-17.9-8.4
				S91.5,208.6,91.5,208.6"/>
			<path fill="#BDF2FF" d="M91.5,208.6l-14.9-35.2c0,0-14.4,3.8-19,16.3c-3.4,9.4-2,18.9-2,18.9s7.4-8.5,17.8-8.5
				S91.5,208.6,91.5,208.6"/>
		</g>
		<polygon fill="#ED1C24" points="80.4,267.4 91.8,311.1 102.7,268.4 94.3,213.8 89.4,213.8 		"/>
		<g>
			<path fill="#FFC985" d="M61.2,113.9c0,9.2-6.9,16.8-15.4,16.8s-15.4-7.5-15.4-16.8c0-9.2,6.9-16.8,15.4-16.8
				C54.3,97.3,61.2,104.8,61.2,113.9"/>
			<path fill="#FFC985" d="M153.2,112.4c0,9.2-6.9,16.8-15.4,16.8c-8.4,0-15.4-7.5-15.4-16.8c0-9.2,6.9-16.8,15.4-16.8
				C146.2,95.6,153.2,103.1,153.2,112.4"/>
			<path fill="#FFC985" d="M45.4,101.9c0,7.6,0.9,14.9,2.4,22.1c3.6,15.7,11.2,29,21.7,36.8c6.5,4.9,14.4,7.8,23.2,7.8
				c8,0,15.2-2.4,21.5-6.5c11.8-7.8,20-22.1,23.7-38.8l0,0c1.5-6.7,2.2-13.8,2.2-21.2c0-35.5-9.9-64.1-47.3-64.1
				C54.1,38.1,45.4,66.6,45.4,101.9"/>
			<path fill="#754D24" d="M34.1,55.6c8.7,28.8,7.6,42.2,7.6,42.2s0.9,2.2,2,5.1c1.3,2.9,2.8,11.4,3.6,16.1
				c-0.4-4-0.7-12.5,0.4-29.4c1.3-20.9,6.9-26.5,6.9-26.5s1.3-6.9,9.2-15.6c3.2-3.6,10.9-5.8,19.6-6.7c0.9,0,1.8-0.2,2.6-0.2
				c11.2-0.7,23.6,0.6,30.8,4.3c11.6,6,11.8,21.2,11.8,21.2s7.1,6.5,9.4,18.1c2.8,14.5-0.2,38.8-0.2,38.8s2.2-12.3,4-18.1
				s3.2-7.1,3.2-7.1s-1.3-26.7,8.2-43.5C133.1-9.6,50.3-0.2,34.1,55.6"/>
			<path fill="#A3B5B0" d="M107.7,181.1c0,0.7,0,0.9,0,0.9C107.7,182.3,107.7,182,107.7,181.1"/>
			<path fill="#8A5938" d="M65,19.6c2.4,4,10.7,20.1,9.4,23c-1.3,2.8-1.8,3.6-7.3,9.2c-7.5,7.8-11.8,11.4-15.2,16.8
				c-8-10.9-15.9-13.8-17.8-13.1c-3.6-9.9,7.1-32.5,14.7-37.9C56.5,12.3,62.3,15.1,65,19.6"/>
			<path fill="#8A5938" d="M64.2,13.6c-1.7,3.8,5.6,24.5,10.1,29c7.6,0,19,3.8,28.8,8.4c13.1,6.3,24.5,15.9,29.4,20.3
				c4.5,4.1,14.2,19.2,14.2,19.2s7.6-20.9,7.3-36.1c-0.2-12-6.3-44.6-42.6-50.6C74.8-1.9,66.4,8.4,64.2,13.6"/>
			<path fill="#BF8F57" d="M74.2,42.6c0,0,19.4,2.2,36.6,13.2c10.9,6.9,19.4,14.9,24.3,20c-0.6-1.1-0.9-2-1.5-2.9
				c-0.4-0.6-0.9-0.9-1.3-1.3c-4.9-4.5-16.3-14-29.4-20.3C93.4,46.4,82,42.8,74.2,42.6"/>
			<path fill="#6E451C" d="M133.7,72.9c0.6,0.9,1.1,1.8,1.5,2.9c2.8,2.8,4.3,4.5,4.3,4.5l0,0C137.5,77.4,135.4,74.6,133.7,72.9"/>
			<path fill="#784A29" d="M94.1,31.4c-13.8,0-18.3,7.5-19.4,10.3c-0.2,0.4-0.2,0.7-0.4,0.9c7.6,0,19,3.8,28.8,8.4
				c13.1,6.3,24.5,15.9,29.4,20.3c0.4,0.4,0.7,0.7,1.3,1.3c1.7,1.8,3.8,4.7,5.8,7.5c0-0.4-5.8-40.8-33.3-47.3
				C101.6,31.6,97.4,31.4,94.1,31.4"/>
			<path fill="#DEAD6E" d="M74.2,42.6c-0.2,0.2-0.2,0.6-0.4,0.7C74.1,43.1,74.1,42.8,74.2,42.6 M71.5,47.1c-0.9,1.1-2.4,2.6-4.5,4.9
				c-3.6,3.8-6.5,6.5-8.7,8.9C60.1,58.9,67.2,52.4,71.5,47.1 M57.9,61.1c-2.4,2.6-4.3,4.9-6.2,7.5C51.7,68.6,55.9,63.1,57.9,61.1
				L57.9,61.1"/>
			<path fill="#825230" d="M66.2,25.6c0.7,3.4,1.3,6.7,1.1,8.6c-1.1,7.5-7.5,11-11.2,17.4c-3.8,6.3-4.3,17-4.3,17
				c1.7-2.8,3.8-5.1,6.2-7.5c0,0,0.2-0.2,0.2-0.4c2.4-2.4,5.2-5.2,8.7-8.9c2-2.2,3.6-3.8,4.5-4.9c1.1-1.3,1.8-2.6,2.4-3.8
				c0.2-0.2,0.2-0.6,0.4-0.7C71.7,40.1,68.3,32.4,66.2,25.6"/>
			<path fill="#825230" d="M64.2,18.1c0,0,1.1,3.6,1.8,7.6c2.2,6.9,5.6,14.4,8,16.8c0,0,0.2-0.4,0.4-0.9
				C77.3,32.4,64.2,18.1,64.2,18.1"/>
			<path fill="#734726" d="M74.6,41.6c-0.2,0.6-0.4,0.9-0.4,0.9C74.4,42.1,74.4,41.9,74.6,41.6"/>
		</g>
		<polygon fill="#FFFFFF" points="247.5,359.8 234.3,359.4 232.2,331.6 248.2,331.6 		"/>
		<polygon fill="#FFC985" points="260.9,356.5 247.7,356.1 248.1,335.5 261.6,335.5 		"/>
		<g>
			<path fill="#FFC985" d="M312,338.4c1.3,12.5-10.9,24.1-27.3,25.8c-16.5,1.8-30.8-6.9-32.1-19.4s10.9-24.1,27.3-25.8
				C296.3,317.3,310.7,325.9,312,338.4"/>
			<path fill="#1A1A1A" d="M176.3,318.3c-0.9,4.5-2.4,11.2-2.9,13.6c-0.2,0.9-0.4,2-0.7,3.6h-0.2c-4.9,21.7-8.9,41.3-11.6,50.2
				c-2.9,9.9-5.4,13.2-5.4,13.2s-0.7-4.5,0.6-14.2c1.3-9.8,5.4-29.4,9.8-50.8h-0.2c0.4-1.5,0.6-2.6,0.7-3.6
				c0.4-2.2,1.8-8.9,2.8-13.2c2.2-11,4-17.4,5.2-21.2c0.2-0.4,0.4-0.7,0.4-1.1c0.4-1.1,0.9-2,1.3-2.4c0.7-1.1,1.5-1.1,2.2-0.9
				c0.7,0.2,1.5,0.6,1.8,1.8c0.2,0.7,0.2,1.5,0.2,2.8c0,0.4,0,0.7,0,1.3C179.7,301.1,178.6,307.4,176.3,318.3"/>
			<path fill="#FFF59C" d="M156,384.6l4.9,0.9c-2.9,9.9-5.4,13.2-5.4,13.2S154.7,394.4,156,384.6"/>
			<path fill="#FFF59C" d="M165.3,333.8c0.4-1.5,0.6-2.6,0.7-3.6l7.3,1.5c-0.2,0.9-0.4,2-0.7,3.6L165.3,333.8z"/>
			<path fill="#FFF59C" d="M177.9,291.3c0.7,0.2,1.5,0.6,1.8,1.8l-4.1-0.9C176.3,291.1,177,291.1,177.9,291.3"/>
			<path fill="#FFF59C" d="M173.9,296c0.2-0.4,0.4-0.7,0.4-1.1l5.6,1.1c0,0.4,0,0.7,0,1.3L173.9,296z"/>
		</g>
		
			<rect x="180.1" y="294" transform="matrix(-0.2046 0.9788 -0.9788 -0.2046 508.1108 181.1626)" fill="#FFF59C" width="0.7" height="6"/>
		
			<rect x="161.2" y="313.5" transform="matrix(-0.2052 0.9787 -0.9787 -0.2052 523.2908 203.782)" fill="#FFF59C" width="35.5" height="1.8"/>
		<g>
			<path fill="#FFD9A6" d="M142.7,378.6c-0.6,12.5,12.3,23.4,28.8,24.1c16.5,0.7,30.3-8.7,30.8-21.5c0.6-12.5-12.3-23.4-28.8-24.1
				C157.1,356.4,143.3,365.9,142.7,378.6"/>
			<path fill="#4585BA" d="M35.8,192.6c4.7,4.1,1.8,80.9,45.8,112.9c52.4,38.1,152.5,24.7,152.5,24.7v36.1c0,0-149.2,4.1-190.1-40.9
				C9,286.9,6.1,240.6,6.1,219.1C6.1,202,25.8,184.1,35.8,192.6"/>
		</g>
		
			<rect x="331.6" y="330.4" transform="matrix(-1 7.439934e-003 -7.439934e-003 -1 676.9375 682.117)" fill="#C5946B" width="11.2" height="23.9"/>
		<rect x="342.8" y="328.6" fill="#FFFFFF" width="12" height="28.6"/>
	</g>
</g>
</svg>
