<?xml version="1.0" encoding="utf-8"?>
<!-- Generator: Adobe Illustrator 18.1.1, SVG Export Plug-In . SVG Version: 6.00 Build 0)  -->
<svg version="1.1" id="Layer_1" xmlns="http://www.w3.org/2000/svg" xmlns:xlink="http://www.w3.org/1999/xlink" x="0px" y="0px"
	 viewBox="0 0 600 600" enable-background="new 0 0 600 600" xml:space="preserve">
<g>
	<g>
		<path fill="#F1D0AB" d="M180.6,362.1c0.4,0.9,0.4,0.7-0.2-0.4C180.6,361.7,180.6,361.9,180.6,362.1z"/>
		<path fill="#F1D0AB" d="M469.8,180.9c10,0,20.4-6.1,22.4-7.4c-1.7,1.1-15.9,5.4-29.6-3.5c-15.7-10.2-20.4-16.1-27.2-34.8
			c-6.7-18.7-0.7-18.7-7.4-33.3c-6.7-14.6-4.1-27.8-12-40.9c-11.7-20-47.2-22.8-48.7-25.2c-7-11.5-8.7-9.1-11.3-6.5
			c0-9.6-2.4-10.2-3.5-16.1c0,0-2.4-12.2-8.7-7.2c-1.5,1.3-7.8,1.1-8.5,3.7c-6.5-1.1-15.2-0.7-25.7,0.2c-14.8,1.3-37-5-72.2,4.3
			c-30.4,8.3-38.9,19.6-61.3,44.4c-8,8.9-14.4,24.6-18.9,39.4c-19.6,20.9-40.2,57.2-43.1,120.9c-0.9,25.4,13.9,56.1,13.9,56.1
			s-2.8-19.4,0.7-41.1c2.8-17,7.6-32.4,22.6-48.5c-7.8,9.6-14.4,23.9-16.7,42.6c-4.3,35.7,2.2,63.7,12.6,88.7
			c7.8,18.7,28.7,43.1,33.3,49.6c-1.7-2.8-2.8-11.3-3.7-22c11.3,17.6,33.9,30.9,33.9,30.9l-0.9-1.5c15.9,16.7,35.7,28.5,55.5,34.8
			c-0.2,1.1,0,2.4-0.2,3.5h0.4l0,0c0,2.8-1.1,5.4-1.5,8c-0.7,3.5-1.7,6.7-2.4,9.8c0-0.2-0.2-0.4-0.2-0.7c-3,10.4-7.2,16.5-12.8,16.5
			l0,0c-2.4,0-35.7,7-57.2,53.3c-0.4,0.9-0.7,1.7-1.1,2.6l0,0c-7.8,17.4-13.9,40.7-15.9,70.9c0,0.4,0,1.1,0,1.5c0,1.1-0.2,2-0.2,3
			c-0.4,6.5-0.7,13.9-0.7,21.1c0,0,1.1-0.2,3,2h245.5c1.7-2.2,2.8-2.2,2.8-2.2c0-140.9-75-152.2-75-152.2h-0.7
			c-5.2,0-9.1-6.5-12.2-16.5c-0.2,0.4-0.4,0.9-0.7,1.3c-1.1-3.7-2.2-7.8-2.8-12.6c-0.4-2-0.4-3.9-0.9-6.1h0.2v-0.2
			c0-1.5-0.7-3-0.9-4.6c18.9-6.7,37.4-18.3,52.4-34.6c22.4-13.5,38.9-40.4,46.1-69.8c2.2-1.3,4.3-3,6.5-5
			c-0.9,6.5-2.2,13.3-4.8,19.6c0,0,28.9-30.7,28.3-48.5c-0.7-17.6,9.6-32.4,3.5-59.4c-2-8.9-18.1-34.1-18.1-34.1s-15.2-15.2-7.6-7.6
			C446.1,175.7,458.8,180.9,469.8,180.9z M298.3,433L298.3,433v7.4l0,0V433z M428.7,241.8c0.2,0.2,0.2,0.4,0.2,0.4s-0.2,0-0.2,0.2
			C428.7,242,428.7,241.8,428.7,241.8z"/>
	</g>
	<g enable-background="new    ">
		<path fill="#FFFFFF" d="M259.5,269.9c0.1-14.6,2.3-25.3,6.5-32c4.2-6.8,12.6-15,25.2-24.7c7.4-6,13.3-12.5,17.7-19.5
			c4.4-7,6.6-14.8,6.6-23.4c0-9.6-2.5-17.1-7.6-22.5c-5.1-5.4-12.3-8.1-21.6-8.1c-7.7,0-14.2,2.3-19.6,6.9
			c-5.4,4.6-8.1,11.3-8.2,20.2h-44.4l-0.3-0.9c-0.3-20,6.3-35.3,19.8-45.9c13.5-10.6,31.1-15.9,52.7-15.9c23.3,0,41.6,5.9,54.9,17.7
			c13.3,11.8,19.9,27.9,19.9,48.2c0,13.2-3.9,25.5-11.6,36.7c-7.8,11.2-17.5,20.7-29.1,28.3c-6.4,4.9-10.5,9.8-12.5,14.8
			c-2,4.9-3,11.7-3,20.4H259.5z M305.3,334.6h-45.9v-39.1h45.9V334.6z"/>
	</g>
</g>
</svg>
