<?xml version="1.0" encoding="utf-8"?>
<!-- Generator: Adobe Illustrator 18.1.1, SVG Export Plug-In . SVG Version: 6.00 Build 0)  -->
<svg version="1.1" id="Layer_1" xmlns="http://www.w3.org/2000/svg" xmlns:xlink="http://www.w3.org/1999/xlink" x="0px" y="0px"
	 viewBox="0 0 250 261" enable-background="new 0 0 250 261" xml:space="preserve">
<g>
	<text transform="matrix(1 0 0 1 355.7867 40.8904)" fill="#77787B" font-family="'Roboto-Medium'" font-size="25"> </text>
	<g>
		<path fill="#FFFFFF" d="M208.1,50.5L47.6,66.4c-3.8,0.4-7.6,0-8.5-0.9l-36.9-34c-0.1-3.1,0.9-4.6,6.3-5.1L238.8,3.5
			c5.4-0.5,8.4,0.5,9,2.7l-31.5,41.7C215.5,49,211.8,50.1,208.1,50.5"/>
		<path fill="#1A1A1A" d="M247.9,8.1l-29.7,42c-0.2,0.3-0.7,0.7-1.4,1c-1.6,0.7-4.2,1.4-6.8,1.6l-161.3,16c-1.1,0.1-2.1,0.2-3.1,0.1
			c-2.6,0-4.8-0.4-5.4-1.1L2.7,32.3c-0.3-0.3-0.5-0.6-0.5-0.8l0,0c-0.2-1.4,2.5-2.8,7-3.3L240.7,5.3C246.1,4.7,249.3,6,247.9,8.1"/>
		<path fill="#FFFFFF" d="M221.3,164.5l-161.8,16c-3.6,0.4-6.9-2.3-7.2-5.9l-9.8-98.7c-0.4-3.6,2.3-6.9,5.9-7.2l161.8-16
			c3.6-0.4,6.9,2.3,7.2,5.9l9.8,98.7C227.6,160.9,224.9,164.1,221.3,164.5"/>
	</g>
	<polygon fill="#FFFFFF" points="210,50.5 47.1,66.6 14,32.5 235.4,10.5 	"/>
	<polygon fill="#FAB03B" points="233.2,14 16.9,35.4 14,32.5 235.4,10.5 	"/>
	<polygon fill="#FAB03B" points="210,50.5 47.1,66.6 45.5,64.9 211.3,48.5 	"/>
	<polygon fill="#808080" points="163.8,25 87.2,32.6 86.5,30.9 164.1,23.2 	"/>
	<polygon fill="#808080" points="211,23.3 42.6,40 41.3,38.3 211.9,21.5 	"/>
	<polygon fill="#29ABE3" points="87.2,48.8 52.4,52.2 44.1,41.8 82.2,38 	"/>
	<polygon fill="#B2E0F5" points="88,50.4 53.6,53.8 60.4,62.3 92,59.2 	"/>
	<polygon fill="#B2E0F5" points="209.9,25.4 86.6,37.6 88,41.1 207.9,29.3 	"/>
	<polygon fill="#B2E0F5" points="207.1,30.7 88.6,42.4 90,45.7 205.3,34.2 	"/>
	<polygon fill="#D6F0FA" points="202.8,39.1 91.8,50 93,52.9 201.2,42.2 	"/>
	<polygon fill="#D6F0FA" points="200.6,43.3 93.5,53.9 94.6,56.6 199.1,46.3 	"/>
	<g>
		<path fill="#E5E5E5" d="M209.4,129.2L66,143.4c-2.9,0.3-5.5-1.8-5.8-4.8L55,86.3c-0.3-2.9,1.8-5.5,4.8-5.8l143.4-14.2
			c2.9-0.3,5.5,1.8,5.8,4.8l5.2,52.3C214.4,126.3,212.3,128.9,209.4,129.2"/>
	</g>
	
		<rect x="68.1" y="60.4" transform="matrix(0.9951 -9.850065e-002 9.850065e-002 0.9951 -5.6683 13.2836)" width="127.2" height="7.2"/>
	<g>
		<path fill="#E5E5E5" d="M155.1,167.2l-28.4,2.8c-3.2,0.3-6.1-2-6.4-5.2l-1.7-17.2c-0.3-3.2,2-6.1,5.2-6.4l28.4-2.8
			c3.2-0.3,6.1,2,6.4,5.2l1.7,17.2C160.6,164,158.3,166.8,155.1,167.2"/>
	</g>
	
		<rect x="61.9" y="83.6" transform="matrix(0.9951 -9.848399e-002 9.848399e-002 0.9951 -8.0647 7.0552)" fill="#1A1A1A" width="11.1" height="3.3"/>
	
		<rect x="76.3" y="82.2" transform="matrix(0.9951 -9.848399e-002 9.848399e-002 0.9951 -7.8544 8.4662)" fill="#1A1A1A" width="11.1" height="3.3"/>
	
		<rect x="90.7" y="80.7" transform="matrix(0.9951 -9.848399e-002 9.848399e-002 0.9951 -7.644 9.8771)" fill="#1A1A1A" width="11.1" height="3.3"/>
	
		<rect x="105.1" y="79.3" transform="matrix(0.9951 -9.849264e-002 9.849264e-002 0.9951 -7.4343 11.2891)" fill="#1A1A1A" width="11.1" height="3.3"/>
	
		<rect x="119.5" y="77.9" transform="matrix(0.9951 -9.848399e-002 9.848399e-002 0.9951 -7.2233 12.699)" fill="#1A1A1A" width="11.1" height="3.3"/>
	
		<rect x="133.9" y="76.5" transform="matrix(0.9951 -9.848399e-002 9.848399e-002 0.9951 -7.013 14.1099)" fill="#1A1A1A" width="11.1" height="3.3"/>
	
		<rect x="148.3" y="75" transform="matrix(0.9951 -9.848399e-002 9.848399e-002 0.9951 -6.8027 15.5208)" fill="#1A1A1A" width="11.1" height="3.3"/>
	
		<rect x="162.7" y="73.6" transform="matrix(0.9951 -9.848399e-002 9.848399e-002 0.9951 -6.5923 16.9318)" fill="#1A1A1A" width="11.1" height="3.3"/>
	
		<rect x="177.1" y="72.2" transform="matrix(0.9951 -9.848291e-002 9.848291e-002 0.9951 -6.3819 18.3425)" fill="#1A1A1A" width="11.1" height="3.3"/>
	
		<rect x="191.5" y="70.8" transform="matrix(0.9951 -9.848291e-002 9.848291e-002 0.9951 -6.1716 19.7534)" fill="#1A1A1A" width="11.1" height="3.3"/>
	
		<rect x="62.6" y="88.4" transform="matrix(0.9951 -9.854482e-002 9.854482e-002 0.9951 -8.807 7.1482)" fill="#1A1A1A" width="10.6" height="8.7"/>
	
		<rect x="76.5" y="87" transform="matrix(0.9951 -9.854482e-002 9.854482e-002 0.9951 -8.6047 8.5047)" fill="#1A1A1A" width="10.6" height="8.7"/>
	
		<rect x="90.3" y="85.6" transform="matrix(0.9951 -9.854482e-002 9.854482e-002 0.9951 -8.4024 9.8613)" fill="#1A1A1A" width="10.6" height="8.7"/>
	
		<rect x="104.1" y="84.3" transform="matrix(0.9951 -9.854482e-002 9.854482e-002 0.9951 -8.2002 11.2178)" fill="#1A1A1A" width="10.6" height="8.7"/>
	
		<rect x="118" y="82.9" transform="matrix(0.9951 -9.854482e-002 9.854482e-002 0.9951 -7.9979 12.5744)" fill="#1A1A1A" width="10.6" height="8.7"/>
	
		<rect x="131.8" y="81.5" transform="matrix(0.9951 -9.854482e-002 9.854482e-002 0.9951 -7.7956 13.9309)" fill="#1A1A1A" width="10.6" height="8.7"/>
	
		<rect x="145.6" y="80.2" transform="matrix(0.9951 -9.854482e-002 9.854482e-002 0.9951 -7.5934 15.2875)" fill="#1A1A1A" width="10.6" height="8.7"/>
	
		<rect x="159.5" y="78.8" transform="matrix(0.9951 -9.854482e-002 9.854482e-002 0.9951 -7.3911 16.644)" fill="#1A1A1A" width="10.6" height="8.7"/>
	
		<rect x="173.3" y="77.4" transform="matrix(0.9951 -9.854369e-002 9.854369e-002 0.9951 -7.1887 18.0003)" fill="#1A1A1A" width="10.6" height="8.7"/>
	
		<rect x="187.1" y="75.8" transform="matrix(0.9951 -9.850755e-002 9.850755e-002 0.9951 -6.9449 19.6137)" fill="#1A1A1A" width="16" height="8.7"/>
	
		<rect x="82.8" y="96.7" transform="matrix(0.9951 -9.854482e-002 9.854482e-002 0.9951 -9.5326 9.1799)" fill="#1A1A1A" width="10.6" height="8.7"/>
	
		<rect x="96.7" y="95.4" transform="matrix(0.9951 -9.854482e-002 9.854482e-002 0.9951 -9.3303 10.5365)" fill="#1A1A1A" width="10.6" height="8.7"/>
	
		<rect x="110.5" y="94" transform="matrix(0.9951 -9.854482e-002 9.854482e-002 0.9951 -9.128 11.893)" fill="#1A1A1A" width="10.6" height="8.7"/>
	
		<rect x="124.3" y="92.6" transform="matrix(0.9951 -9.854482e-002 9.854482e-002 0.9951 -8.9258 13.2496)" fill="#1A1A1A" width="10.6" height="8.7"/>
	
		<rect x="138.2" y="91.3" transform="matrix(0.9951 -9.854482e-002 9.854482e-002 0.9951 -8.7235 14.6061)" fill="#1A1A1A" width="10.6" height="8.7"/>
	
		<rect x="152" y="89.9" transform="matrix(0.9951 -9.854482e-002 9.854482e-002 0.9951 -8.5212 15.9626)" fill="#1A1A1A" width="10.6" height="8.7"/>
	
		<rect x="165.8" y="88.5" transform="matrix(0.9951 -9.854482e-002 9.854482e-002 0.9951 -8.319 17.3192)" fill="#1A1A1A" width="10.6" height="8.7"/>
	
		<rect x="179.7" y="87.2" transform="matrix(0.9951 -9.854369e-002 9.854369e-002 0.9951 -8.1166 18.6755)" fill="#1A1A1A" width="10.6" height="8.7"/>
	
		<rect x="193.5" y="85.8" transform="matrix(0.9951 -9.854369e-002 9.854369e-002 0.9951 -7.9143 20.032)" fill="#1A1A1A" width="10.6" height="8.7"/>
	
		<rect x="89.2" y="106.7" transform="matrix(0.9951 -9.854482e-002 9.854482e-002 0.9951 -10.4858 9.852)" fill="#1A1A1A" width="10.6" height="8.7"/>
	
		<rect x="103" y="105.4" transform="matrix(0.9951 -9.854482e-002 9.854482e-002 0.9951 -10.2835 11.2086)" fill="#1A1A1A" width="10.6" height="8.7"/>
	
		<rect x="116.8" y="104" transform="matrix(0.9951 -9.854482e-002 9.854482e-002 0.9951 -10.0812 12.5651)" fill="#1A1A1A" width="10.6" height="8.7"/>
	
		<rect x="130.7" y="102.6" transform="matrix(0.9951 -9.854482e-002 9.854482e-002 0.9951 -9.879 13.9217)" fill="#1A1A1A" width="10.6" height="8.7"/>
	
		<rect x="144.5" y="101.3" transform="matrix(0.9951 -9.854482e-002 9.854482e-002 0.9951 -9.6767 15.2782)" fill="#1A1A1A" width="10.6" height="8.7"/>
	
		<rect x="158.3" y="99.9" transform="matrix(0.9951 -9.854482e-002 9.854482e-002 0.9951 -9.4744 16.6348)" fill="#1A1A1A" width="10.6" height="8.7"/>
	
		<rect x="172.2" y="98.5" transform="matrix(0.9951 -9.854369e-002 9.854369e-002 0.9951 -9.2721 17.9911)" fill="#1A1A1A" width="10.6" height="8.7"/>
	
		<rect x="186" y="96.7" transform="matrix(0.9951 -9.852739e-002 9.852739e-002 0.9951 -9.006 19.7633)" fill="#1A1A1A" width="19.2" height="8.7"/>
	
		<rect x="95.5" y="116.8" transform="matrix(0.9951 -9.854482e-002 9.854482e-002 0.9951 -11.4471 10.5253)" fill="#1A1A1A" width="10.6" height="8.7"/>
	
		<rect x="109.3" y="115.4" transform="matrix(0.9951 -9.854482e-002 9.854482e-002 0.9951 -11.2448 11.8819)" fill="#1A1A1A" width="10.6" height="8.7"/>
	
		<rect x="123.2" y="114.1" transform="matrix(0.9951 -9.854482e-002 9.854482e-002 0.9951 -11.0426 13.2384)" fill="#1A1A1A" width="10.6" height="8.7"/>
	
		<rect x="137" y="112.7" transform="matrix(0.9951 -9.854482e-002 9.854482e-002 0.9951 -10.8403 14.595)" fill="#1A1A1A" width="10.6" height="8.7"/>
	
		<rect x="150.8" y="111.3" transform="matrix(0.9951 -9.854482e-002 9.854482e-002 0.9951 -10.638 15.9515)" fill="#1A1A1A" width="10.6" height="8.7"/>
	
		<rect x="164.7" y="110" transform="matrix(0.9951 -9.854482e-002 9.854482e-002 0.9951 -10.4358 17.3081)" fill="#1A1A1A" width="10.6" height="8.7"/>
	
		<rect x="178.5" y="107.7" transform="matrix(0.9951 -9.849872e-002 9.849872e-002 0.9951 -10.1032 19.5005)" fill="#1A1A1A" width="28" height="8.7"/>
	
		<rect x="81.4" y="128.6" transform="matrix(0.9951 -9.854482e-002 9.854482e-002 0.9951 -12.6797 9.1957)" fill="#1A1A1A" width="10.6" height="8.7"/>
	
		<rect x="95.2" y="125.1" transform="matrix(0.9951 -9.851037e-002 9.851037e-002 0.9951 -12.1607 12.6444)" fill="#1A1A1A" width="53.6" height="8.7"/>
	
		<rect x="150.6" y="121.8" transform="matrix(0.9951 -9.854482e-002 9.854482e-002 0.9951 -11.6683 15.9784)" fill="#1A1A1A" width="10.6" height="8.7"/>
	
		<rect x="163.7" y="120.5" transform="matrix(0.9951 -9.854482e-002 9.854482e-002 0.9951 -11.4772 17.2601)" fill="#1A1A1A" width="10.6" height="8.7"/>
	
		<rect x="187.1" y="118.2" transform="matrix(0.9951 -9.847083e-002 9.847083e-002 0.9951 -11.1332 19.5007)" fill="#1A1A1A" width="9.7" height="8.7"/>
	
		<rect x="176.9" y="123.6" transform="matrix(0.9951 -9.847083e-002 9.847083e-002 0.9951 -11.498 18.5051)" fill="#1A1A1A" width="9.7" height="4.3"/>
	
		<rect x="197.9" y="121.5" transform="matrix(0.9951 -9.847083e-002 9.847083e-002 0.9951 -11.1906 20.5674)" fill="#1A1A1A" width="9.7" height="4.3"/>
	
		<rect x="63.6" y="98.3" transform="matrix(0.9951 -9.849969e-002 9.849969e-002 0.9951 -9.7649 7.589)" fill="#1A1A1A" width="16.7" height="8.7"/>
	
		<rect x="64.7" y="108.6" transform="matrix(0.9951 -9.851333e-002 9.851333e-002 0.9951 -10.76 7.9877)" fill="#1A1A1A" width="21.7" height="8.7"/>
	
		<rect x="65.7" y="118.9" transform="matrix(0.9951 -9.851668e-002 9.851668e-002 0.9951 -11.7603 8.4002)" fill="#1A1A1A" width="26.9" height="8.7"/>
	
		<rect x="66.8" y="130" transform="matrix(0.9951 -9.852895e-002 9.852895e-002 0.9951 -12.8827 7.8192)" fill="#1A1A1A" width="11.9" height="8.7"/>
	<path fill="#F25924" d="M213.6,203.3l-17.5,1.7c0,0,6.4,6.7,5.3,56.2h20.2C217.5,214.8,213.6,203.3,213.6,203.3"/>
	<path fill="#FFC291" d="M216.6,190.5l-1-18c0-0.1,0-0.1,0-0.2l-1.7-17.7c-0.1-1.4-1.4-2.5-2.9-2.4c-1.4,0.1-2.5,1.4-2.4,2.9l0.4,12
		l-0.1,0l-2.8-22c-0.1-1.6-1.5-2.7-3.1-2.6l-0.1,0c-1.6,0.1-2.7,1.6-2.6,3.1l1,21.7l-0.1,0l-3.1-25.4c-0.1-1.5-1.5-2.7-3.1-2.5
		c-1.5,0.1-2.7,1.5-2.5,3.1l1.7,25.1l-0.2,0l-2.4-18.9c-0.1-1.6-1.6-2.7-3.1-2.6l-0.1,0c-1.6,0.1-2.7,1.6-2.6,3.1l2.4,25.7l0.2,2
		l0.1,0.7l-2.9-8.5c-0.5-1.5-2.2-2.3-3.6-1.8l-0.1,0c-0.9,0.3-1.5,1-1.8,1.8c-0.2,0.6-0.2,1.2,0,1.8c0,0,0.2,0.6,0.5,1.7
		c1.3,4.2,4.9,15.1,6.3,18.1c1.8,3.8,4.8,8.7,8.6,7.6l-0.1-0.1l0.1,0l0,0.1l0.6,6.6l17.5-1.7l-0.6-6.7
		C215.5,195.8,216.8,193.3,216.6,190.5"/>
	<path fill="#FFDEC7" d="M212.8,153.6c-0.5-0.6-1.4-0.8-2.1-0.3c-0.6,0.5-0.8,1.4-0.3,2.1c0.5,0.6,1.4,0.8,2.1,0.3
		C213.1,155.2,213.3,154.3,212.8,153.6"/>
	<path fill="#FFDEC7" d="M205,144.3c-0.6-0.8-1.8-1-2.6-0.3c-0.8,0.6-1,1.8-0.3,2.6c0.6,0.8,1.8,1,2.6,0.3
		C205.5,146.3,205.6,145.1,205,144.3"/>
	<path fill="#FFDEC7" d="M196.9,141.1c-0.6-0.8-1.8-1-2.6-0.3c-0.8,0.6-1,1.8-0.3,2.6c0.6,0.8,1.8,1,2.6,0.3
		C197.4,143.1,197.6,141.9,196.9,141.1"/>
	<path fill="#FFDEC7" d="M190.3,147.9c-0.6-0.8-1.8-1-2.6-0.3c-0.8,0.6-1,1.8-0.3,2.6c0.6,0.8,1.8,1,2.6,0.3
		C190.8,149.9,190.9,148.7,190.3,147.9"/>
	<path fill="#FFDEC7" d="M182.8,169.6c-0.7-0.9-1.9-1-2.8-0.4c-0.2,0.6-0.2,1.2,0,1.8c0,0,0.2,0.6,0.5,1.7c0.6,0.2,1.3,0.1,1.9-0.3
		C183.3,171.7,183.5,170.5,182.8,169.6"/>
	<path fill="#F25924" d="M72.6,186.1l17.5,1.7c0,0-9.2-2,2.4,73.8H71.2C67.5,205,72.6,186.1,72.6,186.1"/>
	<path fill="#FFC291" d="M69.7,173.3l1-18c0-0.1,0-0.1,0-0.2l1.7-17.7c0.1-1.4,1.4-2.5,2.9-2.4c1.4,0.1,2.5,1.4,2.4,2.9l-0.4,12
		l0.1,0l2.8-22c0.1-1.6,1.5-2.7,3.1-2.6l0.1,0c1.6,0.1,2.7,1.6,2.6,3.1l-1,21.7l0.1,0l3.1-25.4c0.1-1.5,1.5-2.7,3.1-2.5
		c1.5,0.1,2.7,1.5,2.5,3.1L92,150.4l0.2,0l2.4-18.9c0.1-1.6,1.6-2.7,3.1-2.6l0.1,0c1.6,0.1,2.7,1.6,2.6,3.1l-2.4,25.7l-0.2,2
		l-0.1,0.7l2.9-8.5c0.5-1.5,2.2-2.3,3.6-1.8l0.1,0c0.9,0.3,1.5,1,1.8,1.8c0.2,0.6,0.2,1.2,0,1.8c0,0-0.2,0.6-0.5,1.7
		c-1.3,4.2-4.9,15.1-6.3,18.1c-1.8,3.8-4.8,8.7-8.6,7.6l0.1-0.1l-0.1,0l0,0.1l-0.6,6.6l-17.5-1.7l0.6-6.7
		C70.7,178.6,69.4,176.1,69.7,173.3"/>
	<path fill="#FFDEC7" d="M73.5,136.5c0.5-0.6,1.4-0.8,2.1-0.3c0.6,0.5,0.8,1.4,0.3,2.1c-0.5,0.6-1.4,0.8-2.1,0.3
		C73.1,138.1,73,137.1,73.5,136.5"/>
	<path fill="#FFDEC7" d="M81.3,127.1c0.6-0.8,1.8-1,2.6-0.3s1,1.8,0.3,2.6c-0.6,0.8-1.8,1-2.6,0.3C80.8,129.1,80.6,128,81.3,127.1"
		/>
	<path fill="#FFDEC7" d="M89.4,123.9c0.6-0.8,1.8-1,2.6-0.3c0.8,0.6,1,1.8,0.3,2.6c-0.6,0.8-1.8,1-2.6,0.3
		C88.9,125.9,88.7,124.8,89.4,123.9"/>
	<path fill="#FFDEC7" d="M96,130.7c0.6-0.8,1.8-1,2.6-0.3s1,1.8,0.3,2.6c-0.6,0.8-1.8,1-2.6,0.3C95.5,132.7,95.3,131.6,96,130.7"/>
	<path fill="#FFDEC7" d="M103.5,152.5c0.7-0.9,1.9-1,2.8-0.4c0.2,0.6,0.2,1.2,0,1.8c0,0-0.2,0.6-0.5,1.7c-0.6,0.2-1.3,0.1-1.9-0.3
		C102.9,154.6,102.8,153.3,103.5,152.5"/>
</g>
</svg>
