<?xml version="1.0" encoding="utf-8"?>
<!-- Generator: Adobe Illustrator 18.0.0, SVG Export Plug-In . SVG Version: 6.00 Build 0)  -->
<!DOCTYPE svg PUBLIC "-//W3C//DTD SVG 1.1//EN" "http://www.w3.org/Graphics/SVG/1.1/DTD/svg11.dtd">
<svg version="1.1" id="Layer_1" xmlns="http://www.w3.org/2000/svg" xmlns:xlink="http://www.w3.org/1999/xlink" x="0px" y="0px"
	 viewBox="0 585.1 612 206.9" enable-background="new 0 585.1 612 206.9" xml:space="preserve">
<g>
	<path fill="#BD8957" d="M130.5,779.4c0,0,92.8,8,197.9-2.2c111-10.8,283-57.3,283-57.3v-42c0,0-174.3,58.1-312.9,71.7
		c-107.2,10.6-151.9-0.4-151.9-0.4L130.5,779.4z"/>
	<polygon fill="#1A1A1A" points="158.1,791.9 173,743.2 161.5,740 144.7,787.8 	"/>
	<g>
		<path fill="#1A1A1A" d="M141.2,773.8c-0.4,8.3,6,15.3,14.4,15.7c8.3,0.4,15.3-6,15.7-14.4c0.4-8.3-6-15.3-14.4-15.7
			C148.6,759,141.6,765.4,141.2,773.8"/>
		<path fill="#FFFFFF" d="M143.2,774.1c-0.4,7.2,5.2,13.3,12.4,13.6c7.2,0.4,13.3-5.2,13.6-12.4c0.4-7.2-5.2-13.3-12.4-13.6
			C149.7,761.4,143.6,766.9,143.2,774.1"/>
	</g>
	
		<rect x="140.1" y="769.5" transform="matrix(0.2807 -0.9598 0.9598 0.2807 -637.8224 689.6982)" fill="#1A1A1A" width="2.3" height="1.8"/>
	<polygon fill="#1A1A1A" points="157.3,774.5 148.6,767 156.7,775.8 	"/>
	<g>
		<path fill="#BD8957" d="M21.9,716.7c0,0-2.8,5.2,0.5,11.5c3.4,6.3,30.9,36.2,40.7,37.2c10,1.1,67.3,14.1,67.3,14.1l16.1-30.1
			c0,0-15.3-23-32.8-25.9c-17.5-3-30.4-1.6-30.4-1.6L21.9,716.7z"/>
		<path fill="#F7B078" d="M30.2,724c0,0,15.3,15.5,25.2,21.8c12.6,8,27.2,12.3,29.8,9.5c1.5-1.6-2.6-7.1-17.4-16.7
			C59.3,733.1,30.2,724,30.2,724"/>
		<path fill="#333333" d="M64,731.9L12.5,725c-6.5-0.9-11-6.8-10.1-13.3L18,595.8c0.9-6.5,6.8-11,13.3-10.1l51.5,7
			c6.5,0.9,11,6.8,10.1,13.3L77.3,721.7C76.4,728.2,70.4,732.8,64,731.9"/>
		<path fill="#E5E5E5" d="M31.1,586.2c-6.2-0.8-11.8,3.5-12.7,9.6l-15.5,116c-0.8,6.1,3.5,11.8,9.6,12.7l51.5,6.9
			c6.1,0.8,11.8-3.5,12.7-9.6l15.6-115.9c0.8-6.1-3.5-11.8-9.6-12.7L31.1,586.2z M63.9,732.5l-51.5-6.9c-6.7-0.9-11.6-7.2-10.6-13.9
			l15.5-115.9c0.9-6.7,7.2-11.6,13.9-10.6l51.5,6.9c6.7,0.9,11.6,7.2,10.7,13.9L77.8,721.8C76.9,728.6,70.7,733.4,63.9,732.5"/>
	</g>
	
		<rect x="15.8" y="607.8" transform="matrix(-0.9911 -0.1333 0.1333 -0.9911 6.6398 1318.557)" fill="#FFFFFF" width="63.3" height="102.5"/>
	<path d="M9.7,705.3l62,8.3l13.6-100.8l-62-8.3L9.7,705.3z M72.3,714.4l-63.4-8.5l13.7-102.2l63.4,8.5L72.3,714.4z"/>
	
		<rect x="26.1" y="615.2" transform="matrix(-0.9911 -0.1332 0.1332 -0.9911 -13.6442 1248.9927)" fill="#FAB03B" width="17.7" height="19.5"/>
	
		<rect x="49.8" y="619.2" transform="matrix(-0.9911 -0.1333 0.1333 -0.9911 45.608 1245.6824)" fill="#54CCF0" width="29.4" height="4.2"/>
	
		<rect x="48.8" y="626.9" transform="matrix(-0.9911 -0.1333 0.1333 -0.9911 42.5779 1260.8708)" fill="#D4D4D4" width="29.4" height="4.2"/>
	
		<rect x="47.6" y="634.3" transform="matrix(-0.9911 -0.1333 0.1333 -0.9911 39.2223 1275.4333)" fill="#B2B2B2" width="29.4" height="4.2"/>
	
		<rect x="23.4" y="644.2" transform="matrix(-0.9911 -0.1333 0.1333 -0.9911 12.4998 1293.4624)" fill="#54CCF0" width="52.3" height="4.2"/>
	
		<rect x="19" y="667.9" transform="matrix(-0.9911 -0.1332 0.1332 -0.9911 -34.8125 1352.9689)" fill="#FFEBCF" width="17.7" height="19.5"/>
	
		<rect x="42.7" y="671.8" transform="matrix(-0.9911 -0.1333 0.1333 -0.9911 24.4501 1349.465)" fill="#54CCF0" width="29.4" height="4.2"/>
	
		<rect x="41.7" y="679.3" transform="matrix(-0.9911 -0.1333 0.1333 -0.9911 21.4801 1364.254)" fill="#D4D4D4" width="29.4" height="4.2"/>
	
		<rect x="40.7" y="686.9" transform="matrix(-0.9911 -0.1333 0.1333 -0.9911 18.4712 1379.2505)" fill="#B2B2B2" width="29.4" height="4.2"/>
	
		<rect x="14.6" y="694.9" transform="matrix(-0.9911 -0.1333 0.1333 -0.9911 -8.8876 1393.3368)" fill="#B5E5E8" width="55.2" height="4.1"/>
	
		<rect x="9.7" y="705.1" transform="matrix(-0.9911 -0.1333 0.1333 -0.9911 -12.7807 1414.1605)" fill="#00B5E8" width="62.5" height="4.8"/>
	
		<rect x="22.7" y="608.7" transform="matrix(-0.9911 -0.1333 0.1333 -0.9911 26.121 1223.1577)" fill="#00B5E8" width="62.6" height="4"/>
	<g>
		<path fill="#1A1A1A" d="M45,720.5c-0.4,2.9-3.1,4.9-6,4.6c-2.9-0.4-4.9-3.1-4.6-6c0.4-2.9,3.1-4.9,6-4.6
			C43.3,714.9,45.4,717.6,45,720.5"/>
		<path d="M43.1,598c-0.1,0.9-0.9,1.4-1.8,1.3c-0.9-0.1-1.4-0.9-1.3-1.8c0.1-0.9,0.9-1.4,1.8-1.3C42.5,596.4,43.2,597.2,43.1,598"/>
		<path d="M65.7,601.9l-19.1-2.6c-0.4-0.1-0.8-0.4-0.7-0.9l0,0c0.1-0.4,0.4-0.8,0.9-0.7l19.1,2.6c0.4,0.1,0.8,0.4,0.7,0.9l0,0
			C66.6,601.6,66.1,601.9,65.7,601.9"/>
		<path fill="#FAB03B" d="M33.6,656.7c-0.4,3.1-3.1,5.1-6.2,4.8c-3.1-0.4-5.1-3.1-4.8-6.2c0.4-3.1,3.1-5.1,6.2-4.8
			C31.9,650.9,33.9,653.7,33.6,656.7"/>
		<path fill="#FCCC82" d="M50.3,653.6c-0.3-0.1-0.5-0.2-0.8-0.2c-3.1-0.4-5.8,1.7-6.2,4.8c-0.4,2.7,1.3,5.3,3.9,6
			c0.3,0.1,0.5,0.2,0.8,0.2c3.1,0.4,5.8-1.7,6.2-4.8C54.6,656.9,52.9,654.4,50.3,653.6"/>
		<path fill="#FFEDD1" d="M69.9,656.1c-0.3-0.1-0.5-0.2-0.8-0.2c-3.1-0.4-5.8,1.7-6.2,4.8c-0.4,2.7,1.3,5.3,3.9,6
			c0.3,0.1,0.5,0.2,0.8,0.2c3.1,0.4,5.8-1.7,6.2-4.8C74.1,659.3,72.4,656.8,69.9,656.1"/>
		<path fill="#BD8957" d="M99.8,738.9l0.2-0.4c2-4.9,12-9.4,6.2-11.8l-56.5-18.1c-5.8-2.2-12.2-0.1-14.1,4.9l-0.2,0.4
			c-2,4.9,1.3,10.9,7.1,13.2L84,748.3C89.8,750.5,97.9,744,99.8,738.9"/>
		<path fill="#FFE0C9" d="M46.5,710.4L46.5,710.4c-4.3-1.2-8,2.1-8.9,5.4c-0.9,3.2,0.4,7.2,4.6,8.4h0.1c4.2,1.2,9.2-1.3,10.1-4.6
			C53.3,716.4,50.6,711.7,46.5,710.4"/>
	</g>
</g>
</svg>
