<?xml version="1.0" encoding="utf-8"?>
<!-- Generator: Adobe Illustrator 18.1.1, SVG Export Plug-In . SVG Version: 6.00 Build 0)  -->
<svg version="1.1" id="Layer_1" xmlns="http://www.w3.org/2000/svg" xmlns:xlink="http://www.w3.org/1999/xlink" x="0px" y="0px"
	 viewBox="0 0 162.3 240.7" enable-background="new 0 0 162.3 240.7" xml:space="preserve">
<g>
	<rect x="0.4" y="29.7" fill="#FFC24D" width="162" height="211.3"/>
	<rect x="10.9" y="40.3" fill="#FFFFFF" width="140.9" height="190.1"/>
	<g>
		<path fill="#CCCCCC" d="M81.4,27.9c-4.9,0-8.8-3.9-8.8-8.8c0-4.9,3.9-8.8,8.8-8.8c4.9,0,8.8,3.9,8.8,8.8
			C90.2,24,86.2,27.9,81.4,27.9 M99,19.1c0-9.7-7.9-17.6-17.6-17.6c-9.7,0-17.6,7.9-17.6,17.6c0,1.2,0.1,2.4,0.4,3.5h-18
			c-3.9,0-7,3.2-7,7v17.6h84.5V29.7c0-3.9-3.2-7-7-7h-18C98.9,21.5,99,20.3,99,19.1"/>
		<path fill="#F23812" d="M67.3,59.2c-11.8,14-18.6,38.9-18.7,39.1l-8.2,0.5c-0.1-0.2-8.5-15.3-15.4-23.4l6.9-5.9
			c4.2,4.9,8.7,12,12,17.3C43.9,86.8,52.2,69.5,67.3,59.2"/>
		<path fill="#F23812" d="M67.3,108.5c-11.8,14-18.6,38.9-18.7,39.1l-8.2,0.5c-0.1-0.2-8.5-15.3-15.4-23.4l6.9-5.9
			c4.2,4.9,8.7,12,12,17.3C43.9,136.1,52.2,118.8,67.3,108.5"/>
		<path fill="#F23812" d="M67.3,157.8c-11.8,14-18.6,38.9-18.7,39.1l-8.2,0.5c-0.1-0.2-8.5-15.3-15.4-23.4l6.9-5.9
			c4.2,4.9,8.7,12,12,17.3C43.9,185.4,52.2,168.1,67.3,157.8"/>
	</g>
	<rect x="74.3" y="79" fill="#999999" width="63.4" height="7"/>
	<rect x="74.3" y="128.3" fill="#999999" width="63.4" height="7"/>
	<rect x="74.3" y="177.6" fill="#999999" width="63.4" height="7"/>
</g>
</svg>
