<?xml version="1.0" encoding="utf-8"?>
<!-- Generator: Adobe Illustrator 18.0.0, SVG Export Plug-In . SVG Version: 6.00 Build 0)  -->
<!DOCTYPE svg PUBLIC "-//W3C//DTD SVG 1.1//EN" "http://www.w3.org/Graphics/SVG/1.1/DTD/svg11.dtd">
<svg version="1.1" id="Layer_1" xmlns="http://www.w3.org/2000/svg" xmlns:xlink="http://www.w3.org/1999/xlink" x="0px" y="0px"
	 viewBox="0 0 612 792" enable-background="new 0 0 612 792" xml:space="preserve">
<g>
	<path fill="#EDC294" d="M54.9,590.4c-16,11.6-20,97.6-14.5,141.7c-30.8-99.3-1.2,65.3,100.5,6.4c11.3-43,18.9-128.7,4.4-142.3
		C113,584.9,88.6,583.5,54.9,590.4"/>
	<path fill="#F2C28C" d="M588.4,602.3c16,11.6,20,97.6,14.5,141.7c-1.5,11.9-2,28.5-1.7,46.8h-91.5c-1.7-13.9-4.1-27.3-7.6-40.4
		c-11.3-43-18.9-128.7-4.4-142.3C530.4,596.8,555,595.4,588.4,602.3"/>
	<path fill="#F2C28C" d="M321,585.2c-51.1-19.7-114.4-54-123.1-127.2c29.3-10.2,45.6-37.5,53.7-68.5c21.8-2.3,45-3.8,69.4-3.8
		c24.4,0,47.6,1.5,69.4,3.8c8.4,31.1,24.7,58.4,53.7,68.5C435.7,531.2,372.4,565.5,321,585.2"/>
	<path fill="#F2C28C" d="M403.7,426.1c-21.2,41.5-50,59.2-81,59.2c-31.4,0-61.6-20.6-83.6-62.2c5.5-19.2,9.6-40.4,12.5-62.7
		c21.8-4.6,45-7.3,69.4-7.3c24.4,0,47.6,2.6,69.4,7.3C393.6,383.9,397.9,406.3,403.7,426.1"/>
	<path fill="#FAD1A6" d="M475.8,179.2c36,28.2,23.2,115.9-20.9,123.1c-25.3,54.6-71.4,95.6-135,95.6s-109.8-41-135-95.6
		c-44.1-7-56.9-94.7-20.9-123.1c7.3-80.2,56.3-151.6,156-151.6S468.5,98.7,475.8,179.2"/>
	<path fill="#424242" d="M194.9,195.5c1.7,39.2-2.3,29-9.6,8.1c-3.8-11-9.9-22.1-18.9-22.1c-6.4,0-18.3,22.9-20.3,27
		c-0.9-22.4,2.9-56.6,17.7-101.9c42.1-131,268.9-135.9,314.2-4.9c16.6,47.6,13.1,71.4,13.9,101.4c-3.2-7.6-12.2-21.5-18.6-21.5
		c-9,0-14.8,11-18.9,22.1c-7.3,20.9-10.7,31.1-9-8.1C455.7-23.5,185-24.4,194.9,195.5"/>
	<path fill="#424242" d="M194.3,189.7c-0.6-28.2,3.5-52.3,15.4-70c11.6-17.1,23.2-25.6,56.6-17.1c16.3,4.1,35.7,6.7,56.9,6.7
		c21.2,0,41-2.3,57.2-6.7c29-7.6,36.6-0.3,48.5,15.1c13.9,18.3,19.5,43.3,18.6,71.7c66.5-79-3.5-183.6-127.2-183.6
		C196.4,5.8,168.2,107.7,194.3,189.7"/>
	<path fill="#D9AD80" d="M300,271.8c-1.7-1.7-1.7-4.9,0-6.7c2-1.7,4.9-1.7,6.7,0c1.2,1.2,2.9,2.3,5.2,2.9c2.3,0.9,4.9,1.2,7.8,1.2
		s5.2-0.3,7.6-1.2c2.3-0.9,4.1-1.7,5.2-2.9c2-1.7,4.9-1.7,6.7,0c1.7,1.7,1.7,4.9,0,6.7c-2.3,2.3-5.2,4.1-8.7,5.2
		c-3.2,1.2-7,1.7-10.7,1.7c-4.1,0-7.8-0.6-11-1.7C305.6,275.9,302.4,274.2,300,271.8"/>
	<path fill="#69A042" d="M444.4,456.3c49.7,11,120.5,65.3,157.4,181.2c-12.8,43.9-30.8,65.1-99.3,102.8
		c-8.1-10.2-12.8-15.7-15.4-21.5c-2.9,16.6-3.5,41.8-2.3,72.6H140.9c-0.9-13.7-2.3-26.7-4.4-38.6c-31.7,18-85.1,3.5-112.7-32.8
		c18-256.4,127.2-267.5,177.2-267.5C237.9,540.8,388,548.9,444.4,456.3"/>
	<path fill="#33691F" d="M136.5,752.2c3.5-23.2-0.6-54.3,3.2-93.5C126.7,704.6,130.4,730.1,136.5,752.2"/>
	<path fill="#D9AD80" d="M64.8,390.3c3.2-15.4-17.1-127.2,9-124.9c3.2-25,11.3-19.7,23.8-20c8.4-18.3,17.4-9.9,25.6-5.5
		c8.4,4.4,28.5,36.3-4.4,151.6C85.7,507.1,62.2,475.4,64.8,390.3"/>
	<path fill="#F2C28C" d="M14.3,732.8c-19.7-20.3,45-286.9,51.7-347.1c0.3-2.3,54.6-7,53.1-0.9c-17.1,63.3,3.8,339.5-9.6,360.4
		C99.7,760.1,30.5,753.1,14.3,732.8"/>
	<path fill="#FF6E40" d="M68.9,170.5c-25.3,54.9,14.8,160,57.5,201c28.8,27.6,90.3,31.7,80.4,2L191.1,327c-2.3-7-10.5-10.5-17.7-8.1
		l-27.6,8.7c-28.2-40.1-36-64.8-38-113.3l27.6-8.7c7.3-2.3,11.6-9.6,9.3-16.8l-16-46.5C120,116.2,78.4,149.6,68.9,170.5"/>
	<path fill="#E54A1A" d="M68.9,170.5l38.9,43.9l27.6-8.7c7.3-2.3,11.6-9.6,9.3-16.8l-16-46.5C120,116.2,78.4,149.6,68.9,170.5"/>
	<path fill="#E54A1A" d="M126.4,371.5c28.8,27.6,90.3,31.7,80.4,2L191.1,327c-2.3-7-10.5-10.5-17.7-8.1l-27.6,8.7L126.4,371.5z"/>
	<path fill="#F2C28C" d="M64.8,390.3c5.2-32.5-54.9-127.5,45-151.6c31.4-4.4,31.1,88,9,152.8C85.7,507.1,62.2,475.4,64.8,390.3"/>
	<path fill="#D9AD80" d="M126.1,248.3c1.2-0.6,1.5-1.7,1.2-2.6c-0.6-1.2-1.7-1.5-2.9-1.2l-27,11.9c-1.2,0.6-1.5,1.7-1.2,2.6
		c0.6,1.2,1.7,1.5,2.9,1.2L126.1,248.3z"/>
	<path fill="#D9AD80" d="M131.9,259.6c1.2-0.6,1.5-1.7,1.2-2.6c-0.6-1.2-1.7-1.5-2.9-1.2l-27,11.9c-1.2,0.6-1.5,1.7-1.2,2.6
		c0.6,1.2,1.7,1.5,2.9,1.2L131.9,259.6z"/>
	<path fill="#D9AD80" d="M135.7,271.3c1.2-0.6,1.5-1.7,0.9-2.9c-0.6-0.9-1.7-1.5-2.9-0.9l-23.2,11.9c-1.2,0.6-1.5,1.7-0.9,2.9
		c0.6,0.9,1.7,1.5,2.9,0.9L135.7,271.3z"/>
</g>
</svg>
