<?xml version="1.0" encoding="utf-8"?>
<!-- Generator: Adobe Illustrator 18.1.1, SVG Export Plug-In . SVG Version: 6.00 Build 0)  -->
<svg version="1.1" id="Layer_1" xmlns="http://www.w3.org/2000/svg" xmlns:xlink="http://www.w3.org/1999/xlink" x="0px" y="0px"
	 viewBox="0 387 600 213" enable-background="new 0 387 600 213" xml:space="preserve">
<rect x="2" y="406.3" fill="#42AD4A" width="597.6" height="157.1"/>
<g>
	<g>
		<g>
			<path fill="#F79938" d="M424.1,595.9c56.1,0,101.8-45.5,101.8-101.8c0-56.1-45.5-101.8-101.8-101.8
				c-56.1,0-101.8,45.5-101.8,101.8C322.5,550.3,368,595.9,424.1,595.9"/>
			<circle fill="none" stroke="#3FAC49" stroke-width="5.639" stroke-miterlimit="10" cx="424.1" cy="494.1" r="101.8"/>
		</g>
		<g enable-background="new    ">
			<path fill="#FFFFFF" d="M473.7,560.7h-98.2v-18.9l46.5-49.9c6.7-7.7,11.5-14.2,14.3-19.5s4.2-10.2,4.2-14.8
				c0-6.1-1.6-11-4.9-14.9s-7.9-5.8-13.9-5.8c-6.7,0-11.7,2.3-15.2,6.8s-5.2,10.5-5.2,18h-28.1l-0.2-0.6c-0.3-13,3.9-24,12.8-32.9
				c8.9-9,20.8-13.5,35.8-13.5c14.8,0,26.5,3.9,34.9,11.6c8.5,7.7,12.7,18,12.7,30.8c0,8.7-2.4,16.7-7.2,24.1
				c-4.8,7.3-12.7,17-23.7,28.9L413.1,538l0.2,0.5h60.4V560.7z"/>
		</g>
	</g>
	
		<text transform="matrix(1 0 0 1 60.6168 539.248)" display="none" fill="#FFFFFF" enable-background="new    " font-family="'Roboto-Bold'" font-size="98.0649">S</text>
	
		<text transform="matrix(1 0 0 1 120.9756 539.248)" display="none" fill="#FFFFFF" enable-background="new    " font-family="'Roboto-Bold'" font-size="98.0649">TEP</text>
</g>
</svg>
