<?xml version="1.0" encoding="utf-8"?>
<!-- Generator: Adobe Illustrator 18.1.1, SVG Export Plug-In . SVG Version: 6.00 Build 0)  -->
<svg version="1.1" id="Layer_1" xmlns="http://www.w3.org/2000/svg" xmlns:xlink="http://www.w3.org/1999/xlink" x="0px" y="0px"
	 viewBox="0 389 600 211" enable-background="new 0 389 600 211" xml:space="preserve">
<rect x="1.6" y="428.4" fill="#F79938" width="597.6" height="155"/>
<g>
	<g>
		<text transform="matrix(1 0 0 1 428.045 522.0253)" fill="#FFFFFF" font-family="'Roboto-Light'" font-size="57.9399">        </text>
		<path fill="#0098CB" d="M413.9,595c55.4,0,100.4-44.9,100.4-100.4c0-55.4-44.9-100.4-100.4-100.4c-55.4,0-100.4,44.9-100.4,100.4
			S358.4,595,413.9,595"/>
		<circle fill="none" stroke="#F79938" stroke-width="5.639" cx="413.9" cy="494.7" r="100.4"/>
		<g enable-background="new    ">
			<path fill="#FFFFFF" d="M430.1,565h-28.5V448.3h-28.8v-20.1l57.3-5.1V565z"/>
		</g>
	</g>
	
		<text transform="matrix(1 0 0 1 52.4951 536.7121)" display="none" fill="#FFFFFF" enable-background="new    " font-family="'Roboto-Bold'" font-size="96.7497">S</text>
	
		<text transform="matrix(1 0 0 1 112.0444 536.7121)" display="none" fill="#FFFFFF" enable-background="new    " font-family="'Roboto-Bold'" font-size="96.7497">TEP</text>
</g>
</svg>
