<?xml version="1.0" encoding="utf-8"?>
<!-- Generator: Adobe Illustrator 18.1.1, SVG Export Plug-In . SVG Version: 6.00 Build 0)  -->
<svg version="1.1" id="Layer_1" xmlns="http://www.w3.org/2000/svg" xmlns:xlink="http://www.w3.org/1999/xlink" x="0px" y="0px"
	 viewBox="0 0 191 262" enable-background="new 0 0 191 262" xml:space="preserve">
<g>
	<path fill="#FFC291" d="M132,155.9c0,0-14.7-32.4,12.6-22.6c4.3,1.5,19.6,39.3,20.9,45.5c1.3,6.2,13.4,41.7,13.4,41.7l-18,12.2
		c0,0-15.6-8.2-18.6-19.1c-3-10.9-3-19.2-3-19.2L132,155.9z"/>
	<path fill="#F7B078" d="M138.4,126.4c0,0,12.1,24.9,16.4,40.3c2.5,9.2,7.5,25,5.9,26.8c-0.9,1.1-4.7-1.2-11.7-9.9
		C144.9,178.6,138.4,126.4,138.4,126.4"/>
	<path fill="#FFFFFF" d="M26.3,186.6l104.2,11.5c6,0.7,11.4-3.6,12-9.6l18-162.9c0.7-6-3.6-11.4-9.6-12L46.7,2.1
		c-6-0.7-11.4,3.6-12,9.6l-18,162.9C16.1,180.6,20.4,185.9,26.3,186.6"/>
	<path fill="#E5E5E5" d="M97.7,21.3c1.3,0.1,2.5-0.8,2.7-2.2c0.1-1.3-0.8-2.5-2.2-2.7c-1.3-0.1-2.5,0.8-2.7,2.2
		C95.4,19.9,96.4,21.1,97.7,21.3"/>
	
		<rect x="32.9" y="30.2" transform="matrix(0.9941 0.1082 -0.1082 0.9941 11.4437 -8.9235)" fill="#E5E5E5" width="110" height="141.5"/>
	<path fill="#333333" d="M41.4,25.2L26.2,164.9l108.3,11.8L149.7,37L41.4,25.2z M25.1,165.8L40.5,24.1l110.3,12l-15.4,141.7
		L25.1,165.8z"/>
	
		<rect x="32.5" y="123.7" transform="matrix(0.994 0.1098 -0.1098 0.994 16.4536 -8.2467)" fill="#FFFFFF" width="101.2" height="43.1"/>
	
		<rect x="37.6" y="130.7" transform="matrix(0.1098 -0.994 0.994 0.1098 -97.8937 179.1774)" fill="#70D6F2" width="27" height="27"/>
	<rect x="70" y="134.3" transform="matrix(0.1098 -0.994 0.994 0.1098 -72.5693 214.6251)" fill="#D4D4D4" width="27" height="27"/>
	
		<rect x="42.5" y="31.6" transform="matrix(0.9939 0.1098 -0.1098 0.9939 6.2061 -6.7218)" fill="#FFFFFF" width="43.2" height="42.8"/>
	
		<rect x="101.7" y="137.8" transform="matrix(0.1098 -0.994 0.994 0.1098 -47.8323 249.2507)" fill="#E3E3E3" width="27" height="27"/>
	
		<rect x="86.3" y="82.7" transform="matrix(0.994 0.1098 -0.1098 0.994 12.0661 -11.6742)" fill="#FFFFFF" width="51.3" height="42.1"/>
	
		<rect x="46.7" y="34.5" transform="matrix(0.994 0.1098 -0.1098 0.994 5.1968 -6.9288)" fill="#F7941F" width="37.6" height="18.3"/>
	<rect x="104" y="72.6" transform="matrix(0.1098 -0.994 0.994 0.1098 5.6698 197.5984)" fill="#FAB869" width="18.3" height="46"/>
	
		<rect x="117.7" y="13.3" transform="matrix(0.1097 -0.994 0.994 0.1097 67.349 153.1372)" fill="#ED8763" width="2.9" height="51.3"/>
	<rect x="92.8" y="44.6" transform="matrix(0.994 0.1098 -0.1098 0.994 5.7229 -12.7286)" fill="#B2B2B2" width="51.3" height="2"/>
	<rect x="92.2" y="49.5" transform="matrix(0.994 0.1098 -0.1098 0.994 6.2609 -12.639)" fill="#B2B2B2" width="51.3" height="2"/>
	<rect x="91.7" y="54.2" transform="matrix(0.994 0.1098 -0.1098 0.994 6.7781 -12.5528)" fill="#B2B2B2" width="51.3" height="2"/>
	<rect x="89.6" y="73.1" transform="matrix(0.994 0.1098 -0.1098 0.994 8.837 -12.2098)" fill="#B2B2B2" width="51.3" height="2"/>
	
		<rect x="38" y="106.4" transform="matrix(0.994 0.1098 -0.1098 0.994 12.1783 -5.8156)" fill="#B2B2B2" width="41.7" height="2.4"/>
	<rect x="39.8" y="89.8" transform="matrix(0.994 0.1098 -0.1098 0.994 10.3658 -6.11)" fill="#B2B2B2" width="41.7" height="2.4"/>
	
		<rect x="37.4" y="111.6" transform="matrix(0.994 0.1098 -0.1098 0.994 12.7396 -5.7146)" fill="#B2B2B2" width="41.7" height="2.4"/>
	
		<rect x="60.9" y="57.4" transform="matrix(0.1098 -0.9939 0.9939 0.1098 -22.5122 131.3437)" fill="#ED8763" width="2.4" height="41.7"/>
	
		<rect x="40.5" y="83.9" transform="matrix(0.994 0.1098 -0.1098 0.994 9.7162 -6.2258)" fill="#B2B2B2" width="41.7" height="2.4"/>
	<rect x="89.2" y="78.6" transform="matrix(0.994 0.1098 -0.1098 0.994 9.4373 -12.138)" fill="#B2B2B2" width="51.3" height="2"/>
	
		<rect x="38.6" y="100.7" transform="matrix(0.994 0.1098 -0.1098 0.994 11.5781 -5.9122)" fill="#00B5E8" width="41.7" height="2.9"/>
	
		<rect x="39.5" y="126.8" transform="matrix(0.994 0.1098 -0.1098 0.994 14.5991 -8.5941)" fill="#F25924" width="91.5" height="2.9"/>
	
		<rect x="110.9" y="85.9" transform="matrix(0.1097 -0.994 0.994 0.1097 -8.8016 208.1579)" fill="#DEDEDE" width="1.8" height="46.2"/>
	
		<rect x="110.5" y="89.6" transform="matrix(0.1097 -0.994 0.994 0.1097 -12.8376 211.0418)" fill="#DEDEDE" width="1.8" height="46.2"/>
	
		<rect x="110.1" y="93.5" transform="matrix(0.1097 -0.994 0.994 0.1097 -17.0863 214.0777)" fill="#DEDEDE" width="1.8" height="46.2"/>
	
		<rect x="109.7" y="97.2" transform="matrix(0.1097 -0.994 0.994 0.1097 -21.1833 217.0047)" fill="#DEDEDE" width="1.8" height="46.2"/>
	
		<rect x="62.5" y="40.1" transform="matrix(0.1097 -0.994 0.994 0.1097 -2.1494 115.4912)" fill="#DEDEDE" width="1.8" height="37.6"/>
	
		<rect x="62.1" y="43.8" transform="matrix(0.1097 -0.994 0.994 0.1097 -6.1859 118.3752)" fill="#DEDEDE" width="1.8" height="37.6"/>
	
		<rect x="61.7" y="47.7" transform="matrix(0.1097 -0.994 0.994 0.1097 -10.4343 121.4109)" fill="#DEDEDE" width="1.8" height="37.6"/>
	
		<rect x="61.3" y="51.5" transform="matrix(0.1097 -0.994 0.994 0.1097 -14.5314 124.3383)" fill="#DEDEDE" width="1.8" height="37.6"/>
	<path fill="#FFC291" d="M151.3,203.8l-0.2,0.1c-3,1.6-5.2,8.3-7,4.7l-15.3-34.6c-1.8-3.5-0.8-7.7,2.2-9.3l0.2-0.1
		c3-1.6,7,0.1,8.8,3.6l16.2,24.9C158,196.7,154.3,202.3,151.3,203.8"/>
	<path fill="#FFE0C9" d="M134.2,165.6c-0.6,0-1.2,0.1-1.7,0.3c-2,0.8-3.9,3.3-2.8,5.9c0.8,2.1,3.1,3.5,5.1,3.5
		c0.4,0,0.9-0.1,1.2-0.2c2-0.8,3.2-4.2,2.2-6.7C137.4,166.5,135.8,165.6,134.2,165.6"/>
	<path fill="#FFC291" d="M33,218.7c4.9,2,13.2-5,16.1-9.7c2.4-3.8,8.7-18,11.1-23.4c0.6-1.3,0.9-2.1,0.9-2.1
		c0.3-0.7,0.4-1.5,0.3-2.2c-0.2-1.3-0.9-2.4-2.2-3l-0.1,0c-1.9-0.9-4.2-0.1-5.1,1.8L48.9,191l0.2-1l0.5-2.6l7-34.1
		c0.4-2.1-0.9-4.1-3-4.6l-0.1,0c-2.1-0.4-4.1,0.9-4.6,3l-6,25l-0.3,0c0,0-2.3-2.5-4.4-2.9c-2-0.4-5.1,1.6-5.1,1.6l-0.1,0
		c0,0-1.6-3.2-4.1-3.4c-2.5-0.2-6,1.9-6,1.9l-0.1,0c0,0-1.7-1.7-4.4-1.1c-3.4,0.7-5.1,7.3-5.1,7.3c0,0.1,0,0.2,0,0.3l-4,23.9
		c-0.8,3.7,0.6,7.2,3.9,8.7l-2.6,8.9l19.6,5.5L33,218.7z"/>
	<path fill="#FFDEC7" d="M55,150.8c-1.1-1-2.7-1-3.8,0c-1,1.1-1,2.7,0,3.8c1.1,1,2.7,1,3.8,0C56.1,153.5,56.1,151.8,55,150.8"/>
	<path fill="#FFDEC7" d="M61.5,181.3c-0.1-0.1-0.1-0.1-0.2-0.2c-1-1-2.7-1-3.8,0c-1,1.1-1,2.7,0,3.8c0.7,0.7,1.7,0.9,2.6,0.6
		c0.6-1.3,0.9-2.1,0.9-2.1C61.5,182.8,61.6,182,61.5,181.3"/>
	<g>
		<path fill="#662E91" d="M179,220.6l-18.1,12.2c0,0,5.8,6.8,9.1,28.2h19C185.7,231.3,179,220.6,179,220.6z"/>
		<path fill="#662E91" d="M30.3,227.3l-19.6-5.5c0,0-5.6,14.1-9.6,39.2h22C26.4,239.9,30.3,227.3,30.3,227.3z"/>
	</g>
</g>
</svg>
