<?xml version="1.0" encoding="utf-8"?>
<!-- Generator: Adobe Illustrator 18.1.1, SVG Export Plug-In . SVG Version: 6.00 Build 0)  -->
<svg version="1.1" id="Layer_1" xmlns="http://www.w3.org/2000/svg" xmlns:xlink="http://www.w3.org/1999/xlink" x="0px" y="0px"
	 viewBox="0 0 367.7 383.7" enable-background="new 0 0 367.7 383.7" xml:space="preserve">
<g>
	<defs>
		<rect id="SVGID_1_" x="1.2" width="363.3" height="500.8"/>
	</defs>
	<clipPath id="SVGID_2_">
		<use xlink:href="#SVGID_1_"  overflow="visible"/>
	</clipPath>
	<g clip-path="url(#SVGID_2_)">
		<rect x="10.2" y="264.9" fill="#FFF7E0" width="546.9" height="11.3"/>
		<rect x="341.5" y="276.1" fill="#FFEDB2" width="188" height="108.3"/>
		<rect x="42.9" y="276.1" fill="#FFEDB2" width="12.9" height="108.3"/>
		<rect x="351.6" y="286.6" fill="#FFF7E0" width="170.3" height="42.4"/>
		<rect x="351.6" y="337.5" fill="#FFF7E0" width="170.3" height="42.4"/>
		<polygon fill="#FFFCF2" points="557.1,264.9 10.2,264.9 10.2,276.1 		"/>
		<polygon fill="#FFFCF2" points="396,288.2 354.1,288.7 351.6,328.9 428.8,309.7 428.8,304.9 446,304.9 446,305.5 446,304.9 
			446.3,305.4 479.2,297.2 		"/>
		<polygon fill="#FFFFFF" points="351.6,328.9 354.1,288.7 522,286.6 351.6,286.6 		"/>
		<polygon fill="#FFFCF2" points="522,337.5 351.6,337.5 351.6,379.9 427.7,360.9 427.7,356 444.9,356 444.9,356.7 444.9,356 
			445.3,356.6 		"/>
		<polygon fill="#FFFFFF" points="351.6,379.9 354.1,339.6 522,337.5 351.6,337.5 		"/>
		<polygon fill="#FFCC80" points="522,286.6 522,328.9 351.6,328.9 519.4,327 		"/>
		<rect x="428.8" y="304.9" fill="#FA8C00" width="17.2" height="7.9"/>
		<polygon fill="#FCA336" points="446,304.9 429,305.3 428.8,312.8 		"/>
		<polygon fill="#FFCC80" points="428.8,312.8 429,305.3 446,304.9 428.8,304.9 		"/>
		<polygon fill="#FA8C00" points="446,304.9 446,312.8 428.8,312.8 445.7,312.4 		"/>
		<polygon fill="#FFCC80" points="522,337.5 522,379.9 351.6,379.9 518.9,377.7 		"/>
		<polygon fill="#EBE5CF" points="446.3,305.4 446,305.5 446,312.8 428.8,312.8 456.7,321.2 		"/>
		<polygon fill="#EBE8DE" points="446,305.5 446.3,305.4 446,304.9 		"/>
		<rect x="427.7" y="356" fill="#FA8C00" width="17.2" height="7.9"/>
		<polygon fill="#FCA336" points="444.9,356 428,356.4 427.7,363.9 		"/>
		<polygon fill="#FFCC80" points="427.7,363.9 428,356.4 444.9,356 427.7,356 		"/>
		<polygon fill="#FA8C00" points="444.9,356 444.9,363.9 427.7,363.9 444.6,363.5 		"/>
		<polygon fill="#EBE5CF" points="445.3,356.6 444.9,356.7 444.9,363.9 427.7,363.9 455.7,372.4 		"/>
		<polygon fill="#EBE8DE" points="444.9,356.7 445.3,356.6 444.9,356 		"/>
		<polygon fill="#E3D19E" points="529.5,276.1 341.5,276.1 341.5,282.3 381.1,286.6 522,286.6 522,301.8 529.5,302.7 		"/>
		<polygon fill="#E3DEC7" points="522,286.6 479.2,297.2 521,301.7 		"/>
		<polygon fill="#E3E0D6" points="522,286.6 396,288.2 479.2,297.2 		"/>
		<polygon fill="#E3E3E3" points="522,286.6 381.1,286.6 396,288.2 		"/>
		<polygon fill="#E3B573" points="521,301.7 522,301.8 522,286.6 		"/>
		<polygon fill="#E3D19E" points="55.8,276.1 42.9,276.1 42.9,282.3 55.8,286 		"/>
		<g>
			<path fill="#574091" d="M108.7,331.3c0-2-1.1-3.8-2.8-4.7c-0.8-0.4-1.6-0.6-2.5-0.6h-108c-0.9,0-1.8,0.2-2.5,0.6
				c-1.7,0.9-2.8,2.7-2.8,4.7v53.1h118.7V331.3z"/>
			<path fill="#5E4F99" d="M106.4,331.1c0-2.8-2.3-5.1-5.2-5.1H-2.5c-2.9,0-5.2,2.3-5.2,5.1v53.3h114.1V331.1z"/>
		</g>
		<polygon fill="#453373" points="108.6,367.4 106.4,367.5 106.4,382 108.6,382.2 		"/>
		<polygon fill="#4A3D78" points="106.4,367.5 -7,373.9 106.4,382 		"/>
		<g>
			<path fill="#6B61B0" d="M108.7,322.2v47.3c0,0.4,0,0.7-0.1,1c-0.3,1.2-1.1,2.3-2.2,2.9c-0.6,0.4-1.4,0.6-2.2,0.6H-5.4
				c-0.2,0-0.5,0-0.7-0.1h0h0h0c-0.6-0.1-1.1-0.3-1.5-0.5c-1.4-0.8-2.3-2.2-2.3-3.9v-47.3c0-2.5,2-4.5,4.5-4.5h109.6
				C106.7,317.7,108.7,319.7,108.7,322.2"/>
			<path fill="#7D78BF" d="M101.7,371.7H-2.9c-2.3,0-4.2-1.9-4.2-4.2v-42.4c0-2.3,1.9-4.2,4.2-4.2h104.6c2.3,0,4.2,1.9,4.2,4.2v42.4
				C105.9,369.8,104,371.7,101.7,371.7"/>
			<path fill="#6B61B0" d="M71.4,306.8l-1.3,1.6l-1.6,1.9l0,0c-0.5-0.3-8.5-4.6-19-4.6h0c-6.5,0-16.8,3.7-19.1,4.5
				c-0.2,0.1-0.3,0.1-0.4,0.1l-0.1,0l-1.1-2l-1.1-1.9c0.1,0,0.1-0.1,0.2-0.1c1.1-0.8,7.9-4.9,21.6-4.9h0c13.8,0,19.9,3.8,21.6,5l0,0
				C71.2,306.7,71.3,306.8,71.4,306.8L71.4,306.8z"/>
			<path fill="#574091" d="M31.3,308.2c0,0.8-0.4,1.5-1,1.9c-0.1,0.1-0.3,0.2-0.4,0.2l-0.1,0c-0.3,0.1-0.5,0.2-0.8,0.2
				c-0.5,0-0.9-0.1-1.3-0.4c-0.6-0.4-1-1.1-1-1.9c0-0.7,0.3-1.4,0.9-1.8c0.1,0,0.1-0.1,0.2-0.1c0.4-0.2,0.8-0.4,1.3-0.4
				C30.2,306,31.3,307,31.3,308.2"/>
			<path fill="#574091" d="M72,308.4c0,0.8-0.4,1.5-1,1.9c-0.4,0.2-0.8,0.4-1.3,0.4c-0.5,0-0.9-0.1-1.3-0.4l0,0
				c-0.6-0.4-1-1.1-1-1.9c0-1.3,1-2.3,2.3-2.3c0.5,0,0.9,0.1,1.2,0.4l0,0c0.2,0.1,0.3,0.2,0.4,0.3l0,0C71.8,307.3,72,307.8,72,308.4
				"/>
		</g>
		<rect x="27.7" y="308.4" fill="#FFC270" width="2.6" height="9.3"/>
		<rect x="68.4" y="308.4" fill="#FFC270" width="2.6" height="9.3"/>
		<rect x="44.6" y="317.1" fill="#574091" width="9.5" height="67.3"/>
		<rect x="43.5" y="367.1" fill="#FFC270" width="11.8" height="13.4"/>
		<rect x="44.9" y="369.3" fill="#FFD9AB" width="9" height="8.8"/>
		<g>
			<path fill="#3863A1" d="M231.2,302.3c0,0,24.5-0.1,34.4,17.4c9.9,17.5,6,64.8,6,64.8h-27.2v-46.9c0,0-26.2-3.6-25.4-5.4
				C219.7,330.4,231.2,302.3,231.2,302.3"/>
			<path fill="#3863A1" d="M169.2,302.3c0,0,24.5-0.1,34.4,17.4c9.9,17.5,6,64.8,6,64.8h-27.2v-46.9c0,0-26.2-3.6-25.4-5.4
				C157.7,330.4,169.2,302.3,169.2,302.3"/>
			<path fill="#1A1A1A" d="M350.8,160.8H215.2c-2.4,0-4.4,2-4.4,4.4v87.7c0,2.3,1.8,4.2,4.1,4.4c0.1,0,0.2,0,0.3,0h135.6
				c1.4,0,2.6-0.6,3.4-1.6c0.7-0.8,1.1-1.8,1.1-2.8v-87.7C355.3,162.7,353.3,160.8,350.8,160.8"/>
			<path fill="#FFFFFF" d="M354.8,252.8c0,2.2-1.8,4-4,4H215.2c-2.2,0-4-1.8-4-4v-87.7c0-2.2,1.8-4,4-4h135.6c2.2,0,4,1.8,4,4V252.8
				z M350.8,160.3H215.2c-2.7,0-4.9,2.2-4.9,4.8v87.7c0,2.7,2.2,4.8,4.9,4.8h135.6c2.7,0,4.9-2.2,4.9-4.8v-87.7
				C355.7,162.5,353.5,160.3,350.8,160.3"/>
		</g>
		<rect x="216.6" y="168.1" fill="#E0F5FF" width="132.9" height="83.3"/>
		<rect x="216.6" y="168.1" fill="#F7941F" width="132.9" height="4.4"/>
		<g>
			<path fill="#CCCCCC" d="M376.1,257.5H189.7c-1.1,0-2,0.9-2,1.9v0.5c0,4.3,24,4.9,25.1,4.9h139.9c1.1,0,25.4-0.3,25.4-4.7v-0.6
				C378.1,258.4,377.2,257.5,376.1,257.5"/>
			<path fill="#F2F2F2" d="M376.9,257.2H189c-0.7,0-1.2,0.5-1.2,1.2v0.8c0,0.7,0.5,1.2,1.2,1.2h187.9c0.7,0,1.2-0.5,1.2-1.2v-0.8
				C378.1,257.7,377.5,257.2,376.9,257.2"/>
		</g>
		<rect x="269.5" y="258.8" fill="#B2B2B2" width="27.3" height="1.6"/>
		<rect x="216.6" y="248.4" fill="#F7941F" width="132.9" height="3"/>
		<g>
			<path fill="#595959" d="M277.8,161.2h-62.6c-2.2,0-4,1.8-4,4v87.7c0,0.9,0.3,1.8,0.9,2.5c0.7,0.7,1.7,1.2,2.8,1.2l3.4-5.2h-1.7h0
				v-3h0v-80.3h56.6L277.8,161.2z"/>
			<path fill="#FFFFFF" d="M278.1,160.8h-62.8c-2.4,0-4.4,2-4.4,4.4v87.1c0,1.2,0.5,2.3,1.3,3.1c-0.6-0.7-0.9-1.5-0.9-2.5v-87.7
				c0-2.2,1.8-4,4-4h62.6L278.1,160.8z"/>
		</g>
		<path fill="#E8F7FF" d="M216.6,168.1L216.6,168.1v80.3h3.7l9.6-14.5h-7.6v-23.4h23l7.3-11v-15.7h10.3l7.4-11.2h-53.7V168.1z
			 M235.5,183.7L235.5,183.7h11.7v10.9h-11.7V183.7z M222.3,183.7L222.3,183.7h11.7v10.9h-11.7V183.7z M235.5,196.3L235.5,196.3
			h11.7v10.9h-11.7V196.3z M222.3,196.3L222.3,196.3h11.7v10.9h-11.7V196.3z"/>
		<polygon fill="#FAB05C" points="273.2,168.1 216.6,168.1 216.6,172.6 270.3,172.6 		"/>
		<polygon fill="#FAB05C" points="220.3,248.4 216.6,248.4 216.6,248.4 216.6,251.4 216.6,251.4 218.3,251.4 		"/>
		<rect x="222.3" y="183.7" fill="#FF1745" width="11.7" height="10.9"/>
		<polygon fill="#FF4066" points="233.9,183.7 222.3,183.7 222.3,194.7 		"/>
		<rect x="235.5" y="183.7" fill="#FF9100" width="11.7" height="10.9"/>
		<polygon fill="#FFA62E" points="247.2,183.7 235.5,183.7 235.5,194.7 		"/>
		<rect x="222.3" y="210.5" fill="#D9E021" width="24.9" height="23.4"/>
		<polygon fill="#E0E54A" points="247.2,210.5 245.3,210.5 222.3,210.5 222.3,233.9 		"/>
		<rect x="252.6" y="183.7" fill="#808080" width="63.7" height="58.6"/>
		<polygon fill="#969696" points="316.3,183.7 262.9,183.7 252.6,183.7 252.6,242.4 		"/>
		<rect x="320.6" y="183.7" fill="#D9E021" width="24.9" height="23.4"/>
		<polygon fill="#E0E54A" points="345.6,183.7 320.6,183.7 320.6,207.2 		"/>
		<rect x="222.3" y="196.3" fill="#63DE17" width="11.7" height="10.9"/>
		<polygon fill="#80E340" points="233.9,196.3 222.3,196.3 222.3,207.2 		"/>
		<rect x="235.5" y="196.3" fill="#40C4FF" width="11.7" height="10.9"/>
		<polygon fill="#61CFFF" points="247.2,196.3 235.5,196.3 235.5,207.2 		"/>
		<rect x="320.6" y="210.4" fill="#FF1745" width="11.7" height="10.9"/>
		<polygon fill="#FF4066" points="332.3,210.4 320.6,210.4 320.6,221.3 		"/>
		<rect x="333.9" y="210.4" fill="#FF9100" width="11.7" height="10.9"/>
		<polygon fill="#FFA62E" points="345.6,210.4 333.9,210.4 333.9,221.3 		"/>
		<rect x="320.6" y="222.9" fill="#63DE17" width="11.7" height="10.9"/>
		<polygon fill="#80E340" points="332.3,222.9 320.6,222.9 320.6,233.8 		"/>
		<rect x="333.9" y="222.9" fill="#40C4FF" width="11.7" height="10.9"/>
		<polygon fill="#61CFFF" points="345.6,222.9 333.9,222.9 333.9,233.8 		"/>
		<rect x="258.9" y="188.4" fill="#FFFFFF" width="48.2" height="2.4"/>
		<rect x="258.9" y="193.8" fill="#FFFFFF" width="51.6" height="2.4"/>
		<rect x="258.9" y="199.1" fill="#FFFFFF" width="48.2" height="2.4"/>
		<rect x="258.9" y="204.5" fill="#FFFFFF" width="51.6" height="2.4"/>
		<rect x="258.9" y="209.9" fill="#FFFFFF" width="48.2" height="2.4"/>
		<rect x="258.9" y="215.2" fill="#FFFFFF" width="51.6" height="2.4"/>
		<rect x="258.9" y="220.6" fill="#FFFFFF" width="48.2" height="2.4"/>
		<rect x="258.9" y="226" fill="#FFFFFF" width="51.6" height="2.4"/>
		<rect x="258.9" y="231.4" fill="#FFFFFF" width="48.2" height="2.4"/>
		<rect x="258.9" y="236.7" fill="#FFFFFF" width="51.6" height="2.4"/>
		<polygon fill="#BDF2FF" points="314.2,258.5 307.9,258.4 308,244.8 314.4,244.9 		"/>
		<polygon fill="#FFC985" points="320.6,256.7 314.2,256.5 314.4,246.6 320.8,246.8 		"/>
		<g>
			<path fill="#FFC985" d="M350.4,249.3c0.7,6.6-5.8,12.7-14.6,13.7c-8.8,0.9-16.5-3.7-17.2-10.3c-0.7-6.6,5.8-12.7,14.6-13.7
				C342,238.1,349.7,242.7,350.4,249.3"/>
			<path fill="#407DB8" d="M165.3,146.4c7.6,5.9,5.3,42.2,5.1,72c-0.2,25.8,54.1,40.2,54.1,40.2s-70.5,9.4-70.7-32.6
				c-0.1-27.6-0.7-60.5-0.8-68C152.9,148.7,159.7,142.1,165.3,146.4"/>
			<path fill="#4082BD" d="M235.5,146.3c8.9,5.7,6.2,43.6,6,73.3c-0.2,25.8,67.2,24.5,67.2,24.5l-0.2,14.8c0,0-85,10.2-85.2-31.8
				c-0.1-27.6-0.7-60.5-0.8-68C222.4,150,229.6,142.5,235.5,146.3"/>
			<path fill="#124270" d="M194.2,218.3c0,1,0.7,1.8,1.6,1.8c0.9,0,1.6-0.8,1.6-1.8c0-1-0.7-1.8-1.6-1.8
				C195,216.5,194.2,217.4,194.2,218.3"/>
			<path fill="#124270" d="M194.2,243.2c0,1,0.7,1.8,1.6,1.8c0.9,0,1.6-0.8,1.6-1.8c0-1-0.7-1.8-1.6-1.8
				C195,241.4,194.2,242.2,194.2,243.2"/>
		</g>
		<polygon fill="#FFC985" points="187,148.7 193.6,152.9 195,154.8 196.5,152.8 203.8,147.8 203.8,117.8 187,117.8 		"/>
		<g>
			<path fill="#FFC985" d="M181,104.7c0,4.9-3.7,8.9-8.2,8.9c-4.5,0-8.2-4-8.2-8.9c0-4.9,3.7-8.9,8.2-8.9
				C177.3,95.8,181,99.8,181,104.7"/>
			<path fill="#3863A1" d="M159.3,157.6l4.8,145.2c0,0,28.3-2.9,33.5-21.2c7.4,19.9,28.8,21.2,28.8,21.2l4.8-145.2
				c0-8.6-7.5-15.6-16.6-15.6h-38.7C166.8,142,159.3,149,159.3,157.6"/>
			<path fill="#FFC985" d="M230.2,103.8c0,4.9-3.7,8.9-8.2,8.9c-4.5,0-8.2-4-8.2-8.9c0-4.9,3.7-8.9,8.2-8.9
				C226.6,95,230.2,98.9,230.2,103.8"/>
			<path fill="#FFC985" d="M170.4,98.3c0,4,0.5,8,1.3,11.7c1.9,8.3,6,15.3,11.6,19.5c3.5,2.6,7.7,4.1,12.4,4.1
				c4.3,0,8.1-1.3,11.5-3.5c6.3-4.2,10.7-11.7,12.7-20.6l0,0c0.8-3.6,1.2-7.4,1.2-11.2c0-18.7-5.4-33.9-25.4-33.9
				C175,64.4,170.4,79.6,170.4,98.3"/>
			<path fill="#CCBFB0" d="M203.8,140.3c0,0.1,0,0.1,0,0.2v0.4C203.8,140.8,203.8,140.6,203.8,140.3"/>
			<path fill="#CC9E61" d="M203.8,140.5c0,0.3,0,0.4,0,0.4c0,0,0,0,0,0V140.5z"/>
			<path fill="#754D24" d="M224.6,92.3c0,0-0.3-0.5-0.8-1.2c-0.1,3,0,5,0,5s-0.8,0.6-1.7,3.8c-1,3.1-3.6,9.6-3.6,9.6
				c-2.4,6-6.2,11-11.2,14c-3.3,2-7.2,3.1-11.5,3.1c-1.8,0-3.5-0.2-5.1-0.6c-2.7-0.6-5.1-1.7-7.3-3.2c-4.9-3.3-8.6-8.4-10.7-14.6v0
				l0,0c-0.3-1-0.6-2-0.9-3c-0.2-0.6-0.3-1.3-0.5-2c-0.6-1.9-1.3-3.8-1.7-4.6c-0.6-1.5-1.1-2.6-1.1-2.6s0.6-7.1-4.1-22.4
				c-1.9-5.3,3.8-17.4,7.9-20.2c3.7-2.5,6.5-1.5,8.1,0.4c0,0,0.1-0.1,0.2-0.1c-0.2-1.1-0.2-1.9,0-2.3c0.9-2,3.6-5.5,12.8-6
				c3.3-0.2,7.4,0.1,12.5,0.9c19.5,3.1,22.7,20.4,22.8,26.8C228.7,81.3,224.6,92.3,224.6,92.3"/>
			<path fill="#263338" d="M249.2,353.2h-99.8c-5.3,0-9.7-4.3-9.7-9.6V336c0-5.3,4.3-9.6,9.7-9.6h99.8c5.3,0,9.7,4.3,9.7,9.6v7.6
				C258.9,348.9,254.5,353.2,249.2,353.2"/>
			<path fill="#263338" d="M212.7,348.3h-67.8c-11.4,0-20.8-9.3-20.8-20.6V174.5c0-11.3,9.4-20.6,20.8-20.6h67.8
				c11.4,0,20.8,9.3,20.8,20.6v153.2C233.5,339.1,224.2,348.3,212.7,348.3"/>
			<path fill="#38474F" d="M204.3,348.3H144c-10.9,0-19.9-8.9-19.9-19.7v-155c0-10.8,8.9-19.7,19.9-19.7h60.3
				c10.9,0,19.9,8.9,19.9,19.7v155C224.2,339.5,215.2,348.3,204.3,348.3"/>
			<path fill="#FFA626" d="M437.1,250.8c-1.7,1.3-4,2-6.4,2.5v-18.1c2.9,0.2,5.5,0.6,6.6,1.3c2.4,1.4,3,3.9,3.1,5.8
				C440.6,245.6,439.2,249.2,437.1,250.8 M445.4,242c-0.2-4.3-2.2-7.8-5.5-9.8c-2-1.2-5.7-1.7-9.2-2V226h-33.1v38.9h33.1v-6.5
				c3.2-0.5,6.7-1.6,9.4-3.6C443.5,252.2,445.7,247,445.4,242"/>
		</g>
		<rect x="397.6" y="226" fill="#FFBF61" width="12.5" height="38.9"/>
		<g>
			<path fill="#BDF2FF" d="M178.6,142h33.1c0,0-2.4-6.2-15.3-6.9C187.4,134.5,178.6,142,178.6,142"/>
		</g>
		<rect x="173.7" y="353.2" width="42.9" height="7.5"/>
		<rect x="187.7" y="360.7" fill="#F2F2F2" width="17.3" height="23.7"/>
		<g>
			<path fill="#8F592E" d="M190.6,126.1c-2.7-0.6-5.1-1.7-7.3-3.2c-4.9-3.3-8.6-8.4-10.7-14.6v0l0,0c-0.3-1-0.6-2-0.9-3
				c-0.2-0.6-0.3-1.3-0.5-2c-0.6-1.9-1.3-3.8-1.7-4.6c-0.6-1.5-1.1-2.6-1.1-2.6s0.6-7.1-4.1-22.4c-1.9-5.3,3.8-17.4,7.9-20.2
				c3.7-2.5,6.5-1.5,8.1,0.4c0,0,0.1-0.1,0.2-0.1c-0.2-1.1-0.2-1.9,0-2.3c0.9-2,3.6-5.5,12.8-6l1,0.7c0,0-10.2,10.7-9.1,16.1
				c-6.5,4.8-9.7,3.9-11.2,15c-1.4,11.1,1,24.8,7,36.2C185.3,121.8,189,125,190.6,126.1"/>
		</g>
		<polygon fill="#546E7A" points="80.7,240.9 77.6,240.5 84.9,182.2 88,182.6 		"/>
		<polygon fill="#FFF26E" points="88,182.6 84.9,182.2 85.3,178.5 88.5,178.9 		"/>
		<polygon fill="#F259A3" points="88.5,178.9 85.3,178.5 85.7,176 88.8,176.4 		"/>
		<polygon fill="#F57D00" points="70.6,236.6 67.5,236.9 61.7,178.4 64.9,178.1 		"/>
		<polygon fill="#FFF26E" points="64.9,178.1 61.7,178.4 61.4,174.7 64.5,174.4 		"/>
		<polygon fill="#F259A3" points="64.5,174.4 61.3,174.7 61.1,172.2 64.2,171.9 		"/>
		<polygon points="77.5,236.5 67.2,234.7 71.4,211.3 81.6,213.1 		"/>
		<polygon fill="#FF4082" points="83.7,201 73.5,199.2 71.4,211.3 81.6,213.1 		"/>
		<rect x="56.4" y="223.8" fill="#D9E021" width="27.9" height="40.9"/>
		<rect x="56.4" y="223.8" fill="#EDED2E" width="6.4" height="40.9"/>
		<g>
			<path d="M230.5,339.9h26c0.1-4.6-0.2-15.9-5.1-25.8c-4.6-9.3-15.6-14.5-20.9-16.6V339.9z M261.1,344.7h-35.4v-53.9l3.1,0.9
				c0.8,0.2,19.9,5.8,27.1,20.2c7,14.1,5.5,29.9,5.4,30.6L261.1,344.7z"/>
		</g>
	</g>
</g>
</svg>
