<?xml version="1.0" encoding="utf-8"?>
<!-- Generator: Adobe Illustrator 18.1.1, SVG Export Plug-In . SVG Version: 6.00 Build 0)  -->
<svg version="1.1" id="Layer_1" xmlns="http://www.w3.org/2000/svg" xmlns:xlink="http://www.w3.org/1999/xlink" x="0px" y="0px"
	 viewBox="0 384 600 216" enable-background="new 0 384 600 216" xml:space="preserve">
<rect x="2.1" y="406.8" fill="#0099CC" width="597.5" height="158"/>
<g>
	
		<text transform="matrix(1 0 0 1 74.1583 524.1261)" display="none" fill="#FFFFFF" enable-background="new    " font-family="'Roboto-Bold'" font-size="98.6281">S</text>
	
		<text transform="matrix(1 0 0 1 134.8634 524.1261)" display="none" fill="#FFFFFF" enable-background="new    " font-family="'Roboto-Bold'" font-size="98.6281">TEP</text>
	<g>
		<path fill="#003399" d="M444.5,594.6c56.4,0,102.4-45.8,102.4-102.4c0-56.4-45.8-102.4-102.4-102.4
			c-56.4,0-102.4,45.8-102.4,102.4S387.9,594.6,444.5,594.6"/>
		<g enable-background="new    ">
			<path fill="#FFFFFF" d="M426.8,478.8h16.3c6.9,0,12-1.8,15.3-5.4s5-8.6,5-15c0-5.8-1.7-10.5-5-14s-8.1-5.3-14.4-5.3
				c-5.4,0-10,1.6-13.7,4.8s-5.6,7.4-5.6,12.5h-28.1l-0.2-0.6c-0.4-11.3,3.9-20.7,13-28c9.1-7.4,20.3-11,33.8-11
				c15,0,26.9,3.6,35.8,10.7c8.9,7.2,13.4,17.4,13.4,30.6c0,6.3-2,12.3-6,17.9c-4,5.7-9.4,10.1-16.4,13.3c8,2.8,14.1,7.2,18.3,13.1
				c4.2,5.9,6.3,12.7,6.3,20.6c0,13.2-4.8,23.7-14.5,31.2c-9.6,7.6-22,11.4-37,11.4c-13.4,0-25-3.6-34.6-10.7s-14.3-17.2-14-30.1
				l0.2-0.6h28.1c0,5.5,2,10.1,6,13.7s9,5.4,15.1,5.4c6.7,0,12-1.8,15.8-5.5c3.9-3.7,5.8-8.7,5.8-15.1c0-7.6-1.9-13.2-5.7-16.7
				c-3.8-3.5-9.4-5.3-16.8-5.3h-16.3v-21.9L426.8,478.8L426.8,478.8z"/>
		</g>
		<circle fill="none" stroke="#0099CC" stroke-width="5.639" cx="444.5" cy="492.4" r="102.4"/>
	</g>
</g>
</svg>
