<?xml version="1.0" encoding="utf-8"?>
<!-- Generator: Adobe Illustrator 18.0.0, SVG Export Plug-In . SVG Version: 6.00 Build 0)  -->
<!DOCTYPE svg PUBLIC "-//W3C//DTD SVG 1.1//EN" "http://www.w3.org/Graphics/SVG/1.1/DTD/svg11.dtd">
<svg version="1.1" id="Layer_1" xmlns="http://www.w3.org/2000/svg" xmlns:xlink="http://www.w3.org/1999/xlink" x="0px" y="0px"
	 viewBox="0 135.8 612 660.1" enable-background="new 0 135.8 612 660.1" xml:space="preserve">
<g>
	<path fill="#BD8957" d="M615.6,674.9c-103.4-3.7-149.8-15.2-149.8-15.2l-51.2,96.5c0,0,78.7,6.9,201,8.9L615.6,674.9L615.6,674.9z"
		/>
	<polygon fill="#1A1A1A" points="503,796 550.3,641 513.9,630.4 460.4,782.8 	"/>
	<g>
		<path fill="#1A1A1A" d="M449,738.5c-1.1,26.7,19.2,49,45.8,50.1c26.6,1.1,48.9-19.2,50.1-45.8c1.1-26.6-19.2-49-45.8-50.1
			C472.7,691.2,450.1,711.8,449,738.5"/>
		<path fill="#FFFFFF" d="M455.5,739.6c-1.1,22.9,16.6,42.3,39.5,43.6s42.3-16.6,43.6-39.5c1.1-22.9-16.6-42.3-39.5-43.6
			C475.8,698.9,456.3,716.6,455.5,739.6"/>
	</g>
	
		<rect x="445.2" y="724.7" transform="matrix(0.2807 -0.9598 0.9598 0.2807 -375.3559 954.2142)" fill="#1A1A1A" width="7.5" height="5.8"/>
	<polygon fill="#1A1A1A" points="500.2,740.7 472.7,716.9 498.2,745 	"/>
	<g>
		<path fill="#BD8957" d="M68.1,556.3c0,0-8.9,16.6,1.7,36.7c10.9,20,98.5,115.4,130,118.5c31.7,3.4,214.7,45,214.7,45l51.2-95.9
			c0,0-49-73.3-104.8-82.8c-55.9-9.5-97.1-5.2-97.1-5.2L68.1,556.3z"/>
		<path fill="#F7B078" d="M94.8,579.5c0,0,48.7,49.5,80.4,69.6c40.1,25.5,86.8,39.2,95.1,30.3c4.9-5.2-8.3-22.6-55.6-53.3
			C187.8,608.7,94.8,579.5,94.8,579.5"/>
		<path fill="#333333" d="M202.4,604.7l-164.3-22c-20.6-2.8-35.2-21.7-32.3-42.3l49.8-370c2.8-20.6,21.7-35.2,42.3-32.3l164.3,22
			c20.6,2.8,35.3,21.7,32.3,42.3l-49.8,370C242.2,592.9,223,607.6,202.4,604.7"/>
		<path fill="#E5E5E5" d="M97.6,140c-19.5-2.8-37.5,11.1-40.3,30.6l-49.5,370C5.1,560.1,19,578.1,38.4,581l164.3,22
			c19.5,2.5,37.5-11.1,40.3-30.6l49.8-370c2.5-19.5-11.2-37.5-30.6-40.3L97.6,140z M202.1,606.4l-164.3-22
			C16.2,581.5,0.8,561.5,4,540l49.8-370c2.8-21.5,22.9-36.9,44.4-33.8l164.3,22c21.5,2.8,37,22.9,34.1,44.4l-49.8,370
			C243.9,594.1,223.9,609.6,202.1,606.4"/>
	</g>
	
		<rect x="48.9" y="208.9" transform="matrix(-0.9911 -0.1333 0.1333 -0.9911 248.6871 761.506)" fill="#FFFFFF" width="201.9" height="327"/>
	<path d="M29.5,520l197.9,26.6l43.3-321.9L72.7,198.1L29.5,520z M229.3,549.2L26.8,522l43.9-326.4l202.4,27.2L229.3,549.2z"/>
	
		<rect x="81.6" y="232.5" transform="matrix(-0.9911 -0.1332 0.1332 -0.9911 183.5313 539.3577)" fill="#FAB03B" width="56.4" height="62.2"/>
	
		<rect x="156.8" y="245.1" transform="matrix(-0.9911 -0.1333 0.1333 -0.9911 372.1001 528.533)" fill="#54CCF0" width="93.9" height="13.4"/>
	
		<rect x="153.8" y="269.5" transform="matrix(-0.9911 -0.1333 0.1333 -0.9911 362.8178 576.6431)" fill="#D4D4D4" width="93.9" height="13.4"/>
	
		<rect x="150.6" y="293.5" transform="matrix(-0.9911 -0.1333 0.1333 -0.9911 353.3808 624.1094)" fill="#B2B2B2" width="93.9" height="13.4"/>
	
		<rect x="72.6" y="324.7" transform="matrix(-0.9911 -0.1333 0.1333 -0.9911 266.6146 680.7459)" fill="#54CCF0" width="166.9" height="13.4"/>
	
		<rect x="59" y="400.5" transform="matrix(-0.9911 -0.1332 0.1332 -0.9911 116.0851 870.9522)" fill="#FFEBCF" width="56.4" height="62.2"/>
	
		<rect x="134.6" y="412.6" transform="matrix(-0.9911 -0.1333 0.1333 -0.9911 305.5238 859.0063)" fill="#54CCF0" width="93.9" height="13.4"/>
	
		<rect x="131" y="437.2" transform="matrix(-0.9911 -0.1333 0.1333 -0.9911 295.196 907.6106)" fill="#D4D4D4" width="93.9" height="13.4"/>
	
		<rect x="128" y="461.3" transform="matrix(-0.9911 -0.1333 0.1333 -0.9911 285.9567 955.1171)" fill="#B2B2B2" width="93.9" height="13.4"/>
	
		<rect x="44.8" y="486.8" transform="matrix(-0.9911 -0.1333 0.1333 -0.9911 198.8461 1000.0966)" fill="#B5E5E8" width="176.1" height="13.1"/>
	
		<rect x="29.5" y="518.8" transform="matrix(-0.9911 -0.1333 0.1333 -0.9911 187.1999 1065.5326)" fill="#00B5E8" width="199.6" height="15.5"/>
	
		<rect x="70.9" y="211.5" transform="matrix(-0.9911 -0.1333 0.1333 -0.9911 311.1114 456.8371)" fill="#00B5E8" width="199.9" height="12.9"/>
	<g>
		<path fill="#1A1A1A" d="M141.9,568.4c-1.1,9.2-9.7,15.8-19.2,14.7c-9.2-1.1-15.8-9.7-14.6-19.2c1.1-9.2,9.7-15.8,19.2-14.7
			C136.5,550.6,143.2,559.2,141.9,568.4"/>
		<path d="M135.7,177.5c-0.3,2.8-2.8,4.5-5.8,4.3c-2.8-0.3-4.5-2.8-4.3-5.8c0.3-2.8,2.8-4.5,5.8-4.3C134,172,136,174.7,135.7,177.5"
			/>
		<path d="M207.8,189.8l-61-8.3c-1.4-0.3-2.6-1.4-2.3-2.8l0,0c0.3-1.4,1.4-2.5,2.8-2.3l61,8.3c1.4,0.3,2.6,1.4,2.3,2.8l0,0
			C210.7,188.9,209.3,190.1,207.8,189.8"/>
		<path fill="#FAB03B" d="M105.4,364.7c-1.4,9.7-10,16.3-19.8,15.2c-9.7-1.4-16.3-10-15.2-19.8c1.4-9.7,10-16.3,19.7-15.2
			C99.9,346.5,106.8,355.3,105.4,364.7"/>
		<path fill="#FCCC82" d="M158.9,355c-0.9-0.3-1.7-0.6-2.6-0.6c-9.7-1.4-18.6,5.5-19.8,15.2c-1.1,8.6,4.3,16.9,12.3,19.2
			c0.9,0.3,1.7,0.6,2.6,0.6c9.7,1.4,18.6-5.5,19.8-15.2C172.4,365.7,167.2,357.3,158.9,355"/>
		<path fill="#FFEDD1" d="M221.3,362.7c-0.9-0.3-1.7-0.6-2.6-0.6c-9.7-1.4-18.6,5.5-19.8,15.2c-1.1,8.6,4.3,16.9,12.3,19.2
			c0.9,0.3,1.7,0.6,2.6,0.6c9.7,1.4,18.6-5.5,19.8-15.2C234.7,373.3,229.6,365.3,221.3,362.7"/>
		<path fill="#BD8957" d="M316.9,627.3l0.6-1.1c6.3-15.8,38.4-30.1,19.7-37.5l-180.1-58.1c-18.6-7.2-38.9-0.3-45,15.8l-0.6,1.1
			c-6.3,15.8,4,34.7,22.6,42.1l132,67.6C284.8,664.3,310.6,643.1,316.9,627.3"/>
		<path fill="#FFE0C9" d="M146.6,536.2h-0.3c-13.4-3.7-25.2,6.6-28.1,17.2c-2.8,10.3,1.4,22.9,14.7,26.9h0.3
			c13.4,3.7,29.5-4,32.3-14.7C168.6,555.1,159.7,540,146.6,536.2"/>
	</g>
</g>
</svg>
