<?xml version="1.0" encoding="utf-8"?>
<!-- Generator: Adobe Illustrator 18.0.0, SVG Export Plug-In . SVG Version: 6.00 Build 0)  -->
<!DOCTYPE svg PUBLIC "-//W3C//DTD SVG 1.1//EN" "http://www.w3.org/Graphics/SVG/1.1/DTD/svg11.dtd">
<svg version="1.1" id="Layer_1" xmlns="http://www.w3.org/2000/svg" xmlns:xlink="http://www.w3.org/1999/xlink" x="0px" y="0px"
	 viewBox="0 0 612 792" enable-background="new 0 0 612 792" xml:space="preserve">
<g>
	<path fill="#C9966E" d="M401,384.8c0,0-35.8-79,30.7-55.1c10.5,3.7,47.8,95.8,50.9,110.9c3.2,15.1,32.7,101.6,32.7,101.6
		l-43.9,29.7c0,0-38-20-45.3-46.5c-7.3-26.6-7.3-46.8-7.3-46.8L401,384.8z"/>
	<path fill="#F7B078" d="M416.6,312.9c0,0,29.5,60.7,40,98.2c6.1,22.4,18.3,60.9,14.4,65.3c-2.2,2.7-11.5-2.9-28.5-24.1
		C432.5,440.1,416.6,312.9,416.6,312.9"/>
	<path fill="#FFFFFF" d="M143.5,459.6l253.9,28c14.6,1.7,27.8-8.8,29.2-23.4l43.9-397c1.7-14.6-8.8-27.8-23.4-29.2L193.2,10
		c-14.6-1.7-27.8,8.8-29.2,23.4l-43.9,397C118.6,445,129.1,457.9,143.5,459.6"/>
	<path fill="#E5E5E5" d="M317.5,56.8c3.2,0.2,6.1-1.9,6.6-5.4c0.2-3.2-1.9-6.1-5.4-6.6c-3.2-0.2-6.1,1.9-6.6,5.4
		C311.8,53.4,314.3,56.3,317.5,56.8"/>
	
		<rect x="159.5" y="78.5" transform="matrix(-0.9941 -0.1082 0.1082 -0.9941 558.2861 532.0139)" fill="#E5E5E5" width="268.1" height="344.8"/>
	<path fill="#333333" d="M180.3,66.3l-37,340.4l263.9,28.8l37-340.4L180.3,66.3z M140.5,408.9l37.5-345.3l268.8,29.2l-37.5,345.3
		L140.5,408.9z"/>
	
		<rect x="158.6" y="306.3" transform="matrix(-0.994 -0.1098 0.1098 -0.994 522.6784 746.4846)" fill="#FFFFFF" width="246.6" height="105"/>
	
		<rect x="170.9" y="323.4" transform="matrix(-0.1098 0.994 -0.994 -0.1098 580.3139 192.8978)" fill="#70D6F2" width="65.8" height="65.8"/>
	
		<rect x="250" y="332.3" transform="matrix(-0.1098 0.994 -0.994 -0.1098 676.9128 124.1095)" fill="#D4D4D4" width="65.8" height="65.8"/>
	
		<rect x="182.9" y="81.9" transform="matrix(-0.994 -0.1098 0.1098 -0.994 454.984 293.0821)" fill="#FFFFFF" width="105.3" height="104.3"/>
	
		<rect x="327.2" y="340.8" transform="matrix(-0.1098 0.994 -0.994 -0.1098 771.1136 56.8004)" fill="#E3E3E3" width="65.8" height="65.8"/>
	
		<rect x="289.7" y="206.4" transform="matrix(-0.994 -0.1098 0.1098 -0.994 673.9517 552.4968)" fill="#FFFFFF" width="125" height="102.6"/>
	
		<rect x="193.2" y="88.9" transform="matrix(-0.994 -0.1098 0.1098 -0.994 464.3654 248.0662)" fill="#F7941F" width="91.6" height="44.6"/>
	
		<rect x="332.7" y="181.8" transform="matrix(-0.1098 0.994 -0.994 -0.1098 630.475 -88.8626)" fill="#FAB869" width="44.6" height="112.1"/>
	
		<rect x="366.2" y="37.3" transform="matrix(-0.1097 0.994 -0.994 -0.1097 509.496 -256.6554)" fill="#ED8763" width="7.1" height="125"/>
	
		<rect x="305.5" y="113.6" transform="matrix(-0.994 -0.1098 0.1098 -0.994 721.1049 271.7195)" fill="#B2B2B2" width="125" height="4.9"/>
	
		<rect x="304.1" y="125.5" transform="matrix(-0.994 -0.1098 0.1098 -0.994 716.8972 295.3425)" fill="#B2B2B2" width="125" height="4.9"/>
	
		<rect x="302.9" y="137" transform="matrix(-0.994 -0.1098 0.1098 -0.994 713.2299 318.0623)" fill="#B2B2B2" width="125" height="4.9"/>
	
		<rect x="297.7" y="183" transform="matrix(-0.994 -0.1098 0.1098 -0.994 697.951 409.3318)" fill="#B2B2B2" width="125" height="4.9"/>
	
		<rect x="172" y="264.2" transform="matrix(-0.994 -0.1098 0.1098 -0.994 414.9404 557.0244)" fill="#B2B2B2" width="101.6" height="5.8"/>
	
		<rect x="176.4" y="223.7" transform="matrix(-0.994 -0.1098 0.1098 -0.994 428.1241 476.8584)" fill="#B2B2B2" width="101.6" height="5.8"/>
	
		<rect x="170.5" y="276.8" transform="matrix(-0.994 -0.1098 0.1098 -0.994 410.6026 582.149)" fill="#B2B2B2" width="101.6" height="5.8"/>
	
		<rect x="227.7" y="144.7" transform="matrix(-0.1098 0.994 -0.994 -0.1098 450.2686 -12.3112)" fill="#ED8763" width="5.8" height="101.6"/>
	
		<rect x="178.1" y="209.3" transform="matrix(-0.994 -0.1098 0.1098 -0.994 433.0759 448.3586)" fill="#B2B2B2" width="101.6" height="5.8"/>
	
		<rect x="296.8" y="196.4" transform="matrix(-0.994 -0.1098 0.1098 -0.994 694.5314 435.9238)" fill="#B2B2B2" width="125" height="4.9"/>
	
		<rect x="173.4" y="250.3" transform="matrix(-0.994 -0.1098 0.1098 -0.994 419.2874 530.7109)" fill="#00B5E8" width="101.6" height="7.1"/>
	
		<rect x="175.6" y="313.9" transform="matrix(-0.994 -0.1098 0.1098 -0.994 537.6727 664.4095)" fill="#F25924" width="223" height="7.1"/>
	
		<rect x="349.6" y="214.2" transform="matrix(-0.1097 0.994 -0.994 -0.1097 659.263 -49.5803)" fill="#DEDEDE" width="4.4" height="112.6"/>
	
		<rect x="348.7" y="223.2" transform="matrix(-0.1097 0.994 -0.994 -0.1097 667.1072 -38.6348)" fill="#DEDEDE" width="4.4" height="112.6"/>
	
		<rect x="347.6" y="232.6" transform="matrix(-0.1097 0.994 -0.994 -0.1097 675.3348 -27.1852)" fill="#DEDEDE" width="4.4" height="112.6"/>
	
		<rect x="346.5" y="241.7" transform="matrix(-0.1097 0.994 -0.994 -0.1097 683.1191 -15.9753)" fill="#DEDEDE" width="4.4" height="112.6"/>
	
		<rect x="231.6" y="102.7" transform="matrix(-0.1097 0.994 -0.994 -0.1097 406.9846 -67.5632)" fill="#DEDEDE" width="4.4" height="91.6"/>
	
		<rect x="230.6" y="111.7" transform="matrix(-0.1097 0.994 -0.994 -0.1097 414.8281 -56.6164)" fill="#DEDEDE" width="4.4" height="91.6"/>
	
		<rect x="229.6" y="121.1" transform="matrix(-0.1097 0.994 -0.994 -0.1097 423.0562 -45.1679)" fill="#DEDEDE" width="4.4" height="91.6"/>
	
		<rect x="228.7" y="130.2" transform="matrix(-0.1097 0.994 -0.994 -0.1097 431.1361 -34.1683)" fill="#DEDEDE" width="4.4" height="91.6"/>
	<path fill="#C9966E" d="M448.1,501.5l-0.5,0.2c-7.3,3.9-12.7,20.2-17.1,11.5l-37.3-84.3c-4.4-8.5-1.9-18.8,5.4-22.7l0.5-0.2
		c7.3-3.9,17.1,0.2,21.4,8.8l39.5,60.7C464.4,484.2,455.4,497.9,448.1,501.5"/>
	<path fill="#FFE0C9" d="M406.4,408.4c-1.5,0-2.9,0.2-4.1,0.7c-4.9,1.9-9.5,8-6.8,14.4c1.9,5.1,7.6,8.5,12.4,8.5
		c1,0,2.2-0.2,2.9-0.5c4.9-1.9,7.8-10.2,5.4-16.3C414.2,410.6,410.3,408.4,406.4,408.4"/>
	<path fill="#C9966E" d="M159.8,537.8c11.9,4.9,32.2-12.2,39.2-23.6c5.8-9.3,21.2-43.9,27-57c1.5-3.2,2.2-5.1,2.2-5.1
		c0.7-1.7,1-3.7,0.7-5.4c-0.5-3.2-2.2-5.8-5.4-7.3h-0.2c-4.6-2.2-10.2-0.2-12.4,4.4l-12.4,26.6l0.5-2.4l1.2-6.3l17.1-83.1
		c1-5.1-2.2-10-7.3-11.2h-0.2c-5.1-1-10,2.2-11.2,7.3l-14.6,60.9h-0.7c0,0-5.6-6.1-10.7-7.1c-4.9-1-12.4,3.9-12.4,3.9h-0.2
		c0,0-3.9-7.8-10-8.3c-6.1-0.5-14.6,4.6-14.6,4.6h-0.2c0,0-4.1-4.1-10.7-2.7c-8.3,1.7-12.4,17.8-12.4,17.8c0,0.2,0,0.5,0,0.7
		l-9.7,58.2c-1.9,9,1.5,17.5,9.5,21.2l-6.3,21.7L153,559L159.8,537.8z"/>
	<path fill="#FFDEC7" d="M213.4,372.4c-2.7-2.4-6.6-2.4-9.3,0c-2.4,2.7-2.4,6.6,0,9.3c2.7,2.4,6.6,2.4,9.3,0
		C216.1,378.9,216.1,374.8,213.4,372.4"/>
	<path fill="#FFDEC7" d="M229.2,446.7c-0.2-0.2-0.2-0.2-0.5-0.5c-2.4-2.4-6.6-2.4-9.3,0c-2.4,2.7-2.4,6.6,0,9.3
		c1.7,1.7,4.1,2.2,6.3,1.5c1.5-3.2,2.2-5.1,2.2-5.1C229.2,450.3,229.5,448.4,229.2,446.7"/>
	<g>
		<path fill="#662E91" d="M515.6,542.5l-44.1,29.7c0,0,36.6,42.6,25.3,209.6c-0.2,3.4-0.5,7.8-0.7,10.2h45.8
			C553.1,601.9,515.6,542.5,515.6,542.5z"/>
		<path fill="#662E91" d="M153.2,558.8l-47.8-13.4c0,0-36.8,93.1-33.6,246.6h52.4C123.5,655.5,153.2,558.8,153.2,558.8z"/>
	</g>
</g>
</svg>
