<?xml version="1.0" encoding="utf-8"?>
<!-- Generator: Adobe Illustrator 18.1.1, SVG Export Plug-In . SVG Version: 6.00 Build 0)  -->
<svg version="1.1" id="Layer_1" xmlns="http://www.w3.org/2000/svg" xmlns:xlink="http://www.w3.org/1999/xlink" x="0px" y="0px"
	 viewBox="0 253.7 600 92" enable-background="new 0 253.7 600 92" xml:space="preserve">
<polygon fill="#0099CC" points="2.2,272.2 2.2,323.9 562.3,323.9 599.4,272.2 "/>
<g>
	<path fill="#003399" d="M190.8,342.1c23.2,0,41.9-18.8,41.9-41.9s-18.8-41.9-41.9-41.9s-41.9,18.8-41.9,41.9
		C149,323.3,167.7,342.1,190.8,342.1"/>
	<g enable-background="new    ">
		<path fill="#FFFFFF" d="M183.6,294.7h6.7c2.8,0,4.9-0.7,6.3-2.2c1.4-1.5,2-3.5,2-6.2c0-2.4-0.7-4.3-2-5.7
			c-1.4-1.4-3.3-2.2-5.9-2.2c-2.2,0-4.1,0.7-5.6,2c-1.5,1.3-2.3,3-2.3,5.1h-11.5l-0.1-0.2c-0.2-4.6,1.6-8.5,5.3-11.5
			c3.7-3,8.3-4.5,13.8-4.5c6.1,0,11,1.5,14.7,4.4c3.6,2.9,5.5,7.1,5.5,12.5c0,2.6-0.8,5-2.4,7.3c-1.6,2.3-3.9,4.1-6.7,5.4
			c3.3,1.2,5.8,3,7.5,5.4c1.7,2.4,2.6,5.2,2.6,8.4c0,5.4-2,9.7-5.9,12.8c-3.9,3.1-9,4.7-15.2,4.7c-5.5,0-10.2-1.5-14.2-4.4
			c-3.9-2.9-5.9-7-5.7-12.3l0.1-0.2H182c0,2.3,0.8,4.1,2.4,5.6s3.7,2.2,6.2,2.2c2.7,0,4.9-0.8,6.5-2.3c1.6-1.5,2.4-3.6,2.4-6.2
			c0-3.1-0.8-5.4-2.3-6.8c-1.6-1.4-3.9-2.2-6.9-2.2h-6.7V294.7z"/>
	</g>
	<circle fill="none" stroke="#0099CC" stroke-width="5.639" cx="190.8" cy="300.2" r="41.9"/>
</g>
</svg>
