<?xml version="1.0" encoding="utf-8"?>
<!-- Generator: Adobe Illustrator 18.1.1, SVG Export Plug-In . SVG Version: 6.00 Build 0)  -->
<svg version="1.1" id="Layer_1" xmlns="http://www.w3.org/2000/svg" xmlns:xlink="http://www.w3.org/1999/xlink" x="0px" y="0px"
	 viewBox="0 254 600 91.5" enable-background="new 0 254 600 91.5" xml:space="preserve">
<polygon fill="#42AD4A" points="1.1,277.4 1.1,329.3 562.3,329.3 599.5,277.4 "/>
<g>
	<g>
		<path fill="#F79938" d="M297.6,341.9c23.2,0,42-18.8,42-42s-18.8-42-42-42s-42,18.8-42,42C255.6,323.1,274.4,341.9,297.6,341.9"/>
		<circle fill="none" stroke="#3FAC49" stroke-width="5.639" stroke-miterlimit="10" cx="297.6" cy="299.9" r="42"/>
	</g>
	<g enable-background="new    ">
		<path fill="#FFFFFF" d="M318.1,327.4h-40.5v-7.8l19.2-20.6c2.8-3.2,4.7-5.9,5.9-8.1c1.2-2.2,1.8-4.2,1.8-6.1c0-2.5-0.7-4.5-2-6.1
			c-1.3-1.6-3.3-2.4-5.7-2.4c-2.7,0-4.8,0.9-6.3,2.8c-1.4,1.9-2.1,4.3-2.1,7.4h-11.6l-0.1-0.2c-0.1-5.4,1.6-9.9,5.3-13.6
			c3.7-3.7,8.6-5.6,14.8-5.6c6.1,0,10.9,1.6,14.4,4.8c3.5,3.2,5.2,7.4,5.2,12.7c0,3.6-1,6.9-3,9.9c-2,3-5.2,7-9.8,11.9L293,318
			l0.1,0.2h24.9V327.4z"/>
	</g>
</g>
</svg>
