<?xml version="1.0" encoding="utf-8"?>
<!-- Generator: Adobe Illustrator 18.1.1, SVG Export Plug-In . SVG Version: 6.00 Build 0)  -->
<svg version="1.1" id="Layer_1" xmlns="http://www.w3.org/2000/svg" xmlns:xlink="http://www.w3.org/1999/xlink" x="0px" y="0px"
	 viewBox="0 0 393 238.7" enable-background="new 0 0 393 238.7" xml:space="preserve">
<g>
	<rect x="15" y="154.6" fill="#FFF7E0" width="377.2" height="7.9"/>
	<rect x="243.6" y="162.4" fill="#FFEDB2" width="129.7" height="75.6"/>
	<rect x="37.6" y="162.4" fill="#FFEDB2" width="8.9" height="75.6"/>
	<rect x="250.5" y="169.7" fill="#FFF7E0" width="117.5" height="29.6"/>
	<rect x="250.5" y="205.3" fill="#FFF7E0" width="117.5" height="29.6"/>
	<polygon fill="#FFFCF2" points="392.3,154.6 15,154.6 15,162.4 	"/>
	<polygon fill="#FFFCF2" points="281.1,170.9 252.2,171.2 250.5,199.3 303.8,185.9 303.8,182.5 315.6,182.5 315.6,182.9 
		315.6,182.5 315.8,182.9 338.5,177.2 	"/>
	<polygon fill="#FFFFFF" points="250.5,199.3 252.2,171.2 368,169.7 250.5,169.7 	"/>
	<polygon fill="#FFFCF2" points="368,205.3 250.5,205.3 250.5,234.9 303,221.6 303,218.2 314.9,218.2 314.9,218.7 314.9,218.2 
		315.1,218.6 	"/>
	<polygon fill="#FFFFFF" points="250.5,234.9 252.2,206.8 368,205.3 250.5,205.3 	"/>
	<polygon fill="#FFCC80" points="368,169.7 368,199.3 250.5,199.3 366.3,197.9 	"/>
	<rect x="303.8" y="182.5" fill="#FA8C00" width="11.8" height="5.5"/>
	<polygon fill="#FCA336" points="315.6,182.5 303.9,182.8 303.8,188 	"/>
	<polygon fill="#FFCC80" points="303.8,188 303.9,182.8 315.6,182.5 303.8,182.5 	"/>
	<polygon fill="#FA8C00" points="315.6,182.5 315.6,188 303.8,188 315.4,187.8 	"/>
	<polygon fill="#FFCC80" points="368,205.3 368,234.9 250.5,234.9 365.9,233.4 	"/>
	<polygon fill="#EBE5CF" points="315.8,182.9 315.6,182.9 315.6,188 303.8,188 323.1,193.9 	"/>
	<polygon fill="#EBE8DE" points="315.6,182.9 315.8,182.9 315.6,182.5 	"/>
	<rect x="303" y="218.2" fill="#FA8C00" width="11.8" height="5.5"/>
	<polygon fill="#FCA336" points="314.9,218.2 303.2,218.5 303,223.7 	"/>
	<polygon fill="#FFCC80" points="303,223.7 303.2,218.5 314.9,218.2 303,218.2 	"/>
	<polygon fill="#FA8C00" points="314.9,218.2 314.9,223.7 303,223.7 314.7,223.4 	"/>
	<polygon fill="#EBE5CF" points="315.1,218.6 314.9,218.7 314.9,223.7 303,223.7 322.3,229.6 	"/>
	<polygon fill="#EBE8DE" points="314.9,218.7 315.1,218.6 314.9,218.2 	"/>
	<polygon fill="#E3D19E" points="373.3,162.4 243.6,162.4 243.6,166.7 270.9,169.7 368,169.7 368,180.4 373.3,181 	"/>
	<polygon fill="#E3DEC7" points="368,169.7 338.5,177.2 367.4,180.3 	"/>
	<polygon fill="#E3E0D6" points="368,169.7 281.1,170.9 338.5,177.2 	"/>
	<polygon fill="#E3E3E3" points="368,169.7 270.9,169.7 281.1,170.9 	"/>
	<polygon fill="#E3B573" points="367.4,180.3 368,180.4 368,169.7 	"/>
	<polygon fill="#E3D19E" points="46.5,162.4 37.6,162.4 37.6,166.7 46.5,169.4 	"/>
	<g>
		<path fill="#574091" d="M83,201c0-1.4-0.8-2.7-2-3.3c-0.5-0.3-1.1-0.4-1.7-0.4H4.8c-0.6,0-1.2,0.2-1.7,0.4c-1.2,0.6-2,1.9-2,3.3
			V238H83V201z"/>
		<path fill="#5E4F99" d="M81.4,200.8c0-2-1.6-3.6-3.6-3.6H6.3c-2,0-3.6,1.6-3.6,3.6V238h78.7V200.8z"/>
	</g>
	<polygon fill="#453373" points="82.9,226.2 81.4,226.2 81.4,236.4 82.9,236.5 	"/>
	<polygon fill="#4A3D78" points="81.4,226.2 3.2,230.7 81.4,236.4 	"/>
	<g>
		<path fill="#6B61B0" d="M83,194.6v33c0,0.3,0,0.5-0.1,0.7c-0.2,0.9-0.8,1.6-1.5,2c-0.4,0.2-1,0.4-1.5,0.4H4.2c-0.2,0-0.3,0-0.5,0
			h0h0h0c-0.4-0.1-0.7-0.2-1.1-0.4c-0.9-0.5-1.6-1.6-1.6-2.7v-33c0-1.7,1.4-3.1,3.1-3.1h75.6C81.6,191.4,83,192.8,83,194.6"/>
		<path fill="#7D78BF" d="M78.1,229.2H6c-1.6,0-2.9-1.3-2.9-2.9v-29.6c0-1.6,1.3-2.9,2.9-2.9h72.2c1.6,0,2.9,1.3,2.9,2.9v29.6
			C81,227.9,79.7,229.2,78.1,229.2"/>
		<path fill="#6B61B0" d="M57.2,183.9l-0.9,1.1l-1.1,1.3l0,0c-0.3-0.2-5.8-3.2-13.1-3.2h0c-4.5,0-11.6,2.6-13.2,3.2
			c-0.1,0-0.2,0.1-0.3,0.1l0,0l-0.8-1.4l-0.8-1.4c0,0,0.1-0.1,0.1-0.1c0.8-0.5,5.4-3.4,14.9-3.4h0c9.5,0,13.8,2.7,14.9,3.5l0,0
			C57.1,183.8,57.2,183.8,57.2,183.9L57.2,183.9z"/>
		<path fill="#574091" d="M29.6,184.9c0,0.6-0.3,1-0.7,1.3c-0.1,0.1-0.2,0.1-0.3,0.2l0,0c-0.2,0.1-0.4,0.1-0.6,0.1
			c-0.3,0-0.6-0.1-0.9-0.3c-0.4-0.3-0.7-0.8-0.7-1.3c0-0.5,0.2-1,0.6-1.3c0,0,0.1-0.1,0.1-0.1c0.3-0.2,0.5-0.3,0.9-0.3
			C28.9,183.3,29.6,184,29.6,184.9"/>
		<path fill="#574091" d="M57.7,185c0,0.6-0.3,1-0.7,1.3c-0.3,0.2-0.6,0.3-0.9,0.3c-0.3,0-0.6-0.1-0.9-0.3l0,0
			c-0.4-0.3-0.7-0.8-0.7-1.3c0-0.9,0.7-1.6,1.6-1.6c0.3,0,0.6,0.1,0.8,0.2l0,0c0.1,0.1,0.2,0.1,0.3,0.2l0,0
			C57.5,184.2,57.7,184.5,57.7,185"/>
	</g>
	<rect x="27.1" y="185" fill="#FFC270" width="1.8" height="6.5"/>
	<rect x="55.2" y="185" fill="#FFC270" width="1.8" height="6.5"/>
	<rect x="38.8" y="191" fill="#574091" width="6.5" height="47"/>
	<rect x="38" y="225.9" fill="#FFC270" width="8.2" height="9.3"/>
	<rect x="38.9" y="227.5" fill="#FFD9AB" width="6.2" height="6.2"/>
	<g>
		<path fill="#3863A1" d="M167.5,180.7c0,0,16.9-0.1,23.7,12.1c6.9,12.2,4.1,45.2,4.1,45.2h-18.7v-32.8c0,0-18-2.5-17.6-3.7
			C159.5,200.3,167.5,180.7,167.5,180.7"/>
		<path fill="#3863A1" d="M124.7,180.7c0,0,16.9-0.1,23.7,12.1c6.9,12.2,4.1,45.2,4.1,45.2h-18.7v-32.8c0,0-18-2.5-17.6-3.7
			C116.8,200.3,124.7,180.7,124.7,180.7"/>
		<path fill="#1A1A1A" d="M250,81.9h-93.5c-1.7,0-3.1,1.4-3.1,3.1v61.2c0,1.6,1.3,3,2.8,3.1c0.1,0,0.1,0,0.2,0H250
			c0.9,0,1.8-0.4,2.3-1.1c0.5-0.5,0.7-1.2,0.7-2V85C253,83.3,251.7,81.9,250,81.9"/>
		<path fill="#FFFFFF" d="M252.7,146.2c0,1.5-1.2,2.8-2.8,2.8h-93.5c-1.5,0-2.8-1.2-2.8-2.8V85c0-1.5,1.2-2.8,2.8-2.8H250
			c1.5,0,2.8,1.2,2.8,2.8V146.2z M250,81.6h-93.5c-1.9,0-3.4,1.5-3.4,3.4v61.2c0,1.9,1.5,3.4,3.4,3.4H250c1.9,0,3.4-1.5,3.4-3.4V85
			C253.4,83.1,251.8,81.6,250,81.6"/>
	</g>
	<rect x="157.4" y="87" fill="#E0F5FF" width="91.7" height="58.1"/>
	<rect x="157.4" y="87" fill="#F7941F" width="91.7" height="3.1"/>
	<g>
		<path fill="#CCCCCC" d="M267.4,149.5H138.8c-0.7,0-1.4,0.6-1.4,1.4v0.4c0,3,16.6,3.4,17.3,3.4h96.5c0.7,0,17.5-0.2,17.5-3.3v-0.4
			C268.8,150.1,268.2,149.5,267.4,149.5"/>
		<path fill="#F2F2F2" d="M267.9,149.2H138.3c-0.5,0-0.8,0.4-0.8,0.8v0.6c0,0.5,0.4,0.8,0.8,0.8h129.6c0.5,0,0.8-0.4,0.8-0.8v-0.6
			C268.8,149.6,268.4,149.2,267.9,149.2"/>
	</g>
	<rect x="193.9" y="150.3" fill="#B2B2B2" width="18.8" height="1.1"/>
	<rect x="157.4" y="143.1" fill="#F7941F" width="91.7" height="2.1"/>
	<g>
		<path fill="#595959" d="M199.6,82.2h-43.1c-1.5,0-2.8,1.2-2.8,2.8v61.2c0,0.7,0.2,1.3,0.6,1.7c0.5,0.5,1.2,0.8,1.9,0.9l2.3-3.6
			h-1.2h0v-2.1h0V87h39.1L199.6,82.2z"/>
		<path fill="#FFFFFF" d="M199.8,81.9h-43.3c-1.7,0-3.1,1.4-3.1,3v60.8c0,0.9,0.3,1.6,0.9,2.2c-0.4-0.5-0.6-1.1-0.6-1.7V85
			c0-1.5,1.2-2.8,2.8-2.8h43.1L199.8,81.9z"/>
	</g>
	<path fill="#E8F7FF" d="M157.4,87L157.4,87v56.1h2.6l6.6-10.2h-5.2v-16.3h15.9l5-7.7v-11h7.1l5.1-7.8h-37V87z M170.4,97.9
		L170.4,97.9h8.1v7.6h-8.1V97.9z M161.3,97.9L161.3,97.9h8.1v7.6h-8.1V97.9z M170.4,106.7L170.4,106.7h8.1v7.6h-8.1V106.7z
		 M161.3,106.7L161.3,106.7h8.1v7.6h-8.1V106.7z"/>
	<polygon fill="#FAB05C" points="196.4,87 157.4,87 157.4,90.1 194.4,90.1 	"/>
	<polygon fill="#FAB05C" points="159.9,143.1 157.4,143.1 157.4,143.1 157.4,145.2 157.4,145.2 158.6,145.2 	"/>
	<rect x="161.3" y="97.9" fill="#FF1745" width="8.1" height="7.6"/>
	<polygon fill="#FF4066" points="169.4,97.9 161.3,97.9 161.3,105.5 	"/>
	<rect x="170.4" y="97.9" fill="#FF9100" width="8.1" height="7.6"/>
	<polygon fill="#FFA62E" points="178.5,97.9 170.4,97.9 170.4,105.5 	"/>
	<rect x="161.3" y="116.6" fill="#D9E021" width="17.2" height="16.3"/>
	<polygon fill="#E0E54A" points="178.5,116.6 177.2,116.6 161.3,116.6 161.3,132.9 	"/>
	<rect x="182.2" y="97.9" fill="#808080" width="43.9" height="40.9"/>
	<polygon fill="#969696" points="226.1,97.9 189.3,97.9 182.2,97.9 182.2,138.9 	"/>
	<rect x="229.2" y="97.9" fill="#D9E021" width="17.2" height="16.3"/>
	<polygon fill="#E0E54A" points="246.4,97.9 229.2,97.9 229.2,114.3 	"/>
	<rect x="161.3" y="106.7" fill="#63DE17" width="8.1" height="7.6"/>
	<polygon fill="#80E340" points="169.4,106.7 161.3,106.7 161.3,114.3 	"/>
	<rect x="170.4" y="106.7" fill="#40C4FF" width="8.1" height="7.6"/>
	<polygon fill="#61CFFF" points="178.5,106.7 170.4,106.7 170.4,114.3 	"/>
	<rect x="229.2" y="116.5" fill="#FF1745" width="8.1" height="7.6"/>
	<polygon fill="#FF4066" points="237.2,116.5 229.2,116.5 229.2,124.1 	"/>
	<rect x="238.3" y="116.5" fill="#FF9100" width="8.1" height="7.6"/>
	<polygon fill="#FFA62E" points="246.4,116.5 238.3,116.5 238.3,124.1 	"/>
	<rect x="229.2" y="125.3" fill="#63DE17" width="8.1" height="7.6"/>
	<polygon fill="#80E340" points="237.2,125.3 229.2,125.3 229.2,132.9 	"/>
	<rect x="238.3" y="125.3" fill="#40C4FF" width="8.1" height="7.6"/>
	<polygon fill="#61CFFF" points="246.4,125.3 238.3,125.3 238.3,132.9 	"/>
	<rect x="186.6" y="101.2" fill="#FFFFFF" width="33.3" height="1.7"/>
	<rect x="186.6" y="104.9" fill="#FFFFFF" width="35.6" height="1.7"/>
	<rect x="186.6" y="108.7" fill="#FFFFFF" width="33.3" height="1.7"/>
	<rect x="186.6" y="112.4" fill="#FFFFFF" width="35.6" height="1.7"/>
	<rect x="186.6" y="116.2" fill="#FFFFFF" width="33.3" height="1.7"/>
	<rect x="186.6" y="119.9" fill="#FFFFFF" width="35.6" height="1.7"/>
	<rect x="186.6" y="123.7" fill="#FFFFFF" width="33.3" height="1.7"/>
	<rect x="186.6" y="127.4" fill="#FFFFFF" width="35.6" height="1.7"/>
	<rect x="186.6" y="131.2" fill="#FFFFFF" width="33.3" height="1.7"/>
	<rect x="186.6" y="134.9" fill="#FFFFFF" width="35.6" height="1.7"/>
	<polygon fill="#BDF2FF" points="224.7,150.1 220.4,150.1 220.5,140.6 224.9,140.6 	"/>
	<polygon fill="#FFC985" points="229.2,148.9 224.8,148.7 224.9,141.9 229.3,141.9 	"/>
	<g>
		<path fill="#FFC985" d="M249.7,143.7c0.5,4.6-4,8.9-10.1,9.6c-6.1,0.7-11.4-2.6-11.9-7.2c-0.5-4.6,4-8.9,10.1-9.6
			C243.9,135.9,249.2,139.1,249.7,143.7"/>
		<path fill="#407DB8" d="M122,71.8c5.2,4.1,3.6,29.5,3.5,50.3c-0.1,18,37.3,28,37.3,28s-48.6,6.6-48.8-22.8
			c-0.1-19.2-0.5-42.2-0.5-47.5C113.5,73.5,118.2,68.8,122,71.8"/>
		<path fill="#4082BD" d="M170.4,71.8c6.2,4,4.3,30.4,4.1,51.2c-0.1,18,46.4,17.1,46.4,17.1l-0.2,10.3c0,0-58.6,7.2-58.8-22.2
			c-0.1-19.2-0.5-42.2-0.5-47.5C161.4,74.4,166.4,69.2,170.4,71.8"/>
		<path fill="#124270" d="M142,122.1c0,0.7,0.5,1.3,1.1,1.3c0.6,0,1.1-0.6,1.1-1.3c0-0.7-0.5-1.3-1.1-1.3
			C142.5,120.8,142,121.4,142,122.1"/>
		<path fill="#124270" d="M142,139.5c0,0.7,0.5,1.3,1.1,1.3c0.6,0,1.1-0.6,1.1-1.3c0-0.7-0.5-1.3-1.1-1.3
			C142.5,138.2,142,138.8,142,139.5"/>
	</g>
	<polygon fill="#FFC985" points="137,73.5 141.5,76.4 142.5,77.7 143.5,76.3 148.5,72.8 148.5,51.9 137,51.9 	"/>
	<g>
		<path fill="#FFC985" d="M132.8,42.7c0,3.4-2.5,6.2-5.6,6.2c-3.1,0-5.6-2.8-5.6-6.2c0-3.4,2.5-6.2,5.6-6.2
			C130.3,36.5,132.8,39.3,132.8,42.7"/>
		<path fill="#3863A1" d="M117.9,79.7l3.3,101.4c0,0,19.5-2,23.1-14.8c5.1,13.9,19.9,14.8,19.9,14.8l3.3-101.4
			c0-6-5.2-10.9-11.5-10.9h-26.7C123,68.8,117.9,73.7,117.9,79.7"/>
		<path fill="#FFC985" d="M166.8,42.1c0,3.4-2.5,6.2-5.6,6.2c-3.1,0-5.6-2.8-5.6-6.2c0-3.4,2.5-6.2,5.6-6.2
			C164.3,35.9,166.8,38.7,166.8,42.1"/>
		<path fill="#FFC985" d="M125.5,38.3c0,2.8,0.3,5.6,0.9,8.1c1.3,5.8,4.1,10.7,8,13.6c2.4,1.8,5.3,2.9,8.6,2.9c3,0,5.6-0.9,7.9-2.4
			c4.3-2.9,7.4-8.2,8.7-14.4l0,0c0.6-2.5,0.8-5.1,0.8-7.8c0-13.1-3.7-23.7-17.5-23.7C128.7,14.6,125.5,25.2,125.5,38.3"/>
		<path fill="#CCBFB0" d="M148.6,67.6c0,0,0,0.1,0,0.1V68C148.6,68,148.6,67.8,148.6,67.6"/>
		<path fill="#CC9E61" d="M148.5,67.7c0,0.2,0,0.3,0,0.3c0,0,0,0,0,0V67.7z"/>
		<path fill="#754D24" d="M162.9,34.1c0,0-0.2-0.3-0.6-0.8c-0.1,2.1,0,3.5,0,3.5s-0.5,0.5-1.2,2.6c-0.7,2.2-2.5,6.7-2.5,6.7
			c-1.6,4.2-4.3,7.7-7.7,9.8c-2.3,1.4-5,2.2-7.9,2.2c-1.2,0-2.4-0.1-3.5-0.4c-1.8-0.4-3.5-1.2-5-2.2c-3.4-2.3-5.9-5.9-7.4-10.2v0
			l0,0c-0.2-0.7-0.4-1.4-0.6-2.1c-0.1-0.5-0.2-0.9-0.3-1.4c-0.4-1.3-0.9-2.6-1.1-3.2c-0.4-1-0.8-1.8-0.8-1.8s0.4-5-2.9-15.6
			C120,17.4,123.9,9,126.8,7c2.6-1.8,4.5-1.1,5.6,0.3c0,0,0.1,0,0.1-0.1c-0.1-0.8-0.2-1.3,0-1.6c0.6-1.4,2.4-3.9,8.8-4.2
			c2.3-0.1,5.1,0,8.6,0.6c13.4,2.2,15.7,14.3,15.7,18.7C165.7,26.4,162.9,34.1,162.9,34.1"/>
		<path fill="#263338" d="M179.9,216.3H111c-3.7,0-6.7-3-6.7-6.7v-5.3c0-3.7,3-6.7,6.7-6.7h68.8c3.7,0,6.7,3,6.7,6.7v5.3
			C186.6,213.3,183.6,216.3,179.9,216.3"/>
		<path fill="#263338" d="M154.7,212.8h-46.8c-7.9,0-14.3-6.5-14.3-14.4v-107c0-7.9,6.5-14.4,14.3-14.4h46.8
			c7.9,0,14.3,6.5,14.3,14.4v107C169.1,206.4,162.6,212.8,154.7,212.8"/>
		<path fill="#38474F" d="M148.9,212.8h-41.6c-7.5,0-13.7-6.2-13.7-13.8V90.9c0-7.6,6.2-13.8,13.7-13.8h41.6
			c7.5,0,13.7,6.2,13.7,13.8v108.2C162.6,206.7,156.4,212.8,148.9,212.8"/>
		<path fill="#FFA626" d="M309.5,144.7c-1.2,0.9-2.8,1.4-4.4,1.7v-12.6c2,0.2,3.8,0.4,4.6,0.9c1.6,1,2.1,2.7,2.1,4
			C311.9,141.1,310.9,143.7,309.5,144.7 M315.2,138.6c-0.2-3-1.5-5.4-3.8-6.8c-1.4-0.8-3.9-1.2-6.3-1.4v-2.9h-22.9v27.1h22.9V150
			c2.2-0.4,4.6-1.1,6.5-2.5C313.9,145.8,315.4,142.1,315.2,138.6"/>
	</g>
	<rect x="282.2" y="127.4" fill="#FFBF61" width="8.6" height="27.1"/>
	<g>
		<path fill="#BDF2FF" d="M131.2,68.8H154c0,0-1.7-4.4-10.5-4.9C137.3,63.6,131.2,68.8,131.2,68.8"/>
	</g>
	<rect x="127.8" y="216.3" width="29.6" height="5.2"/>
	<rect x="137.5" y="221.5" fill="#F2F2F2" width="11.9" height="16.6"/>
	<g>
		<path fill="#8F592E" d="M139.5,57.7c-1.8-0.4-3.5-1.2-5-2.2c-3.4-2.3-5.9-5.9-7.4-10.2v0l0,0c-0.2-0.7-0.4-1.4-0.6-2.1
			c-0.1-0.5-0.2-0.9-0.3-1.4c-0.4-1.3-0.9-2.6-1.1-3.2c-0.4-1-0.8-1.8-0.8-1.8s0.4-5-2.9-15.6C120,17.4,123.9,9,126.8,7
			c2.6-1.8,4.5-1.1,5.6,0.3c0,0,0.1,0,0.1-0.1c-0.1-0.8-0.1-1.3,0-1.6c0.6-1.4,2.4-3.9,8.8-4.2l0.7,0.5c0,0-7,7.5-6.3,11.2
			c-4.5,3.4-6.7,2.7-7.7,10.5c-1,7.7,0.7,17.3,4.8,25.3C135.8,54.7,138.3,56.9,139.5,57.7"/>
	</g>
	<rect x="64" y="96.8" transform="matrix(0.9924 0.1234 -0.1234 0.9924 14.9807 -7.1386)" fill="#546E7A" width="2.2" height="41"/>
	
		<rect x="66.7" y="94.4" transform="matrix(0.9924 0.1234 -0.1234 0.9924 12.3291 -7.6343)" fill="#FFF26E" width="2.2" height="2.6"/>
	
		<rect x="67" y="92.6" transform="matrix(0.9924 0.1234 -0.1234 0.9924 12.0629 -7.6841)" fill="#F259A3" width="2.2" height="1.8"/>
	
		<rect x="52.5" y="94" transform="matrix(0.9952 -9.787735e-002 9.787735e-002 0.9952 -10.9527 5.7996)" fill="#F57D00" width="2.2" height="41"/>
	
		<rect x="50.4" y="91.5" transform="matrix(0.9952 -9.787735e-002 9.787735e-002 0.9952 -8.8379 5.488)" fill="#FFF26E" width="2.2" height="2.6"/>
	
		<rect x="50.2" y="89.8" transform="matrix(0.9952 -9.787735e-002 9.787735e-002 0.9952 -8.6257 5.4567)" fill="#F259A3" width="2.2" height="1.8"/>
	<polygon points="61.4,134.7 54.4,133.5 57.2,117.2 64.3,118.4 	"/>
	<polygon fill="#FF4082" points="65.7,110 58.7,108.8 57.2,117.2 64.3,118.4 	"/>
	<rect x="46.9" y="125.9" fill="#D9E021" width="19.2" height="28.6"/>
	<rect x="46.9" y="125.9" fill="#EDED2E" width="4.4" height="28.6"/>
	<g>
		<path d="M167,207H185c0.1-3.2-0.1-11.1-3.5-18c-3.2-6.5-10.7-10.2-14.4-11.6V207z M188.1,210.3h-24.4v-37.6l2.1,0.6
			c0.6,0.2,13.7,4.1,18.7,14.1c4.8,9.8,3.8,20.9,3.8,21.3L188.1,210.3z"/>
	</g>
</g>
</svg>
